<svg width="24" height="24" viewBox="0 0 24 24" fill="none" xmlns="http://www.w3.org/2000/svg">
<mask id="mask0_12_215" style="mask-type:alpha" maskUnits="userSpaceOnUse" x="0" y="0" width="24" height="24">
<rect width="24" height="24" fill="#D9D9D9"/>
</mask>
<g mask="url(#mask0_12_215)">
<path d="M3.80042 22H3.00042V20H3.80042C4.60042 20 5.36292 19.9125 6.08792 19.7375C6.81292 19.5625 7.62542 19.2833 8.52542 18.9C9.15875 19.2167 9.71292 19.4792 10.1879 19.6875C10.6629 19.8958 11.2671 20 12.0004 20C12.7338 20 13.3379 19.8958 13.8129 19.6875C14.2879 19.4792 14.8421 19.2167 15.4754 18.9C16.3588 19.2833 17.1713 19.5625 17.9129 19.7375C18.6546 19.9125 19.4254 20 20.2254 20H21.0004V22H20.2254C19.4088 22 18.6129 21.925 17.8379 21.775C17.0629 21.625 16.3004 21.4 15.5504 21.1C14.8838 21.4167 14.2754 21.6417 13.7254 21.775C13.1754 21.9083 12.6004 21.975 12.0004 21.975C11.4004 21.975 10.8296 21.9083 10.2879 21.775C9.74625 21.6417 9.14209 21.4167 8.47542 21.1C7.72542 21.4 6.96292 21.625 6.18792 21.775C5.41292 21.925 4.61709 22 3.80042 22ZM12.0004 18C11.0004 18 10.1254 17.6667 9.37542 17L8.25042 16C7.80042 16.45 7.29625 16.8333 6.73792 17.15C6.17959 17.4667 5.58375 17.6917 4.95042 17.825L2.82542 11C2.74209 10.7167 2.76709 10.4583 2.90042 10.225C3.03375 9.99167 3.24209 9.83333 3.52542 9.75L5.00042 9.35V6C5.00042 5.45 5.19625 4.97917 5.58792 4.5875C5.97959 4.19583 6.45042 4 7.00042 4H9.50042V2H14.5004V4H17.0004C17.5504 4 18.0213 4.19583 18.4129 4.5875C18.8046 4.97917 19.0004 5.45 19.0004 6V9.35L20.4754 9.75C20.7588 9.83333 20.9671 9.99167 21.1004 10.225C21.2338 10.4583 21.2588 10.7167 21.1754 11L19.0504 17.825C18.4171 17.6917 17.8213 17.4667 17.2629 17.15C16.7046 16.8333 16.2004 16.45 15.7504 16L14.6254 17C13.8754 17.6667 13.0004 18 12.0004 18ZM12.0504 16C12.5671 16 13.0254 15.8292 13.4254 15.4875C13.8254 15.1458 14.1921 14.7833 14.5254 14.4L15.6754 13.075L16.7004 14.125C16.8838 14.3083 17.0713 14.4792 17.2629 14.6375C17.4546 14.7958 17.6421 14.9583 17.8254 15.125L18.9754 11.4L12.0004 9.575L5.05042 11.4L6.20042 15.125C6.38375 14.9583 6.57125 14.7958 6.76292 14.6375C6.95459 14.4792 7.14209 14.3083 7.32542 14.125L8.35042 13.075L9.50042 14.4C9.83375 14.8 10.2088 15.1667 10.6254 15.5C11.0421 15.8333 11.5171 16 12.0504 16ZM7.00042 8.825L12.0004 7.5L17.0004 8.825V6H7.00042V8.825Z" fill="white"/>
</g>
</svg>
