<svg width="24" height="24" viewBox="0 0 24 24" fill="none" xmlns="http://www.w3.org/2000/svg">
<mask id="mask0_12_212" style="mask-type:alpha" maskUnits="userSpaceOnUse" x="0" y="0" width="24" height="24">
<rect width="24" height="24" fill="#D9D9D9"/>
</mask>
<g mask="url(#mask0_12_212)">
<path d="M2 21V19C2.63333 19 3.2 18.8792 3.7 18.6375C4.2 18.3958 4.74167 18.0583 5.325 17.625C5.825 18.0417 6.37083 18.3708 6.9625 18.6125C7.55417 18.8542 8.125 18.975 8.675 18.975C9.225 18.975 9.8 18.8583 10.4 18.625C11 18.3917 11.5417 18.0583 12.025 17.625C12.5583 18.0917 13.1083 18.4333 13.675 18.65C14.2417 18.8667 14.8083 18.975 15.375 18.975C15.925 18.975 16.4625 18.8667 16.9875 18.65C17.5125 18.4333 18.0917 18.0917 18.725 17.625C19.375 18.125 19.95 18.4792 20.45 18.6875C20.95 18.8958 21.4667 19 22 19V21C21.4167 21 20.8542 20.9208 20.3125 20.7625C19.7708 20.6042 19.2417 20.375 18.725 20.075C18.1917 20.4083 17.6375 20.6458 17.0625 20.7875C16.4875 20.9292 15.925 21 15.375 21C14.825 21 14.2625 20.9292 13.6875 20.7875C13.1125 20.6458 12.5583 20.4083 12.025 20.075C11.5417 20.3917 11.0083 20.625 10.425 20.775C9.84167 20.925 9.25833 21 8.675 21C8.10833 21 7.54167 20.925 6.975 20.775C6.40833 20.625 5.85833 20.3917 5.325 20.075C4.80833 20.375 4.27083 20.6042 3.7125 20.7625C3.15417 20.9208 2.58333 21 2 21ZM2 16.5V14.5C2 12.8833 2.3125 11.375 2.9375 9.975C3.5625 8.575 4.41667 7.35833 5.5 6.325C6.58333 5.29167 7.85417 4.47917 9.3125 3.8875C10.7708 3.29583 12.3333 3 14 3C14.55 3 15.0958 3.02917 15.6375 3.0875C16.1792 3.14583 16.6667 3.225 17.1 3.325C16.75 3.85833 16.4792 4.42083 16.2875 5.0125C16.0958 5.60417 16 6.15833 16 6.675C16 7.59167 16.325 8.375 16.975 9.025C17.625 9.675 18.4083 10 19.325 10H22V12H19.325C17.8417 12 16.5833 11.4833 15.55 10.45C14.5167 9.41667 14 8.15833 14 6.675C14 6.44167 14.0167 6.19583 14.05 5.9375C14.0833 5.67917 14.1333 5.425 14.2 5.175C12.9667 5.475 11.9583 6.1125 11.175 7.0875C10.3917 8.0625 10 9.2 10 10.5C10 11.1 10.0958 11.6708 10.2875 12.2125C10.4792 12.7542 10.75 13.2667 11.1 13.75C11.2333 13.6667 11.375 13.5708 11.525 13.4625C11.675 13.3542 11.8333 13.2417 12 13.125C12.4833 13.5583 13.0417 13.8917 13.675 14.125C14.3083 14.3583 14.875 14.475 15.375 14.475C15.875 14.475 16.4333 14.3542 17.05 14.1125C17.6667 13.8708 18.225 13.5417 18.725 13.125C19.2583 13.525 19.7875 13.8542 20.3125 14.1125C20.8375 14.3708 21.4 14.5 22 14.5V16.5C21.4167 16.5 20.8542 16.4208 20.3125 16.2625C19.7708 16.1042 19.2417 15.875 18.725 15.575C18.1917 15.9083 17.65 16.1458 17.1 16.2875C16.55 16.4292 15.975 16.5 15.375 16.5C14.775 16.5 14.175 16.4167 13.575 16.25C12.975 16.0833 12.4583 15.8583 12.025 15.575C11.5083 15.8917 10.9667 16.1208 10.4 16.2625C9.83333 16.4042 9.25833 16.4833 8.675 16.5C8.09167 16.5167 7.51667 16.4417 6.95 16.275C6.38333 16.1083 5.84167 15.875 5.325 15.575C4.80833 15.875 4.27083 16.1042 3.7125 16.2625C3.15417 16.4208 2.58333 16.5 2 16.5ZM8.625 14.475H8.875C8.95833 14.475 9.04167 14.4667 9.125 14.45C8.75833 13.8667 8.47917 13.2417 8.2875 12.575C8.09583 11.9083 8 11.2167 8 10.5C8 9.15 8.30833 7.92917 8.925 6.8375C9.54167 5.74583 10.4 4.85 11.5 4.15V5.25C10.4667 5.51667 9.5125 5.92083 8.6375 6.4625C7.7625 7.00417 6.99583 7.65833 6.3375 8.425C5.67917 9.19167 5.15 10.0458 4.75 10.9875C4.35 11.9292 4.10833 12.9333 4.025 14C4.275 13.85 4.49167 13.7167 4.675 13.6C4.85833 13.4833 5.075 13.325 5.325 13.125C5.94167 13.575 6.5 13.9125 7 14.1375C7.5 14.3625 8.04167 14.475 8.625 14.475Z" fill="white"/>
</g>
</svg>
