<svg width="161" height="53" viewBox="0 0 161 53" fill="none" xmlns="http://www.w3.org/2000/svg">
<g clip-path="url(#clip0_23_1106)">
<path d="M9.44965 26.2453H13.1129V16.5547H0.586914V19.8206H9.44965V26.2453Z" fill="#009FE3"/>
<path d="M47.0968 40.3C45.9967 39.9099 45.7882 39.6498 45.7882 39.2024C45.7882 38.755 46.1047 38.3993 46.8575 38.3993C47.4095 38.3993 47.7762 38.5791 48.1776 38.9079L48.5713 38.4299C48.1081 38.0628 47.6372 37.8486 46.8961 37.8486C45.8693 37.8486 45.1745 38.3687 45.1745 39.2407C45.1745 40.0284 45.5759 40.4109 46.7648 40.8315C47.7723 41.191 48.0772 41.4778 48.0772 41.9826C48.0772 42.5601 47.6218 42.9196 46.8922 42.9196C46.3248 42.9196 45.8461 42.6595 45.4292 42.2656L45.0239 42.7169C45.4563 43.1528 46.124 43.4741 46.8729 43.4741C48.0193 43.4741 48.6949 42.8087 48.6949 41.9559C48.6949 41.1031 48.3204 40.7397 47.1006 40.3038L47.0968 40.3Z" fill="white"/>
<path d="M51.1885 39.2137C50.652 39.2137 50.1656 39.3437 49.8027 39.5388L50.0266 40.013C50.3625 39.8179 50.7176 39.6994 51.1499 39.6994C51.7521 39.6994 52.0454 39.9938 52.0454 40.6057V41.0876C51.8023 40.9537 51.4278 40.8505 51.0148 40.8505C50.2003 40.8505 49.436 41.2405 49.436 42.1584C49.436 43.145 50.1115 43.4662 50.7523 43.4662C51.3468 43.4662 51.7521 43.1909 52.0454 42.8811V43.3821H52.6322V40.5292C52.6322 39.5808 52.0763 39.2061 51.1885 39.2061V39.2137ZM52.0416 42.384C51.7907 42.7243 51.3892 42.9959 50.8565 42.9959C50.3509 42.9959 50.0112 42.732 50.0112 42.1239C50.0112 41.6115 50.374 41.3209 50.9801 41.3209C51.4819 41.3209 51.7714 41.4126 52.0416 41.558V42.3878V42.384Z" fill="white"/>
<path d="M58.5534 40.9921V43.3861H59.1401V40.8965C59.1401 39.7034 58.6152 39.2139 57.7737 39.2139C57.102 39.2139 56.7662 39.5236 56.523 39.9137C56.3261 39.5236 55.9749 39.2139 55.392 39.2139C54.9056 39.2139 54.5582 39.4471 54.3459 39.799V39.3018H53.7515V43.3899H54.3459V40.996C54.3459 40.0896 54.6972 39.7187 55.2646 39.7187C55.832 39.7187 56.1524 40.059 56.1524 40.996V43.3899H56.743V40.996C56.743 40.0896 57.102 39.7187 57.6617 39.7187C58.2562 39.7187 58.5495 40.059 58.5495 40.996L58.5534 40.9921Z" fill="white"/>
<path d="M61.5063 41.0074C60.8077 40.6938 60.5992 40.5599 60.5992 40.2119C60.5992 39.9136 60.8463 39.7071 61.2825 39.7071C61.7187 39.7071 61.9889 39.8218 62.3092 40.0742L62.6374 39.6421C62.3247 39.3859 61.8846 39.21 61.3211 39.21C60.5683 39.21 60.0318 39.6306 60.0318 40.2502C60.0318 40.9041 60.3753 41.1527 61.2053 41.5045C61.9348 41.8143 62.178 42.0016 62.178 42.3382C62.178 42.7359 61.9117 42.9692 61.3442 42.9692C60.9351 42.9692 60.549 42.8047 60.2209 42.5179L59.8735 42.9424C60.2673 43.256 60.7614 43.4663 61.3288 43.4663C62.0429 43.4663 62.7416 43.1183 62.7416 42.3114C62.7416 41.581 62.2861 41.3554 61.5025 41.0035L61.5063 41.0074Z" fill="white"/>
<path d="M66.1849 41.688C66.1849 42.5829 65.7333 42.9615 65.1659 42.9615C64.5019 42.9615 64.1893 42.5676 64.1893 41.688V39.2979H63.6025V41.7874C63.6025 42.9615 64.1777 43.4701 65.0462 43.4701C65.5673 43.4701 65.9495 43.2292 66.1849 42.885V43.386H66.7755V39.2979H66.1849V41.688Z" fill="white"/>
<path d="M70.9444 43.3861V40.8965C70.9444 39.7187 70.3693 39.2139 69.4969 39.2139C68.9796 39.2139 68.5936 39.4548 68.362 39.799V39.3018H67.7676V43.3899H68.362V40.996C68.362 40.1011 68.8059 39.7187 69.3772 39.7187C70.0373 39.7187 70.3538 40.1164 70.3538 40.996V43.3899H70.9444V43.3861Z" fill="white"/>
<path d="M72.8011 44.4415L72.9902 44.8851C74.5227 44.8392 75.0785 44.2465 75.0785 43.0151V39.2941H74.488V39.753C74.1985 39.4241 73.8433 39.21 73.3261 39.21C72.4614 39.21 71.7666 39.9557 71.7666 41.4051C71.7666 42.8545 72.4228 43.4663 73.245 43.4663C73.8047 43.4663 74.1985 43.191 74.488 42.8812V43.0916C74.488 44.0438 74.1753 44.4033 72.7972 44.4377L72.8011 44.4415ZM73.3994 42.9615C72.7471 42.9615 72.3533 42.4261 72.3533 41.3974C72.3533 40.2999 72.6892 39.7148 73.3763 39.7148C73.8665 39.7148 74.2641 39.9863 74.4918 40.3266V42.3726C74.2023 42.7321 73.8395 42.9615 73.3994 42.9615Z" fill="white"/>
<path d="M81.5864 40.6211C81.5864 38.751 80.521 37.9326 79.0773 37.9326H77.6221V43.386H78.9692C80.4399 43.386 81.5864 42.5982 81.5864 40.6211ZM78.2358 38.4833H79.031C80.2971 38.4833 80.9726 39.2481 80.9726 40.6402C80.9726 42.2081 80.2315 42.8315 79.0464 42.8315H78.2358V38.4833Z" fill="white"/>
<path d="M83.1575 39.8029V39.2981H82.5669V43.3862H83.1575V40.9846C83.1575 40.2044 83.4817 39.7493 84.0569 39.7493C84.331 39.7493 84.5085 39.8105 84.6745 39.9061L84.8212 39.3172C84.6822 39.256 84.4854 39.2178 84.1766 39.2178C83.7326 39.2178 83.3428 39.4816 83.1575 39.8067V39.8029Z" fill="white"/>
<path d="M88.3494 42.9961L88.0715 42.5754C87.6932 42.824 87.4114 42.9655 86.9289 42.9655C86.2573 42.9655 85.8365 42.411 85.7825 41.5429H88.5309C88.5502 41.4473 88.5579 41.3632 88.5579 41.2255C88.5579 40.0591 87.9712 39.2178 86.8942 39.2178C85.9137 39.2178 85.1919 40.0247 85.1919 41.3211C85.1919 42.9311 86.1106 43.4741 86.8672 43.4741C87.4886 43.4741 87.8515 43.3097 88.3494 42.9999V42.9961ZM86.8942 39.7187C87.616 39.7187 87.9634 40.2733 88.0098 41.0649H85.7825C85.852 40.1509 86.2804 39.7187 86.8942 39.7187Z" fill="white"/>
<path d="M90.5266 43.4702C91.1172 43.4702 91.5225 43.1948 91.812 42.885V43.386H92.4026V40.5331C92.4026 39.5847 91.8467 39.21 90.9589 39.21C90.4224 39.21 89.936 39.34 89.5732 39.535L89.7932 40.0092C90.1329 39.8142 90.4841 39.6956 90.9165 39.6956C91.5225 39.6956 91.812 39.9901 91.812 40.602V41.0838C91.5688 40.95 91.1983 40.8467 90.7852 40.8467C89.9669 40.8467 89.1987 41.2368 89.1987 42.1546C89.1987 43.1413 89.8781 43.4625 90.5227 43.4625L90.5266 43.4702ZM90.7543 41.3171C91.2562 41.3171 91.5495 41.4089 91.8159 41.5542V42.3841C91.565 42.7244 91.1635 42.9959 90.6308 42.9959C90.129 42.9959 89.7855 42.7321 89.7855 42.124C89.7855 41.6116 90.1522 41.3209 90.7543 41.3209V41.3171Z" fill="white"/>
<path d="M98.3241 40.9921V43.3861H98.9147V40.8965C98.9147 39.7034 98.3897 39.2139 97.5482 39.2139C96.8804 39.2139 96.5407 39.5236 96.3014 39.9137C96.1045 39.5236 95.7533 39.2139 95.1704 39.2139C94.6802 39.2139 94.3366 39.4471 94.1243 39.799V39.3018H93.5376V43.3899H94.1243V40.996C94.1243 40.0896 94.4795 39.7187 95.0469 39.7187C95.6143 39.7187 95.9386 40.059 95.9386 40.996V43.3899H96.5253V40.996C96.5253 40.0896 96.8843 39.7187 97.4479 39.7187C98.0423 39.7187 98.3357 40.059 98.3357 40.996L98.3241 40.9921Z" fill="white"/>
<path d="M47.0968 48.4114C45.9928 48.0213 45.7921 47.7651 45.7921 47.3138C45.7921 46.8626 46.1086 46.5146 46.8613 46.5146C47.4133 46.5146 47.7839 46.6905 48.1815 47.0194L48.5752 46.5451C48.112 46.1818 47.6372 45.9639 46.8999 45.9639C45.8693 45.9639 45.1783 46.4763 45.1783 47.3559C45.1783 48.1437 45.5798 48.5223 46.7687 48.9429C47.7762 49.3062 48.0811 49.5892 48.0811 50.0979C48.0811 50.6715 47.6256 51.031 46.8922 51.031C46.3248 51.031 45.8461 50.7709 45.4292 50.377L45.0239 50.8283C45.4563 51.2643 46.124 51.5817 46.8729 51.5817C48.0193 51.5817 48.691 50.9201 48.691 50.0634C48.691 49.2068 48.3166 48.8473 47.1006 48.4114H47.0968Z" fill="white"/>
<path d="M51.196 47.8299C51.6129 47.8299 51.8869 47.9752 52.1842 48.2429L52.5393 47.807C52.215 47.524 51.7866 47.3213 51.2346 47.3213C50.3699 47.3213 49.4551 47.9599 49.4551 49.4705C49.4551 50.8969 50.285 51.5777 51.1921 51.5777C51.7711 51.5777 52.1726 51.3597 52.52 51.0078L52.1649 50.6369C51.8831 50.9084 51.6167 51.069 51.2153 51.069C50.4857 51.069 50.0495 50.4227 50.0495 49.417C50.0495 48.4112 50.5475 47.8223 51.1921 47.8223L51.196 47.8299Z" fill="white"/>
<path d="M55.0604 47.3249C54.5431 47.3249 54.1532 47.5658 53.9178 47.91V45.9902H53.3311V51.5048H53.9178V49.1108C53.9178 48.2159 54.3694 47.8335 54.9407 47.8335C55.6046 47.8335 55.9173 48.2274 55.9173 49.1108V51.5048H56.5079V49.0075C56.5079 47.8335 55.9327 47.3249 55.0604 47.3249Z" fill="white"/>
<path d="M59.1401 47.3252C58.1364 47.3252 57.3374 48.0709 57.3374 49.4591C57.3374 50.8473 58.1056 51.5854 59.1092 51.5854C60.1128 51.5854 60.9196 50.8167 60.9196 49.4285C60.9196 48.0403 60.1437 47.3252 59.1401 47.3252ZM59.1285 51.0768C58.4105 51.0768 57.928 50.5184 57.928 49.4438C57.928 48.3692 58.4105 47.8338 59.1285 47.8338C59.8465 47.8338 60.329 48.3692 60.329 49.4438C60.329 50.5184 59.8426 51.0768 59.1285 51.0768Z" fill="white"/>
<path d="M62.3982 45.9863H61.8076V51.5009H62.3982V45.9863Z" fill="white"/>
<path d="M65.0963 47.3252C64.5597 47.3252 64.0733 47.459 63.7144 47.6541L63.9344 48.1321C64.2741 47.9371 64.6292 47.8185 65.0615 47.8185C65.6637 47.8185 65.9571 48.1168 65.9571 48.721V49.2067C65.7139 49.0729 65.3433 48.9696 64.9303 48.9696C64.112 48.9696 63.3477 49.3597 63.3477 50.2813C63.3477 51.268 64.0232 51.5854 64.6678 51.5854C65.2584 51.5854 65.6637 51.3139 65.9571 51.0041V51.5051H66.5477V48.656C66.5477 47.7 65.9879 47.329 65.1001 47.329L65.0963 47.3252ZM65.9532 50.4955C65.7062 50.832 65.297 51.1074 64.7682 51.1074C64.2664 51.1074 63.9267 50.8435 63.9267 50.2354C63.9267 49.7192 64.2895 49.4362 64.8955 49.4362C65.3974 49.4362 65.6869 49.5203 65.9532 49.6695V50.4955Z" fill="white"/>
<path d="M68.2576 47.9178V47.4053H67.667V51.4973H68.2576V49.0957C68.2576 48.3193 68.5741 47.8566 69.1531 47.8566C69.431 47.8566 69.6086 47.9178 69.7746 48.0134L69.9251 47.4206C69.7823 47.3594 69.5893 47.3174 69.2805 47.3174C68.8405 47.3174 68.4429 47.5813 68.2614 47.914L68.2576 47.9178Z" fill="white"/>
<path d="M72.1875 49.1226C71.4888 48.809 71.2765 48.6675 71.2765 48.3271C71.2765 48.0327 71.5274 47.8223 71.9597 47.8223C72.392 47.8223 72.67 47.9409 72.9903 48.1895L73.3185 47.7612C73.0019 47.5049 72.5657 47.3252 71.9983 47.3252C71.2495 47.3252 70.7052 47.7459 70.7052 48.3692C70.7052 48.9926 71.0526 49.2717 71.8786 49.6197C72.6082 49.9295 72.8514 50.1207 72.8514 50.4534C72.8514 50.855 72.585 51.0844 72.0215 51.0844C71.6084 51.0844 71.2263 50.92 70.8943 50.6332L70.5508 51.0615C70.9445 51.3751 71.4386 51.5816 72.006 51.5816C72.7201 51.5816 73.4188 51.2297 73.4188 50.4305C73.4188 49.6962 72.9633 49.4744 72.1836 49.1226H72.1875Z" fill="white"/>
<path d="M76.1131 47.3249C75.5881 47.3249 75.2059 47.5658 74.9705 47.91V45.9902H74.3799V51.5048H74.9705V49.1108C74.9705 48.2159 75.4182 47.8335 75.9934 47.8335C76.6535 47.8335 76.9661 48.2274 76.9661 49.1108V51.5048H77.5567V49.0075C77.5567 47.8335 76.9854 47.3249 76.1131 47.3249Z" fill="white"/>
<path d="M79.3094 47.4053H78.7227V51.4972H79.3094V47.4053Z" fill="white"/>
<path d="M79.0276 45.8447C78.7883 45.8447 78.5991 46.0321 78.5991 46.2692C78.5991 46.5063 78.7883 46.6822 79.0276 46.6822C79.2476 46.6822 79.4368 46.491 79.4368 46.2692C79.4368 46.0321 79.2476 45.8447 79.0276 45.8447Z" fill="white"/>
<path d="M82.3316 47.3252C81.7757 47.3252 81.382 47.6005 81.0886 47.9103V47.4093H80.498V53.0042H81.0886V51.0423C81.3782 51.3674 81.7333 51.5854 82.2544 51.5854C83.1152 51.5854 83.81 50.8358 83.81 49.3903C83.81 47.9447 83.1538 47.3252 82.3316 47.3252ZM82.2042 51.0768C81.7178 51.0768 81.3164 50.8052 81.0886 50.4611V48.4189C81.3782 48.0633 81.741 47.83 82.181 47.83C82.8373 47.83 83.231 48.3654 83.231 49.3941C83.231 50.4917 82.8913 51.0729 82.2081 51.0729L82.2042 51.0768Z" fill="white"/>
<path d="M86.9326 46.5985H89.5497V46.0479H86.3188V51.5012H86.9326V48.9581H88.4419V48.4074H86.9326V46.5985Z" fill="white"/>
<path d="M91.3412 47.3252C90.3376 47.3252 89.5347 48.0709 89.5347 49.4591C89.5347 50.8473 90.3067 51.5854 91.3103 51.5854C92.3139 51.5854 93.1207 50.8167 93.1207 49.4285C93.1207 48.0403 92.3525 47.3252 91.3412 47.3252ZM91.3296 51.0768C90.6116 51.0768 90.1368 50.5184 90.1368 49.4438C90.1368 48.3692 90.6155 47.8338 91.3296 47.8338C92.0437 47.8338 92.534 48.3692 92.534 49.4438C92.534 50.5184 92.0476 51.0768 91.3296 51.0768Z" fill="white"/>
<path d="M96.3744 49.7992C96.3744 50.6941 95.9305 51.0765 95.3553 51.0765C94.6953 51.0765 94.3787 50.6826 94.3787 49.7992V47.4053H93.792V49.8987C93.792 51.0727 94.3671 51.5813 95.2395 51.5813C95.7529 51.5813 96.1389 51.3442 96.3744 51.0001V51.501H96.9688V47.4091H96.3744V49.8031V49.7992Z" fill="white"/>
<path d="M99.6863 47.3251C99.1691 47.3251 98.7831 47.566 98.5476 47.9102V47.4092H97.957V51.5012H98.5476V49.1072C98.5476 48.2123 98.9954 47.8299 99.5705 47.8299C100.231 47.8299 100.543 48.2238 100.543 49.1072V51.5012H101.134V49.004C101.134 47.8299 100.559 47.3213 99.6863 47.3213V47.3251Z" fill="white"/>
<path d="M104.681 47.8717C104.388 47.5428 104.037 47.321 103.516 47.321C102.651 47.321 101.96 48.0667 101.96 49.5199C101.96 50.9731 102.612 51.5812 103.438 51.5812C103.998 51.5812 104.388 51.3097 104.677 50.9999V51.5009H105.268V45.9863H104.677V47.8717H104.681ZM104.681 50.4874C104.388 50.8431 104.029 51.0764 103.589 51.0764C102.937 51.0764 102.543 50.541 102.543 49.5123C102.543 48.4109 102.879 47.8296 103.566 47.8296C104.052 47.8296 104.45 48.1011 104.681 48.4453V50.4836V50.4874Z" fill="white"/>
<path d="M107.77 47.3252C107.237 47.3252 106.75 47.459 106.388 47.6541L106.604 48.1321C106.943 47.9371 107.299 47.8185 107.731 47.8185C108.333 47.8185 108.623 48.1168 108.623 48.721V49.2067C108.379 49.0729 108.009 48.9696 107.592 48.9696C106.777 48.9696 106.013 49.3597 106.013 50.2813C106.013 51.268 106.693 51.5854 107.337 51.5854C107.928 51.5854 108.333 51.3139 108.623 51.0041V51.5051H109.213V48.656C109.213 47.7 108.657 47.329 107.766 47.329L107.77 47.3252ZM108.626 50.4955C108.376 50.832 107.978 51.1074 107.438 51.1074C106.94 51.1074 106.604 50.8435 106.604 50.2354C106.604 49.7192 106.963 49.4362 107.569 49.4362C108.071 49.4362 108.364 49.5203 108.626 49.6695V50.4955Z" fill="white"/>
<path d="M111.097 45.9863H110.503V47.4051H109.993V47.8984H110.503V50.6557C110.503 51.3326 110.781 51.5774 111.294 51.5774C111.603 51.5774 111.823 51.5315 112.051 51.4397L112.093 50.9349C111.904 51.0114 111.749 51.0496 111.51 51.0496C111.198 51.0496 111.097 50.9234 111.097 50.5601V47.8984H112.12V47.4051H111.097V45.9863Z" fill="white"/>
<path d="M113.459 45.8447C113.216 45.8447 113.023 46.0321 113.023 46.2692C113.023 46.5063 113.216 46.6822 113.459 46.6822C113.679 46.6822 113.864 46.491 113.864 46.2692C113.864 46.0321 113.675 45.8447 113.459 45.8447Z" fill="white"/>
<path d="M113.741 47.4053H113.15V51.4972H113.741V47.4053Z" fill="white"/>
<path d="M116.435 47.3252C115.432 47.3252 114.629 48.0709 114.629 49.4591C114.629 50.8473 115.397 51.5854 116.405 51.5854C117.412 51.5854 118.211 50.8167 118.211 49.4285C118.211 48.0403 117.439 47.3252 116.435 47.3252ZM116.42 51.0768C115.706 51.0768 115.223 50.5184 115.223 49.4438C115.223 48.3692 115.706 47.8338 116.42 47.8338C117.134 47.8338 117.624 48.3692 117.624 49.4438C117.624 50.5184 117.138 51.0768 116.42 51.0768Z" fill="white"/>
<path d="M120.793 47.3251C120.276 47.3251 119.89 47.566 119.651 47.9102V47.4092H119.06V51.5012H119.651V49.1072C119.651 48.2123 120.098 47.8299 120.674 47.8299C121.334 47.8299 121.65 48.2238 121.65 49.1072V51.5012H122.237V49.004C122.237 47.8299 121.662 47.3213 120.793 47.3213V47.3251Z" fill="white"/>
<path d="M67.733 27.1982C65.3629 27.2021 63.4097 29.0377 63.4097 31.3399C63.4097 33.6421 65.3629 35.4586 67.733 35.4662C70.1262 35.4586 72.0601 33.6191 72.0601 31.3399C72.0601 29.0606 70.1262 27.2021 67.733 27.1982ZM67.6751 33.5771C66.436 33.5771 65.5018 32.5751 65.5018 31.3399C65.5018 30.1047 66.5016 29.0836 67.7368 29.0836C68.972 29.0836 69.9371 30.0855 69.9371 31.3399C69.9371 32.5942 68.9257 33.5771 67.6789 33.5771H67.6751Z" fill="white"/>
<path d="M47.8956 24.3489C48.5557 24.9952 49.3123 25.5611 50.0573 25.9244L50.1345 25.9665L51.4122 24.4712L51.2886 24.4024C50.0766 23.7523 49.127 22.9301 48.5055 21.8937C47.8879 20.8726 47.5714 19.6871 47.5714 18.2683V16.9375H45.2862V18.1268C45.2862 19.6642 44.9349 20.8726 44.2749 21.9319C43.5376 23.106 42.4452 24.0506 41.0478 24.9263L40.9243 25.0028L42.3101 26.4254L42.3873 26.3833C43.2133 25.9397 44.0896 25.2552 44.85 24.4904C45.5101 23.8211 46.0814 23.106 46.4288 22.4291C46.7646 23.0945 47.278 23.7714 47.8956 24.3527V24.3489Z" fill="white"/>
<path d="M45.4214 34.4871H54.9867V28.0127H45.4214V34.4871ZM47.5715 29.8407H52.8366V32.6591H47.5715V29.8407Z" fill="white"/>
<path d="M77.3135 34.4871H88.1294V28.0127H77.3135V34.4871ZM79.4404 29.8407H86.0064V32.6591H79.4404V29.8407Z" fill="white"/>
<path d="M55.0253 16.5547H52.8984V27.2702H55.0253V22.5281H57.5151V20.6237H55.0253V16.5547Z" fill="white"/>
<path d="M99.1229 24.8955C99.8215 25.4959 100.621 26.0007 101.373 26.3257L101.45 26.3601L102.601 24.819L102.477 24.7578C101.381 24.2033 100.404 23.5149 99.7019 22.6736C98.9878 21.817 98.5632 20.7844 98.5632 19.5415V19.1782H101.728V17.335H93.1359V19.1782H96.2973V19.6219C96.2973 20.7538 95.919 21.8093 95.2898 22.7233C94.5525 23.8209 93.4756 24.7043 92.4295 25.2779L92.2905 25.3505L93.7033 26.7999L93.7805 26.7617C94.541 26.3334 95.3825 25.6871 96.1004 24.9605C96.6756 24.3639 97.1928 23.7329 97.5094 23.1019C97.8915 23.7138 98.4782 24.3257 99.1267 24.8955H99.1229Z" fill="white"/>
<path d="M114.505 29.8827H122.237V34.4832H124.383V28.0547H114.505V29.8827Z" fill="white"/>
<path d="M119.84 22.5132C119.84 21.4997 119.381 20.5666 118.701 19.8553H120.825V18.0312H116.771V16.0234H114.467V18.0312H110.317V19.8553H112.487C111.823 20.5666 111.363 21.4921 111.363 22.5132C111.363 24.7733 113.243 26.6089 115.594 26.6166C117.945 26.6089 119.836 24.7733 119.84 22.5132ZM113.413 22.429C113.413 21.1785 114.479 20.1192 115.594 20.1192C116.71 20.1192 117.771 21.1823 117.775 22.429C117.775 23.6604 116.71 24.7236 115.594 24.7274C114.475 24.7236 113.417 23.6604 113.413 22.429Z" fill="white"/>
<path d="M124.383 16.5547H122.26V27.3084H124.383V23.205H126.881V21.3006H124.383V16.5547Z" fill="white"/>
<path d="M106.368 16.5547H104.245V27.3084H106.368V22.5281H108.862V20.6237H106.368V16.5547Z" fill="white"/>
<path d="M70.3306 19.7441H66.9878V21.6294H70.3306V27.6488H72.4575V16.5547H70.3306V19.7441Z" fill="white"/>
<path d="M64.9306 24.628C65.5945 25.2705 66.3704 25.8365 67.1115 26.2189L67.1926 26.2648L68.4703 24.7695L68.3467 24.7007C67.1347 24.0697 66.2044 23.2513 65.5791 22.2302C64.946 21.2168 64.6295 19.9854 64.6295 18.5666V16.9375H62.3404V18.4289C62.3404 19.9663 61.993 21.1709 61.3484 22.2111C60.615 23.4043 59.4994 24.3565 58.1021 25.2246L57.9824 25.3011L59.3759 26.7275L59.4454 26.6816C60.2676 26.2342 61.1245 25.5879 61.885 24.8498C62.5721 24.1729 63.1433 23.4349 63.4907 22.7274C63.8189 23.3737 64.3207 24.0314 64.9306 24.6319V24.628Z" fill="white"/>
<path d="M101.81 27.1982C99.4395 27.2021 97.4863 29.0377 97.4824 31.3399C97.4863 33.6191 99.4356 35.4586 101.81 35.4662C104.199 35.4586 106.137 33.6191 106.137 31.3399C106.137 29.0606 104.199 27.2021 101.81 27.1982ZM101.748 33.5771C100.513 33.5771 99.5707 32.5751 99.5707 31.3399C99.5707 30.1047 100.567 29.0836 101.81 29.0836C103.053 29.0836 104.006 30.0855 104.01 31.3399C104.01 32.5713 102.995 33.5771 101.748 33.5771Z" fill="white"/>
<path d="M79.9036 22.701H82.0305V17.2285H76.2905V19.0488H79.9036V22.701Z" fill="white"/>
<path d="M86.2884 22.701H88.4191V17.2285H82.6792V19.0488H86.2884V22.701Z" fill="white"/>
<path d="M140.503 21.4H138.716V16.853H136.705V34.0238H138.716V23.4651H140.503V34.4827H142.587V16.5547H140.503V21.4Z" fill="white"/>
<path d="M133.756 23.7757C133.277 22.7393 133.08 21.5805 133.08 20.1579V19.481H135.493V17.5498H128.483V19.481H130.972V20.1962C130.972 21.5423 130.795 22.6437 130.366 23.6647C129.868 24.8388 129.031 25.8943 127.695 27.0262L127.603 27.1104L128.923 28.4068L129.004 28.3456C129.668 27.8599 130.362 27.1563 130.942 26.4297C131.432 25.8178 131.845 25.183 132.103 24.6246C132.37 25.1677 132.787 25.791 133.273 26.3723C133.837 27.053 134.473 27.6993 135.083 28.0856L135.164 28.1391L136.276 26.8236L136.187 26.7433C134.991 25.7107 134.25 24.7891 133.763 23.7718L133.756 23.7757Z" fill="white"/>
<path d="M74.5112 25.2478H81.5713V27.29H83.8758V25.2478H91.0478V23.416H74.5112V25.2478Z" fill="white"/>
<path d="M154.696 24.6622H147.509V19.2433H152.982V17.335H145.355V26.5131H154.696V24.6622Z" fill="white"/>
<path d="M150.632 28.7695H148.482V34.4829H158.537V32.6014H150.632V28.7695Z" fill="white"/>
<path d="M158.487 21.5185V16.5508H156.364V29.7788H158.487V23.4229H161V21.5185H158.487Z" fill="white"/>
<path d="M45.0897 11.0214L39.5814 8.76131L45.0897 6.50119L44.1092 4.16459L38.6048 6.42471L40.8861 0.96753L38.5237 0L36.2463 5.45718L33.965 0L31.6026 0.96753L33.8839 6.42471L28.3794 4.16459L27.4028 6.50119L32.9073 8.76131L27.4028 11.0214L28.3794 13.358L33.8839 11.0979L31.6026 16.5551L33.965 17.5226L36.2463 12.0693L38.5237 17.5226L40.8861 16.5513L38.6048 11.0979L44.1092 13.358L45.0897 11.0214Z" fill="#009FE3"/>
<path d="M23.7397 26.2453H27.4029V16.5547H14.877V19.8206H23.7397V26.2453Z" fill="#009FE3"/>
<path d="M0 31.2591H23.7395V36.2497H27.4027V27.9932H0V31.2591Z" fill="#009FE3"/>
<path d="M8.86279 51.5009H27.4027V37.9287H8.86279V51.5009ZM12.5221 41.1984H23.7395V48.2388H12.5221V41.1984Z" fill="#009FE3"/>
</g>
<defs>
<clipPath id="clip0_23_1106">
<rect width="161" height="53" fill="white"/>
</clipPath>
</defs>
</svg>
