<svg width="450" height="450" viewBox="0 0 450 450" fill="none" xmlns="http://www.w3.org/2000/svg">
<path d="M244.967 439.602L244.895 431.839L247.764 431.59L249.032 439.249L244.967 439.602ZM238.81 440.136L238.738 432.373L241.608 432.124L242.875 439.783L238.81 440.136ZM223.509 419.179L233.228 418.998L233.619 439.994L223.9 440.175L223.509 419.179ZM189.859 437.348L190.309 432.509L200.256 433.433L201.749 417.362L211.427 418.261L209.935 434.332L219.882 435.256L219.432 440.095L189.859 437.348ZM181.516 436.292L183.578 428.808L186.405 429.356L185.521 437.068L181.516 436.292ZM168.627 426.233C169.185 423.58 149.619 419.243 151.744 411.454C153.473 404.861 160.876 407.12 168.337 409.396C175.769 411.663 182.715 414.597 180.807 420.852L171.51 418.016C172.166 415.864 169.772 414.664 167.104 413.85C164.435 413.036 161.594 412.169 161.206 414.058C160.677 416.719 180.319 420.704 178.159 428.607C176.483 435.028 169.186 433.241 161.754 430.974C154.294 428.698 147.597 425.871 149.514 419.587L158.582 422.353C157.925 424.505 160.319 425.706 162.988 426.52C165.628 427.325 168.239 428.122 168.627 426.233ZM122.561 406.413L130.209 394.141L135.428 397.394L124.321 415.216L114.544 409.123L111.092 389.932L103.443 402.204L98.2497 398.967L109.357 381.145L119.134 387.238L122.561 406.413ZM95.7065 368.234C102.443 374.292 105.881 381.056 100.164 387.413C94.4463 393.771 87.3566 391.066 80.6203 385.007C73.884 378.949 70.4455 372.184 76.163 365.827C81.8805 359.47 88.9702 362.175 95.7065 368.234ZM84.0508 381.193C86.9282 383.781 90.1683 383.992 92.9368 380.914C95.7052 377.835 95.1534 374.636 92.276 372.048C89.3985 369.46 86.1808 369.269 83.4123 372.347C80.6438 375.426 81.1734 378.605 84.0508 381.193ZM47.5252 347.236L51.3208 344.201L57.5599 352.003L70.1652 341.923L76.2357 349.514L63.6305 359.594L69.8696 367.397L66.074 370.432L47.5252 347.236ZM43.9852 311.587L50.0581 308.853L54.0485 317.716L34.8998 326.337L25.0715 304.508C23.4088 300.815 25.1603 297.032 28.8259 295.382C32.4916 293.732 36.4846 294.928 38.1473 298.621L43.9852 311.587ZM35.3409 315.479L39.5536 313.582L35.8218 305.294C35.2676 304.063 34.0474 303.691 32.8164 304.245C31.5854 304.799 31.0549 305.959 31.6091 307.19L35.3409 315.479ZM33.7449 261.119L40.7043 287.362L20.4059 292.745L13.4465 266.502L17.9122 265.318L22.38 282.166L25.8307 281.251L21.7551 265.882L26.1597 265.521L30.0354 280.136L33.2541 279.282L28.7863 262.434L33.7449 261.119ZM25.724 249.157L32.354 248.525L33.2757 258.202L12.3703 260.193L10.1003 236.361C9.71628 232.329 12.5932 229.312 16.5951 228.931C19.9997 228.607 22.9691 230.675 24.0472 233.766L30.3856 227.859L31.31 237.565L25.1636 243.273L25.724 249.157ZM16.2867 250.056L20.8859 249.618L20.0468 240.807C19.9188 239.464 18.8607 238.479 17.5168 238.607C16.1728 238.735 15.2968 239.663 15.4248 241.007L16.2867 250.056ZM23.8731 214.767L31.0279 215.233L30.3951 224.933L9.43968 223.566L11.2072 196.473L16.0569 196.79L14.9221 214.183L19.2629 214.466L20.3137 198.36L24.875 199.409L23.8731 214.767ZM38.4585 168.936L32.5931 195.445L12.089 190.908L17.9544 164.399L22.4653 165.397L18.6998 182.416L22.1855 183.187L25.6204 167.662L29.6992 169.364L26.4328 184.127L29.6841 184.846L33.4496 167.828L38.4585 168.936ZM45.7088 152.588C42.3357 160.996 37.1659 166.551 29.2306 163.368C21.2953 160.184 21.3976 152.597 24.7707 144.188C27.8647 136.476 32.3207 131.572 39.1655 133.284L35.5131 142.389C32.8172 142.018 30.6154 143.398 29.4314 146.349C27.9905 149.941 29.0072 152.805 32.8495 154.347C36.6919 155.888 39.4063 154.52 40.8471 150.928C42.0311 147.977 41.3929 145.458 39.1884 143.863L42.8408 134.758C48.9709 138.252 48.8028 144.875 45.7088 152.588ZM48.5173 100.623L52.6826 103.127L47.5357 111.689L61.3688 120.005L56.361 128.335L42.5279 120.02L37.381 128.582L33.2157 126.078L48.5173 100.623ZM71.0644 105.571L66.3204 111.95L61.6021 108.441L66.3461 102.062L71.0644 105.571Z" fill="#A70007"/>
<path d="M90.9195 83.7106L84.0371 90.5743L69.2081 75.7048L76.0906 68.8411L90.9195 83.7106ZM102.594 47.2947L105.623 51.0956L97.8104 57.3213L107.869 69.9438L100.267 76.0013L90.2087 63.3788L82.3959 69.6046L79.3671 65.8037L102.594 47.2947ZM109.365 42.268L113.057 49.0974L110.637 50.6586L105.937 44.4797L109.365 42.268ZM125.605 40.6035C127.041 42.9025 144.152 32.4682 148.018 39.5556C151.341 45.5059 144.439 49.0092 137.484 52.5396C130.556 56.0564 123.515 58.7555 120.555 52.9237L129.222 48.5243C130.24 50.5306 132.798 49.737 135.286 48.4742C137.774 47.2114 140.422 45.8671 139.393 44.2365C137.93 41.9511 121.009 52.6929 117.088 45.4984C113.847 39.7086 120.345 35.9395 127.273 32.4227C134.228 28.8923 141.015 26.2887 143.989 32.1472L135.535 36.438C134.517 34.4316 131.959 35.2253 129.471 36.4881C127.01 37.7373 124.576 38.9729 125.605 40.6035ZM184.586 35.9441C175.726 37.8388 168.232 36.6498 166.444 28.2888C164.656 19.9279 171.009 15.7776 179.868 13.8829C187.995 12.1451 194.55 13.1054 196.951 19.74L187.358 21.7916C186.16 19.348 183.787 18.291 180.677 18.956C176.893 19.7653 175.083 22.2076 175.949 26.2561C176.815 30.3046 179.465 31.7933 183.249 30.984C186.359 30.319 188.093 28.3836 188.186 25.664L197.779 23.6125C198.302 30.6487 192.712 34.2063 184.586 35.9441ZM217.436 31.9084C208.383 32.2488 201.205 29.7867 200.884 21.2427C200.563 12.6987 207.535 9.70469 216.589 9.36434C225.642 9.02398 232.82 11.4861 233.141 20.0301C233.462 28.574 226.49 31.5681 217.436 31.9084ZM216.782 14.4907C212.914 14.6361 210.442 16.7405 210.597 20.8775C210.753 25.0146 213.376 26.9274 217.244 26.782C221.111 26.6367 223.554 24.5334 223.398 20.3963C223.243 16.2592 220.649 14.3453 216.782 14.4907ZM251.162 33.5748C242.185 32.3459 235.541 28.6808 236.701 20.2098C237.861 11.7389 245.245 9.99443 254.222 11.2233C263.198 12.4523 269.842 16.1174 268.683 24.5883C267.523 33.0593 260.138 34.8038 251.162 33.5748ZM253.526 16.3059C249.692 15.781 246.893 17.4265 246.331 21.5283C245.769 25.63 248.023 27.9673 251.857 28.4923C255.692 29.0172 258.461 27.3676 259.023 23.2658C259.584 19.1641 257.36 16.8309 253.526 16.3059ZM276.011 15.571L285.299 18.4372L280.54 33.8595L297.195 38.9994L295.762 43.6432L269.819 35.6372L276.011 15.571ZM326.596 60.4219L318.444 55.129L323.111 33.1211L331.263 38.414L328.471 51.6952L339.441 43.7233L346.084 48.036L343.291 61.3172L354.261 53.3453L359.621 56.8249L341.417 70.0439L333.264 64.751L335.563 53.9388L326.596 60.4219ZM362.082 76.7652L356.429 82.5238L349.493 75.7142L364.205 60.729L371.141 67.5386L365.487 73.2972L373.536 81.1996L379.19 75.441L386.126 82.2506L371.414 97.2358L364.478 90.4262L370.132 84.6676L362.082 76.7652ZM389.731 121.871L373.738 99.9312L390.708 87.5609L406.701 109.5L402.968 112.222L392.7 98.137L389.816 100.24L399.182 113.089L395.207 115.021L386.3 102.802L383.609 104.764L393.877 118.849L389.731 121.871ZM406.907 123.444L393.979 129.921L391.224 124.422L410 115.016L415.16 125.316L408.089 143.487L421.018 137.011L423.759 142.483L404.983 151.888L399.823 141.589L406.907 123.444ZM414.19 180.778L411.764 171.366L432.099 166.123L434.526 175.536L414.19 180.778ZM439.617 209.344L434.804 210.02L433.415 200.127L417.431 202.371L416.08 192.746L432.063 190.501L430.674 180.609L435.486 179.933L439.617 209.344ZM440.518 217.666L432.759 217.396L432.637 214.518L440.344 213.59L440.518 217.666ZM433.73 232.526C431.02 232.6 431.353 252.638 423.283 252.383C416.469 252.235 416.944 244.509 417.422 236.724C417.898 228.968 419.137 221.53 425.664 221.931L425.069 231.633C422.823 231.495 422.212 234.103 422.041 236.887C421.87 239.672 421.688 242.636 423.615 242.574C426.326 242.471 425.633 222.44 433.822 222.703C440.457 222.84 440.416 230.352 439.94 238.107C439.461 245.892 438.27 253.063 431.712 252.66L432.293 243.198C434.539 243.336 435.15 240.728 435.321 237.943C435.49 235.189 435.658 232.464 433.73 232.526ZM407.984 285.494C410.657 277.436 414.756 271.557 422.786 274.22L433.492 277.771L430.432 286.997L418.758 283.125C415.825 282.152 413.836 284.148 412.853 287.109C411.871 290.07 412.274 292.859 415.207 293.832L426.881 297.704L423.822 306.929L413.115 303.378C405.085 300.715 405.312 293.552 407.984 285.494ZM412.39 315.518L399.668 308.643L402.592 303.233L421.067 313.217L415.59 323.351L396.65 327.984L409.371 334.858L406.462 340.243L387.987 330.258L393.464 320.124L412.39 315.518ZM380.471 341.205L386.103 333.282L403.218 345.45L397.587 353.372L380.471 341.205ZM359.571 360.666L362.236 355.829L365.756 356.644C366.258 356.005 366.782 355.386 367.348 354.766C373.453 348.072 380.241 344.68 386.558 350.442C392.875 356.204 390.121 363.274 384.016 369.968C377.911 376.662 371.123 380.054 364.806 374.292C360.55 370.41 360.428 365.914 362.661 361.373L359.571 360.666ZM380.008 357.624C377.06 354.935 373.978 355.331 371.423 357.955L375.994 358.997L373.306 363.814L369.143 362.859C369.189 364.322 369.913 365.754 371.376 367.088C374.435 369.878 377.618 369.371 380.226 366.511C382.834 363.652 383.067 360.413 380.008 357.624ZM342.735 377.487C349.45 372.292 356.132 369.702 361.309 376.393L368.211 385.315L360.523 391.263L352.997 381.534C351.106 379.09 348.342 379.636 345.874 381.545C343.407 383.454 342.184 385.993 344.075 388.437L351.602 398.165L343.914 404.113L337.012 395.191C331.835 388.5 336.02 382.683 342.735 377.487ZM304.478 402.109L328.371 389.216L338.344 407.697L314.45 420.59L312.256 416.524L327.596 408.247L325.9 405.105L311.907 412.656L310.528 408.457L323.835 401.277L322.253 398.346L306.914 406.623L304.478 402.109ZM305.802 424.79L303.486 417.38L306.161 416.312L309.59 423.276L305.802 424.79ZM300.063 427.084L297.748 419.674L300.422 418.605L303.851 425.57L300.063 427.084ZM269.581 413.407L279.354 410.817L295.753 428.196L286.096 430.755L274.573 418.539L270.64 434.851L263.941 436.626L269.581 413.407Z" fill="white"/>
<path d="M238.345 385.968L238.377 378.204L241.25 377.994L242.414 385.669L238.345 385.968ZM232.182 386.42L232.214 378.656L235.086 378.446L236.251 386.121L232.182 386.42ZM217.169 364.939L226.886 365.158L226.413 386.153L216.696 385.934L217.169 364.939ZM182.087 380.246L182.949 375.463L192.78 377.235L195.642 361.35L205.208 363.074L202.347 378.958L212.178 380.729L211.317 385.512L182.087 380.246ZM173.175 378.025L176.147 370.853L178.885 371.747L177.054 379.291L173.175 378.025ZM161.253 365.762C162.241 363.238 143.657 355.736 147.036 348.404C149.827 342.186 156.757 345.633 163.741 349.107C170.698 352.568 177.065 356.607 174.153 362.462L165.45 358.133C166.452 356.119 164.289 354.54 161.791 353.297C159.293 352.055 156.634 350.732 155.94 352.531C154.979 355.069 173.696 362.235 170.263 369.675C167.552 375.731 160.65 372.767 153.693 369.306C146.71 365.832 140.57 361.941 143.496 356.058L151.984 360.281C150.982 362.295 153.145 363.874 155.643 365.116C158.115 366.346 160.559 367.562 161.253 365.762ZM119.123 336.399L129.714 326.554L133.901 331.058L118.521 345.356L110.677 336.919L112.362 317.494L101.771 327.339L97.6043 322.857L112.985 308.558L120.828 316.996L119.123 336.399ZM104.234 292.007C108.624 299.933 109.665 307.449 102.186 311.591C94.706 315.733 88.8878 310.862 84.4986 302.936C80.1093 295.011 79.0676 287.494 86.5472 283.352C94.0269 279.21 99.8451 284.081 104.234 292.007ZM88.9863 300.451C90.8612 303.837 93.855 305.094 97.4767 303.088C101.098 301.082 101.621 297.878 99.7465 294.492C97.8717 291.107 94.8924 289.876 91.2707 291.882C87.649 293.887 87.1115 297.066 88.9863 300.451ZM67.0549 254.517L71.7322 253.197L74.4451 262.812L89.9786 258.429L92.6182 267.784L77.0847 272.167L79.7975 281.781L75.1202 283.101L67.0549 254.517ZM255.407 88.5901L245.846 86.8397L249.627 66.183L259.188 67.9333L255.407 88.5901ZM292.482 79.0724L290.868 83.6567L281.445 80.3398L276.086 95.5641L266.917 92.3369L272.276 77.1125L262.853 73.7955L264.466 69.2113L292.482 79.0724ZM300.945 82.7049L296.859 89.3062L294.3 87.9844L297.32 80.8323L300.945 82.7049ZM310.729 96.685C309.354 99.0209 326.513 109.374 322.014 116.078C318.273 121.774 311.977 117.272 305.632 112.735C299.312 108.215 293.665 103.218 297.469 97.8984L305.375 103.552C304.067 105.383 305.952 107.284 308.222 108.907C310.491 110.53 312.907 112.258 313.878 110.591C315.228 108.238 297.884 98.1951 302.453 91.3936C306.09 85.8436 312.435 89.8646 318.755 94.3842C325.099 98.9213 330.544 103.737 326.723 109.081L319.011 103.567C320.32 101.737 318.434 99.8349 316.165 98.212C313.92 96.6066 311.699 95.0186 310.729 96.685ZM340.126 148.347C335.058 140.837 333.362 133.441 340.449 128.659C347.537 123.877 353.76 128.219 358.827 135.729C363.475 142.618 365.033 149.058 359.776 153.763L354.289 145.631C356.108 143.607 356.202 141.011 354.424 138.375C352.259 135.166 349.318 134.401 345.886 136.716C342.454 139.032 342.063 142.046 344.227 145.254C346.006 147.89 348.449 148.775 351.006 147.846L356.493 155.978C350.162 159.092 344.774 155.236 340.126 148.347ZM355.017 177.671C351.895 169.166 352.018 161.579 360.045 158.633C368.071 155.687 373.074 161.393 376.195 169.898C379.317 178.403 379.194 185.991 371.167 188.937C363.141 191.883 358.138 186.177 355.017 177.671ZM371.379 171.666C370.046 168.033 367.28 166.332 363.394 167.758C359.507 169.184 358.499 172.271 359.833 175.904C361.166 179.537 363.921 181.21 367.808 179.784C371.694 178.357 372.713 175.299 371.379 171.666ZM362.639 210.338C361.668 201.33 363.624 193.998 372.124 193.082C380.625 192.166 384.098 198.912 385.069 207.92C386.04 216.928 384.084 224.26 375.583 225.176C367.082 226.092 363.61 219.346 362.639 210.338ZM379.968 208.47C379.554 204.622 377.282 202.302 373.166 202.746C369.05 203.19 367.324 205.94 367.739 209.788C368.154 213.636 370.422 215.926 374.538 215.482C378.655 215.039 380.383 212.318 379.968 208.47ZM385.876 231.349L384.739 241.002L368.709 239.114L366.671 256.424L361.844 255.856L365.02 228.892L385.876 231.349Z" fill="white"/>
<path d="M79.596 219.616L86.2383 220.1L85.532 229.794L64.5875 228.268L66.3272 204.391C66.6216 200.352 69.9616 197.858 73.971 198.15C77.9804 198.442 80.9237 201.394 80.6293 205.433L79.596 219.616ZM70.141 218.927L74.7488 219.262L75.4094 210.196C75.5075 208.85 74.6111 207.943 73.2646 207.844C71.9182 207.746 70.8997 208.514 70.8016 209.861L70.141 218.927ZM96.3452 170.869L88.3405 196.812L68.274 190.621L76.2786 164.677L80.6933 166.039L75.5544 182.695L78.9657 183.747L83.6535 168.554L87.5802 170.582L83.1223 185.03L86.3043 186.012L91.4432 169.356L96.3452 170.869ZM96.7246 156.477L102.479 159.829L97.5862 168.228L79.441 157.657L91.4923 136.971C93.5311 133.472 97.6271 132.699 101.101 134.722C104.056 136.444 105.263 139.855 104.336 142.995L112.93 141.892L108.022 150.316L99.6997 151.37L96.7246 156.477ZM88.5333 151.705L92.5253 154.03L96.9803 146.383C97.6599 145.217 97.3741 143.8 96.2076 143.121C95.0411 142.441 93.7888 142.684 93.1092 143.85L88.5333 151.705ZM116.115 127.633L121.351 132.531L114.711 139.63L99.3746 125.284L117.921 105.457L121.47 108.776L109.564 121.506L112.741 124.477L123.766 112.69L126.628 116.394L116.115 127.633ZM157.453 102.836L135.156 118.326L123.175 101.079L145.472 85.5895L148.108 89.3838L133.793 99.3281L135.83 102.26L148.888 93.1887L150.73 97.2063L138.312 105.833L140.212 108.568L154.527 98.6232L157.453 102.836ZM174.235 96.7603C165.824 100.128 158.236 100.225 155.058 92.2872C151.881 84.3497 157.439 79.1838 165.85 75.8165C173.564 72.7279 180.188 72.5643 183.677 78.6967L174.57 82.3429C172.976 80.1373 170.458 79.4974 167.506 80.6793C163.913 82.1177 162.543 84.8311 164.082 88.6746C165.621 92.518 168.485 93.5366 172.077 92.0982C175.03 90.9163 176.41 88.7154 176.042 86.0192L185.149 82.373C186.856 89.2191 181.949 93.6717 174.235 96.7603ZM215.364 64.513L216.131 69.3121L206.267 70.8894L208.815 86.8269L199.217 88.3616L196.669 72.4241L186.804 74.0014L186.037 69.2024L215.364 64.513ZM226.091 85.2956L218.143 85.4681L218.015 79.5894L225.964 79.417L226.091 85.2956ZM348.464 288.158L353.132 279.632L375.427 282.638L370.759 291.164L357.306 289.374L366.077 299.716L362.274 306.663L348.821 304.873L357.591 315.216L354.523 320.821L339.978 303.657L344.646 295.131L355.6 296.614L348.464 288.158ZM333.793 324.548L328.046 318.882L334.87 311.96L349.824 326.704L343 333.626L337.254 327.96L329.334 335.992L335.081 341.658L328.257 348.58L313.303 333.836L320.127 326.914L325.873 332.58L333.793 324.548ZM287.587 350.487L310.565 336.026L321.75 353.799L298.772 368.26L296.311 364.35L311.063 355.066L309.162 352.045L295.705 360.514L294.048 356.416L306.845 348.363L305.071 345.545L290.319 354.828L287.587 350.487ZM283.805 367.352L279.105 353.677L284.921 351.678L291.746 371.538L280.852 375.282L263.782 365.858L268.482 379.533L262.694 381.522L255.869 361.662L266.764 357.918L283.805 367.352Z" fill="#A70007"/>
<path d="M230.746 331.239L231.032 323.481L233.91 323.364L234.823 331.074L230.746 331.239ZM224.571 331.49L224.857 323.732L227.735 323.615L228.648 331.324L224.571 331.49ZM210.341 308.813L219.993 309.954L217.528 330.809L207.875 329.667L210.341 308.813ZM172.906 317.088L174.694 312.569L183.984 316.245L189.922 301.237L198.96 304.813L193.022 319.821L202.311 323.496L200.523 328.015L172.906 317.088ZM163.385 311.742L168.263 305.703L170.636 307.334L166.748 314.053L163.385 311.742ZM155.163 294.895C157.014 292.914 142.519 279.075 148.369 273.511C153.261 268.765 158.426 274.53 163.631 280.339C168.816 286.126 173.24 292.232 168.369 296.597L161.883 289.357C163.559 287.856 162.132 285.589 160.27 283.511C158.408 281.434 156.427 279.222 155.117 280.637C153.286 282.64 168.029 296.217 162.089 301.861C157.331 306.486 152.014 301.181 146.829 295.394C141.624 289.584 137.358 283.699 142.251 279.315L148.577 286.375C146.901 287.877 148.328 290.143 150.19 292.221C152.031 294.277 153.853 296.31 155.163 294.895ZM129.647 247.459L143.976 245.515L144.802 251.61L123.993 254.432L122.445 243.017L135.016 228.112L120.687 230.055L119.864 223.991L140.674 221.168L142.222 232.584L129.647 247.459ZM145.687 203.366C143.309 212.108 138.816 218.223 130.566 215.979C122.316 213.734 121.54 206.186 123.919 197.444C126.297 188.702 130.79 182.587 139.04 184.831C147.29 187.076 148.066 194.624 145.687 203.366ZM128.869 198.791C127.853 202.525 129.123 205.513 133.118 206.6C137.112 207.687 139.721 205.754 140.737 202.02C141.753 198.285 140.475 195.326 136.48 194.239C132.486 193.152 129.885 195.056 128.869 198.791ZM150.539 150.494L154.424 153.413L148.423 161.4L161.327 171.095L155.488 178.866L142.584 169.171L136.583 177.157L132.698 174.238L150.539 150.494ZM189.521 142.447L191.817 148.699L182.693 152.05L175.452 132.338L197.924 124.084C201.726 122.687 205.375 124.703 206.761 128.476C208.147 132.25 206.67 136.148 202.869 137.544L189.521 142.447ZM186.252 133.549L187.845 137.885L196.378 134.751C197.645 134.286 198.102 133.095 197.637 131.828C197.171 130.561 196.052 129.949 194.785 130.415L186.252 133.549ZM240.933 141.885L213.789 141.327L214.221 120.331L241.365 120.89L241.27 125.509L223.844 125.15L223.77 128.719L239.667 129.046L238.797 133.379L223.681 133.068L223.612 136.398L241.038 136.756L240.933 141.885ZM255.17 140.19L252.608 146.338L243.636 142.599L251.713 123.215L273.812 132.423C277.55 133.981 278.858 137.938 277.312 141.649C275.997 144.806 272.775 146.454 269.54 145.95L271.771 154.323L262.771 150.573L260.625 142.463L255.17 140.19ZM258.816 131.439L257.039 135.704L265.208 139.108C266.455 139.627 267.821 139.157 268.34 137.91C268.859 136.664 268.453 135.455 267.207 134.936L258.816 131.439ZM285.929 157.515L280.957 162.681L273.954 155.94L288.518 140.811L308.078 159.639L304.707 163.141L292.15 151.053L289.133 154.187L300.761 165.38L297.017 168.189L285.929 157.515ZM306.627 201.127L294.681 176.746L313.539 167.506L325.485 191.887L321.336 193.92L313.667 178.268L310.461 179.839L317.457 194.117L313.207 195.33L306.555 181.752L303.565 183.218L311.234 198.87L306.627 201.127ZM307.58 218.816C306.827 209.787 308.96 202.505 317.48 201.795C326.001 201.085 329.309 207.913 330.062 216.942C330.752 225.223 328.966 231.604 322.08 233.141L321.265 223.365C323.841 222.488 325.191 220.268 324.927 217.099C324.606 213.242 322.413 211.137 318.287 211.481C314.162 211.825 312.348 214.264 312.67 218.121C312.934 221.29 314.633 223.255 317.318 223.694L318.133 233.47C311.088 233.094 308.27 227.097 307.58 218.816ZM321.582 269.474L316.912 268.129L319.674 258.529L304.164 254.066L306.852 244.725L322.362 249.188L325.125 239.588L329.796 240.932L321.582 269.474ZM297.511 269.909L301.378 262.963L306.515 265.823L302.648 272.769L297.511 269.909ZM277.905 291.806L285.175 285.354L299.115 301.06L291.845 307.512L277.905 291.806ZM259.306 325.328L257.105 320.995L266.011 316.47L258.701 302.081L267.367 297.678L274.677 312.067L283.584 307.543L285.785 311.875L259.306 325.328Z" fill="#A70007"/>
<path d="M248.966 328.918L247.683 321.262L250.478 320.568L252.925 327.935L248.966 328.918Z" fill="white"/>
</svg>
