<svg width="786" height="124" viewBox="0 0 786 124" fill="none" xmlns="http://www.w3.org/2000/svg">
<path d="M784.49 62.8903L761.46 62.6103V78.1903C761.46 98.2603 757.95 113 756.27 117.36C755.15 118.63 752.62 119.33 751.08 118.91C750.1 115.4 748.13 104.45 748.13 86.3403V16.1403C748.13 13.1903 739.84 7.16028 736.76 6.18028C735.92 5.89028 738.58 2.81028 739.43 2.81028C745.75 2.81028 762.31 6.60028 761.89 9.55028C761.6 11.5103 761.47 13.9003 761.47 16.4303V56.5803L778.88 49.7003C780.43 49.1403 787.31 62.8903 784.5 62.8903M736.76 70.4703C739.15 73.8403 732.69 88.1603 730.3 84.7903C726.93 80.0103 717.67 65.9803 709.38 56.5703C698.29 72.0103 684.53 84.5103 672.18 91.1103C670.63 90.9703 668.81 88.7203 668.81 87.3203C684.11 73.7003 701.38 49.8303 708.68 28.0703C709.1 26.8103 703.91 23.0103 701.66 21.6203C700.96 21.2003 704.05 18.8103 704.89 18.8103C709.1 18.8103 720.61 23.5903 723.42 25.5503C724.97 26.6803 725.11 27.3703 724.4 29.2003C721.32 37.2103 717.24 44.7803 712.61 51.8103C723 58.9703 734.51 67.2503 736.76 70.4803M662.36 64.1603L639.19 63.7403V78.2003C639.19 98.2703 635.96 113.01 634.13 117.37C633.01 118.64 630.48 119.34 629.07 118.92C627.95 115.41 626.12 104.46 626.12 86.3503V16.1403C626.12 13.1903 617.83 7.44028 614.75 6.18028C614.05 5.89028 616.57 2.81028 617.42 2.81028C623.74 2.81028 639.88 6.60028 639.6 9.55028C639.46 11.5103 639.18 13.9003 639.18 16.4303V57.8403L656.73 51.1103C658.42 50.4103 665.29 64.1703 662.35 64.1703M587.11 71.0403C593.56 71.0403 598.34 66.5403 598.34 59.6703C598.34 52.8003 593.85 48.1503 587.11 48.1503C580.37 48.1503 575.88 52.7903 575.88 59.6703C575.88 66.5503 580.37 71.0403 587.11 71.0403ZM565.21 12.4903C565.06 11.9303 565.77 9.96028 566.61 10.1003C571.24 10.9403 575.88 11.7903 581.78 12.4903L596.1 14.0403C597.37 14.1803 602.84 21.7603 599.19 21.7603H577.57C573.92 21.7603 565.5 13.7603 565.22 12.4903M550.89 29.6203C550.75 29.2003 551.59 27.6603 552.01 27.8003C554.4 28.6403 562.96 28.9203 571.1 28.7803L600.3 28.5003C608.73 28.3603 611.25 24.1503 612.51 24.1503C613.92 24.1503 619.25 31.5903 619.25 34.9603C619.25 35.5203 618.69 35.9403 617.7 35.9403C616.29 35.9403 608.15 35.5203 601.7 35.5203L570.25 35.6603C565.2 35.6603 561.83 36.7803 560.29 38.1903C556.36 37.0703 551.45 31.1703 550.88 29.6303M620.66 87.0403C608.02 92.8003 583.87 96.1703 567.31 98.2703C562.82 98.8303 560.15 99.6803 557.49 101.22C553.28 100.09 547.1 93.9203 546.54 91.5303C546.68 90.8303 547.24 90.1303 547.66 89.7103C552.3 89.7103 559.03 89.8503 567.18 89.4303C572.24 89.1503 577 88.8703 581.36 88.4503L580.52 76.3803C569.85 74.5603 563.25 68.2303 563.25 59.5303C563.25 49.9903 571.54 43.5303 584.59 42.8303C584.73 42.2703 584.87 41.8503 584.87 41.2803C584.87 40.1603 584.59 38.9003 583.05 37.7703C583.05 35.1003 591.48 37.7703 591.48 39.1803C591.48 39.7403 590.78 41.4203 590.36 42.8303C603.13 43.6703 611.14 50.1303 611.14 59.5303C611.14 68.2303 604.26 74.5603 593.73 76.3803L593.17 87.3303C606.5 85.7803 615.49 83.6703 621.52 81.7103C622.79 81.2903 622.22 86.3403 620.68 87.0403M461.04 18.6703L460.9 42.1103H493.61L494.45 18.6703H461.03H461.04ZM439.84 13.4803C439.7 12.7803 441.66 10.4003 442.65 10.4003C445.04 10.4003 453.46 10.6803 458.94 11.6603H490.11C494.04 11.6603 496.15 11.1003 497.69 9.70028C499.38 9.14028 510.33 10.8203 510.05 12.6503L505.41 40.8703C507.38 42.6903 510.05 46.3403 510.05 48.3103C510.05 48.8703 509.49 49.2903 508.5 49.2903C507.09 49.2903 501.9 49.1403 494.04 49.1403H459.5C458.66 50.6903 457.54 52.0903 456.28 53.5003C455.01 54.7603 452.76 55.3203 451.09 54.9003C449.68 51.5303 448.56 45.0803 447.57 33.4203L446.31 18.8203C446.17 17.4203 442.24 14.3303 439.86 13.4903M517.61 113.15C517.61 113.71 517.19 114.14 516.07 114.14H501.61L458.65 114.28C446.72 114.28 444.33 110.21 444.33 102.21V90.2803C444.33 88.1703 439.84 84.5203 437.31 84.1003C436.47 83.9603 439.27 80.4503 440.39 80.4503C445.31 80.4503 452.6 81.5703 456.26 82.9703C456.96 83.2603 458.08 83.6703 457.8 85.2203C457.52 87.0403 457.52 89.7103 457.52 91.9603V102.35C457.52 106.7 459.07 107.27 462.85 107.27L498.93 107.13C506.51 107.13 509.04 102.92 510.02 102.92C511.98 102.92 517.6 109.94 517.6 113.16M531.23 67.6703C531.23 68.3703 530.67 68.7903 529.68 68.7903H485.18V76.9403C485.18 85.2203 482.09 92.3803 479.99 95.6103C478.87 96.8803 476.48 97.4303 474.93 97.0203C473.67 93.2303 471.85 88.1703 471.85 78.9103V68.8003H441.94C436.88 68.8003 433.51 70.2103 431.98 71.6103C428.05 70.4903 420.05 64.3103 420.05 62.9103C420.05 62.3503 420.75 60.8103 421.17 60.9503C423.56 61.7903 432.12 61.9303 440.26 61.9303L509.05 61.7903C517.75 61.7903 520.7 56.8703 521.82 56.8703C523.37 56.8703 531.23 64.3103 531.23 67.6803M335.25 32.1503C335.25 41.1303 341.14 47.1703 349.99 47.1703C358.84 47.1703 365.57 41.1303 365.57 32.1503C365.57 23.1703 359.25 17.1203 350.13 17.1203C341.01 17.1203 335.25 23.1603 335.25 32.1503ZM321.91 32.5703C321.91 19.9403 332.02 11.5103 347.6 10.6703C347.74 10.2503 347.88 9.83028 347.88 9.40028C347.88 8.14028 347.6 6.74028 345.78 5.47028C345.78 2.66028 355.19 5.47028 355.19 7.02028C355.19 7.58028 354.49 9.26028 354.06 10.6703C368.95 11.7903 378.77 20.2203 378.77 32.5703C378.77 45.6303 367.4 54.1903 350.41 54.1903C333.42 54.1903 321.91 45.6303 321.91 32.5703ZM405.86 70.9003C405.86 71.4603 405.3 71.8803 404.32 71.8803H373.85V78.6203C373.85 97.5703 370.48 112.31 368.66 116.66C367.54 117.93 365.01 118.48 363.61 118.21C362.48 114.7 360.52 103.76 360.52 86.7703V71.8903L339.04 72.0303V76.2403C339.04 95.0503 335.67 109.79 333.98 114.15C332.86 115.41 330.33 115.97 328.79 115.69C327.81 112.18 325.84 101.24 325.84 84.3803V72.0303H316.57C311.51 72.0303 308.14 73.4403 306.61 74.8403C302.68 73.7203 294.68 67.5403 294.68 66.0003C294.68 65.5803 295.38 64.0403 295.8 64.1803C298.19 65.0203 306.75 65.1603 314.89 65.1603L383.68 64.8803C392.38 64.8803 395.33 59.9603 396.46 59.9603C398 59.9603 405.86 67.5403 405.86 70.9103M211 26.5303C211 34.2503 216.76 39.7303 225.46 39.7303C234.16 39.7303 239.92 34.2503 239.92 26.5303C239.92 18.8103 234.16 13.6103 225.46 13.6103C216.76 13.6103 211 18.9503 211 26.5303ZM197.67 27.0903C197.67 16.0003 207.36 8.00028 222.37 7.02028C222.51 6.32028 222.79 5.75028 222.79 5.06028C222.79 3.79028 222.37 2.53028 220.68 1.26028C220.68 -1.68972 230.09 1.26028 230.09 2.67028C230.09 3.51028 229.11 5.48028 228.54 7.02028C243.43 8.00028 253.39 16.0003 253.39 27.0903C253.39 38.7403 242.02 47.0203 225.45 47.0203C208.88 47.0203 197.65 38.7303 197.65 27.0903M264.22 115.4C264.22 116.1 263.66 116.38 262.67 116.38H208.06C198.65 116.38 195.42 113.15 195.14 105.85L194.86 96.4403C194.86 95.0403 191.2 93.2203 188.82 92.2303C188.68 91.5303 190.79 89.1503 191.91 89.1503C194.58 89.1503 204.55 89.7103 208.2 90.9703H243.72L243.86 79.6003H208.34C203.99 79.6003 201.18 80.7203 199.64 82.1303C194.58 81.4303 190.51 74.8303 190.37 73.8403C190.23 73.1403 190.93 71.7403 191.64 71.8803C196.13 72.7203 201.74 72.7203 209.89 72.7203H238.95C242.88 72.7203 244.99 72.3003 246.53 70.7503C248.22 70.6103 259.45 71.8803 259.03 73.7003L255.52 90.2603C258.19 92.2203 259.87 95.5903 259.87 96.4403C259.87 97.1403 259.45 97.7103 258.74 97.7103C257.48 97.7103 249.48 97.5603 243.02 97.5603H208.21V103.74C208.21 108.51 209.62 109.49 215.93 109.49H246.67C255.37 109.49 256.64 105.84 257.62 105.84C259.58 105.84 264.22 112.44 264.22 115.39M280.22 61.0703C280.22 61.6303 279.66 62.0503 278.67 62.0503H258.87L191.07 62.2003C186.15 62.2003 182.79 63.6003 181.25 64.8703C177.18 63.7403 169.88 57.7003 169.32 56.1703C169.18 55.7503 170.02 54.2003 170.44 54.3403C172.83 55.1803 181.39 55.3303 189.53 55.3303L258.18 55.0403C266.74 55.0403 269.69 50.1303 270.95 50.1303C272.5 50.1303 280.22 57.7103 280.22 61.0803M125.23 60.7903C125.23 62.0503 124.25 62.0503 120.88 63.0303C119.47 63.4503 118.78 65.7003 117.65 69.2103C115.26 76.6503 107.55 88.5803 91.5398 88.5803C75.5298 88.5803 67.1098 74.9603 66.5498 74.2603C65.7098 73.1403 64.4498 72.1603 63.3198 72.1603C62.6198 72.1603 62.0598 72.4403 61.6398 72.7203C55.8798 76.6503 49.5698 81.1403 49.5698 91.3903C49.5698 98.1303 55.1798 105.85 64.7298 105.85C72.8698 105.85 78.2098 98.1303 79.8998 92.7903C80.4598 90.9703 80.3198 90.2603 81.2998 90.2603C82.5698 90.2603 82.9898 93.0703 84.6698 93.0703C86.0798 93.0703 85.6498 92.3703 87.4798 92.3703C89.1698 92.3703 89.5898 94.6203 90.9898 94.6203C92.9598 94.6203 95.6298 92.9303 96.8898 92.9303C97.3098 92.9303 98.0198 92.9303 98.0198 93.3503C98.0198 94.0503 96.7498 94.7603 95.6298 95.7403C93.2398 97.8503 91.4198 99.1103 89.5898 102.2C83.1298 113.15 75.6898 115.12 71.8998 116.24C70.4998 116.66 69.0898 117.36 68.5298 118.63C66.4298 123.4 65.1698 123.96 64.5998 123.96C63.8998 123.96 63.6198 123.12 63.4798 121.29C63.3298 119.33 62.2098 117.08 58.4198 116.37C48.7298 114.55 36.7998 104.72 36.7998 89.2803C36.7998 75.3803 47.3298 69.9103 52.6598 64.5703C53.3598 63.8703 53.9298 63.0203 53.9298 61.7603V61.3403C53.9298 60.6403 53.7798 59.8003 52.9398 58.6803C47.6098 51.9403 43.5398 47.4403 36.2398 47.4403C28.2398 47.4403 21.2198 54.0403 21.2198 63.5903C21.2198 73.8403 26.2798 77.3503 31.3298 78.6203C33.0098 79.0403 33.5698 79.1803 33.5698 79.7403C33.5698 80.8603 32.4498 80.5803 32.4498 82.2703C32.4498 83.5303 33.4298 83.3903 33.4298 85.3503C33.4298 86.7603 32.1598 87.1703 32.1598 89.2803C32.1598 90.9703 32.9998 91.5203 32.9998 92.5103C32.9998 93.7703 33.6998 93.6303 33.6998 96.3003C33.6998 97.0003 33.9798 97.5603 33.4198 97.5603C32.8598 97.5603 32.1498 96.5803 31.3198 95.3203C29.3498 92.3703 27.2498 90.5403 25.6998 89.4203C13.4898 80.5803 13.0598 76.6403 9.97976 70.6103C9.27976 69.2103 8.99977 66.8203 7.58977 66.1203C3.09977 63.8703 0.00976562 63.1703 0.00976562 59.5203C0.00976562 57.8303 1.97977 59.5203 5.06977 59.5203C6.75977 59.5203 8.71977 59.8103 9.70977 56.3003C11.8098 48.8603 20.6598 36.9203 36.0998 36.9203C52.5298 36.9203 60.6698 50.5403 61.2298 51.2403C62.3498 52.7903 63.3298 53.3403 64.4598 53.3403C65.1598 53.3403 65.7198 53.3403 66.9898 52.2203C77.3798 42.9503 78.2198 38.8903 78.2198 33.5503C78.2198 26.8103 72.8798 18.9503 63.3298 18.9503C53.7798 18.9503 49.2898 26.5303 48.0298 32.1403C47.6098 33.9603 47.3298 34.9503 46.4798 34.9503C45.2198 34.9503 45.2198 33.2603 43.8098 33.2603C41.5598 33.2603 41.2798 34.2403 40.1598 34.2403C38.6098 34.2403 38.6098 31.4303 36.3598 31.4303C35.7998 31.4303 34.5398 32.1303 33.6898 32.1303C31.5898 32.1303 31.4498 32.5503 30.4598 32.5503C29.3398 32.5503 28.2198 31.9903 28.2198 31.1503C28.2198 30.3103 28.9198 29.7403 31.1698 28.6203C34.1198 27.0703 36.7898 25.9503 38.1898 22.8603C42.5398 13.1703 52.0898 10.0803 55.7398 8.68028C57.1398 8.12028 57.8398 7.55028 58.5498 6.29028C61.4898 0.980279 62.7598 0.420279 63.5998 0.420279C64.4398 0.420279 64.2998 1.83028 64.7198 3.51028C65.1398 5.47028 65.1398 7.02028 68.3698 7.86028C77.4998 10.2503 90.9698 18.6703 90.9698 34.1103C90.9698 49.5503 75.8098 59.2403 75.1098 59.8003C73.4198 61.0603 72.8598 62.0403 72.8598 63.0203C72.8598 63.7203 73.2798 64.5703 73.6998 65.4103C77.3598 72.7103 83.6698 77.4803 90.9698 77.4803C99.6698 77.4803 106.41 69.3403 106.41 60.9203C106.41 52.5003 100.8 47.4403 95.8798 45.9003C94.0598 45.3403 93.2098 45.3403 93.2098 44.3503C93.2098 43.2303 94.4698 43.6503 94.4698 41.9603C94.4698 40.7003 93.9098 40.9803 93.9098 39.0103C93.9098 37.6003 95.5998 37.1903 95.5998 35.0803C95.5998 33.3903 94.7598 32.8403 94.7598 31.8603C94.7598 30.5903 94.3398 30.7303 94.3398 28.0603C94.3398 27.3603 94.0598 26.8003 94.6298 26.8003C95.3298 26.8003 96.0298 27.7803 96.8698 29.0403C98.8298 31.9903 100.38 34.2303 101.93 35.2203C113.02 42.2503 115.41 46.7403 117.94 53.0503C118.5 54.4603 119.06 56.8403 120.75 57.8203C122.15 58.6703 125.24 59.6503 125.24 60.7703" fill="#645B4F"/>
</svg>
