<?xml version="1.0" encoding="UTF-8"?>
<svg id="Layer_1" xmlns="http://www.w3.org/2000/svg" version="1.1" viewBox="0 0 1000 1000">
  <!-- Generator: Adobe Illustrator 29.3.0, SVG Export Plug-In . SVG Version: 2.1.0 Build 146)  -->
  <defs>
    <style>
      .st0 {
        fill: #645b4f;
      }
    </style>
  </defs>
  <path class="st0" d="M877.43,465.17l-23.03-.28v15.58c0,20.07-3.51,34.81-5.19,39.17-1.12,1.27-3.65,1.97-5.19,1.55-.98-3.51-2.95-14.46-2.95-32.57v-70.19c0-2.95-8.29-8.98-11.37-9.96-.84-.29,1.82-3.37,2.67-3.37,6.32,0,22.88,3.79,22.46,6.74-.29,1.96-.42,4.35-.42,6.88v40.15l17.41-6.88c1.55-.56,8.43,13.19,5.62,13.19M829.7,472.75c2.39,3.37-4.07,17.69-6.46,14.32-3.37-4.78-12.63-18.81-20.92-28.22-11.09,15.44-24.85,27.94-37.2,34.54-1.55-.14-3.37-2.39-3.37-3.79,15.3-13.62,32.57-37.49,39.87-59.25.42-1.26-4.77-5.06-7.02-6.45-.7-.42,2.39-2.81,3.23-2.81,4.21,0,15.72,4.78,18.53,6.74,1.55,1.13,1.69,1.82.98,3.65-3.08,8.01-7.16,15.58-11.79,22.61,10.39,7.16,21.9,15.44,24.15,18.67M755.3,466.44l-23.17-.42v14.46c0,20.07-3.23,34.81-5.06,39.17-1.12,1.27-3.65,1.97-5.06,1.55-1.12-3.51-2.95-14.46-2.95-32.57v-70.19c0-2.95-8.29-8.7-11.37-9.96-.7-.29,1.82-3.37,2.67-3.37,6.32,0,22.46,3.79,22.18,6.74-.14,1.96-.42,4.35-.42,6.88v41.41l17.55-6.73c1.69-.7,8.56,13.06,5.62,13.06M680.05,473.32c6.45,0,11.23-4.5,11.23-11.37s-4.49-11.52-11.23-11.52-11.23,4.64-11.23,11.52,4.49,11.37,11.23,11.37M658.15,414.77c-.15-.56.56-2.53,1.4-2.39,4.63.84,9.27,1.69,15.17,2.39l14.32,1.55c1.27.14,6.74,7.72,3.09,7.72h-21.62c-3.65,0-12.07-8-12.35-9.27M643.83,431.9c-.14-.42.7-1.96,1.12-1.82,2.39.84,10.95,1.12,19.09.98l29.2-.28c8.43-.14,10.95-4.35,12.21-4.35,1.41,0,6.74,7.44,6.74,10.81,0,.56-.56.98-1.55.98-1.41,0-9.55-.42-16-.42l-31.45.14c-5.05,0-8.42,1.12-9.96,2.53-3.93-1.12-8.84-7.02-9.41-8.56M713.6,489.32c-12.64,5.76-36.79,9.13-53.35,11.23-4.49.56-7.16,1.41-9.82,2.95-4.21-1.13-10.39-7.3-10.95-9.69.14-.7.7-1.4,1.12-1.82,4.64,0,11.37.14,19.52-.28,5.06-.28,9.82-.56,14.18-.98l-.84-12.07c-10.67-1.82-17.27-8.15-17.27-16.85,0-9.54,8.29-16,21.34-16.7.14-.56.28-.98.28-1.55,0-1.12-.28-2.38-1.82-3.51,0-2.67,8.43,0,8.43,1.41,0,.56-.7,2.24-1.12,3.65,12.77.84,20.78,7.3,20.78,16.7,0,8.7-6.88,15.03-17.41,16.85l-.56,10.95c13.33-1.55,22.32-3.66,28.35-5.62,1.27-.42.7,4.63-.84,5.33M553.98,420.95l-.14,23.44h32.71l.84-23.44h-33.42ZM532.78,415.76c-.14-.7,1.82-3.08,2.81-3.08,2.39,0,10.81.28,16.29,1.26h31.17c3.93,0,6.04-.56,7.58-1.96,1.69-.56,12.64,1.12,12.36,2.95l-4.64,28.22c1.97,1.82,4.64,5.47,4.64,7.44,0,.56-.56.98-1.55.98-1.41,0-6.6-.15-14.46-.15h-34.54c-.84,1.55-1.96,2.95-3.22,4.36-1.27,1.26-3.52,1.82-5.19,1.4-1.41-3.37-2.53-9.82-3.52-21.48l-1.26-14.6c-.14-1.4-4.07-4.49-6.45-5.33M610.55,515.43c0,.56-.42.99-1.54.99h-14.46l-42.96.14c-11.93,0-14.32-4.07-14.32-12.07v-11.93c0-2.11-4.49-5.76-7.02-6.18-.84-.14,1.96-3.65,3.08-3.65,4.92,0,12.21,1.12,15.87,2.52.7.29,1.82.7,1.54,2.25-.28,1.82-.28,4.49-.28,6.74v10.39c0,4.35,1.55,4.92,5.33,4.92l36.08-.14c7.58,0,10.11-4.21,11.09-4.21,1.96,0,7.58,7.02,7.58,10.24M624.17,469.95c0,.7-.56,1.12-1.55,1.12h-44.5v8.15c0,8.28-3.09,15.44-5.19,18.67-1.12,1.27-3.51,1.82-5.06,1.41-1.26-3.79-3.08-8.85-3.08-18.11v-10.11h-29.91c-5.06,0-8.43,1.41-9.96,2.81-3.93-1.12-11.93-7.3-11.93-8.7,0-.56.7-2.1,1.12-1.96,2.39.84,10.95.98,19.09.98l68.79-.14c8.7,0,11.65-4.92,12.77-4.92,1.55,0,9.41,7.44,9.41,10.81M428.19,434.43c0,8.98,5.89,15.02,14.74,15.02s15.58-6.04,15.58-15.02-6.32-15.03-15.44-15.03-14.88,6.04-14.88,15.03M414.85,434.85c0-12.63,10.11-21.06,25.69-21.9.14-.42.28-.84.28-1.27,0-1.26-.28-2.66-2.1-3.93,0-2.81,9.41,0,9.41,1.55,0,.56-.7,2.24-1.13,3.65,14.89,1.12,24.71,9.55,24.71,21.9,0,13.06-11.37,21.62-28.36,21.62s-28.5-8.56-28.5-21.62M498.8,473.18c0,.56-.56.98-1.54.98h-30.47v6.74c0,18.95-3.37,33.69-5.19,38.04-1.12,1.27-3.65,1.82-5.05,1.55-1.13-3.51-3.09-14.45-3.09-31.44v-14.88l-21.48.14v4.21c0,18.81-3.37,33.55-5.06,37.91-1.12,1.26-3.65,1.82-5.19,1.54-.98-3.51-2.95-14.45-2.95-31.31v-12.35h-9.27c-5.06,0-8.43,1.41-9.96,2.81-3.93-1.12-11.93-7.3-11.93-8.84,0-.42.7-1.96,1.12-1.82,2.39.84,10.95.98,19.09.98l68.79-.28c8.7,0,11.65-4.92,12.78-4.92,1.54,0,9.4,7.58,9.4,10.95M303.94,428.81c0,7.72,5.76,13.2,14.46,13.2s14.46-5.48,14.46-13.2-5.76-12.92-14.46-12.92-14.46,5.34-14.46,12.92M290.61,429.38c0-11.09,9.69-19.09,24.7-20.07.14-.7.42-1.27.42-1.96,0-1.27-.42-2.53-2.11-3.8,0-2.95,9.41,0,9.41,1.41,0,.84-.98,2.81-1.55,4.35,14.89.98,24.85,8.98,24.85,20.07,0,11.65-11.37,19.93-27.94,19.93s-27.8-8.29-27.8-19.93M357.15,517.68c0,.7-.56.98-1.55.98h-54.61c-9.41,0-12.64-3.23-12.92-10.53l-.28-9.41c0-1.4-3.66-3.22-6.04-4.21-.14-.7,1.97-3.08,3.09-3.08,2.67,0,12.64.56,16.29,1.82h35.52l.14-11.37h-35.52c-4.35,0-7.16,1.12-8.7,2.53-5.06-.7-9.13-7.3-9.27-8.29-.14-.7.56-2.1,1.27-1.96,4.49.84,10.1.84,18.25.84h29.06c3.93,0,6.04-.42,7.58-1.97,1.69-.14,12.92,1.13,12.5,2.95l-3.51,16.56c2.67,1.96,4.35,5.33,4.35,6.18,0,.7-.42,1.27-1.13,1.27-1.26,0-9.26-.15-15.72-.15h-34.81v6.18c0,4.77,1.41,5.75,7.72,5.75h30.74c8.7,0,9.97-3.65,10.95-3.65,1.96,0,6.6,6.6,6.6,9.55M373.16,463.35c0,.56-.56.98-1.55.98h-19.8l-67.8.15c-4.92,0-8.28,1.4-9.82,2.67-4.07-1.13-11.37-7.17-11.93-8.7-.14-.42.7-1.97,1.12-1.83,2.39.84,10.95.99,19.09.99l68.65-.29c8.56,0,11.51-4.91,12.77-4.91,1.55,0,9.27,7.58,9.27,10.95M218.17,463.07c0,1.26-.98,1.26-4.35,2.24-1.41.42-2.1,2.67-3.23,6.18-2.39,7.44-10.1,19.37-26.11,19.37s-24.43-13.62-24.99-14.32c-.84-1.12-2.1-2.1-3.23-2.1-.7,0-1.26.28-1.68.56-5.76,3.93-12.07,8.42-12.07,18.67,0,6.74,5.61,14.46,15.16,14.46,8.14,0,13.48-7.72,15.17-13.06.56-1.82.42-2.53,1.4-2.53,1.27,0,1.69,2.81,3.37,2.81,1.41,0,.98-.7,2.81-.7,1.69,0,2.11,2.25,3.51,2.25,1.97,0,4.64-1.69,5.9-1.69.42,0,1.13,0,1.13.42,0,.7-1.27,1.41-2.39,2.39-2.39,2.11-4.21,3.37-6.04,6.46-6.46,10.95-13.9,12.92-17.69,14.04-1.4.42-2.81,1.12-3.37,2.39-2.1,4.77-3.36,5.33-3.93,5.33-.7,0-.98-.84-1.12-2.67-.15-1.96-1.27-4.21-5.06-4.92-9.69-1.82-21.62-11.65-21.62-27.09,0-13.9,10.53-19.37,15.86-24.71.7-.7,1.27-1.55,1.27-2.81v-.42c0-.7-.15-1.54-.99-2.66-5.33-6.74-9.4-11.24-16.7-11.24-8,0-15.02,6.6-15.02,16.15,0,10.25,5.06,13.76,10.11,15.03,1.68.42,2.24.56,2.24,1.12,0,1.12-1.12.84-1.12,2.53,0,1.26.98,1.12.98,3.08,0,1.41-1.27,1.82-1.27,3.93,0,1.69.84,2.24.84,3.23,0,1.26.7,1.12.7,3.79,0,.7.28,1.26-.28,1.26s-1.27-.98-2.1-2.24c-1.97-2.95-4.07-4.78-5.62-5.9-12.21-8.84-12.64-12.78-15.72-18.81-.7-1.4-.98-3.79-2.39-4.49-4.49-2.25-7.58-2.95-7.58-6.6,0-1.69,1.97,0,5.06,0,1.69,0,3.65.29,4.64-3.22,2.1-7.44,10.95-19.38,26.39-19.38,16.43,0,24.57,13.62,25.13,14.32,1.12,1.55,2.1,2.1,3.23,2.1.7,0,1.26,0,2.53-1.12,10.39-9.27,11.23-13.33,11.23-18.67,0-6.74-5.34-14.6-14.89-14.6s-14.04,7.58-15.3,13.19c-.42,1.82-.7,2.81-1.55,2.81-1.26,0-1.26-1.69-2.67-1.69-2.25,0-2.53.98-3.65.98-1.55,0-1.55-2.81-3.8-2.81-.56,0-1.82.7-2.67.7-2.1,0-2.24.42-3.23.42-1.12,0-2.24-.56-2.24-1.4s.7-1.41,2.95-2.53c2.95-1.55,5.62-2.67,7.02-5.76,4.35-9.69,13.9-12.78,17.55-14.18,1.4-.56,2.1-1.13,2.81-2.39,2.95-5.33,4.21-5.9,5.06-5.9s.7,1.41,1.12,3.09c.42,1.96.42,3.51,3.65,4.35,9.13,2.39,22.6,10.81,22.6,26.25s-15.16,25.13-15.86,25.69c-1.69,1.26-2.25,2.24-2.25,3.22,0,.7.42,1.55.84,2.39,3.66,7.3,9.97,12.07,17.27,12.07,8.7,0,15.44-8.14,15.44-16.56s-5.61-13.48-10.53-15.02c-1.82-.56-2.67-.56-2.67-1.55,0-1.12,1.26-.7,1.26-2.39,0-1.26-.56-.98-.56-2.95,0-1.41,1.69-1.82,1.69-3.93,0-1.69-.84-2.24-.84-3.22,0-1.27-.42-1.13-.42-3.8,0-.7-.28-1.26.29-1.26.7,0,1.4.98,2.24,2.24,1.96,2.95,3.51,5.19,5.06,6.18,11.09,7.03,13.48,11.52,16.01,17.83.56,1.41,1.12,3.79,2.81,4.77,1.4.85,4.49,1.83,4.49,2.95"/>
</svg>