<svg width="203" height="32" viewBox="0 0 203 32" fill="none" xmlns="http://www.w3.org/2000/svg">
<g clip-path="url(#clip0_27_932)">
<path d="M202.829 16.2277L196.881 16.1521V20.1805C196.881 25.3625 195.972 29.1639 195.536 30.2987C195.252 30.6202 194.589 30.8093 194.191 30.6958C193.945 29.788 193.434 26.9701 193.434 22.2797V4.16155C193.434 3.40505 191.293 1.83531 190.498 1.58944C190.289 1.51379 190.971 0.719467 191.18 0.719467C192.809 0.719467 197.09 1.70292 196.995 2.45942C196.919 2.97006 196.881 3.57526 196.881 4.2372V14.6013L201.389 12.8235C201.787 12.6722 203.568 16.2277 202.848 16.2277M190.479 18.1946C191.104 19.0646 189.418 22.7526 188.812 21.8826C187.941 20.6533 185.554 17.0221 183.414 14.6013C180.553 18.5918 176.992 21.8069 173.791 23.5091C173.393 23.4712 172.92 22.885 172.92 22.5256C176.879 19.0079 181.349 12.8424 183.224 7.22538C183.338 6.90386 181.993 5.92041 181.406 5.56107C181.216 5.4476 182.031 4.8424 182.239 4.8424C183.319 4.8424 186.312 6.07171 187.031 6.58235C187.429 6.86604 187.467 7.05516 187.278 7.52798C186.482 9.58944 185.421 11.5563 184.228 13.3719C186.918 15.2254 189.892 17.3625 190.479 18.1946ZM171.253 16.5682L165.267 16.4547V20.1805C165.267 25.3625 164.434 29.1639 163.96 30.2987C163.676 30.6202 163.013 30.8093 162.653 30.6958C162.369 29.788 161.896 26.9701 161.896 22.2797V4.16155C161.896 3.40505 159.755 1.91096 158.96 1.58944C158.77 1.51379 159.433 0.719467 159.641 0.719467C161.27 0.719467 165.457 1.70292 165.381 2.45942C165.343 2.97006 165.267 3.57526 165.267 4.2372V14.9228L169.794 13.1828C170.23 12.9937 172.011 16.5493 171.253 16.5493M151.8 18.3459C153.466 18.3459 154.698 17.1923 154.698 15.4145C154.698 13.6367 153.542 12.4452 151.8 12.4452C150.057 12.4452 148.901 13.6367 148.901 15.4145C148.901 17.1923 150.057 18.3459 151.8 18.3459ZM146.136 3.23483C146.098 3.08353 146.287 2.59181 146.496 2.61072C147.689 2.83767 148.901 3.04571 150.417 3.23483L154.11 3.632C154.432 3.66982 155.853 5.61781 154.906 5.61781H149.318C148.371 5.61781 146.193 3.55635 146.117 3.23483M142.423 7.64145C142.385 7.52798 142.613 7.13081 142.707 7.16864C143.333 7.39559 145.549 7.45233 147.651 7.4145L155.209 7.33885C157.387 7.30103 158.031 6.22301 158.372 6.22301C158.732 6.22301 160.115 8.13318 160.115 9.02207C160.115 9.17337 159.963 9.26793 159.717 9.26793C159.357 9.26793 157.255 9.15445 155.588 9.15445L147.462 9.19228C146.155 9.19228 145.284 9.47597 144.886 9.83531C143.863 9.55162 142.594 8.0197 142.461 7.62254M160.475 22.4689C157.217 23.963 150.966 24.8329 146.685 25.3625C145.53 25.5138 144.829 25.7218 144.147 26.119C143.048 25.8353 141.457 24.2277 141.306 23.6225C141.344 23.4334 141.495 23.2632 141.59 23.1497C142.783 23.1497 144.526 23.1876 146.628 23.0741C147.935 22.9984 149.167 22.9228 150.284 22.8282L150.076 19.7076C147.31 19.2348 145.606 17.6084 145.606 15.3578C145.606 12.8991 147.746 11.2348 151.118 11.0457C151.156 10.8944 151.193 10.7998 151.193 10.6485C151.193 10.3649 151.118 10.0244 150.72 9.74074C150.72 9.05989 152.898 9.74074 152.898 10.1001C152.898 10.2514 152.709 10.6864 152.614 11.0457C155.91 11.2727 157.994 12.937 157.994 15.3578C157.994 17.6084 156.213 19.2348 153.485 19.7076L153.334 22.5256C156.781 22.1284 159.111 21.58 160.664 21.0693C160.986 20.9559 160.854 22.2608 160.456 22.45M119.201 4.82349L119.163 10.8755H127.611L127.819 4.82349H119.182H119.201ZM113.726 3.4807C113.689 3.29157 114.2 2.68637 114.446 2.68637C115.071 2.68637 117.231 2.76202 118.651 3.00788H126.702C127.724 3.00788 128.255 2.85658 128.653 2.49724C129.088 2.34594 131.911 2.78093 131.854 3.25375L130.66 10.5351C131.172 11.0079 131.854 11.9535 131.854 12.4641C131.854 12.6154 131.702 12.71 131.456 12.71C131.096 12.71 129.751 12.6722 127.724 12.6722H118.803C118.576 13.0693 118.291 13.4287 117.969 13.8069C117.647 14.1285 117.06 14.2797 116.624 14.1663C116.265 13.2963 115.962 11.632 115.715 8.6249L115.393 4.86131C115.355 4.50197 114.333 3.70765 113.726 3.4807ZM133.824 29.2017C133.824 29.353 133.71 29.4476 133.426 29.4476H129.694L118.594 29.4854C115.507 29.4854 114.901 28.4263 114.901 26.3649V23.2821C114.901 22.7337 113.745 21.788 113.082 21.6935C112.874 21.6556 113.594 20.7478 113.878 20.7478C115.147 20.7478 117.041 21.0315 117.988 21.3909C118.178 21.4665 118.462 21.58 118.386 21.9771C118.31 22.45 118.31 23.1308 118.31 23.7171V26.4027C118.31 27.5185 118.708 27.6698 119.693 27.6698L129.012 27.632C130.982 27.632 131.626 26.5351 131.873 26.5351C132.384 26.5351 133.824 28.3507 133.824 29.1828M137.347 17.476C137.347 17.6651 137.195 17.7597 136.949 17.7597H125.451V19.8589C125.451 21.9961 124.656 23.8495 124.107 24.6816C123.822 25.0032 123.197 25.1545 122.8 25.041C122.478 24.0575 122.004 22.7526 122.004 20.3696V17.7597H114.276C112.969 17.7597 112.097 18.119 111.7 18.4783C110.677 18.1946 108.612 16.5871 108.612 16.2277C108.612 16.0764 108.802 15.6793 108.896 15.7171C109.521 15.9441 111.737 15.963 113.84 15.963L131.626 15.9251C133.881 15.9251 134.638 14.658 134.922 14.658C135.32 14.658 137.347 16.5871 137.347 17.4571M86.6774 8.30339C86.6774 10.6296 88.1927 12.1805 90.4847 12.1805C92.7767 12.1805 94.5193 10.6296 94.5193 8.30339C94.5193 5.97715 92.8903 4.42632 90.5226 4.42632C88.1549 4.42632 86.6774 5.99606 86.6774 8.30339ZM83.23 8.41687C83.23 5.16391 85.844 2.98897 89.8786 2.76202C89.9165 2.64854 89.9543 2.55398 89.9543 2.44051C89.9543 2.11899 89.8786 1.75966 89.405 1.41923C89.405 0.700554 91.8296 1.41923 91.8296 1.81639C91.8296 1.96769 91.6402 2.40268 91.5455 2.76202C95.3907 3.04571 97.9289 5.22065 97.9289 8.41687C97.9289 11.7833 94.9929 13.9961 90.5984 13.9961C86.2039 13.9961 83.23 11.7833 83.23 8.41687ZM104.937 18.3081C104.937 18.4594 104.786 18.554 104.54 18.554H96.6598V20.2939C96.6598 25.1923 95.7884 28.9937 95.3149 30.1095C95.0308 30.4311 94.3678 30.5824 94.0079 30.5067C93.7238 29.5989 93.2123 26.7809 93.2123 22.3932V18.554L87.6624 18.5918V19.6887C87.6624 24.5493 86.791 28.3507 86.3554 29.4665C86.0713 29.788 85.4083 29.9393 85.0105 29.8637C84.7643 28.9559 84.2528 26.1379 84.2528 21.788V18.5918H81.8662C80.5592 18.5918 79.6878 18.9511 79.2901 19.3105C78.2672 19.0268 76.2025 17.4192 76.2025 17.0221C76.2025 16.9086 76.392 16.5114 76.4867 16.5493C77.1118 16.7573 79.328 16.7951 81.4305 16.7951L99.2169 16.7195C101.471 16.7195 102.229 15.4523 102.513 15.4523C102.911 15.4523 104.937 17.4003 104.937 18.2703M54.552 6.84713C54.552 8.83294 56.0484 10.2514 58.2835 10.2514C60.5187 10.2514 62.0151 8.83294 62.0151 6.84713C62.0151 4.86131 60.5187 3.51852 58.2835 3.51852C56.0484 3.51852 54.552 4.89914 54.552 6.84713ZM51.1046 6.99843C51.1046 4.14263 53.6049 2.06226 57.488 1.81639C57.5259 1.62727 57.6016 1.49488 57.6016 1.30575C57.6016 0.984242 57.488 0.643816 57.0523 0.322303C57.0523 -0.434198 59.4769 0.322303 59.4769 0.681641C59.4769 0.908592 59.2306 1.40032 59.0791 1.79748C62.9243 2.04334 65.5004 4.12372 65.5004 6.97951C65.5004 9.98661 62.5644 12.1237 58.2835 12.1237C54.0027 12.1237 51.1046 9.98661 51.1046 6.97951M68.3038 29.788C68.3038 29.9772 68.1522 30.0339 67.906 30.0339H53.7943C51.3698 30.0339 50.5174 29.2017 50.4605 27.3105L50.3848 24.8897C50.3848 24.5303 49.4377 24.0575 48.8315 23.7928C48.7937 23.6036 49.343 22.9984 49.6271 22.9984C50.309 22.9984 52.9041 23.1497 53.8322 23.4712H63.019L63.0569 20.5398H53.8701C52.7525 20.5398 52.0138 20.8235 51.616 21.2017C50.309 21.0126 49.2483 19.3105 49.2293 19.0646C49.1914 18.8755 49.3809 18.5162 49.5513 18.554C50.7068 18.762 52.1653 18.762 54.2679 18.762H61.7878C62.8106 18.762 63.341 18.6485 63.7388 18.2514C64.1745 18.2136 67.0726 18.5351 66.9779 19.0079L66.0686 23.2821C66.7506 23.7928 67.1862 24.6627 67.1862 24.8708C67.1862 25.0599 67.0726 25.1923 66.9021 25.1923C66.5801 25.1923 64.5154 25.1545 62.8296 25.1545H53.8322V26.7431C53.8322 27.9724 54.1921 28.2183 55.8211 28.2183H63.7767C66.0308 28.2183 66.3528 27.2727 66.599 27.2727C67.1104 27.2727 68.3038 28.9748 68.3038 29.7313M72.4521 15.7738C72.4521 15.9251 72.3005 16.0197 72.0543 16.0197H66.94L49.3998 16.0575C48.1307 16.0575 47.2594 16.4169 46.8616 16.7384C45.8008 16.4547 43.9256 14.885 43.7741 14.4878C43.7362 14.3743 43.9635 13.9771 44.0582 14.015C44.6833 14.2419 46.8805 14.2798 49.002 14.2798L66.7506 14.2041C68.9668 14.2041 69.7244 12.937 70.0464 12.937C70.4442 12.937 72.4331 14.885 72.4331 15.7549M32.3711 15.6982C32.3711 16.0197 32.1248 16.0197 31.2535 16.2845C30.8936 16.398 30.7042 16.9653 30.4201 17.8731C29.795 19.7833 27.8061 22.866 23.6767 22.866C19.5474 22.866 17.3691 19.3483 17.2176 19.1592C17.0092 18.8755 16.6683 18.6107 16.3841 18.6107C16.1947 18.6107 16.0621 18.6864 15.9485 18.762C14.4521 19.7833 12.8231 20.937 12.8231 23.5847C12.8231 25.3247 14.2816 27.3105 16.744 27.3105C18.8466 27.3105 20.2293 25.3247 20.665 23.9441C20.8165 23.4712 20.7786 23.2821 21.0249 23.2821C21.3469 23.2821 21.4605 24.0008 21.8962 24.0008C22.2561 24.0008 22.1425 23.8117 22.616 23.8117C23.0517 23.8117 23.1653 24.398 23.5252 24.398C24.0366 24.398 24.7185 23.963 25.0595 23.963C25.1732 23.963 25.3436 23.963 25.3436 24.0764C25.3436 24.2656 25.0216 24.4358 24.7185 24.7006C24.0935 25.249 23.6389 25.5705 23.1653 26.3649C21.4984 29.1828 19.5664 29.6935 18.5814 29.9961C18.2215 30.1095 17.8616 30.2798 17.7101 30.6202C17.1607 31.8495 16.8387 32.0008 16.6872 32.0008C16.4978 32.0008 16.441 31.7928 16.4031 31.3199C16.3652 30.8093 16.0811 30.223 15.0961 30.0528C12.5958 29.58 9.50823 27.0457 9.50823 23.0552C9.50823 19.4618 12.2359 18.0623 13.6186 16.6816C13.808 16.4925 13.9406 16.2845 13.9406 15.963V15.8495C13.9406 15.6793 13.9027 15.4523 13.6754 15.1686C12.2927 13.4287 11.2509 12.275 9.35669 12.275C7.29203 12.275 5.47361 13.9771 5.47361 16.4358C5.47361 19.0835 6.7806 19.9913 8.08759 20.3128C8.52325 20.4263 8.67479 20.4641 8.67479 20.5965C8.67479 20.8802 8.39066 20.8235 8.39066 21.2585C8.39066 21.58 8.6369 21.5422 8.6369 22.0528C8.6369 22.4121 8.31489 22.5256 8.31489 23.0741C8.31489 23.5091 8.52325 23.6604 8.52325 23.9062C8.52325 24.2277 8.71267 24.1899 8.71267 24.8897C8.71267 25.0788 8.78844 25.2112 8.6369 25.2112C8.48537 25.2112 8.31489 24.9653 8.08759 24.6249C7.57616 23.8684 7.02684 23.3956 6.62906 23.093C3.46577 20.8046 3.35212 19.8022 2.55656 18.2325C2.36714 17.8731 2.31032 17.249 1.93148 17.0788C0.776027 16.4925 -0.0195312 16.3223 -0.0195312 15.3767C-0.0195312 14.9417 0.491899 15.3767 1.28746 15.3767C1.72312 15.3767 2.23455 15.4523 2.4808 14.5445C3.03011 12.6154 5.30313 9.53271 9.29987 9.53271C13.5428 9.53271 15.6454 13.0504 15.7969 13.2396C16.0811 13.6367 16.3462 13.788 16.6304 13.788C16.8198 13.788 16.9524 13.788 17.2744 13.5043C19.9641 11.1214 20.1725 10.0623 20.1725 8.68164C20.1725 6.94169 18.7897 4.91805 16.3273 4.91805C13.8649 4.91805 12.6905 6.86604 12.3685 8.3223C12.2548 8.79512 12.179 9.04098 11.9707 9.04098C11.6487 9.04098 11.6487 8.60599 11.2888 8.60599C10.7016 8.60599 10.6447 8.85185 10.3417 8.85185C9.94389 8.85185 9.94389 8.13318 9.35669 8.13318C9.20516 8.13318 8.88315 8.3223 8.67479 8.3223C8.12547 8.3223 8.08759 8.43578 7.84134 8.43578C7.55722 8.43578 7.25415 8.28448 7.25415 8.07644C7.25415 7.8684 7.44357 7.7171 8.01182 7.43341C8.7695 7.03625 9.47035 6.75256 9.83024 5.93932C10.9478 3.44287 13.4292 2.64854 14.3763 2.28921C14.7362 2.13791 14.9256 2.00552 15.0961 1.66509C15.8538 0.284478 16.1947 0.133178 16.4031 0.133178C16.6114 0.133178 16.5925 0.492516 16.6872 0.927504C16.8008 1.43814 16.8008 1.83531 17.6343 2.04334C20.002 2.66746 23.4684 4.8424 23.4684 8.81403C23.4684 12.7857 19.5474 15.301 19.358 15.4523C18.9223 15.7738 18.7708 16.0386 18.7708 16.2845C18.7708 16.4736 18.8845 16.6816 18.9981 16.9086C19.9452 18.7998 21.5742 20.0292 23.4684 20.0292C25.7225 20.0292 27.4651 17.9299 27.4651 15.7549C27.4651 13.58 26.0066 12.275 24.7375 11.8779C24.2639 11.7266 24.0556 11.7266 24.0556 11.4807C24.0556 11.197 24.3776 11.2916 24.3776 10.8566C24.3776 10.5351 24.2261 10.6107 24.2261 10.1001C24.2261 9.74074 24.6617 9.62727 24.6617 9.0788C24.6617 8.64382 24.4534 8.49252 24.4534 8.24665C24.4534 7.92514 24.3397 7.96297 24.3397 7.2632C24.3397 7.07408 24.2639 6.94169 24.4155 6.94169C24.6049 6.94169 24.7754 7.18755 25.0027 7.52798C25.5141 8.28448 25.9119 8.87077 26.3097 9.11663C29.1699 10.9322 29.795 12.0859 30.4579 13.7124C30.6095 14.0717 30.7421 14.6958 31.1777 14.9417C31.5376 15.1686 32.3332 15.4145 32.3332 15.6982" fill="white"/>
</g>
<defs>
<clipPath id="clip0_27_932">
<rect width="203" height="32" fill="white"/>
</clipPath>
</defs>
</svg>
