<svg width="174" height="44" viewBox="0 0 174 44" fill="none" xmlns="http://www.w3.org/2000/svg">
<path d="M142.987 12.3228C142.987 12.758 143.048 13.2008 143.223 13.6131C143.987 15.4913 145.903 16.6442 148.347 15.6669C148.934 15.4302 165.12 8.90997 165.12 8.90997C165.12 8.90997 158.745 25.0731 158.509 25.6763C157.577 27.9897 158.692 30.0893 160.593 30.7993C161.013 30.952 161.448 31.0284 161.883 31.0207C163.426 31.0131 164.792 30.0969 165.456 28.2798C165.563 28.0049 173.534 6.11558 173.71 5.58114C173.809 5.27574 174 4.54279 174 4.03125C174 2.94709 173.595 1.924 172.824 1.15288C172.061 0.389382 171.06 0 169.984 0C169.472 0 169.045 0.0916192 168.404 0.297762C168.022 0.419921 147.469 8.07013 145.712 8.72673C143.949 9.38334 142.987 10.7805 142.987 12.3228Z" fill="#ED1C24"/>
<path d="M101.888 42.7102V23.2793H114.127V26.4707H105.629V31.0364H113.363V34.2278H105.629V39.5188H114.432V42.7102H101.888Z" fill="white"/>
<path d="M128.084 42.7103L127.252 41.4429C126.977 41.6338 126.755 41.8475 126.48 42.0461C125.373 42.7943 124.03 43.031 122.709 43.031C119.38 43.031 116.318 41.0306 116.318 37.4193C116.318 34.6631 118.029 33.4797 119.815 31.7542C118.823 30.4639 117.861 29.4179 117.861 27.6771C117.861 25.0049 120.174 23.5771 122.625 23.5771C125.076 23.5771 127.107 25.1194 127.107 27.7076C127.107 29.8836 125.755 31.1205 124.243 32.4108L127.458 36.755C128.069 35.5716 128.069 34.2813 127.985 32.9834L130.787 33.0139C130.817 33.4491 130.84 33.8919 130.84 34.3348C130.84 36.213 130.405 37.885 129.275 39.3738L131.749 42.7027H128.069L128.084 42.7103ZM121.777 34.3729C120.846 35.312 119.578 36.129 119.578 37.6178C119.578 39.4044 121.167 40.1526 122.77 40.1526C123.732 40.1526 124.778 39.9006 125.465 39.1906L121.777 34.3729ZM122.663 26.2265C121.808 26.2265 121.09 26.7762 121.09 27.6847C121.09 28.6773 121.808 29.5553 122.419 30.3035C123.213 29.6393 124.175 28.7307 124.175 27.6084C124.175 26.7227 123.488 26.2265 122.663 26.2265Z" fill="white"/>
<path d="M146.72 40.618C145.46 42.3511 143.391 43.0917 141.299 43.0917C138.765 43.0917 136.451 42.1602 134.81 40.198C133.077 38.1595 132.55 35.6934 132.55 33.1052C132.55 31.7538 132.664 30.4024 133.054 29.1121C134.123 25.3405 137.184 22.8896 141.139 22.8896C145.346 22.8896 147.743 25.4779 147.965 29.5779H144.743C144.414 27.5699 143.285 26.1116 141.109 26.1116C137.398 26.1116 136.436 30.1505 136.436 33.1281C136.436 36.1057 137.589 39.8392 141.193 39.8392C143.75 39.8392 144.743 37.7472 144.85 35.4949H148.209C148.133 37.3655 147.858 39.0681 146.728 40.6103" fill="white"/>
<path d="M10.918 42.7024L3.76402 32.4105L10.8874 23.2715H15.1783L7.90979 32.2731L15.6669 42.6948H10.9103L10.918 42.7024ZM0 23.2791H3.74112V42.7024H0V23.2791Z" fill="white"/>
<path d="M31.662 38.5717C30.6466 41.8166 27.5391 43.0916 24.3401 43.0916C21.1411 43.0916 18.2322 41.8853 17.1327 38.7702C16.7204 37.6097 16.667 36.35 16.667 35.136V23.2713H20.4157V34.4107C20.4157 35.5941 20.3547 37.1134 20.9655 38.1823C21.645 39.4268 23.0574 39.8315 24.3783 39.8315C25.6075 39.8315 27.02 39.4192 27.6995 38.2892C28.3408 37.2203 28.3026 35.8231 28.3026 34.6016V23.2637H32.0514V35.3956C32.0514 36.4721 31.9979 37.541 31.662 38.5641" fill="white"/>
<path d="M50.6121 42.7026V27.5472L46.4587 42.7026H42.6107L38.5107 27.5472V42.7026H35.1514V23.2793H40.3508L44.5576 38.7171L48.8255 23.2793H53.9715V42.7026H50.6121Z" fill="white"/>
<path d="M68.5996 42.7026V34.1209H60.8959V42.7026H57.1548V23.2793H60.8959V31.0364H68.5996V23.2793H72.3407V42.7026H68.5996Z" fill="white"/>
<path d="M83.5872 26.0887C79.8232 26.0887 78.7161 29.8833 78.7161 32.9983C78.7161 36.1134 79.8156 39.9003 83.6101 39.9003C87.4047 39.9003 88.5117 36.1057 88.5117 32.9983C88.5117 29.8909 87.3589 26.0887 83.5872 26.0887ZM87.9926 41.9388C86.6717 42.7405 85.0989 43.0917 83.5872 43.0917C82.3198 43.0917 80.8615 42.771 79.7163 42.1831C76.1279 40.3431 74.8452 36.8158 74.8452 32.9907C74.8452 29.1656 76.021 25.8596 79.4185 23.9356C80.6783 23.218 82.1671 22.8896 83.6178 22.8896C85.9082 22.8896 88.1376 23.7219 89.7257 25.371C91.6879 27.379 92.3979 30.2726 92.3979 32.9983C92.3979 36.6249 91.2451 39.9766 88.0002 41.9388" fill="white"/>
</svg>
