<svg width="124" height="124" viewBox="0 0 124 124" fill="none" xmlns="http://www.w3.org/2000/svg">
<path d="M19.3016 32.6986C19.3016 32.6986 11.8497 40.2342 14.6155 53.6191C17.3814 67.0039 24.939 66.6702 29.9245 65.3528C34.9101 64.0354 38.363 60.048 38.6977 55.2878C39.0324 50.5275 33.9235 30.9421 22.8249 31.1704C22.8249 31.1704 20.4819 31.5042 19.3016 32.7162C19.3016 32.6811 19.2664 32.7513 19.3016 32.7162V32.6986Z" fill="#FFB7C3"/>
<path d="M19.3016 32.7162C20.4819 31.5042 22.8249 31.1704 22.8249 31.1704C33.9235 30.9421 39.0324 50.5275 38.6977 55.2878C38.363 60.048 34.9101 64.0354 29.9245 65.3528C24.939 66.6702 17.3814 67.0039 14.6155 53.6191C11.8497 40.2342 19.3016 32.6986 19.3016 32.6986V32.7162ZM19.3016 32.7162C19.2664 32.7513 19.3016 32.6811 19.3016 32.7162Z" stroke="#1D1D1D" stroke-linecap="round" stroke-linejoin="round"/>
<path d="M41.9745 9.54745C41.9745 9.54745 34.505 17.083 37.2884 30.4679C40.0719 43.8527 47.6118 43.519 52.5974 42.2016C57.583 40.8842 61.0358 36.8968 61.3706 32.1366C61.7053 27.3764 56.5964 7.7909 45.4978 8.00169C45.4978 8.00169 43.1548 8.33543 41.9745 9.54745C41.9745 9.51232 41.9392 9.58258 41.9745 9.54745Z" fill="#FFB7C3"/>
<path d="M41.9745 9.54745C41.9745 9.54745 34.505 17.083 37.2884 30.4679C40.0719 43.8527 47.6118 43.519 52.5974 42.2016C57.583 40.8842 61.0358 36.8968 61.3706 32.1366C61.7053 27.3764 56.5964 7.7909 45.4978 8.00169C45.4978 8.00169 43.1548 8.33543 41.9745 9.54745ZM41.9745 9.54745C41.9392 9.58258 41.9745 9.51232 41.9745 9.54745Z" stroke="#1D1D1D" stroke-linecap="round" stroke-linejoin="round"/>
<path d="M82.2995 10.2325C82.2995 10.2325 71.9056 12.4106 66.8143 25.1104C61.7231 37.8102 68.2061 41.6746 73.1035 43.3082C78.001 44.9417 83.0746 43.5189 85.9814 39.7248C88.8882 35.9307 95.4592 16.8019 86.0871 10.8824C86.0871 10.8824 83.9555 9.88114 82.2995 10.2325C82.3347 10.1973 82.2643 10.2325 82.2995 10.2325Z" fill="#FFB7C3"/>
<path d="M82.2995 10.2325C82.2995 10.2325 71.9056 12.4106 66.8143 25.1104C61.7231 37.8102 68.2061 41.6746 73.1035 43.3082C78.001 44.9417 83.0746 43.5189 85.9814 39.7248C88.8882 35.9307 95.4592 16.8019 86.0871 10.8824C86.0871 10.8824 83.9555 9.88114 82.2995 10.2325ZM82.2995 10.2325C82.2643 10.2325 82.3347 10.1973 82.2995 10.2325Z" stroke="#1D1D1D" stroke-linecap="round" stroke-linejoin="round"/>
<path d="M104.972 35.5441C104.972 35.5441 95.6177 37.5115 91.0197 48.9466C86.4393 60.3817 92.2705 63.8596 96.6923 65.3351C101.114 66.8106 105.677 65.5283 108.302 62.1031C110.927 58.6778 116.846 41.4461 108.39 36.1238C108.39 36.1238 106.47 35.228 104.972 35.5441C105.007 35.509 104.937 35.5441 104.972 35.5441Z" fill="#FFB7C3"/>
<path d="M104.972 35.5441C104.972 35.5441 95.6177 37.5115 91.0197 48.9466C86.4393 60.3817 92.2705 63.8596 96.6923 65.3351C101.114 66.8106 105.677 65.5283 108.302 62.1031C110.927 58.6778 116.846 41.4461 108.39 36.1238C108.39 36.1238 106.47 35.228 104.972 35.5441ZM104.972 35.5441C104.937 35.5441 105.007 35.509 104.972 35.5441Z" stroke="#1D1D1D" stroke-linecap="round" stroke-linejoin="round"/>
<path d="M51.3644 14.7115C51.3644 14.7115 48.2462 10.3729 45.1457 11.1809C42.0451 11.9889 40.9881 18.3476 40.7063 23.0024C40.3715 28.5004 41.8513 33.7349 43.1021 35.2807C44.3529 36.8264 45.3571 37.5993 45.3571 37.5993" stroke="#1D1D1D" stroke-linecap="round" stroke-linejoin="round"/>
<path d="M29.519 37.0547C29.519 37.0547 25.9428 33.5241 22.8423 34.3321C19.7417 35.1401 17.7334 41.4812 18.1034 46.1361C18.4733 50.7909 19.4422 57.0442 20.693 58.6075C21.9438 60.1709 22.8951 61.0667 22.8951 61.0667" fill="#FFB7C3"/>
<path d="M29.519 37.0547C29.519 37.0547 25.9428 33.5241 22.8423 34.3321C19.7417 35.1401 17.7334 41.4812 18.1034 46.1361C18.4733 50.7909 19.4422 57.0442 20.693 58.6075C21.9438 60.1709 22.8951 61.0667 22.8951 61.0667" stroke="#1D1D1D" stroke-linecap="round" stroke-linejoin="round"/>
<path d="M88.6944 18.8047C88.6944 18.8047 88.0955 14.9403 84.7483 13.8512C81.4011 12.7622 75.7813 17.417 73.3502 21.9138C70.9191 26.4105 68.0652 32.7516 68.2942 34.9297C68.5232 37.1079 69.6859 38.2847 69.6859 38.2847" stroke="#1D1D1D" stroke-linecap="round" stroke-linejoin="round"/>
<path d="M96.7799 61.2252C96.7799 61.2252 95.3706 61.5589 93.5561 59.17C91.7415 56.7811 93.6618 51.4588 96.1633 47.8403C98.8587 43.9583 103.51 40.4628 105.324 40.0412C107.139 39.6197 106.927 42.1667 106.927 42.1667" stroke="#1D1D1D" stroke-linecap="round" stroke-linejoin="round"/>
<path d="M43.3133 62.525C42.8905 62.6128 42.5734 62.9465 42.5382 63.3857C42.3444 65.2652 42.1154 69.9376 44.247 72.186C46.96 75.0667 56.6668 71.6414 60.613 74.7856C64.5592 77.9299 68.4349 79.6513 68.2058 83.1292C67.9768 86.6072 68.2587 84.3412 68.2587 84.3412C68.2587 84.3412 69.4214 77.3678 73.9842 78.0352C78.5469 78.7027 83.6734 78.8081 84.2195 71.0618C84.7656 63.3154 84.6599 55.8501 80.1676 52.7586C75.6754 49.6671 70.4079 46.1189 59.8555 47.7876C49.3206 49.4387 57.1425 51.7222 54.3062 55.692C51.8575 59.1348 45.4626 62.0507 43.2781 62.525H43.3133Z" fill="#FFC76D" stroke="#1D1D1D" stroke-linecap="round" stroke-linejoin="round"/>
<path d="M57.6007 54.1988C57.6007 54.1988 56.9841 51.9856 59.7147 51.0546C62.4453 50.1237 67.6951 50.6682 68.3646 51.0546" stroke="#1D1D1D" stroke-linecap="round" stroke-linejoin="round"/>
<path d="M72.6976 53.145C72.6976 53.145 68.9277 66.4245 70.5308 71.2374C72.1339 76.0503 75.8687 78.369 77.1371 78.3163" stroke="#1D1D1D" stroke-linecap="round" stroke-linejoin="round"/>
<path d="M40.1243 67.689C40.1243 67.689 40.1243 75.3299 42.0622 76.0326C44 76.7352 46.3959 74.8732 48.1576 75.7515C49.9192 76.6298 55.0986 78.8957 55.6976 81.8291C55.6976 81.8291 60.1194 81.0211 60.8945 82.0048C60.8945 82.0048 62.9557 85.149 62.9381 87.3623C62.9204 89.5755 62.3567 91.455 61.0178 92.4562C59.679 93.4575 51.3638 94.8276 50.0426 97.8839C48.7213 100.94 46.713 101.257 48.7037 106.228C48.7037 106.228 29.3957 103.013 29.061 88.4162C28.7262 73.8193 40.0891 67.3904 40.1067 67.6714L40.1243 67.689Z" fill="#B4B4B4" stroke="#1D1D1D" stroke-linecap="round" stroke-linejoin="round"/>
<path d="M37.3057 77.104C37.3057 77.104 27.6517 89.3822 37.7461 98.3406" stroke="#1D1D1D" stroke-linecap="round" stroke-linejoin="round"/>
<path d="M90.9486 82.8482C90.9486 82.8482 77.965 80.6876 75.1464 82.0753C72.3277 83.4629 67.5535 87.1166 67.7121 94.74C67.8706 102.363 62.8322 94.8453 56.1731 98.3409C51.1347 100.976 51.3637 104.155 51.7865 105.543C51.9098 105.964 52.315 106.245 52.7554 106.228L93.0098 105.683C93.0098 105.683 101.801 104.12 103.157 88.8204C103.157 88.8204 103.386 87.6962 100.303 84.0602C99.5809 83.1995 98.7176 82.4793 97.7487 81.8996C94.8419 80.1782 87.8657 75.5936 87.9009 71.3779" fill="#FFC76D"/>
<path d="M90.9486 82.8482C90.9486 82.8482 77.965 80.6876 75.1464 82.0753C72.3277 83.4629 67.5535 87.1166 67.7121 94.74C67.8706 102.363 62.8322 94.8453 56.1731 98.3409C51.1347 100.976 51.3637 104.155 51.7865 105.543C51.9098 105.964 52.315 106.245 52.7554 106.228L93.0098 105.683C93.0098 105.683 101.801 104.12 103.157 88.8204C103.157 88.8204 103.386 87.6962 100.303 84.0602C99.5809 83.1995 98.7176 82.4793 97.7487 81.8996C94.8419 80.1782 87.8657 75.5936 87.9009 71.3779" stroke="#1D1D1D" stroke-linecap="round" stroke-linejoin="round"/>
<path d="M85.6108 85.7113C85.6108 85.7113 74.4593 81.6889 72.0811 91.8768" stroke="#1D1D1D" stroke-linecap="round" stroke-linejoin="round"/>
<path d="M62.1103 58.8359C62.1103 59.4507 61.0533 59.9425 59.732 59.9425C58.4108 59.9425 57.6885 59.679 57.6885 59.0642C57.6885 58.4495 58.3579 57.8698 59.732 57.7293C61.0357 57.5888 62.1103 58.2211 62.1103 58.8359Z" fill="#1D1D1D" stroke="#1D1D1D" stroke-miterlimit="10"/>
<path d="M52.6505 83.8845C52.6505 84.2886 52.122 84.3412 51.3293 84.3412C50.5365 84.3412 49.9199 84.0251 49.9199 83.6211C49.9199 83.2171 50.5541 82.9009 51.3293 82.9009C52.1044 82.9009 52.6505 83.4805 52.6505 83.8845Z" fill="#1D1D1D" stroke="#1D1D1D" stroke-linecap="round" stroke-linejoin="round"/>
</svg>
