<svg width="116" height="90" viewBox="0 0 116 90" fill="none" xmlns="http://www.w3.org/2000/svg">
<g clip-path="url(#clip0_123_169)">
<path d="M92.1777 68.845C91.8572 68.7339 91.9854 68.2431 92.3234 68.3307C92.9586 68.506 93.6055 68.6696 94.2466 68.845C94.3398 68.6989 94.5205 68.6054 94.7128 68.7106C95.0566 68.8917 95.4063 69.0787 95.7501 69.2598C96.1231 69.4585 95.8609 70.0662 95.4704 69.9435C94.3689 69.5988 93.2733 69.2131 92.1835 68.845H92.1777Z" fill="white"/>
<path d="M89.497 69.5048C90.4178 69.7035 91.3269 69.9547 92.2652 70.1067C93.1918 70.2644 94.1417 70.2527 95.0742 70.3988C95.4297 70.4631 95.2956 70.9481 94.9926 70.9832C93.1802 71.2052 90.9714 70.6559 89.3455 69.8671C89.124 69.7677 89.293 69.4463 89.5028 69.4989L89.497 69.5048Z" fill="white"/>
<path d="M76.6409 47.8435C76.2504 48.3344 75.7026 48.685 75.0848 48.8369C74.7293 48.9304 74.6186 48.4279 74.9391 48.2993C75.3296 48.1357 75.6968 47.8961 75.9707 47.5689C76.0348 47.4929 76.0814 47.4111 76.128 47.341C76.0522 47.3585 75.9823 47.3527 75.9007 47.3059C75.1081 46.856 76.2562 45.6698 76.8565 46.4762C77.1654 46.9027 76.9381 47.4812 76.6467 47.8494L76.6409 47.8435Z" fill="white"/>
<path d="M53.5686 39.599C52.6187 40.6858 51.3657 41.5156 50.0312 42.0298C49.7689 42.1292 49.6057 41.7084 49.8388 41.5799C50.5498 41.1767 51.1967 40.7092 51.797 40.2008C51.797 40.119 51.8261 40.0372 51.9077 39.973C52.2749 39.6633 52.6478 39.3594 53.0208 39.0497C53.4054 38.7283 53.895 39.225 53.5686 39.599Z" fill="white"/>
<path d="M51.2551 65.3214C49.5767 65.5434 47.7642 65.2104 46.1616 64.737C45.7595 64.6202 45.9343 64.0125 46.3364 64.1176C48.0032 64.5092 49.5592 64.4916 51.2551 64.4624C51.8204 64.4624 51.7854 65.2454 51.2551 65.3214Z" fill="white"/>
<path d="M51.3598 67.109C48.8889 67.559 46.1906 66.9921 43.8595 66.1565C43.4515 66.0105 43.6205 65.3618 44.0401 65.4904C46.4645 66.2208 48.749 66.2383 51.2491 66.2968C51.7037 66.3085 51.8319 67.0272 51.3598 67.109Z" fill="white"/>
<path d="M31.936 52.033C32.3439 53.5231 33.3055 54.61 34.6051 55.393C35.0713 55.6676 34.6692 56.3221 34.1972 56.0942C32.6761 55.3696 31.6562 53.8211 31.4173 52.1733C31.3707 51.8343 31.8427 51.6824 31.936 52.0272V52.033Z" fill="white"/>
<path d="M10.507 61.0324C11.0199 60.6058 11.457 60.1091 11.8183 59.5423C12.1621 59.0106 12.3311 58.4029 12.6458 57.8594C12.809 57.5789 13.3277 57.6783 13.2927 58.0347C13.1587 59.4254 11.9174 60.7051 10.8334 61.4589C10.577 61.6401 10.2681 61.2311 10.507 61.0324Z" fill="white"/>
<path d="M92.0088 51.1972C92.3468 51.4718 92.6848 51.7523 93.0228 52.027C93.2326 51.6588 93.4249 51.2849 93.6172 50.9226C93.0869 51.0511 92.5508 51.1329 92.0146 51.1972H92.0088ZM90.6334 66.7523C89.0366 68.1314 87.4514 68.891 85.5399 69.3351C90.4702 72.4321 98.635 73.3086 103.46 70.1006C102.47 70.0831 101.473 69.9194 100.587 69.4403C99.5966 68.9085 98.5825 67.8801 98.6291 66.6822C98.6291 66.5712 98.6758 66.4835 98.7282 66.4017C98.7748 66.1388 98.9555 65.9167 99.3052 65.9635C100.063 66.0453 100.82 66.0979 101.572 66.1212C99.6024 64.6662 97.9648 62.7204 97.2072 60.4005C97.1722 60.3012 97.1897 60.2194 97.2246 60.1551C96.9624 59.7052 97.4694 59.0157 98.0347 59.3312C98.4893 59.5942 98.9846 59.7402 99.4858 59.7578C97.9007 58.7177 96.5253 57.2276 95.8668 55.4746C95.8318 55.3577 95.8493 55.2642 95.9017 55.1999C95.8027 54.8259 96.1756 54.3935 96.6127 54.6273C96.9682 54.8201 97.3121 54.9545 97.6617 55.0538C96.3563 53.7683 95.6919 51.9685 95.284 50.122C94.5555 51.2089 94.1476 52.5003 93.4133 53.593C93.0578 54.1423 92.6498 54.6506 92.2127 55.1298C92.778 54.8902 93.3142 54.5747 93.8329 54.154C94.2058 53.8501 94.6779 54.3117 94.3632 54.6857C94.3457 54.7149 94.3166 54.7325 94.2991 54.75C93.9319 57.1166 92.0496 58.4664 90.0098 59.4189C90.75 59.5007 91.4959 59.5124 92.271 59.4481C92.6906 59.413 92.8829 59.8571 92.7839 60.196C92.7955 60.272 92.7955 60.3421 92.7489 60.4239C91.6824 62.5334 89.631 64.1228 87.4922 65.2389C88.4596 65.3733 89.4212 65.385 90.4469 65.2856C91.0763 65.233 91.222 66.1329 90.75 66.4076C90.7849 66.5186 90.7674 66.6471 90.6392 66.7523H90.6334ZM83.5177 56.8302C84.5317 58.4079 85.942 59.2319 87.5796 59.8454C87.4339 59.5533 87.5505 59.1617 87.9235 59.0157C89.835 58.2911 91.6766 57.4555 92.9179 55.907C92.1078 56.3803 91.2045 56.6549 90.2196 56.7776C89.701 56.8419 89.3921 56.0472 89.7825 55.7258C90.8141 54.8785 91.7116 53.9436 92.4692 52.8567C92.4167 52.8392 92.3526 52.81 92.2885 52.7632C91.6416 52.2256 90.9947 51.688 90.3478 51.1388C90.0098 50.8583 90.2837 50.2506 90.715 50.2681C91.4376 50.2973 92.137 50.233 92.8363 50.1045C91.7815 49.2923 90.8957 48.3047 90.173 47.1419C90.039 46.9315 90.2371 46.6861 90.4469 46.6744C90.3478 46.3998 90.4819 46.055 90.8723 46.055C91.4726 46.055 92.0845 46.0842 92.6964 46.1076C91.7873 44.7987 90.8898 43.4781 90.0157 42.1633C88.8851 43.7527 87.5913 45.1434 86.0819 46.3472C86.5481 46.3472 87.0202 46.318 87.4864 46.2829C87.533 46.2478 87.568 46.2186 87.6146 46.1836C87.7428 46.0901 87.8885 46.1368 87.9876 46.2303C88.0342 46.2303 88.0867 46.2186 88.1333 46.2186C88.5412 46.166 88.582 46.7854 88.2265 46.8965C88.0692 46.9491 87.9235 46.9783 87.772 47.025C87.3465 47.5626 86.8162 48.0476 86.2684 48.4567C85.8022 48.8014 85.2544 49.1988 84.6716 49.4091C84.7007 49.4267 84.724 49.4559 84.7532 49.4617C85.0271 49.637 85.097 50.011 84.9746 50.2856C85.266 50.2973 85.5574 50.3032 85.843 50.2856C86.2684 50.2506 86.5015 50.8524 86.1985 51.1271C85.6623 51.6179 85.0679 52.0387 84.421 52.36C84.0189 52.5587 83.5526 52.7866 83.0922 52.8976C84.3161 53.8034 85.6914 54.4578 87.2649 54.8084C87.7545 54.9253 87.8652 55.6849 87.399 55.9245C86.1751 56.5556 84.8814 56.877 83.5177 56.8302ZM82.1948 52.173C82.1948 52.173 82.2122 52.1555 82.2297 52.1438C82.7426 51.84 83.3603 51.7523 83.8965 51.4835C84.0597 51.4076 84.2053 51.3082 84.351 51.2264C83.8615 51.1621 83.3778 51.0511 82.964 50.8408C82.2997 50.9167 81.6353 50.9576 80.9709 50.9342C81.3614 51.3725 81.7635 51.7815 82.1948 52.1672V52.173ZM79.6713 65.0168C79.7995 66.7465 79.8695 68.4586 79.9277 70.1882C79.9627 71.1816 79.9802 72.1691 80.0035 73.1684C80.0035 73.4488 80.0152 73.7352 80.0152 74.0157C80.1492 74.3896 80.19 74.6351 80.1142 74.7636C80.3415 74.8454 80.5047 75.0266 80.563 75.2545C84.8173 75.792 89.0541 76.4874 93.2734 77.3347C93.3492 76.0375 93.5648 74.7052 93.9844 73.4722C89.9632 73.0866 85.977 71.5906 83.3137 69.4403C82.7834 69.0196 83.2846 68.3067 83.8032 68.2541C85.7614 68.032 87.4223 67.4594 89.1182 66.6647C87.8361 66.7289 86.5598 66.5069 85.3301 66.0628C84.7124 65.8407 84.7182 65.0402 85.3301 64.8123C87.8186 63.8715 89.6019 62.3347 91.5192 60.6343C90.8549 60.681 90.1905 60.646 89.532 60.5349C89.87 60.757 89.87 61.2303 89.532 61.464C86.5773 63.5852 83.1622 64.7714 79.683 65.011L79.6713 65.0168ZM71.7572 57.1341C71.0637 57.1633 70.3702 57.1166 69.6883 57.0231C70.1137 57.2334 70.5567 57.4146 71.0287 57.5782V57.5665C71.256 57.4087 71.5124 57.2743 71.7572 57.1282V57.1341ZM70.003 52.3717C68.7092 53.4118 67.5961 53.9261 66.1508 54.1715C66.7161 54.8669 67.3281 55.457 67.9924 55.9596C68.039 55.831 68.1206 55.7141 68.2547 55.6382C70.4343 54.452 71.9378 52.8158 73.558 51.0628C72.4623 51.2264 71.2968 51.1446 70.2303 51.0336C69.6825 50.981 69.3386 50.2038 69.9214 49.9C72.2001 48.7313 73.7503 47.0484 75.2772 45.1201C74.2573 45.4239 73.2374 45.7219 72.2059 46.0083C71.6581 46.166 71.2968 45.4765 71.6698 45.0792C72.1243 44.5766 72.5556 44.0566 72.9752 43.5365C71.5649 42.584 70.6149 41.1232 70.3993 39.4169C70.3876 39.3994 70.3876 39.3702 70.3876 39.3526C70.376 39.341 70.376 39.3351 70.376 39.3351C70.3643 39.2591 70.3876 39.2007 70.4226 39.1423C70.4984 38.9319 70.6965 38.7741 70.9704 38.8501L72.0835 39.154C71.2385 38.0203 70.6149 36.7582 70.1545 35.42C69.2629 36.7348 68.3712 38.0613 67.4504 39.3643C67.905 39.2708 68.3421 39.1364 68.8083 38.9378C69.2978 38.7274 69.7116 39.376 69.2337 39.6799C69.2163 39.6916 69.1988 39.6974 69.1871 39.7091C68.6102 41.018 67.6544 42.1049 66.5063 42.9346C66.8618 42.9697 67.2057 43.0106 67.5553 43.069C68.1673 43.1801 67.9633 44.0566 67.4213 44.0916H67.3572C67.0833 44.4306 66.7278 44.7227 66.3373 44.9506C66.6637 45.0675 66.9959 45.1902 67.3514 45.2895C67.771 45.4064 67.8409 45.8856 67.5903 46.1836C67.0425 46.8497 65.2767 47.6152 64.9736 48.1119C64.0237 49.6662 68.4703 51.1797 69.7582 51.4193C70.1604 51.4952 70.3352 52.1146 70.0147 52.3776L70.003 52.3717ZM56.2086 69.4286C56.1795 70.8427 56.1911 72.3503 55.8823 73.7235C56.7856 73.7352 57.6772 73.7352 58.5805 73.7527C65.2592 73.8287 71.9204 74.2552 78.5349 75.0207C78.4533 74.4481 78.5466 73.7761 78.5524 73.1684C78.5874 70.4629 78.6689 67.7515 78.8729 65.0577C75.5569 65.1395 72.2292 64.3799 69.2396 62.7262C70.3993 63.7313 71.7921 64.3682 73.4764 64.8006C73.9309 64.9175 73.8843 65.5953 73.4764 65.6947C73.4472 65.905 73.3307 66.1154 73.0684 66.2089C67.6952 68.1197 61.9607 69.2416 56.2086 69.4344V69.4286ZM85.2252 55.422C83.0223 54.5279 81.0991 52.9911 79.9044 50.8992C79.8287 50.7823 79.8403 50.6538 79.8928 50.5544C79.6946 50.1688 79.8462 49.6136 80.4115 49.6312C81.2507 49.6487 82.0491 49.6487 82.865 49.5844C81.204 48.2697 79.8753 46.5692 79.1293 44.5708C78.4533 44.3896 78.7564 43.3378 79.4499 43.5015C80.0035 43.63 80.4814 43.6943 80.9651 43.7235C79.6713 42.1224 78.43 40.4921 77.2295 38.815C76.2271 40.907 74.9858 42.847 73.523 44.6351C74.4263 44.4539 75.3354 44.2669 76.2446 44.1033C76.6933 44.0215 76.8798 44.6526 76.4369 44.787C76.4194 44.7987 76.4019 44.7987 76.3903 44.8045C75.6793 46.8614 74.1058 48.5794 72.3108 49.8591C72.9694 49.8474 73.6221 49.8298 74.2806 49.8708C74.6245 49.8883 74.8109 50.1805 74.7935 50.4668C74.8401 50.5427 74.8576 50.6304 74.8226 50.7297C74.0475 52.8041 72.3283 54.5046 70.4692 55.7843C71.6464 55.8193 72.7829 55.6849 74.0242 55.5856C74.706 55.5213 74.706 56.4738 74.1815 56.6841C74.1291 56.7017 74.0708 56.7134 74.0184 56.7309C73.5463 57.1808 73.016 57.6016 72.4623 57.9814C72.474 57.9931 72.4798 57.9931 72.4915 57.9931C72.9402 58.0924 73.0684 58.6943 72.7537 58.9981C71.559 60.196 70.3585 60.8739 68.9365 61.1076C74.9799 64.5318 81.8684 64.6136 87.8827 61.1894C85.4234 60.4415 83.2379 59.2786 82.5269 56.5673C82.492 56.4504 82.5269 56.3394 82.6027 56.2576C82.5561 55.9304 82.7484 55.5797 83.1797 55.5973C83.9081 55.6323 84.59 55.5797 85.2544 55.4337L85.2252 55.422ZM47.939 58.3846C45.4796 59.9214 42.624 60.4473 39.7917 60.1376C40.8757 61.5166 42.455 62.3113 44.2908 62.3406C44.7453 62.3522 45.0659 62.9716 44.6812 63.293C43.2243 64.5435 41.6566 65.8232 39.7975 66.2732C45.0192 67.5061 50.1594 68.1664 55.2587 68.1255C55.486 67.9444 55.8356 67.9444 56.0513 68.1138C61.2263 67.997 66.3839 67.138 71.5765 65.42C69.1988 64.7889 67.3922 63.182 66.1625 60.8622C65.9643 60.4765 66.2091 59.8571 66.7103 59.9097C68.2022 60.2486 69.5892 59.898 70.8947 58.8579C70.4867 58.7118 70.0846 58.5774 69.6825 58.4313C69.1813 58.0223 68.4062 57.7944 67.8584 57.4263C66.483 56.5147 65.4632 55.3519 64.5249 54.0079C64.2451 53.6047 64.6356 53.1372 65.0436 53.1021C66.2441 53.0846 67.3106 52.7808 68.2605 52.2256C66.0343 51.5595 64.4258 50.2447 63.1553 48.0885C62.9805 47.7963 63.1262 47.323 63.4934 47.2588C64.6881 47.3873 65.4632 46.9491 65.8012 45.9732C65.3466 45.7921 64.8979 45.6051 64.4608 45.4239C63.505 44.5649 62.1355 43.9981 61.1331 43.1099C60.8767 42.8879 60.935 42.5957 61.1156 42.4146C60.9874 42.3971 60.8592 42.3854 60.731 42.362C60.3755 42.286 60.4687 41.7309 60.8242 41.7426C61.4595 41.7543 64.8046 40.7901 63.2777 39.9779C62.6833 39.6682 61.8674 39.6857 61.2264 39.3585C59.9034 38.6807 58.7321 37.4828 58.3766 36.0044C58.3416 35.8466 58.3766 35.7239 58.4523 35.6129C58.3591 35.2681 58.5456 34.8357 59.0001 34.8474C59.8918 34.8766 60.6611 34.7831 61.442 34.5085C58.9244 32.7905 57.0595 30.4765 55.8823 27.7009C55.0431 30.57 53.1199 32.9074 50.4158 34.3039C51.1909 34.824 51.9835 35.1337 52.9509 35.3382C53.0966 35.3674 53.1782 35.4668 53.2073 35.5837C53.4812 35.7122 53.6619 36.0394 53.4812 36.3608C52.7061 37.7574 51.3949 38.891 50.1069 39.8143C49.6349 40.1532 48.1313 40.7258 48.1837 41.4037C48.2653 42.2743 49.6582 42.958 50.3225 43.3028C50.4799 43.3846 50.5207 43.5599 50.4974 43.7235C50.6722 43.9631 50.6897 44.3371 50.3633 44.5533C49.5358 45.1201 48.7024 45.6577 47.7583 45.9849C47.6651 45.9849 46.2023 46.3063 46.144 46.3589C45.672 46.2478 45.5321 46.4231 45.7361 46.8789C46.1848 47.3172 46.6277 47.7496 47.0648 48.1879C47.7292 48.8482 48.3935 49.5026 49.0579 50.1629C49.3959 50.5018 49.2153 51.0511 48.784 51.1855C46.6161 51.8867 44.5006 52.1088 42.286 51.9159C43.6264 54.563 45.7652 56.2634 48.411 57.7009C48.7665 57.8937 48.5101 58.4313 48.1371 58.3378C48.1022 58.3261 48.0614 58.3086 48.0264 58.3028C47.9973 58.332 47.9739 58.3554 47.9331 58.3846H47.939ZM35.5607 60.0675C36.9827 62.1302 38.9875 63.293 41.3769 64.1403C41.4701 64.1695 41.5401 64.2338 41.5983 64.2981C42.0529 63.9942 42.49 63.6845 42.9271 63.3281C40.8291 62.96 39.0341 61.6569 38.0609 59.6526C38.0259 59.5766 38.0084 59.5065 37.9968 59.4247C37.2333 59.7695 36.4232 59.9915 35.5666 60.0616L35.5607 60.0675ZM37.548 50.4083C36.5456 51.0745 35.2985 51.5127 34.0746 51.466C35.1411 54.1364 37.0526 56.1173 39.815 57.1516C40.188 57.2977 40.4736 57.8528 40.0773 58.1567C39.7567 58.4138 39.4187 58.6417 39.0866 58.852C41.7382 59.3429 44.2616 58.9514 46.686 57.847C43.877 56.6491 41.8489 54.1832 40.6834 51.3491C40.4852 50.8583 41.0389 50.5252 41.441 50.5895C43.4924 50.8992 45.4214 50.7999 47.3912 50.309C45.8701 49.0293 43.7488 47.3932 44.1742 45.5233C43.6439 45.2194 43.1602 44.7987 42.7814 44.3604C42.6648 44.3429 42.5424 44.3254 42.4259 44.2962C41.814 44.1384 41.9363 43.0807 42.5832 43.1625C43.4691 43.2794 44.2849 43.2794 45.1008 43.0807C43.6148 42.0873 42.3035 40.6966 41.5808 39.0897C41.5808 39.078 41.5692 39.078 41.5634 39.078C40.9165 38.9319 41.1962 37.9561 41.8373 38.0905C42.6124 38.2482 43.3525 38.33 44.0985 38.3476C42.5424 37.062 41.1904 35.5953 40.0073 33.965C39.0807 35.718 38.1599 37.4711 37.2217 39.2182C37.9443 39.1657 38.6087 38.9904 39.3255 38.6807C39.6285 38.5521 39.8791 38.78 39.8733 39.0254C39.9083 39.0897 39.9199 39.1598 39.8908 39.2533C39.3138 41.0355 38.0609 42.4847 36.5281 43.5365C37.2275 43.7293 37.9385 43.7644 38.7252 43.7819C39.3255 43.7995 39.4362 44.6526 38.8709 44.8221C38.7952 44.8396 38.7252 44.8513 38.6436 44.8688C37.9152 46.2771 36.6738 47.5451 35.281 48.3982C35.9745 48.7547 36.6738 49.076 37.414 49.3273C37.9035 49.5026 37.9851 50.1103 37.5597 50.4025L37.548 50.4083ZM29.8961 69.6214C29.9952 70.9187 30.17 73.6592 29.9311 74.8279C38.2532 73.9572 46.6977 73.706 54.909 73.7235C54.7342 72.3328 54.8799 70.8544 54.9906 69.4461C49.798 69.4987 44.623 68.7683 39.6926 67.1555C39.6635 67.2198 39.6169 67.2899 39.5469 67.3542C37.1401 69.5922 33.148 69.7032 29.8961 69.6214ZM27.4076 71.2225C24.9949 72.549 22.4715 73.6183 19.884 74.4481C19.9306 74.8513 19.983 75.2545 20.1112 75.6343C20.1637 75.8096 20.2395 75.9732 20.3094 76.1368C22.9785 75.6869 25.6768 75.307 28.3925 75.0032C28.4275 73.221 28.649 71.3569 28.9637 69.5864H28.952C27.9147 69.5513 26.8948 69.4578 25.8808 69.3234C26.347 69.598 26.8016 69.8785 27.2678 70.1532C27.7049 70.3285 27.8855 70.9596 27.4018 71.2225H27.4076ZM27.6174 50.8408C26.0148 54.1306 22.5414 56.4212 19.0797 57.6775C21.0029 58.3261 22.9436 58.5248 25.059 58.6358C25.6535 58.6651 25.84 59.6234 25.2047 59.7227C25.1698 59.7227 25.1232 59.7227 25.0882 59.7344C23.3573 62.5568 20.9213 64.4383 17.9724 65.6888C21.236 67.0328 24.622 67.9268 28.1769 68.1839C31.3939 68.406 35.7472 68.7391 38.463 66.6939C38.3639 66.6121 38.3056 66.5011 38.3173 66.39C38.09 66.2323 38.0783 65.8232 38.3989 65.7414C39.0807 65.5778 39.6926 65.3324 40.2754 65.046C37.7578 64.3974 35.7181 62.4224 34.605 60.0967C34.5292 60.0967 34.4709 60.1084 34.3952 60.0967C33.5676 60.0499 33.556 58.7995 34.3952 58.7995C35.8521 58.8111 37.1576 58.5716 38.3697 57.8879C35.6889 56.6841 33.6958 54.2241 33.1189 51.3199C33.0198 51.2907 32.9207 51.2732 32.8275 51.2439C32.2739 51.0453 32.3147 50.0928 32.9732 50.1571C34.0047 50.2564 34.9138 50.2564 35.8055 49.9584C35.1761 49.6838 34.5817 49.3624 33.9989 49.0059C33.7192 49.0235 33.486 48.8423 33.3986 48.6144C33.2005 48.48 32.9965 48.3398 32.8042 48.1879C31.8951 47.4866 30.6362 46.5868 30.6362 45.3187V45.2369C30.5197 44.8104 30.9743 44.2669 31.4813 44.5533C32.1398 44.9214 32.7867 45.1376 33.4744 45.2545C32.4196 43.7469 31.6969 42.0932 31.3123 40.2934C30.1467 42.0815 28.5907 43.6943 26.6559 44.5591C27.3494 44.6409 27.903 44.6351 28.6606 44.4773C29.1618 44.378 29.4532 44.9272 29.1327 45.3071C27.565 47.2237 25.5777 48.632 23.3282 49.5552C24.6511 49.9409 25.9973 49.9233 27.431 49.6312C28.1245 49.4851 28.3867 50.4551 27.7223 50.683C27.6932 50.6947 27.6699 50.7005 27.6408 50.7122C27.6408 50.7589 27.6291 50.8057 27.6058 50.8466L27.6174 50.8408ZM6.96957 71.8361C8.51976 71.9938 9.98837 71.8244 11.6143 71.6549C12.3078 71.5906 12.3078 72.5607 11.7717 72.7769C11.7192 72.7944 11.6609 72.8061 11.6143 72.8236C10.9208 73.7176 10.1865 74.4773 9.37062 75.1726C15.0993 74.6526 20.4667 73.1099 25.7351 70.7025C24.925 70.2525 24.3073 69.7441 23.5963 68.9319C20.8747 68.3651 18.2289 67.4535 15.653 66.2615C15.0411 65.981 15.28 65.0928 15.8278 64.9175C19.0739 63.8657 21.5332 62.1419 23.8527 59.8279C21.3817 59.9097 18.934 59.226 16.6903 58.1742C16.1367 57.9171 16.3232 57.0698 16.8535 56.912C16.9468 56.8945 17.0167 56.8595 17.0983 56.8361C16.533 56.2985 16.0493 55.6674 15.6763 54.9896C15.6413 54.9779 15.5947 54.972 15.5481 54.9603C14.8487 54.7617 15.146 53.6631 15.8511 53.8618C16.3698 54.0079 16.8244 54.0429 17.2731 53.9962C15.653 52.5704 14.3184 50.9284 13.2461 49.0644C12.5468 51.2323 11.7076 53.3476 10.3497 55.159C11.4337 54.9194 12.5118 54.6448 13.5958 54.3293C13.9396 54.2299 14.1727 54.7558 13.8405 54.9136C13.724 54.9779 13.6016 55.0246 13.4967 55.0772C12.4419 57.771 10.4546 60.085 8.17592 61.8848C9.46969 62.0776 10.7518 62.1127 12.0864 62.1302C12.7158 62.1419 12.8964 63.1645 12.2437 63.2697C12.1913 63.2697 12.133 63.2697 12.0864 63.2813C12.7158 64.9058 11.3404 66.8283 10.4488 68.1255C9.46386 69.5338 8.2983 70.755 6.9754 71.8244L6.96957 71.8361ZM5.12798 72.8937C4.53355 72.7593 4.51024 71.9705 4.96481 71.6608C6.39262 70.7025 7.6689 69.5805 8.78201 68.2541C9.76691 67.0854 11.4803 65.0285 11.3579 63.369C9.69115 63.5034 8.0244 63.3047 6.4101 62.8957C5.82732 62.7496 5.79818 61.99 6.24692 61.6919C8.7995 59.9857 10.7052 57.882 12.5409 55.5038C11.3812 55.9713 10.1923 56.3335 8.9685 56.6257C8.40321 56.7601 7.9836 56.0706 8.40321 55.6382C10.6003 53.3476 11.6027 50.4376 12.5584 47.4691C12.6925 47.0425 13.3685 46.8672 13.5958 47.3347C14.8429 49.9467 16.6379 52.1146 18.9107 53.8968C19.2954 54.189 19.0098 54.7208 18.666 54.8493C18.0074 55.1064 17.4071 55.1941 16.7894 55.1766C17.2381 55.6265 17.7102 56.0647 18.2114 56.4855C21.4633 55.2993 23.841 53.295 26.4461 50.9868C24.6977 51.2498 22.9202 50.8758 21.3351 50.0461C20.8689 49.8006 21.0087 49.076 21.4808 48.9417C23.8236 48.2755 25.8749 47.0659 27.6291 45.4239C27.1163 45.3713 26.6267 45.2603 26.1255 45.0558C25.8458 44.9389 25.8982 44.6 26.143 44.5357C26.108 44.4539 26.108 44.3546 26.178 44.2786C28.1478 42.4789 29.8961 40.8369 31.1258 38.4119C31.4055 37.8626 32.1107 38.2015 32.1631 38.6923C32.4662 41.2517 33.4919 43.5774 35.1586 45.535C35.4791 45.9206 35.2752 46.54 34.739 46.5517C33.5909 46.5634 32.5536 46.3297 31.5396 45.8739C32.1049 46.6335 33.3462 47.3172 33.9931 47.7204C35.2752 46.9081 36.3883 46.0141 37.4723 44.9681C36.5806 44.9156 35.6773 44.5942 34.9022 44.1734C34.5292 43.9631 34.5117 43.3495 34.9022 43.1508C36.4757 42.3561 37.6354 41.205 38.6495 39.8435C37.9035 40.1473 37.1284 40.311 36.2717 40.346C35.8463 40.3635 35.6074 39.861 35.7997 39.5046C37.0119 37.2549 38.2532 35.011 39.4828 32.773C39.6752 32.4282 40.1589 32.4633 40.357 32.773C41.8081 34.9584 43.5914 36.8049 45.6953 38.3651C46.1032 38.669 45.9517 39.2533 45.4388 39.2942C44.4656 39.3935 43.5332 39.3935 42.5949 39.265C43.7546 40.6966 45.0251 41.8478 46.7151 42.7068C47.0881 42.8996 47.0998 43.519 46.7151 43.7118C45.8934 44.1209 45.0134 44.3896 44.1101 44.4422C44.1567 44.4715 44.2034 44.5065 44.2442 44.524C44.6638 44.7461 45.13 44.8513 45.5554 45.0616C45.5729 45.0733 45.5845 45.0909 45.602 45.0967C46.9599 45.05 48.1546 44.4831 49.3551 43.817C48.0497 43.3145 46.5112 42.0289 46.9133 40.6674C47.1872 39.7383 48.9064 39.1715 49.5999 38.6456C50.6198 37.8684 51.4123 36.9159 52.2865 36.0161C51.0918 35.8524 50.1186 35.4493 49.1045 34.6721C48.8248 34.45 48.6966 33.9241 49.1045 33.7313C52.4497 32.1419 54.5535 29.302 55.2295 25.6733C55.3286 25.1357 56.1154 25.2058 56.2494 25.6733C57.3217 29.3078 59.612 32.1886 62.8348 34.1345C63.1728 34.3332 63.2078 34.8824 62.8348 35.0753C61.7217 35.6421 60.6727 35.9343 59.4605 35.9985C60.1715 37.1146 60.9816 38.0788 62.2754 38.5638C63.0971 38.8676 64.3967 38.7625 64.8979 39.639C65.399 40.5272 64.5598 41.392 63.8663 41.8419C63.2661 42.2276 62.6192 42.4087 61.9548 42.4438C62.9689 43.2852 63.9946 43.9222 65.096 44.4364C65.131 44.4072 65.1776 44.3838 65.23 44.3604C65.5039 44.2786 65.7662 44.1851 66.0226 44.0799C65.5098 44.0624 65.0086 44.0274 64.5016 43.9865C63.8081 43.9339 63.744 43.0749 64.3442 42.8236C65.7021 42.2568 66.7744 41.3803 67.7069 40.3226C67.2581 40.4512 66.8035 40.5213 66.314 40.5447C65.9294 40.5622 65.6322 40.0714 65.8594 39.7383C67.1532 37.8859 68.5577 36.092 69.8865 34.263C70.1079 33.9592 70.5333 34.0001 70.6615 34.3624C71.3434 36.39 72.4099 38.0905 73.826 39.6916C74.1349 40.048 73.8377 40.6616 73.3423 40.5213C72.6838 40.3285 72.0311 40.1473 71.3725 39.9545C71.8562 41.0414 72.5964 41.9646 73.6162 42.6308C74.7935 41.0297 75.8017 39.3234 76.635 37.4769C76.8157 37.0679 77.3752 37.1731 77.585 37.4769C79.1235 39.6799 80.7553 41.801 82.4803 43.8637C82.7892 44.2377 82.5911 44.787 82.0899 44.8221C81.3964 44.8688 80.7495 44.8337 80.1026 44.7403C81.0583 46.2654 82.2064 47.5918 83.6284 48.6787C83.6284 48.6787 83.6323 48.6748 83.64 48.667C84.217 48.182 85.0096 47.9424 85.6623 47.5626C85.7963 47.4808 85.9245 47.3873 86.0528 47.2997C85.5807 47.3347 85.1028 47.3464 84.6016 47.3172C84.0655 47.288 83.8907 46.6218 84.3394 46.3297C86.4432 44.9331 88.2149 43.1976 89.6135 41.094C89.8233 40.7843 90.2138 40.8018 90.4236 41.094C91.6824 42.847 92.9412 44.6117 94.1476 46.3998C94.369 46.7212 94.0835 47.212 93.6988 47.1828C92.7489 47.1302 91.7931 47.0893 90.8549 46.99C90.8432 46.99 90.8374 46.99 90.8257 46.9783C91.7757 48.1411 92.8655 49.0994 94.1417 49.8824C94.4215 49.3974 94.7537 48.9417 95.1907 48.5326C95.453 48.2755 95.995 48.3573 96.0649 48.7605C96.537 51.2615 97.2887 53.9845 99.7306 55.2116C100.261 55.4746 99.9404 56.1816 99.4567 56.2342C98.5709 56.316 97.7725 56.2225 97.0032 55.9245C98.2154 57.4496 99.5266 58.6534 101.374 59.5065C101.747 59.6701 101.747 60.3304 101.374 60.4999C100.302 60.9732 99.1944 61.0316 98.1396 60.6577C99.6432 62.9424 101.339 64.8532 103.816 66.1563C104.37 66.4485 104.061 67.2256 103.513 67.2607C102.365 67.3425 101.217 67.3133 100.069 67.2315C100.395 67.7808 100.768 68.2249 101.444 68.5755C102.54 69.1247 103.804 69.1598 104.987 69.3C105.244 69.3293 105.36 69.5396 105.331 69.7208C105.407 69.9194 105.384 70.1473 105.174 70.3402C102.656 72.7593 98.9205 73.6767 95.0975 73.519C94.7595 74.8513 94.3865 76.1602 94.066 77.4925C97.4636 78.1937 100.844 79.0001 104.201 79.9292C104.993 80.1395 104.655 81.3608 103.863 81.1563C88.7977 77.0834 73.2724 75.1726 57.683 75.0441C42.4142 74.9155 27.6408 77.3581 12.4943 78.6436C11.964 78.6904 11.8766 77.8489 12.3778 77.7321C14.5399 77.212 16.7311 76.7737 18.9457 76.3705C18.8524 75.8213 18.8524 75.2311 18.8991 74.7052C15.0877 75.8271 11.1423 76.4757 7.12692 76.6627C6.46255 76.6919 6.20613 75.7102 6.78891 75.4005C7.95447 74.7695 9.00347 74.0273 10.0058 73.1976C8.37407 73.443 6.65487 73.2502 5.08719 72.8704L5.12798 72.8937Z" fill="white"/>
</g>
<defs>
<clipPath id="clip0_123_169">
<rect width="100.757" height="55.9038" fill="white" transform="translate(4.65015 25.2998)"/>
</clipPath>
</defs>
</svg>
