<svg width="116" height="90" viewBox="0 0 116 90" fill="none" xmlns="http://www.w3.org/2000/svg">
<path d="M55.7505 88.1604C55.6666 88.1604 55.5828 88.154 55.4989 88.1349C55.1958 88.1987 54.8733 88.1476 54.6217 87.9753C54.3444 87.7901 54.1831 87.4772 54.1831 87.1261V74.5989C51.8289 73.9987 49.423 73.3858 47.0494 72.8112C46.1722 73.3411 45.237 73.7689 44.3276 74.1839C43.5987 74.5159 42.8441 74.8607 42.141 75.2566C42.0959 75.346 42.0378 75.429 41.9669 75.4992C41.6508 76.5208 40.6446 77.3253 39.3933 77.5551C39.116 77.785 38.7161 77.8616 38.342 77.7403C37.9098 77.5998 37.6325 77.2359 37.6196 76.7826C37.5873 75.9014 37.9098 75.0906 38.529 74.484C39.1095 73.9221 39.8964 73.5965 40.7091 73.622C41.5605 73.1176 42.4635 72.7026 43.3343 72.3068C43.5084 72.2237 43.689 72.1471 43.8696 72.0641C39.9029 71.1639 36.5424 70.519 33.3819 70.0529C33.3497 70.0529 33.311 70.0401 33.2787 70.0337C33.1949 70.1231 33.111 70.2061 33.0207 70.2827C32.4209 70.8063 31.705 71.0617 31.1051 70.9723C30.6407 70.9021 30.2537 70.6339 29.9828 70.1934C29.512 69.4272 29.6281 68.4631 29.899 67.7799C29.9119 67.3138 30.215 66.9498 30.6923 66.8094C30.8342 66.72 30.9697 66.6625 31.1051 66.6242C31.4986 66.5157 31.9114 66.5731 32.3306 66.7902C32.8595 66.9051 33.2723 67.135 33.5625 67.4798C33.6915 67.633 33.7883 67.799 33.8463 67.9778C35.4459 68.214 37.1229 68.5077 39.0837 68.8908C38.8193 68.2332 38.5161 67.5372 38.142 66.8732C37.5615 66.5348 37.1487 65.9602 36.9617 65.2387C36.7101 64.2554 36.9036 63.1061 37.4648 62.2953C37.6583 62.0143 37.9614 61.8355 38.2904 61.81C38.6 61.7781 38.8967 61.8866 39.1224 62.1101C39.2514 62.2378 39.3675 62.3719 39.4836 62.5379C40.3931 63.5467 40.7091 64.9194 40.3737 66.4007C40.3673 66.439 40.3544 66.471 40.3415 66.5093C40.8059 67.4542 41.1929 68.4375 41.5476 69.3761C43.3665 69.7592 45.2692 70.1934 47.4493 70.7169C47.4364 70.6786 47.43 70.6467 47.4235 70.6084L47.2623 70.3019C47.0881 69.9635 46.914 69.6315 46.7463 69.2867C46.7011 69.2739 46.656 69.2612 46.6173 69.242C45.6433 68.8334 44.9468 68.0289 44.7146 67.0392C44.463 65.9793 44.7597 64.8301 45.5143 63.9617C45.6885 63.7638 45.9336 63.6425 46.2045 63.6297C46.5076 63.6169 46.8172 63.7191 47.0365 63.9234C47.8815 64.696 48.3394 65.6409 48.4813 66.8988C48.5071 67.1541 48.5071 67.3585 48.5007 67.5372C48.5007 67.8373 48.4942 68.0225 48.649 68.3481C48.9651 69.0122 49.3134 69.6698 49.6036 70.2253C49.8036 70.5573 50.0358 70.9532 50.2099 71.3937C51.5322 71.7257 52.8544 72.0577 54.1767 72.3961V67.9203C53.8735 67.6266 53.5059 67.3329 53.0221 66.9945C52.977 66.9626 52.9189 66.9307 52.8673 66.8924C52.8544 66.886 52.8415 66.8732 52.8286 66.8668C52.8093 66.8668 52.7835 66.8732 52.7641 66.8732C51.5838 66.9945 50.4099 66.3944 49.7649 65.3536C49.1586 64.364 49.165 63.2211 49.7778 62.2953C50.0938 61.8228 50.6614 61.6695 51.1903 61.9185C52.9125 62.7103 53.9251 63.834 54.1251 65.1812L54.1831 65.2195V62.1037C53.1124 61.3886 51.945 60.6863 50.6227 59.9648C50.1906 60.284 49.7455 60.5905 49.3069 60.9034C49.0231 61.1013 48.7458 61.2992 48.462 61.4971C47.8299 62.8316 46.4238 63.668 44.9016 63.5786C44.4114 63.5531 44.0244 63.2274 43.9148 62.755C43.818 62.3463 43.9599 61.9249 44.2566 61.6823C44.8371 60.565 45.9465 59.8052 47.172 59.703C47.2236 59.703 47.2752 59.703 47.3203 59.703C47.6493 59.4668 47.9782 59.2369 48.3072 59.0007C48.3781 58.9496 48.4491 58.8985 48.52 58.8538C47.746 58.4579 46.9785 58.0748 46.2496 57.7109C46.0303 57.6024 45.8046 57.4874 45.5853 57.3789L45.424 57.2959C45.424 57.2959 45.3982 57.3087 45.3853 57.3151C44.9855 57.5194 44.592 57.7301 44.1921 57.9408C43.7793 58.1642 43.3536 58.3941 42.9279 58.6048C42.212 60.5458 40.3673 61.6376 38.3807 61.2864C38.0969 61.2354 37.8389 61.0374 37.6841 60.7629C37.5293 60.4883 37.5035 60.1882 37.6131 59.9265C38.3484 58.1259 39.7545 57.066 41.6895 56.8553C42.1733 56.6255 42.6506 56.3701 43.1214 56.1147C42.5474 55.8082 42.012 55.5209 41.5025 55.24L41.4509 55.208C40.2383 54.7419 38.7548 54.1545 38.2904 52.9797C38.0517 52.3859 38.1098 51.7219 38.4581 51.0068C38.729 50.4449 39.4062 50.3428 39.9029 50.5726C40.7607 50.9685 41.7153 51.4665 42.2636 52.3731C43.0182 53.6246 43.9406 54.1609 45.3724 54.8952C46.1013 55.2719 46.8366 55.6358 47.5654 56.0061C47.7589 56.1019 47.9524 56.2041 48.1524 56.2999C48.1072 56.1594 48.0621 56.0125 48.0105 55.8657C47.7718 55.1314 47.5203 54.378 47.4235 53.631C45.9723 52.3731 45.6756 50.4577 46.6495 48.638C46.0432 49.2062 45.3208 49.6149 44.663 49.9469C44.3469 50.1065 43.9406 50.1001 43.6181 49.9469C43.3407 49.8064 43.1537 49.5574 43.1085 49.2573C42.9473 48.2613 43.1859 47.2716 43.7858 46.4735C44.4372 45.6116 45.4627 45.0305 46.6044 44.8773C46.7463 44.8581 46.8817 44.8709 47.0107 44.9092C47.3784 44.7177 47.746 44.5197 48.1072 44.3282C47.3203 44.0473 46.3593 43.5556 45.9981 42.7894C45.8368 42.451 45.811 42.0935 45.9142 41.7359C45.6369 42.0041 45.3531 42.2723 45.0693 42.5404C44.7726 44.1686 43.6181 45.3498 41.7153 45.9627C41.3928 46.0649 41.0316 45.9947 40.7414 45.7712C40.464 45.5541 40.3157 45.2349 40.3415 44.9092C40.4318 43.8302 40.9865 42.3106 42.0056 41.5189C42.4893 41.1421 43.0376 40.9634 43.5987 41.0017C43.9406 40.6888 44.276 40.3632 44.6178 40.012C44.4824 39.9609 44.3534 39.9099 44.2308 39.8588C43.8503 39.929 43.2569 39.9865 42.657 39.846C42.6441 39.846 42.6312 39.846 42.6183 39.846C41.6057 39.7758 40.6898 39.3033 40.1673 38.5882C39.7094 37.9561 39.6707 37.0303 40.0835 36.4429C40.4705 35.8874 41.1542 35.6001 42.012 35.6192C43.5084 35.6575 44.7404 36.6089 45.0564 37.9114C46.3335 38.4222 47.6557 38.7861 48.9393 39.1054C48.9393 39.0926 48.9328 39.0862 48.9264 39.0734C48.8877 38.9713 48.8425 38.8627 48.8038 38.7606C48.7264 38.7159 48.6555 38.6584 48.5974 38.5946C46.9978 36.8451 46.8043 35.2042 48.0105 33.7229C48.1846 33.5058 48.4813 33.3781 48.7974 33.3781C49.107 33.3781 49.4101 33.5058 49.5843 33.7293C50.9388 35.4085 51.3709 36.9409 50.8549 38.1668L51.0936 38.767C51.1581 38.9202 51.2226 39.0734 51.2935 39.2267C51.3193 39.2778 51.3387 39.3225 51.3645 39.3735L51.3838 39.4055C51.4677 39.5012 51.5322 39.6162 51.5773 39.7439C52.3836 39.9354 53.2866 40.1653 54.196 40.4398V36.6408C53.6994 36.213 53.2866 35.7725 52.9383 35.3064C52.2868 35.1978 51.429 34.9297 50.7517 34.272C49.9971 33.5377 49.9132 32.4268 50.5324 31.4371C50.4421 31.4499 50.3518 31.4627 50.268 31.469C49.9648 31.5074 49.6488 31.5457 49.3263 31.5648C49.2424 31.6478 49.1457 31.7053 49.0296 31.7564C48.8812 31.8202 48.7329 31.8841 48.5781 31.9543C48.004 32.2161 47.4042 32.4842 46.7205 32.5353C45.94 32.5928 45.2886 32.4204 44.6243 31.9671C44.3727 31.8649 44.1599 31.7628 43.9793 31.6478C43.689 31.469 43.502 31.1562 43.4697 30.8114C43.4439 30.4922 43.56 30.1921 43.7922 29.9814C43.9212 29.8664 44.0502 29.7707 44.1792 29.6813C45.6756 28.2766 47.6815 28.2064 49.1199 29.4961C49.5133 29.5153 49.9713 29.4387 50.4163 29.3684C50.7195 29.3173 51.0355 29.2663 51.3387 29.2471C51.4225 29.2471 51.4999 29.2343 51.5838 29.2343C51.1645 28.8768 50.7453 28.5065 50.3454 28.117C49.3069 28.1425 48.3201 27.6126 47.7912 26.7442C47.2816 25.9078 47.3139 24.9373 47.8879 24.0817C48.133 23.7178 48.6555 23.4305 49.1392 23.6348C49.4682 23.7689 49.8487 23.9668 50.2293 24.2094C50.0164 23.5837 50.0422 22.9005 50.3067 22.3067C49.8745 22.3387 49.4424 22.2748 49.0296 22.1024C48.7071 21.9683 48.462 21.7257 48.3588 21.4256C48.262 21.1511 48.2878 20.851 48.4426 20.5764C49.0941 19.3889 50.2357 18.8908 51.8289 19.1015C51.8482 19.1015 51.8611 19.1015 51.8805 19.1079C52.1514 18.9866 52.4158 18.8781 52.6674 18.7823C52.6093 18.7376 52.5577 18.6865 52.5061 18.6418C51.7321 18.5971 51.0291 18.2268 50.5195 17.5755C49.8616 16.7391 49.623 15.5962 49.9003 14.5938C50.0487 14.0575 50.5711 13.7446 51.1645 13.8404C52.3062 14.0255 53.164 14.7151 53.5768 15.775C53.7445 16.2092 53.8542 16.6497 53.9509 17.0839C54.0025 17.1286 54.0928 17.1861 54.1896 17.2371V14.1405C53.3382 13.4573 53.1705 11.9122 53.6607 10.9736C54.0025 10.3287 54.654 9.92646 55.4022 9.90092C55.4215 9.90092 55.4602 9.89453 55.4925 9.89453C55.557 9.89453 55.5892 9.89453 55.6215 9.90092C56.3568 9.92646 57.0082 10.3223 57.3501 10.9736C57.8403 11.9122 57.6726 13.4573 56.8212 14.1405V17.2371C56.9179 17.1797 57.0082 17.1222 57.0598 17.0839C57.163 16.6497 57.2662 16.2092 57.4339 15.775C57.8467 14.7087 58.7045 14.0255 59.8462 13.8404C60.446 13.7446 60.962 14.0511 61.1104 14.5938C61.3877 15.5962 61.1491 16.7455 60.4912 17.5755C59.9816 18.2268 59.2786 18.5971 58.5046 18.6418C58.453 18.6929 58.4014 18.7376 58.3434 18.7823C58.5949 18.8781 58.8593 18.9866 59.1302 19.1079C59.1431 19.1079 59.1625 19.1079 59.1818 19.1015C60.775 18.8908 61.9231 19.3889 62.5745 20.5764C62.7229 20.851 62.7551 21.1511 62.6519 21.4256C62.5487 21.7193 62.3036 21.9683 61.9811 22.096C61.5748 22.2684 61.1362 22.3323 60.704 22.3004C60.9685 22.9005 60.9878 23.5837 60.7814 24.2031C61.162 23.954 61.549 23.7625 61.8715 23.6284C62.3552 23.4241 62.8777 23.705 63.1228 24.0754C63.6904 24.9309 63.7226 25.895 63.2131 26.7378C62.6842 27.6062 61.6973 28.1425 60.6589 28.1106C60.259 28.5065 59.8462 28.8704 59.4205 29.228C59.5043 29.228 59.5817 29.2343 59.6656 29.2407C59.9687 29.2599 60.2848 29.311 60.5879 29.362C61.033 29.4323 61.4909 29.5089 61.8844 29.4897C63.3227 28.2 65.3287 28.2638 66.8251 29.6749C66.9476 29.7579 67.0831 29.8537 67.2121 29.975C67.4443 30.1857 67.5604 30.4922 67.5346 30.805C67.5023 31.1434 67.3153 31.4563 67.025 31.6414C66.838 31.7564 66.6316 31.8585 66.38 31.9607C65.7157 32.414 65.0642 32.5928 64.2838 32.5289C63.6001 32.4779 63.0067 32.2097 62.4262 31.9479C62.2778 31.8777 62.123 31.8138 61.9747 31.75C61.865 31.7053 61.7683 31.6414 61.678 31.5584C61.3555 31.5457 61.0394 31.501 60.7363 31.4627C60.646 31.4499 60.5621 31.4371 60.4718 31.4307C61.091 32.4268 61.0072 33.5377 60.2525 34.2656C59.5753 34.9233 58.7174 35.1914 58.066 35.3C57.7177 35.7661 57.3049 36.2066 56.8083 36.6344V40.4334C57.7113 40.1589 58.6078 39.9354 59.414 39.7439L59.4398 39.7055C59.4785 39.597 59.543 39.4948 59.6204 39.4055H59.6269C59.6591 39.3352 59.6849 39.2841 59.7107 39.2331C59.7817 39.0798 59.8462 38.9266 59.9107 38.767L60.0461 38.4222C60.0784 38.3392 60.1106 38.2498 60.1493 38.1668C59.6333 36.9345 60.0655 35.4085 61.42 33.7293C61.6006 33.5058 61.8844 33.3781 62.2069 33.3781C62.5229 33.3781 62.8196 33.5058 62.9938 33.7293C64.1999 35.217 64 36.8579 62.4068 38.601C62.3488 38.6648 62.2778 38.7223 62.2004 38.767C62.1553 38.8691 62.1166 38.9777 62.0779 39.0798C62.0779 39.0926 62.0714 39.099 62.065 39.1118C63.3485 38.7989 64.6708 38.4286 65.9479 37.9178C66.2575 36.6089 67.4959 35.6639 68.9923 35.6256C69.8437 35.6001 70.5338 35.8938 70.9208 36.4493C71.3336 37.0367 71.2949 37.9561 70.837 38.5946C70.3145 39.3161 69.3986 39.7822 68.3795 39.8524H68.3473C67.7474 39.9929 67.154 39.9354 66.7735 39.8652C66.6509 39.9162 66.5219 39.9673 66.3865 40.0184C66.7283 40.3632 67.0702 40.6952 67.4056 41.0081C67.9667 40.9761 68.515 41.1549 68.9987 41.5252C70.0178 42.317 70.5725 43.8366 70.6628 44.9156C70.6886 45.2412 70.5403 45.5605 70.2629 45.7776C69.9791 46.001 69.6115 46.0713 69.289 45.9691C67.3862 45.3498 66.2317 44.1686 65.935 42.5468C65.6447 42.285 65.3609 42.0169 65.09 41.7423C65.1932 42.0999 65.161 42.4574 65.0062 42.7958C64.6385 43.562 63.6839 44.0473 62.897 44.3346C63.2647 44.5325 63.6259 44.7241 63.9935 44.9156C64.1225 44.8773 64.258 44.8645 64.3999 44.8837C65.5415 45.0369 66.5735 45.6179 67.2185 46.4799C67.8184 47.278 68.057 48.2613 67.8958 49.2637C67.8506 49.5638 67.6636 49.8128 67.3862 49.9533C67.0702 50.1129 66.6574 50.1129 66.3413 49.9533C65.6834 49.6277 64.961 49.2126 64.3547 48.6444C65.3287 50.4641 65.032 52.3795 63.5807 53.6374C63.484 54.3844 63.2324 55.1378 62.9938 55.8721C62.9422 56.0189 62.897 56.1658 62.8519 56.3062C63.0454 56.2105 63.2389 56.1083 63.4388 56.0125C64.1677 55.6422 64.903 55.2783 65.6318 54.9016C67.0573 54.1673 67.9796 53.631 68.7407 52.3795C69.289 51.4729 70.25 50.9749 71.1079 50.579C71.6045 50.3491 72.2753 50.4513 72.5526 51.0132C72.9009 51.7283 72.9525 52.3923 72.7203 52.9861C72.2495 54.1609 70.766 54.7483 69.5534 55.2144C69.5405 55.2208 69.5276 55.2336 69.5147 55.24C68.9987 55.5273 68.4634 55.8146 67.8829 56.1211C68.3537 56.3701 68.831 56.6255 69.3148 56.8617C71.2498 57.0724 72.6558 58.1323 73.3911 59.9329C73.4943 60.1946 73.4685 60.4947 73.3202 60.7693C73.1654 61.0438 72.9074 61.2418 72.6236 61.2928C70.6306 61.6504 68.7923 60.5522 68.0764 58.6112C67.6507 58.4005 67.225 58.1706 66.8122 57.9472C66.4187 57.7365 66.0188 57.5194 65.6189 57.3151C65.606 57.3151 65.5931 57.3023 65.5802 57.2959L65.419 57.3789C65.1997 57.4938 64.9804 57.6024 64.7546 57.7109C64.0258 58.0748 63.2582 58.4579 62.4842 58.8538C62.5552 58.9049 62.6261 58.956 62.6971 59.0007C63.026 59.2305 63.3614 59.4668 63.6839 59.703C63.7291 59.703 63.7807 59.703 63.8323 59.703C65.0578 59.8052 66.1607 60.565 66.7477 61.6823C67.0444 61.9249 67.1863 62.34 67.0895 62.755C66.9799 63.2274 66.5929 63.5467 66.1027 63.5786C64.5869 63.6616 63.1744 62.8316 62.5423 61.4971C62.2649 61.2992 61.9811 61.1013 61.6973 60.9034C61.2587 60.5969 60.8137 60.284 60.3815 59.9648C59.0593 60.6863 57.8919 61.395 56.8212 62.1037V65.2195L56.8792 65.1812C57.0792 63.834 58.0854 62.7103 59.8075 61.9185C60.3364 61.6759 60.904 61.8292 61.22 62.2953C61.8392 63.2274 61.8392 64.3703 61.2329 65.3536C60.5879 66.4007 59.414 66.9945 58.2337 66.8732C58.2143 66.8732 58.1886 66.8732 58.1692 66.8668C58.1563 66.8732 58.1434 66.886 58.1305 66.8924C58.0725 66.9307 58.0209 66.9626 57.9693 66.9945C57.4855 67.3329 57.1243 67.6202 56.8147 67.9203V72.3961C58.1369 72.0577 59.4592 71.7257 60.7814 71.3937C60.962 70.9532 61.1942 70.5509 61.4006 70.2061C61.6844 69.6698 62.0327 69.0122 62.3488 68.3481C62.5036 68.0225 62.5036 67.8373 62.4971 67.5372C62.4971 67.3585 62.4907 67.1541 62.5165 66.8988C62.6584 65.6409 63.1163 64.6896 63.9613 63.9234C64.1806 63.7191 64.4966 63.6105 64.7933 63.6297C65.0642 63.6489 65.3093 63.7638 65.4835 63.9617C66.2381 64.8301 66.5348 65.9793 66.2833 67.0392C66.0511 68.0289 65.3545 68.827 64.3805 69.242C64.3354 69.2612 64.2967 69.2739 64.2515 69.2867C64.0838 69.6251 63.9097 69.9635 63.7355 70.3019L63.5743 70.6084C63.5678 70.6467 63.5549 70.685 63.5485 70.7169C65.7286 70.1934 67.6313 69.7592 69.4502 69.3761C69.805 68.4375 70.192 67.4542 70.6564 66.5093C70.6435 66.4774 70.637 66.439 70.6241 66.4007C70.2887 64.9194 70.6048 63.5467 71.5142 62.5379C71.6303 62.3783 71.7528 62.2378 71.8754 62.1101C72.1011 61.8866 72.3978 61.7781 72.7074 61.81C73.0364 61.8419 73.3395 62.0207 73.533 62.2953C74.0942 63.0998 74.2941 64.2554 74.0361 65.2387C73.8491 65.9602 73.4298 66.5348 72.8558 66.8732C72.4881 67.5372 72.1785 68.2332 71.9141 68.8908C73.8749 68.5077 75.5519 68.2204 77.1515 67.9842C77.216 67.8054 77.3063 67.6394 77.4353 67.4862C77.7255 67.135 78.1383 66.9051 78.6672 66.7902C79.0865 66.5667 79.4928 66.5093 79.8927 66.6242C80.0282 66.6625 80.1636 66.72 80.3055 66.8094C80.7893 66.9498 81.086 67.3138 81.0989 67.7799C81.3762 68.4631 81.4859 69.4208 81.015 70.1934C80.7506 70.6339 80.3571 70.9021 79.8927 70.9723C79.2929 71.0681 78.5769 70.8063 77.9706 70.2827C77.8803 70.2061 77.7965 70.1231 77.7126 70.0337C77.6804 70.0401 77.6481 70.0465 77.6094 70.0529C74.4425 70.519 71.0885 71.1639 67.1218 72.0641C67.3024 72.1471 67.4765 72.2301 67.6571 72.3068C68.5279 72.7026 69.4309 73.1176 70.2823 73.622C71.1014 73.5965 71.8818 73.9221 72.4623 74.484C73.0815 75.0842 73.404 75.9014 73.3718 76.7826C73.3524 77.2359 73.0751 77.5998 72.6494 77.7403C72.2753 77.8616 71.8754 77.785 71.598 77.5551C70.3468 77.3253 69.3406 76.5208 69.0245 75.4992C68.9536 75.429 68.8955 75.346 68.8504 75.2566C68.1473 74.8607 67.3927 74.5223 66.6638 74.1839C65.7608 73.7689 64.8191 73.3411 63.9419 72.8112C61.5554 73.3858 59.1496 73.9987 56.8083 74.5989V87.1261C56.8083 87.4772 56.647 87.7837 56.3697 87.9753C56.1891 88.0966 55.9633 88.1604 55.744 88.1604H55.7505ZM55.5054 87.1771L55.6731 87.241C55.7376 87.2665 55.815 87.2601 55.8666 87.2282C55.8795 87.2218 55.9053 87.2027 55.9053 87.1324V73.903L56.2471 73.8136C58.7948 73.1623 61.3877 72.5047 63.9419 71.8854L64.1548 71.8343L64.3741 72.0067C65.2319 72.5302 66.1607 72.958 67.0637 73.3666C67.8571 73.7306 68.6762 74.1009 69.4567 74.5478L69.6115 74.6372L69.6631 74.8032C69.676 74.8416 69.6953 74.8735 69.7211 74.8926L69.8566 74.9884L69.8953 75.148C70.1081 76.0419 71.0563 76.5591 71.9012 76.6804L72.0818 76.7059L72.1979 76.8464C72.2237 76.8783 72.3075 76.8975 72.3849 76.8783C72.4494 76.8592 72.4752 76.8209 72.4752 76.7506C72.501 76.1313 72.2753 75.5567 71.8367 75.1416C71.4045 74.7266 70.8112 74.5095 70.2049 74.5415H70.1081L69.934 74.4904L69.8114 74.3946C69.0052 73.9221 68.1344 73.5199 67.2959 73.1368C66.7283 72.875 66.1414 72.6068 65.5738 72.3195L64.4773 71.7576L65.6834 71.4767C70.2307 70.4168 73.9845 69.6826 77.5062 69.159L77.6804 68.993L77.403 68.9036C77.3708 68.8908 77.345 68.8908 77.3127 68.8972C75.5132 69.1654 73.5975 69.5038 71.2949 69.9635L70.4822 70.1231L70.7789 69.3569C71.1272 68.4503 71.5464 67.3968 72.1076 66.4007L72.1721 66.2475L72.3269 66.1581C72.8558 65.8963 73.0751 65.4047 73.1718 65.0344C73.3589 64.3065 73.2105 63.4254 72.7977 62.8316C72.759 62.7741 72.701 62.7358 72.6429 62.7358C72.6107 62.7358 72.572 62.7422 72.5397 62.7741C72.443 62.8699 72.3527 62.9721 72.2624 63.1061L72.2301 63.1508C71.5142 63.9362 71.2691 65.028 71.5335 66.2283C71.5335 66.2411 71.54 66.2539 71.5593 66.2794L71.7141 66.5029L71.5916 66.7455C71.0885 67.7288 70.6757 68.7887 70.3016 69.7911L70.2694 70.1231L69.9404 70.238C67.7732 70.6914 65.4964 71.2086 62.7809 71.8726L61.7812 72.1152L62.2649 71.2149C62.2907 71.1702 62.3101 71.1255 62.3294 71.0809L62.4649 70.8382C62.5294 70.7297 62.6003 70.6211 62.6648 70.5126C62.6777 70.4871 62.6906 70.4679 62.6906 70.4424V70.3594L62.9293 69.9124C63.1357 69.5166 63.3421 69.1143 63.5356 68.7057L63.6581 68.4567L63.9355 68.4439C63.9806 68.4439 64.0129 68.4375 64.0322 68.4247C64.7417 68.1247 65.2319 67.5692 65.3996 66.8541C65.5867 66.0751 65.3609 65.2195 64.7998 64.5747C64.7998 64.5747 64.7869 64.5619 64.7546 64.5555C64.703 64.5491 64.6385 64.5747 64.5998 64.613C63.9161 65.2323 63.5614 65.9793 63.4453 67.0201C63.4259 67.218 63.4259 67.384 63.4324 67.5436C63.4388 67.8884 63.4453 68.2396 63.2002 68.7631C62.8777 69.4399 62.5229 70.1104 62.2262 70.6786C61.994 71.0681 61.7425 71.5023 61.5877 71.9556L61.5103 72.1918L61.2652 72.2493C59.672 72.6452 58.0854 73.0474 56.4987 73.4496L55.9246 73.5965V67.5756L56.0536 67.4415C56.4277 67.0584 56.8663 66.7008 57.4662 66.2794C57.5242 66.2347 57.5952 66.1964 57.6597 66.1517C57.7242 66.1134 57.7822 66.0751 57.8467 66.0304L58.0466 65.8899L58.2724 65.9793C58.2724 65.9793 58.3304 65.9985 58.3498 65.9985C59.1754 66.0879 60.0074 65.6537 60.4654 64.9067C60.8846 64.2299 60.8846 63.4445 60.4654 62.8188C60.4331 62.7741 60.3751 62.6847 60.2074 62.7677C59.1625 63.2466 57.8919 64.1086 57.7822 65.4941L57.7629 65.7048L57.5887 65.8261C57.2727 66.0496 56.9631 66.273 56.6599 66.5093L55.9182 67.0839V61.644L56.1181 61.5099C57.3372 60.6863 58.6787 59.8818 60.2138 59.0454L60.4718 58.9049L60.7105 59.0837C61.2136 59.4604 61.7296 59.8179 62.2456 60.1819C62.5616 60.4053 62.8841 60.6288 63.2002 60.8523L63.3034 60.9289L63.355 61.0438C63.8065 62.0973 64.8965 62.7486 66.0704 62.6911C66.1091 62.6911 66.1865 62.6847 66.2123 62.5698C66.2317 62.4932 66.2059 62.423 66.1801 62.4038L66.0511 62.3336L65.9866 62.1995C65.5544 61.2928 64.7224 60.7054 63.7678 60.6224C63.7549 60.6224 63.7484 60.6224 63.7162 60.6288L63.4969 60.6926L63.3098 60.5586C62.9293 60.284 62.5552 60.0159 62.1746 59.7477C61.8973 59.5561 61.6264 59.3582 61.349 59.1667L60.7492 58.7389L61.4071 58.3941C62.4068 57.8705 63.413 57.3661 64.3547 56.9C64.574 56.7915 64.7933 56.6829 65.0126 56.568L65.7673 56.1849L65.9995 56.4659C65.9995 56.4659 66.0253 56.4914 66.0446 56.5042C66.451 56.7085 66.8573 56.9256 67.2637 57.149C67.7216 57.3981 68.1925 57.6534 68.6633 57.8769L68.8375 57.9599L68.8955 58.1451C69.418 59.7541 70.8821 60.6799 72.4688 60.3926C72.501 60.3798 72.5526 60.2968 72.5462 60.2585C71.9334 58.758 70.7918 57.9088 69.1535 57.7556H69.0697L68.9923 57.7109C68.4182 57.4364 67.8506 57.1363 67.3088 56.8426L65.935 56.1083L66.7025 55.7124C67.5668 55.2655 68.3279 54.8569 69.0374 54.4674C69.0568 54.4482 69.0761 54.4355 69.0955 54.4227L69.2051 54.3525H69.2503C70.2436 53.9694 71.5464 53.4522 71.8625 52.6477C72.0044 52.2965 71.9592 51.8879 71.7206 51.4026C71.7012 51.3643 71.5851 51.358 71.4949 51.4026C70.7596 51.741 69.9469 52.1561 69.5276 52.8456C68.6504 54.295 67.5346 54.9463 66.0575 55.7061C65.3222 56.0828 64.5934 56.4531 63.8581 56.8234C63.3485 57.0788 62.8454 57.3342 62.3359 57.5896L61.4522 58.0365L61.678 57.0788C61.7941 56.5872 61.9618 56.0764 62.123 55.5847C62.3681 54.8377 62.6261 54.0651 62.6906 53.3564L62.71 53.1649L62.8648 53.0436C64.1612 52.0092 64.3741 50.3938 63.413 48.8232C63.3872 48.7848 63.3292 48.7529 63.2776 48.7465C63.2195 48.7465 63.2002 48.7657 63.1937 48.7721C62.5358 49.4936 61.7812 50.6428 61.8908 52.0411C61.8973 52.1561 61.9876 52.3221 62.065 52.4817C62.2133 52.769 62.3939 53.1202 62.3036 53.516C62.1811 54.0715 62.0198 54.6142 61.8715 55.1442C61.7554 55.5464 61.6393 55.9423 61.5361 56.3509L61.3426 57.1107L60.7685 56.568C60.6137 56.4212 60.4267 56.2615 60.2074 56.1019L59.9236 55.8912L60.059 55.5656C60.0848 54.9143 59.8397 54.3269 59.3882 53.8864C58.9174 53.4203 58.2595 53.1585 57.5952 53.1776C57.55 53.1776 57.492 53.2096 57.4533 53.2479C57.5371 54.4929 58.3433 55.0676 59.2786 55.7316C59.9816 56.2296 60.704 56.7468 61.1813 57.5704L61.2007 57.5896L61.4071 58.0685L61.033 58.2664C59.2915 59.1794 57.879 59.9903 56.6019 60.814L55.8924 61.2737V51.5112L56.1891 51.2494C56.589 50.9366 56.9695 50.6492 57.2985 50.3044C57.3049 50.2917 57.3178 50.2789 57.3307 50.2598L57.5371 49.9852L57.8596 50.1065C58.5884 50.3875 59.2012 50.3236 59.6785 49.915C60.317 49.3723 60.5686 48.5103 60.6653 47.8782C60.6718 47.8271 60.6653 47.776 60.5944 47.7122L60.517 47.6356C60.517 47.6356 60.4718 47.5909 60.4202 47.5909C58.8916 47.5717 57.2275 48.4337 57.0921 49.9214L57.0792 50.0874L56.9566 50.2023C56.8921 50.2661 56.8212 50.3236 56.7502 50.3811L56.6535 50.4641L55.8924 51.1345V42.2403L56.5245 42.4957C58.3305 43.23 60.0655 44.1622 61.736 45.0688C62.381 45.4136 63.0196 45.7648 63.671 46.1032C63.6968 46.1032 63.7162 46.116 63.7355 46.1224L63.9677 46.2054L64.0258 46.4416C64.3805 47.808 65.6641 48.5997 66.7477 49.136C66.8057 49.1679 66.9025 49.1616 66.9605 49.136C67.1089 48.3443 66.9347 47.6228 66.4768 47.0162C65.9737 46.3458 65.1739 45.8989 64.2709 45.7776L64.0451 45.9372L63.7613 45.8159C63.1163 45.4839 62.4778 45.1391 61.8392 44.7943L60.8201 44.2516L60.259 43.9579C59.4076 43.5109 58.2789 42.9363 57.0985 42.4255L55.9504 41.9339L57.1437 41.5763C57.6016 41.4422 58.0596 41.3145 58.5239 41.1932L58.7432 40.8357C58.0144 41.0208 57.2469 41.2315 56.4922 41.4805L55.8924 41.6785V36.213L56.0536 36.0789C56.6212 35.6065 57.0727 35.1276 57.4339 34.6104L57.5629 34.4316L57.8016 34.4189H57.8467C58.3305 34.3486 59.0593 34.1507 59.6075 33.6208C60.1429 33.1036 59.9945 32.3885 59.6785 31.8904C59.6269 31.8074 59.5624 31.7691 59.4527 31.75C59.0464 31.6925 58.3627 32.0692 58.0531 32.3565C57.5629 32.8099 57.2404 33.5505 57.2211 34.2592V34.3997L57.1372 34.5146C57.0018 34.6998 56.8534 34.8913 56.6986 35.0701L55.8924 35.9959V31.1817L56.1375 30.9199C56.2407 30.805 56.3503 30.6965 56.46 30.5879L56.6857 30.3708L57.0211 30.5113C57.9048 30.4028 58.8658 30.3964 60.0397 30.4794C60.317 30.4985 60.5879 30.5305 60.8588 30.5688C61.22 30.6135 61.5619 30.6582 61.9102 30.6646H62.1682L62.2972 30.888C62.4907 30.9838 62.6455 31.054 62.8067 31.1306C63.3356 31.3669 63.8323 31.5967 64.3483 31.6351C64.9288 31.6797 65.3932 31.5457 65.8963 31.1945L65.993 31.1434C66.2123 31.0604 66.3865 30.9774 66.5348 30.8816C66.58 30.8497 66.6187 30.7922 66.6251 30.7348C66.6251 30.6837 66.6058 30.6646 66.5993 30.6518C66.5026 30.5624 66.3865 30.4858 66.2833 30.4092L66.2252 30.3581C65.0449 29.228 63.5098 29.1896 62.4133 30.2559L62.3036 30.3645L62.1488 30.3836C61.5941 30.4475 61.0136 30.3517 60.4589 30.2623C60.1622 30.2112 59.8784 30.1665 59.6204 30.1474C59.1883 30.1155 58.7303 30.1091 58.2144 30.1282L56.8921 30.1729L58.2079 29.0683C58.8722 28.5128 59.5624 27.9446 60.1687 27.3253L60.3235 27.172L60.5428 27.1912C61.3039 27.2614 62.065 26.8911 62.4455 26.2654C62.6326 25.9525 62.8712 25.3268 62.3746 24.5734C62.3359 24.5095 62.2585 24.4712 62.2327 24.4712C61.2652 24.8798 59.7559 25.9078 59.8913 26.923L59.9236 27.1465L59.7623 27.3061C59.1754 27.8807 58.5433 28.4107 57.937 28.9279C57.5178 29.2854 57.0985 29.6366 56.6857 30.0069L55.9182 30.7029V26.8081L56.131 26.674C56.776 26.2718 57.2727 25.7099 57.8145 25.0778L58.0015 24.8543L58.2853 24.9309C59.0335 25.1289 59.4979 24.6436 59.6591 24.4201C60.0203 23.9349 60.2009 23.1432 59.7752 22.46C59.7365 22.4025 59.6591 22.3578 59.614 22.377C58.4852 22.7218 57.4081 23.5773 57.5436 24.7202L57.5694 24.9118L57.4468 25.0586C57.2211 25.3332 56.9695 25.6269 56.6986 25.895L55.9182 26.6548V19.3825L56.4664 19.491C57.6597 19.7272 58.6787 20.187 59.6591 20.9404C60.259 21.4001 61.0007 21.5214 61.6457 21.2532C61.7425 21.2149 61.7876 21.1575 61.807 21.1192C61.807 21.1064 61.8263 21.0745 61.7876 21.0042C61.3232 20.155 60.5428 19.8358 59.3237 19.9954L59.2786 20.021L59.1044 20.0784L58.9367 20.0018C58.3175 19.7209 57.7629 19.5102 57.2275 19.3569L56.2213 19.0696L57.1179 18.5333C57.4017 18.3609 57.7629 18.131 57.9951 17.882L58.137 17.7288H58.3434C59.0593 17.7543 59.5301 17.3521 59.7946 17.0137C60.2719 16.4071 60.4525 15.5515 60.2525 14.83C60.2203 14.7215 60.0977 14.7279 60.0203 14.7343C59.1883 14.8684 58.6142 15.3281 58.3176 16.1006C58.1628 16.4965 58.066 16.9179 57.9628 17.3585C57.8854 17.6969 57.5307 17.9139 56.9953 18.2013C56.9244 18.2396 56.8599 18.2715 56.8276 18.297L55.9375 18.9036V13.6552L56.1762 13.5275C56.7567 13.2147 56.8921 12.0335 56.5696 11.4205C56.3826 11.063 56.0343 10.8523 55.615 10.8395H55.5505H55.4989C55.0474 10.8523 54.6991 11.063 54.5121 11.4205C54.1896 12.0399 54.325 13.2147 54.9055 13.5275L55.1442 13.6552V18.9228L54.2476 18.3162C54.2476 18.3162 54.1573 18.2651 54.0799 18.2268C53.5446 17.9395 53.1898 17.7224 53.1124 17.3904C53.0092 16.9434 52.9125 16.5284 52.7577 16.1262C52.4545 15.3536 51.8805 14.8939 51.0549 14.7598C50.9839 14.747 50.8549 14.7407 50.8227 14.8492C50.6227 15.5707 50.8033 16.4327 51.2806 17.0328C51.5451 17.3648 51.9966 17.7735 52.7319 17.7479H52.9383L53.0802 17.8948C53.3124 18.1438 53.6671 18.3737 53.9574 18.546L54.8539 19.0824L53.8477 19.3697C53.3188 19.5229 52.7577 19.7336 52.1385 20.0146L51.9708 20.0912L51.7257 20.0082C50.5324 19.8486 49.752 20.1678 49.2811 21.017C49.2424 21.0872 49.2553 21.1192 49.2618 21.1319C49.2747 21.1702 49.3263 21.2277 49.423 21.266C50.0616 21.5342 50.8033 21.4129 51.4096 20.9531C52.39 20.1997 53.4091 19.7336 54.6024 19.5038L55.1506 19.3952V26.6676L54.3702 25.9078C54.0928 25.6397 53.8477 25.3459 53.622 25.0778L53.4994 24.9309L53.5252 24.7394C53.6607 23.5965 52.5835 22.7409 51.4548 22.3961C51.4032 22.3834 51.3322 22.4153 51.2935 22.4791C50.8678 23.1623 51.042 23.954 51.4096 24.4393C51.5773 24.6564 52.0417 25.148 52.7835 24.9501L53.0673 24.8735L53.2543 25.0969C53.7897 25.7354 54.2863 26.2909 54.9378 26.6932L55.1506 26.8272V30.722L54.3831 30.0261C53.9767 29.6557 53.5575 29.2982 53.1318 28.947C52.5255 28.4298 51.8934 27.8999 51.3064 27.3253L51.1452 27.1656L51.1774 26.9422C51.3193 25.927 49.8036 24.8926 48.8232 24.484C48.8167 24.484 48.7393 24.5287 48.6942 24.5925C48.1911 25.3459 48.4362 25.978 48.6232 26.2845C49.0038 26.9102 49.7649 27.2806 50.526 27.2103L50.7453 27.1912L50.9001 27.3444C51.5064 27.9637 52.1965 28.5384 52.8609 29.0875L54.1767 30.1921L52.8544 30.1474C52.3384 30.1282 51.8805 30.1346 51.4483 30.1665C51.1903 30.1857 50.9065 30.2304 50.6098 30.2815C50.0487 30.3708 49.4682 30.4666 48.9199 30.4028L48.7651 30.3836L48.6555 30.2751C47.5396 29.1896 46.0432 29.228 44.8436 30.3772L44.7855 30.4219C44.6759 30.4922 44.5662 30.5752 44.4695 30.6646C44.4566 30.6773 44.4372 30.6965 44.4437 30.7476C44.4437 30.805 44.4824 30.8625 44.534 30.8944C44.6823 30.9902 44.85 31.0732 45.0758 31.1562L45.1725 31.2073C45.6756 31.5584 46.14 31.6925 46.7205 31.6478C47.2429 31.6095 47.7396 31.386 48.262 31.1434C48.4233 31.0732 48.5781 31.003 48.7393 30.9327L48.8683 30.7092L49.165 30.6773C49.5133 30.6773 49.8552 30.6326 50.2164 30.5815C50.4808 30.5496 50.7517 30.5113 51.0355 30.4922C52.2094 30.4092 53.164 30.4219 54.0541 30.5241L54.3444 30.39L54.6153 30.6007C54.7249 30.7092 54.8346 30.8178 54.9378 30.9327L55.1829 31.1945V36.0087L54.3766 35.0829C54.2154 34.8977 54.067 34.7126 53.938 34.5274L53.8542 34.4125V34.272C53.8348 33.5697 53.5123 32.8226 53.0221 32.3693C52.7125 32.082 52.0288 31.7053 51.6225 31.7628C51.5128 31.7755 51.4483 31.8138 51.3967 31.8968C51.0807 32.3949 50.9323 33.11 51.4677 33.6271C52.0095 34.1571 52.7448 34.355 53.2672 34.4316C53.2479 34.4316 53.2672 34.4316 53.293 34.4316L53.5123 34.4444L53.6413 34.6232C54.0025 35.1404 54.454 35.6192 55.0216 36.0917L55.1829 36.2258V41.6912L54.583 41.4933C53.7768 41.2315 52.9576 41.0081 52.1901 40.8165L52.3707 41.1613C52.8931 41.2954 53.4156 41.4358 53.9316 41.5891L55.1248 41.9466L53.9767 42.4383C52.7964 42.9491 51.6676 43.5237 50.8162 43.9706L49.236 44.8071C48.5974 45.1518 47.9589 45.4902 47.3139 45.8286L47.0688 45.9563L46.8366 45.7967C45.9013 45.9053 45.0951 46.3586 44.592 47.0226C44.1341 47.6292 43.9599 48.3507 44.0889 49.1169C44.1728 49.1679 44.2695 49.1743 44.3211 49.1424C45.4047 48.6061 46.6882 47.808 47.043 46.448L47.101 46.2117L47.3977 46.1096C48.0492 45.7712 48.6942 45.42 49.3392 45.0752C51.0097 44.1686 52.7383 43.2364 54.5508 42.5021L55.1829 42.2467V51.1409L54.3186 50.3811C54.2476 50.3236 54.1831 50.2661 54.1186 50.2087L53.9961 50.0937L53.9832 49.9277C53.8477 48.4592 52.2288 47.5973 50.7195 47.5973C50.7001 47.5973 50.6743 47.5973 50.655 47.5973C50.5969 47.5973 50.5776 47.6164 50.5582 47.642L50.4808 47.7186C50.4034 47.7824 50.4034 47.8335 50.4099 47.8846C50.5066 48.5167 50.7582 49.3786 51.3967 49.9214C51.874 50.33 52.4868 50.3938 53.2156 50.1129L53.5381 49.9916L53.7768 50.3108C54.0993 50.6492 54.4798 50.9366 54.8797 51.2494L55.1829 51.4857V61.2737L54.4734 60.814C53.1963 59.9903 51.7837 59.1794 50.0422 58.2664L49.7133 58.094L49.8552 57.6088L49.9003 57.5704C50.3712 56.7532 51.1 56.236 51.7966 55.738C52.7319 55.074 53.5381 54.4993 53.6478 53.2926C53.6478 53.2798 53.6284 53.2543 53.6284 53.2543C53.5962 53.216 53.5317 53.184 53.4865 53.184C52.8093 53.1649 52.1643 53.4267 51.6934 53.8928C51.2419 54.3333 51.0033 54.9207 51.0097 55.5337L51.1452 55.8593L50.8743 56.1083C50.655 56.2743 50.4744 56.4275 50.3131 56.5744L49.7391 57.1235L49.5456 56.3573C49.4424 55.9551 49.3263 55.5528 49.2102 55.1506C49.0554 54.6206 48.9006 54.0779 48.778 53.5224C48.6877 53.1266 48.8683 52.7754 49.0167 52.4881C49.1005 52.3285 49.1844 52.1625 49.1908 52.0475C49.3005 50.6492 48.5394 49.5 47.8879 48.7785C47.8815 48.7721 47.8621 48.7465 47.8041 48.7529C47.746 48.7529 47.688 48.7912 47.6686 48.8295C46.7076 50.4002 46.9204 52.0156 48.2169 53.0499L48.3717 53.1713L48.391 53.3628C48.4555 54.0715 48.7135 54.8441 48.9586 55.5847C49.1199 56.0764 49.2876 56.5808 49.4037 57.0788L49.6294 58.0365L48.7458 57.5896C48.2427 57.3342 47.7331 57.0788 47.2236 56.8234C46.4883 56.4531 45.753 56.0828 45.0242 55.7061C43.5471 54.9463 42.4313 54.295 41.5541 52.8456C41.1413 52.1561 40.3221 51.741 39.5933 51.4026C39.503 51.358 39.3869 51.3643 39.3675 51.4026C39.1289 51.8879 39.0837 52.2965 39.2256 52.6477C39.5481 53.4458 40.851 53.9694 41.8379 54.3525H41.883L42.0701 54.4738C42.7538 54.8505 43.5213 55.2591 44.3921 55.7061L45.1596 56.1019L43.7858 56.8362C43.2375 57.1299 42.6764 57.4364 42.1023 57.7045L42.0249 57.7428H41.9411C40.3028 57.9025 39.1611 58.7516 38.5484 60.2649C38.5484 60.2904 38.6 60.3798 38.6387 60.3926C40.2125 60.6735 41.6831 59.7477 42.2055 58.1451L42.2636 57.9599L42.4377 57.8769C42.9086 57.6471 43.3794 57.3917 43.8374 57.1427C44.2373 56.9256 44.6436 56.7085 45.05 56.5042C45.0693 56.4914 45.0822 56.485 45.0951 56.4659L45.3273 56.1849L46.0819 56.568C46.3012 56.6766 46.5205 56.7915 46.7398 56.9C47.6815 57.3661 48.6877 57.8705 49.6875 58.3941L50.3454 58.7389L49.7455 59.1667C49.4746 59.3646 49.1973 59.5561 48.9199 59.7477C48.5394 60.0159 48.1588 60.284 47.7847 60.5586L47.6041 60.6926L47.3848 60.6288C47.3526 60.616 47.3397 60.616 47.3332 60.6224C46.3722 60.7054 45.5466 61.2928 45.1144 62.1995L45.05 62.3336L44.921 62.4038C44.921 62.4038 44.8694 62.4868 44.8887 62.5698C44.9145 62.6847 44.9919 62.6847 45.0306 62.6911C46.2045 62.7486 47.2945 62.0909 47.746 61.0438L47.7976 60.9289L47.9008 60.8523C48.2169 60.6288 48.5329 60.4053 48.8554 60.1819C49.3714 59.8243 49.8874 59.4604 50.3905 59.0837L50.6292 58.9049L50.8872 59.0454C52.4223 59.8818 53.7639 60.6863 54.9829 61.5099L55.1829 61.644V67.0839L54.4411 66.5093C54.138 66.273 53.8284 66.0496 53.5123 65.8261L53.3382 65.7048L53.3188 65.4941C53.2027 64.1086 51.9321 63.2466 50.8936 62.7677C50.7259 62.6911 50.6679 62.7741 50.6356 62.8188C50.2164 63.4445 50.2228 64.2299 50.6356 64.9067C51.0936 65.6537 51.9256 66.0815 52.7512 65.9985C52.7706 65.9985 52.7964 65.9921 52.8286 65.9793L53.0544 65.8899L53.2543 66.0304C53.3188 66.0751 53.3833 66.1134 53.4414 66.1517C53.5123 66.1964 53.5768 66.2347 53.6349 66.2794C54.0412 66.5667 54.5701 66.9498 55.0474 67.4415L55.1764 67.5756V73.5901L54.6024 73.4433C53.0157 73.041 51.4225 72.6324 49.8358 72.2429L49.5907 72.1854L49.5133 71.9492C49.3585 71.4959 49.107 71.0617 48.8877 70.6914C48.5781 70.104 48.2233 69.4336 47.9008 68.7568C47.6557 68.2396 47.6622 67.882 47.6686 67.5436C47.6686 67.384 47.6751 67.218 47.6557 67.0201C47.5396 65.9793 47.1849 65.2323 46.5012 64.613C46.4625 64.5747 46.398 64.5491 46.3464 64.5555C46.3141 64.5555 46.3012 64.5683 46.3012 64.5747C45.7401 65.2259 45.5143 66.0751 45.7014 66.8541C45.8691 67.5692 46.3593 68.1247 47.0688 68.4247C47.0881 68.4311 47.1204 68.4375 47.1655 68.4439L47.4429 68.4567L47.5654 68.7057C47.7589 69.1143 47.9653 69.5102 48.1717 69.9124L48.4039 70.3594V70.4424C48.4039 70.4424 48.4233 70.4871 48.4362 70.5062C48.5007 70.6148 48.5652 70.7169 48.6297 70.8255L48.7651 71.0745C48.7845 71.1192 48.8103 71.1639 48.8361 71.2085L49.3263 72.1088L48.3201 71.8662C45.6046 71.2022 43.3278 70.685 41.1606 70.2317L40.8252 70.1614L40.793 69.7592C40.4189 68.7823 40.0125 67.7224 39.5094 66.7391L39.3869 66.4965L39.5417 66.273C39.5417 66.273 39.561 66.2347 39.5675 66.222C39.8384 65.0216 39.5933 63.9298 38.8709 63.1444L38.8386 63.1061C38.7419 62.9721 38.6516 62.8699 38.5613 62.7741C38.529 62.7422 38.4968 62.7294 38.4581 62.7358C38.4 62.7358 38.342 62.7805 38.3033 62.8316C37.8905 63.419 37.7421 64.3065 37.9292 65.0344C38.0259 65.4047 38.2452 65.8963 38.7741 66.1581L38.9225 66.2347L38.987 66.388C39.5481 67.3968 39.9674 68.4503 40.3157 69.3569L40.6124 70.1231L39.7997 69.9635C37.497 69.5038 35.5814 69.1654 33.7818 68.8972C33.756 68.8972 33.7302 68.8972 33.698 68.9036L33.4077 68.993L33.5561 69.1335C33.5561 69.1335 33.5754 69.1526 33.5948 69.1526C37.11 69.6698 40.8639 70.4104 45.4111 71.4703L46.6173 71.7513L45.5208 72.3131C44.9532 72.6068 44.3663 72.875 43.7987 73.1304C42.9537 73.5135 42.083 73.9157 41.2767 74.3882C41.2638 74.401 41.2509 74.4138 41.2316 74.4265L41.1542 74.484L41.0832 74.5032C41.0832 74.5032 41.0639 74.5095 41.0574 74.5159L40.9736 74.5478H40.8833C40.277 74.5032 39.6771 74.7266 39.2514 75.1416C38.8193 75.563 38.5935 76.1313 38.6129 76.7506C38.6129 76.8272 38.6387 76.8592 38.7032 76.8783C38.7806 76.9039 38.8644 76.8783 38.8902 76.8528L39.0063 76.7123L39.1869 76.6868C40.0319 76.5655 40.98 76.0483 41.1929 75.1544L41.2316 74.9948L41.3606 74.899C41.3606 74.899 41.4057 74.8479 41.4186 74.8096L41.4702 74.6436L41.625 74.5542C42.4055 74.1137 43.2246 73.737 44.018 73.373C44.921 72.958 45.8562 72.5302 46.7076 72.013C46.7205 72.0003 46.7334 71.9875 46.7527 71.9747L46.9269 71.8407L47.1397 71.8917C49.7068 72.5111 52.2997 73.1687 54.8152 73.8136L55.1571 73.903L55.1764 74.2605V87.1388C55.1764 87.2091 55.2022 87.2282 55.2151 87.2346C55.2603 87.2665 55.3441 87.2729 55.4086 87.2474L55.5763 87.1835L55.5054 87.1771ZM69.7727 74.3627C69.7727 74.3627 69.7727 74.3627 69.7792 74.3691H69.7727V74.3627ZM70.4435 73.7433L70.4564 73.7561C70.4564 73.7561 70.45 73.7497 70.4435 73.7433ZM70.3984 73.6987H70.4113C70.4113 73.6987 70.4048 73.6987 70.3984 73.6987ZM63.7226 72.6451C63.7226 72.6451 63.7291 72.6515 63.7355 72.6579L63.7226 72.6451ZM64.3289 71.9747C64.3289 71.9747 64.3354 71.9747 64.3418 71.9811C64.3418 71.9811 64.3354 71.9811 64.3289 71.9747ZM31.505 67.4925C31.447 67.4925 31.3954 67.5053 31.3567 67.5117C31.2922 67.5309 31.2277 67.5628 31.1438 67.6202L31.0729 67.6649L30.989 67.6841C30.8213 67.7224 30.8213 67.7863 30.8213 67.8246L30.8342 67.9459L30.7826 68.0544C30.5633 68.5461 30.473 69.2548 30.7633 69.7273C30.8923 69.9316 31.0471 70.0465 31.2406 70.0784C31.5631 70.1295 32.0275 69.9443 32.4144 69.6059C32.5499 69.491 32.6724 69.3506 32.7756 69.2101L33.0401 68.8334L33.0207 68.5014C33.0143 68.3417 32.9627 68.2077 32.8595 68.08C32.6982 67.882 32.4402 67.7543 32.092 67.6905L32.0146 67.6777L31.9436 67.6394C31.7566 67.5309 31.6147 67.4989 31.505 67.4989V67.4925ZM77.9706 68.8845L78.2351 69.2101C78.3383 69.3569 78.4608 69.491 78.5963 69.6059C78.9833 69.9443 79.4477 70.1295 79.7702 70.0784C79.9637 70.0465 80.1185 69.9316 80.2475 69.7273C80.5377 69.2484 80.4474 68.5397 80.2281 68.0544L80.1765 67.9395L80.1959 67.7863C80.1959 67.7863 80.1894 67.7224 80.0282 67.6905L79.9443 67.6713L79.8734 67.6266C79.7895 67.5692 79.725 67.5372 79.6605 67.5181C79.5509 67.4862 79.3703 67.467 79.0736 67.633L79.0026 67.6713L78.9252 67.6841C78.5769 67.7479 78.3189 67.882 78.1512 68.08C78.048 68.2013 77.9964 68.3354 77.99 68.5014L77.9706 68.8908V68.8845ZM50.8356 57.7109C52.0998 58.3813 53.1898 59.0007 54.1896 59.62V54.4993C53.7639 55.4124 52.977 55.9742 52.2546 56.4914C51.7192 56.8681 51.2097 57.232 50.8356 57.7109ZM56.8147 54.4993V59.62C57.8145 59.0007 58.9045 58.3813 60.1687 57.7109C59.7946 57.2257 59.285 56.8681 58.7497 56.485C58.0273 55.9742 57.2404 55.406 56.8147 54.4929V54.4993ZM47.746 47.8654C48.0363 47.8654 48.3072 47.9804 48.4942 48.1911C49.2682 49.0402 50.1648 50.4194 50.0293 52.1369C50.0035 52.437 49.8745 52.6924 49.7584 52.9222C49.6875 53.0627 49.5778 53.267 49.5972 53.3437C49.7197 53.8736 49.8681 54.4035 50.0164 54.9207C50.0229 54.9526 50.0358 54.9846 50.0422 55.0101C50.1454 54.3525 50.4615 53.7459 50.9517 53.2606C51.6031 52.6222 52.4997 52.2646 53.4156 52.2838C53.6994 52.2901 53.9767 52.4115 54.1831 52.6158V51.939C53.8413 51.6708 53.4865 51.3963 53.164 51.0834C52.2417 51.3516 51.3774 51.1983 50.7195 50.6301C50.0422 50.0554 49.5972 49.1616 49.423 48.0442C49.365 47.6866 49.4875 47.3355 49.7649 47.0865C49.9584 46.8502 50.2357 46.7161 50.5582 46.7098C51.9063 46.697 53.3704 47.2206 54.1831 48.2677V43.6322C52.648 44.3027 51.1516 45.1072 49.7004 45.8925C49.0618 46.2373 48.4297 46.5821 47.7847 46.9141C47.6557 47.3099 47.4687 47.6675 47.2429 47.9804C47.3655 47.9229 47.5009 47.8846 47.6364 47.8654C47.6686 47.8654 47.7073 47.8654 47.7396 47.8654H47.746ZM57.6532 52.2901C58.5433 52.2901 59.414 52.6413 60.0461 53.267C60.5363 53.7523 60.8524 54.3588 60.9556 55.0165C60.962 54.9846 60.9749 54.9526 60.9814 54.9271C61.1297 54.4099 61.2845 53.88 61.4006 53.35C61.42 53.2734 61.3103 53.0691 61.2394 52.9286C61.1233 52.6988 60.9878 52.4434 60.9685 52.1433C60.833 50.4258 61.7296 49.0466 62.5036 48.1974C62.7164 47.9612 63.026 47.8463 63.355 47.8782C63.4969 47.891 63.6259 47.9293 63.7484 47.9931C63.5227 47.6803 63.3356 47.3227 63.2066 46.9268C62.5681 46.5948 61.9295 46.25 61.2974 45.9053C59.8462 45.1199 58.3498 44.309 56.8083 43.645V48.2804C57.621 47.2333 59.0851 46.697 60.4331 46.7225C60.7556 46.7225 61.033 46.863 61.2265 47.0992C61.4974 47.3546 61.6264 47.6994 61.5683 48.0634C61.3942 49.1807 60.9491 50.0746 60.2719 50.6492C59.614 51.2111 58.7497 51.3643 57.8274 51.1026C57.4984 51.4218 57.1501 51.6964 56.8083 51.9581V52.6349C57.0082 52.437 57.292 52.3093 57.5758 52.3029C57.6016 52.3029 57.621 52.3029 57.6468 52.3029L57.6532 52.2901ZM52.9125 50.7961C52.9125 50.7961 52.9125 50.8025 52.9125 50.8089V50.7961ZM64.6837 40.0248C65.3093 40.708 65.9801 41.3656 66.6832 42.0041L66.8057 42.1126L66.8315 42.2723C67.025 43.6322 67.9538 44.5964 69.5857 45.1263C69.605 45.1327 69.6566 45.1263 69.7018 45.088C69.7405 45.0561 69.7534 45.0242 69.7534 45.0114C69.676 44.092 69.2051 42.8533 68.4376 42.2595C68.0893 41.9849 67.7216 41.8828 67.3282 41.9466L67.1089 41.9786L66.9476 41.8317C66.38 41.3145 65.8253 40.7718 65.2448 40.1589L64.7611 39.6481L65.4254 39.4182C65.8253 39.2778 66.1478 39.1564 66.4381 39.0351L66.6316 38.9202L66.8057 38.9585C67.2895 39.0671 67.7926 39.0734 68.1796 38.9713L68.2957 38.9585H68.3344C69.0632 38.9074 69.7276 38.5818 70.0888 38.0774C70.321 37.7582 70.3532 37.2538 70.1597 36.9792C69.8824 36.5833 69.3212 36.5323 69.0116 36.545C67.8893 36.577 66.9347 37.3368 66.8057 38.32L66.7735 38.5818L66.4703 38.7031C64.7998 39.3927 63.0518 39.8269 61.4135 40.2163L60.5621 40.4143L60.904 39.5587C61.0201 39.2905 61.1233 39.0224 61.2265 38.7606C61.291 38.5946 61.3555 38.435 61.42 38.2689L61.4974 38.071L61.6973 38.0072C63.026 36.5706 63.2002 35.4341 62.2843 34.2976C62.2585 34.2848 62.1617 34.2848 62.1295 34.3039C61.3168 35.3191 60.4589 36.7813 61.0588 37.9433L61.1555 38.1285L61.0781 38.32C61.0201 38.4605 60.962 38.6073 60.904 38.7542L60.7685 39.099C60.6976 39.265 60.6331 39.4374 60.5557 39.597C60.5234 39.6609 60.4912 39.7311 60.4589 39.7949L60.4202 39.8588C60.4202 39.8588 60.3944 39.8971 60.3815 39.9226V39.9418C60.3751 39.9418 60.3622 39.9418 60.3557 39.9482C60.3428 39.9673 60.3299 39.9801 60.3106 39.9992C60.3041 40.012 60.2912 40.0376 60.2977 40.0695L60.3235 40.4526L59.9494 40.542C59.7881 40.5803 59.6269 40.6186 59.4592 40.6569L58.9109 41.0911C59.543 40.9314 60.1687 40.7846 60.7943 40.6441C61.9037 40.3887 63.0583 40.1206 64.1612 39.7949L64.445 39.7119L64.6901 39.9865L64.6837 40.0248ZM43.4568 41.9339C43.1472 41.9339 42.8505 42.0424 42.5667 42.2659C41.7992 42.8597 41.3219 44.0983 41.2509 45.0178C41.2509 45.0305 41.2638 45.0625 41.3025 45.0944C41.3477 45.1327 41.3993 45.1391 41.4186 45.1327C43.0505 44.6027 43.9793 43.645 44.1728 42.2787L44.1986 42.119L44.3211 42.0105C45.0306 41.3656 45.7014 40.7016 46.3206 40.0312L46.5592 39.7566L46.843 39.8396C47.946 40.1653 49.1005 40.427 50.2099 40.6888C50.7775 40.8229 51.358 40.957 51.9385 41.0975L51.4483 40.676C51.3129 40.6441 51.1839 40.6122 51.0484 40.5803L50.6743 40.4909L50.7001 40.1078C50.7001 40.0695 50.7001 40.0503 50.6872 40.0312C50.6679 40.012 50.655 39.9993 50.6421 39.9801C50.6356 39.9801 50.6292 39.9801 50.6163 39.9737V39.9546C50.6163 39.9546 50.5969 39.9099 50.584 39.8971C50.584 39.8971 50.5582 39.8588 50.5453 39.8269C50.5131 39.763 50.4744 39.6928 50.4486 39.6289C50.3712 39.4693 50.3002 39.3033 50.2357 39.1309L49.8487 38.1604L49.9455 37.9752C50.5453 36.8132 49.6939 35.3511 48.8683 34.3231C48.8425 34.3103 48.7458 34.3103 48.7135 34.3359C47.8041 35.4596 47.9782 36.5961 49.2747 38.0199L49.4746 38.0838L49.5843 38.2945C49.6488 38.4541 49.7133 38.6201 49.7778 38.7861C49.881 39.0543 49.9906 39.3225 50.1003 39.5842L50.455 40.4079L49.5907 40.2419C47.9524 39.8588 46.2109 39.4246 44.534 38.7287L44.4759 38.7095L44.2308 38.6073L44.1986 38.3456C44.0631 37.3623 43.115 36.5961 41.9927 36.5706C41.6831 36.5578 41.1219 36.6089 40.8446 37.0047C40.6511 37.2793 40.6898 37.7773 40.922 38.1029C41.2832 38.601 41.9475 38.933 42.6957 38.9841H42.728L42.8312 38.9968C43.2182 39.0926 43.7213 39.0862 44.205 38.9841L44.3792 38.9457L44.5791 39.0607C44.8758 39.182 45.1983 39.3033 45.5917 39.4438L46.2561 39.6736L45.7723 40.1844C45.1918 40.7974 44.6372 41.3401 44.0696 41.8573L43.9083 42.0041L43.689 41.9722C43.6116 41.9594 43.5407 41.953 43.4633 41.953L43.4568 41.9339ZM60.9427 43.5876C60.9427 43.5876 60.9427 43.6322 60.9362 43.6578L60.8911 43.926L61.6006 43.7791C62.6648 43.562 63.8968 43.0257 64.1806 42.4255C64.2709 42.234 64.258 42.0488 64.1419 41.8317C63.9935 41.5508 63.7742 41.3784 63.4969 41.3081C63.1615 41.2251 62.7809 41.3082 62.4391 41.538C61.7296 42.0105 61.1233 42.8533 60.9427 43.5939V43.5876ZM47.7718 41.2762C47.6815 41.2762 47.5977 41.289 47.5074 41.3081C47.23 41.3784 47.0107 41.5508 46.8624 41.8317C46.7463 42.0552 46.7334 42.2403 46.8237 42.4255C47.1075 43.0257 48.3394 43.5556 49.4037 43.7791L50.1067 43.926L50.0616 43.6003V43.5876C49.881 42.8469 49.2747 42.0105 48.5716 41.538C48.3201 41.372 48.0427 41.2826 47.7783 41.2826L47.7718 41.2762ZM50.9839 43.5812V43.5939C50.9839 43.5939 50.9839 43.5876 50.9839 43.5812ZM50.068 43.5237C50.068 43.5237 50.068 43.5301 50.068 43.5365V43.5237ZM58.6207 42.1382C59.1883 42.4063 59.7236 42.6745 60.2009 42.9171C60.388 42.4383 60.6911 41.9594 61.0588 41.5508C61.0394 41.5508 61.0265 41.5572 61.0072 41.5635C60.2203 41.7423 59.4205 41.9339 58.6207 42.1382ZM49.9519 41.5508C50.3196 41.9658 50.6163 42.4447 50.8098 42.9235C51.2871 42.6809 51.8224 42.4127 52.39 42.1446C51.5967 41.9339 50.7904 41.7487 50.0035 41.5699L49.9519 41.5572V41.5508ZM56.8147 31.5584V32.4906C56.9824 32.1969 57.1953 31.9351 57.4339 31.7117C57.55 31.6031 57.7113 31.4818 57.8983 31.3669C57.6403 31.3797 57.3888 31.4052 57.1437 31.4307C57.0727 31.4371 57.0082 31.4435 56.9373 31.4307C56.8986 31.469 56.8599 31.5137 56.8212 31.5584H56.8147ZM53.1124 31.3605C53.2995 31.4754 53.4607 31.6031 53.5768 31.7053C53.8155 31.9224 54.0219 32.1905 54.196 32.4842V31.5521C54.1573 31.5074 54.1186 31.469 54.0799 31.4244C54.009 31.4244 53.9445 31.4244 53.8735 31.4244C53.6284 31.3924 53.3769 31.3733 53.1189 31.3605H53.1124ZM56.8147 27.3189V28.6789C56.9824 28.5384 57.1501 28.3915 57.3178 28.2511C57.8596 27.7914 58.4208 27.3189 58.9432 26.8209C58.9432 26.4697 59.0335 26.1313 59.1947 25.8184C58.9174 25.9014 58.6271 25.9206 58.324 25.8823C57.8532 26.4314 57.3952 26.9166 56.8147 27.3189ZM52.0611 26.8209C52.5835 27.3189 53.1447 27.7914 53.6865 28.2511C53.8542 28.3915 54.0219 28.5384 54.1896 28.6789V27.3189C53.6091 26.9166 53.1382 26.4122 52.6803 25.8823C52.3836 25.9206 52.0869 25.9014 51.8095 25.8184C51.9708 26.1313 52.0611 26.4633 52.0611 26.8209ZM51.9837 21.6363C52.9254 21.9939 53.7961 22.6451 54.1831 23.5135V20.5317C53.3833 20.7552 52.6738 21.1128 51.9837 21.6363ZM56.8147 20.5317V23.5135C57.2082 22.6388 58.0724 21.9875 59.0141 21.6299C58.324 21.1064 57.6081 20.7488 56.8147 20.5254V20.5317Z" fill="white"/>
</svg>
