<svg width="116" height="90" viewBox="0 0 116 90" fill="none" xmlns="http://www.w3.org/2000/svg">
<g clip-path="url(#clip0_123_166)">
<path d="M51.9327 14.6375C54.2336 14.2604 56.8158 15.3086 58.0749 17.3027C58.305 17.6543 57.8704 18.0633 57.538 17.9291C57.6658 18.2806 57.3463 18.7153 56.9116 18.4788C55.6334 17.7629 54.4957 17.1238 53.0832 16.67C52.6422 16.5358 52.8211 15.9094 53.2685 15.9989C54.566 16.2481 56.0105 16.7595 57.1162 17.5264C55.7292 16.0564 54.1314 15.2958 52.0222 15.315C51.6451 15.315 51.5556 14.7142 51.9327 14.6439V14.6375Z" fill="white"/>
<path d="M36.5549 46.3649C36.133 44.9269 35.0657 43.8467 33.5125 43.7253C33.1035 43.6933 33.0907 43.0861 33.5125 43.0733C35.2638 43.0606 37.079 44.3516 37.3985 46.1348C37.5008 46.6845 36.7147 46.921 36.5549 46.3649Z" fill="white"/>
<path d="M32.6624 44.2041C33.7809 44.2744 34.8163 45.035 35.04 46.1663C35.1423 46.6648 34.4009 46.8693 34.2667 46.3708C34.0621 45.5974 33.4933 44.9711 32.6624 44.8688C32.2533 44.8241 32.2278 44.1849 32.6624 44.2105V44.2041Z" fill="white"/>
<path d="M19.2787 54.0341C19.0934 53.3183 19.3554 52.6536 19.9626 52.2317C20.3397 51.9697 20.6785 52.5705 20.3142 52.8325C19.9818 53.069 19.8156 53.4589 19.8795 53.8552C19.9371 54.2514 19.3682 54.424 19.2787 54.0277V54.0341Z" fill="white"/>
<path d="M18.4797 54.7058C18.6075 55.0829 18.0579 55.2746 17.8661 54.9678C17.2845 54.0091 17.2078 52.7372 17.7639 51.7529C17.9812 51.3758 18.55 51.6251 18.4478 52.0405C18.2113 52.9737 18.1601 53.7854 18.4797 54.7058Z" fill="white"/>
<path d="M90.1791 42.1271C91.7194 42.1719 92.7101 44.2555 91.5916 45.4059C91.2017 45.8022 90.4539 45.2461 90.8054 44.7924C91.2848 44.166 91.125 43.0027 90.1791 42.9005C89.6869 42.8557 89.6677 42.1143 90.1791 42.1271Z" fill="white"/>
<path d="M74.9036 37.7805C72.7945 38.4069 71.2605 35.7161 72.6602 34.1374C72.9479 33.805 73.4208 34.2269 73.2419 34.5784C72.9351 35.1345 72.8903 35.8056 73.3313 36.3105C73.7212 36.7451 74.2198 36.8026 74.7694 36.7515C75.3702 36.7196 75.4533 37.6144 74.9036 37.7741V37.7805Z" fill="white"/>
<path d="M84.0369 51.7909C84.2095 51.0751 85.1171 51.3372 85.2002 51.9379C85.3919 53.4847 86.6127 55.204 88.4023 54.5904C89.7892 54.1238 90.4092 52.5643 90.0449 51.2221C89.9298 50.8131 90.4539 50.5063 90.7479 50.7236C90.9844 50.4296 91.451 50.3145 91.6619 50.7683C92.0518 51.612 92.5951 52.2511 93.5666 52.3981C94.4869 52.5579 95.3434 52.1105 95.6821 51.2349C96.0209 50.3784 95.8547 49.2855 95.1836 48.64C94.5828 48.0711 93.7136 47.9369 92.8827 47.8666C92.8507 47.8922 92.8124 47.9241 92.7676 47.9433C92.5056 48.1159 92.2116 48.0136 92.0262 47.8091C91.9815 47.8091 91.9367 47.8091 91.892 47.7963C91.3807 47.7643 91.3935 47.0549 91.892 46.9973C91.9367 46.9973 91.9687 46.9973 92.0198 46.9846C92.0198 46.9846 92.0198 46.9718 92.0326 46.9718C93.8094 45.5721 94.1482 42.8365 91.8984 41.6541C89.5847 40.4461 87.4244 42.338 87.3988 44.6389C87.4755 44.8562 87.533 45.0927 87.533 45.342C87.533 45.9108 86.8364 46.0131 86.5551 45.6168C86.2164 45.1374 85.9863 44.7412 85.4175 44.5111C84.9764 44.3385 84.4396 44.3193 84.0177 44.5558C83.0398 45.1055 83.0974 46.5052 83.7685 47.2658C85.034 47.2402 86.3059 47.138 87.5969 46.927C88.3256 46.7992 88.8497 47.7835 88.121 48.1926C86.357 49.1704 84.3373 49.8224 82.292 50.0461C82.2345 50.0908 82.177 50.1356 82.1322 50.1931C81.8127 50.5894 81.6529 51.1071 81.7935 51.6056C82.0683 52.6538 83.3083 52.9925 83.9922 52.3023C84.0049 52.1297 84.0177 51.9635 84.0625 51.7909H84.0369ZM82.1578 45.3867C81.9213 45.4634 81.6657 45.5145 81.4036 45.5017C81.0968 45.4762 80.707 45.3739 80.381 45.195C80.0295 45.7958 79.6396 46.4029 79.2177 46.9973C80.2979 47.1571 81.3908 47.2274 82.4838 47.2594C82.177 46.6906 82.0619 46.0322 82.1514 45.3931L82.1578 45.3867ZM77.4345 46.6842C78.2335 45.636 78.9365 44.5558 79.4734 43.4245C78.8023 44.5302 78.0737 45.6104 77.3003 46.6586C77.345 46.6714 77.3898 46.6714 77.4345 46.6842ZM70.5637 34.796C70.0716 36.9628 71.6886 38.4839 73.5805 39.0336C73.9128 38.9441 74.2644 38.8994 74.6542 38.9569C75.2806 39.0464 75.0633 39.9476 74.52 39.9795C72.4556 40.1393 72.756 42.5745 74.226 43.3606C75.3445 43.9614 76.6036 43.6994 77.703 43.188C78.7639 41.5454 79.7163 39.8517 80.5408 38.1196C80.9179 37.3079 81.9405 37.8256 82.03 38.5159C82.2665 40.5292 81.7807 42.4338 80.8923 44.2362C81.0265 44.3705 81.1799 44.4727 81.4292 44.5302C81.5187 44.5558 81.6209 44.5558 81.7168 44.5558C82.1131 44.5558 82.4774 44.4088 82.733 44.0765C82.9056 43.8719 83.0846 43.6866 83.3275 43.5396C84.1583 43.0155 85.4686 43.0602 86.4145 43.5843C86.8491 40.9894 89.6358 39.1998 92.3138 40.4269C92.3458 40.4397 92.3586 40.4525 92.3905 40.4589C92.3905 40.4589 92.4033 40.4461 92.4161 40.4461C93.4643 39.9348 94.3975 39.2381 94.3847 37.9406C94.3719 36.7327 93.4643 35.9593 92.4161 35.6078C92.1988 35.6972 91.9815 35.7675 91.7322 35.8251C91.0356 35.9721 90.569 35.0134 91.2337 34.649C93.6816 33.3388 93.2598 30.4371 90.8822 29.2483C88.9711 28.2895 86.2228 28.5899 85.0595 30.4882C85.034 30.7503 85.002 31.0123 84.9253 31.2999C84.7336 31.9582 83.8068 31.7793 83.7621 31.1401C83.2252 24.2629 74.0662 28.2384 75.402 31.9135C75.7216 32.1308 76.0156 32.4056 76.2649 32.7316C76.642 33.211 75.875 33.6648 75.4787 33.3324C75.4532 33.3196 75.434 33.3068 75.4084 33.2877C75.2806 33.3132 75.1464 33.2749 75.0441 33.1854C74.9163 33.0831 74.814 32.9681 74.7054 32.853C73.0564 32.0797 71.0495 32.738 70.5829 34.7769L70.5637 34.796ZM54.0929 48.1414C53.262 51.1262 49.7084 53.0053 46.7939 51.4905C46.5062 52.9286 45.4836 54.1877 44.0967 54.2453C44.6208 55.0186 44.6911 56.1244 44.2692 56.9808C43.7004 58.1441 42.3007 58.6873 40.9776 58.6426C41.3164 59.531 41.1949 60.5664 40.6261 61.3398C54.3486 64.9829 68.5632 56.4311 76.8593 44.4472C75.4148 44.9265 73.8553 44.8882 72.7496 43.7888C71.8292 44.3385 70.6404 44.0956 69.8095 43.4373C69.6625 44.6006 68.8955 45.7638 67.956 46.3071C66.5435 47.1252 64.7986 46.8312 63.629 45.8085C64.1658 48.282 61.8841 50.6149 59.5065 50.9217C57.2503 51.2093 55.2817 49.9438 54.1057 48.1414H54.0929ZM30.3678 66.5936C29.0703 67.1049 26.7119 67.0729 26.3156 65.3664C25.734 65.4112 25.1396 65.2961 24.6858 64.8871C24.6155 64.8295 24.5707 64.772 24.5132 64.7017C23.6504 66.1717 21.1321 66.9131 19.5918 66.7534C17.6104 66.536 15.252 64.2735 16.0701 62.2857C13.5071 63.5129 10.1452 60.6367 9.8512 58.0738C9.67863 56.5334 10.5926 55.1784 11.9796 54.5776C13.0853 54.0855 14.3124 54.143 15.4437 54.5201C14.1782 51.9699 16.1596 48.5057 19.1124 48.0967C20.3907 47.9241 21.5859 48.2692 22.5638 48.9276C22.3146 47.8474 22.6341 46.6394 23.4778 45.898C21.8608 45.4314 20.5953 43.6866 20.9468 41.9545C21.2408 40.4525 22.7939 39.1614 24.3406 39.0592C21.963 36.8157 21.4453 32.9745 23.1582 30.0983C25.4719 26.1804 29.9779 25.9183 34.0365 26.5702C28.853 12.1639 58.9568 4.80731 63.2391 19.84C65.1182 17.9034 68.0007 16.868 70.6532 17.5519C72.871 18.1335 74.6862 20.2427 74.4114 22.4733C76.5269 21.7319 79.0388 23.579 79.0388 25.9567C81.295 25.6243 83.9794 26.8451 84.8039 28.9287C86.5551 26.9793 90.2941 27.0816 92.3522 28.5388C94.2568 29.881 94.9471 33.1662 93.4324 34.86C94.5572 35.301 95.4584 36.3875 95.631 37.6275C95.8228 39.1295 94.9152 40.7145 93.5474 41.3409C95.0174 42.8557 95.1325 45.3292 93.7967 47.0037C94.8001 47.1316 95.7461 47.4959 96.3852 48.3332C97.1458 49.3558 97.2289 50.8514 96.6728 51.9891C95.6566 54.028 92.4928 54.1302 91.157 52.4876C91.0803 54.0471 90.0193 55.5427 88.4023 55.9134C86.5807 56.3353 84.561 54.9931 84.0753 53.2354C83.1741 53.8937 81.7424 53.7915 80.9882 52.7944C80.4066 52.021 80.2915 51.0176 80.6686 50.1419V50.1292C79.4478 50.1292 78.2335 49.9949 77.0574 49.6626C76.022 50.8578 74.9482 51.9763 73.9831 53.0245C71.5544 55.677 68.9594 58.1696 66.2047 60.4705C62.8812 63.2508 56.4897 66.4018 57.768 71.9304H59.9858C76.6036 71.8026 93.2086 71.336 109.807 70.7352C111.118 70.6777 111.105 72.6974 109.807 72.7485C76.8593 74.1866 43.0868 75.5608 10.158 73.0873C9.2568 73.017 9.24402 71.7004 10.158 71.6876C23.9252 71.4 37.7308 71.8346 51.5171 71.924C54.4444 63.2892 43.956 64.1584 37.7116 62.6884C37.8458 64.5994 36.7784 66.9131 34.7076 67.188C33.7297 67.3158 32.4067 66.7661 31.7228 65.9097C31.3137 66.2165 30.7577 66.421 30.3806 66.5808L30.3678 66.5936ZM27.4085 63.9411C28.1627 63.5896 28.7955 62.6884 28.3737 61.9917C26.1494 62.062 23.8996 61.5827 21.8927 60.6815C21.3367 60.4322 21.5987 59.4287 22.1995 59.5054C23.6887 59.71 25.2035 59.7803 26.7311 59.7355C27.5492 57.6839 26.5393 55.7473 24.5004 55.3254C24.1489 55.824 23.2733 55.5875 23.4522 54.8908C23.4522 54.878 23.4522 54.8652 23.465 54.8652V54.8333C24.1233 52.2128 22.8131 49.1513 19.6941 49.3302C16.4152 49.5156 15.5396 52.9286 17.1311 55.3638C17.2909 55.6003 17.163 55.8048 16.9585 55.8879C16.8562 56.1627 16.5942 56.3417 16.2746 56.2074C15.1945 55.7664 14.0184 55.2871 12.836 55.6578C11.6856 56.0221 10.9314 57.1022 11.2637 58.2975C11.8326 60.4705 14.2357 61.7616 16.3449 61.3526C16.4792 61.3206 16.575 61.3781 16.6517 61.4421C16.6773 61.4165 16.6837 61.3845 16.722 61.3654C17.0736 61.033 17.783 61.3654 17.5977 61.8767C16.0062 66.242 23.0879 66.5552 24.0658 63.5065C24.0658 63.3595 24.0914 63.1997 24.1425 63.0655C24.1553 62.9504 24.1873 62.861 24.1745 62.7459C24.1745 62.5989 24.347 62.5094 24.4685 62.5286C24.8647 62.1195 25.4272 62.6628 25.2227 63.123C24.9351 63.7366 25.4847 64.1712 26.0344 64.2287C26.501 64.2735 26.9803 64.1265 27.4022 63.9347L27.4085 63.9411ZM27.4085 45.9428C27.7601 42.6767 30.7449 39.9412 34.1388 40.216C37.4751 40.4908 39.808 43.5204 39.9166 46.6714C42.3198 45.5465 45.4772 46.844 46.5893 49.3047C46.7811 49.7393 46.8642 50.2186 46.8642 50.6916C50.1558 51.9571 53.115 49.8479 53.115 46.2623C53.115 45.6487 54.1376 45.4762 54.2335 46.1153C54.2463 46.192 54.2335 46.2623 54.2463 46.3326C55.1347 47.9241 56.5472 49.375 58.4583 49.5348C60.8167 49.7265 62.2995 47.8922 62.4082 45.7063C62.4338 45.3292 62.7406 45.1247 63.0346 45.1374C62.8876 44.7476 63.4692 44.3832 63.7888 44.7028C64.7539 45.6615 66.3517 46.0131 67.5022 45.1438C68.6527 44.2746 68.5823 43.0346 68.4929 41.7627C68.4481 41.2514 69.132 41.1811 69.3685 41.5263C69.4452 41.6285 69.4835 41.7436 69.5411 41.8586C69.5411 41.8586 69.5453 41.8629 69.5538 41.8714C70.1099 42.8749 71.0558 43.1497 72.0721 42.8749C71.548 41.7691 71.7973 40.4717 72.5706 39.6727C70.1419 38.9569 68.5823 36.3044 69.6305 33.7606C70.3592 32.0158 72.2063 31.1082 73.9 31.3574C73.5613 29.3186 75.7216 27.1646 77.7733 26.3018C77.8883 25.2408 77.4665 24.2054 76.4886 23.7069C75.613 23.2658 74.699 23.4576 73.9 23.9114C73.8681 23.937 73.8297 23.9561 73.7978 23.9817C73.7211 24.0264 73.638 24.0712 73.5613 24.1159C73.2098 24.3652 72.8646 23.9817 72.9349 23.6238C72.8902 23.5087 72.8582 23.3873 72.8902 23.2339C73.5613 20.1788 71.1261 18.4595 68.2883 18.7023C66.3965 18.8749 64.805 19.7633 63.482 21.0608C63.3477 21.7447 62.2548 21.9492 62.0439 21.1311C58.6181 7.41502 31.0069 12.5857 35.0527 26.7556H35.0847C35.8133 26.9026 35.6408 28.1425 34.8993 28.0658C31.3904 27.676 27.53 26.9921 24.9351 30.0025C22.2698 33.064 23.4458 36.8605 26.0727 39.4426C26.1494 39.5193 26.175 39.6152 26.175 39.7047C26.3603 40.0562 26.0472 40.5228 25.5806 40.4461C24.2576 40.2096 22.73 40.5356 22.2315 41.9737C21.6179 43.7377 23.4075 45.1374 24.9862 45.195C25.0309 45.2077 25.0565 45.2269 25.0884 45.2397C25.9066 45.1694 26.7886 45.4123 27.4022 45.9428H27.4085ZM27.6003 65.0341C27.9518 65.3984 28.3161 65.6157 28.9553 65.6157C29.4219 65.6157 29.8693 65.4815 30.2975 65.3536C30.4125 65.3217 31.0517 65.0788 31.2626 64.9318V64.7464C31.1603 64.5867 31.1859 64.3821 31.3329 64.2799C31.3649 64.152 31.4224 64.0178 31.4927 63.89C31.7292 63.4681 32.4067 63.5576 32.5153 64.0242C32.6751 64.625 32.7007 65.0596 33.2312 65.4623C33.7105 65.8394 34.3369 65.9736 34.9313 65.7946C36.2863 65.3536 36.7401 63.743 36.8935 62.4903C36.657 62.4199 36.4269 62.3432 36.2096 62.2602C34.8418 61.768 33.6338 61.1353 32.5665 60.3363C32.5665 60.3683 32.5792 60.3939 32.5665 60.413C32.886 60.5281 32.9436 60.9819 32.5537 61.1417C31.4607 61.5763 30.3103 61.8255 29.1342 61.9278C29.294 62.2474 29.3643 62.6245 29.3196 62.9888C29.2046 63.9347 28.4184 64.6506 27.6003 65.0277V65.0341ZM24.8264 54.4754C27.1848 54.8077 28.6996 57.3323 28.0285 59.6333C29.1023 59.5566 30.1824 59.4287 31.2306 59.2114C30.502 58.4956 29.8309 57.6967 29.2237 56.7763C28.7827 56.118 29.7031 55.5683 30.24 55.9901C32.2916 57.6519 34.4072 58.9302 36.5356 59.8953C36.5931 57.9907 36.1265 56.2266 35.0208 54.6096C34.6437 54.0727 35.4618 53.5039 35.9092 53.9385C37.7435 55.7409 38.6 58.1441 38.4146 60.6559C38.7214 60.7709 39.0282 60.8604 39.3286 60.9627C39.3414 60.9499 39.3542 60.9371 39.3606 60.9307C40.0764 60.3172 40.396 59.2881 39.8975 58.4508C39.7632 58.4189 39.6226 58.3742 39.5012 58.3166C39.0027 58.0801 39.2136 57.1534 39.7952 57.2237C40.9009 57.3707 42.224 57.6903 43.0868 56.7124C43.6876 56.0285 43.6109 54.6991 42.6905 54.322C42.3582 54.1877 42.3134 53.8234 42.4541 53.6061C42.3837 53.229 42.7417 52.788 43.1827 52.9031C45.9374 53.5614 46.1867 50.225 44.6975 48.723C43.4192 47.4256 41.4378 47.0613 39.8591 47.9049C39.7249 48.5313 38.6064 48.3715 38.6831 47.7132C39.0154 44.8882 37.1555 41.7308 34.0685 41.5199C31.0069 41.3026 28.6038 43.9678 28.3609 46.8503C28.3161 47.3872 27.645 47.4639 27.4405 47.0804C26.6288 46.339 25.5359 45.9172 24.4877 46.4988C23.4522 47.0804 23.1007 48.4674 23.5737 49.5156C23.6184 49.6306 23.6184 49.7329 23.5865 49.8096C24.6922 51.0495 25.2482 52.7816 24.8264 54.4881V54.4754Z" fill="white"/>
<path d="M88.2041 61.7235L83.1101 61.8705L82.9503 56.4313C82.9503 56.3291 82.9119 56.2332 82.8033 56.1309L78.4379 52.0596C78.2653 51.8998 77.9905 51.9062 77.8243 52.0787L73.7018 56.3994C73.6379 56.4697 73.574 56.6039 73.574 56.7062L73.7338 62.1772L68.6398 62.3243C68.4033 62.3306 68.2052 62.5416 68.2116 62.7717L68.48 72.0073C68.4864 72.2438 68.6973 72.4355 68.9338 72.4292C69.7136 72.4036 87.5457 71.8859 88.4661 71.8603C88.7026 71.8539 88.9007 71.643 88.8943 71.4129L88.6259 62.1453C88.6195 61.9088 88.4086 61.7171 88.2041 61.7235ZM76.9934 71.2979L76.8848 67.5397C76.8592 66.6001 77.5815 65.8396 78.5338 65.814C79.4861 65.7884 80.2531 66.5043 80.2787 67.4438L80.3873 71.202L76.9934 71.3043V71.2979ZM88.0315 70.9719L81.2374 71.17L81.1287 67.4119C81.0904 66.0377 79.9016 64.9256 78.5082 64.9703C77.1149 65.0151 75.9964 66.1527 76.0347 67.5653L76.1434 71.3234L69.3493 71.5216L69.1064 63.1296L74.2004 62.9826C74.4369 62.9762 74.635 62.7653 74.6286 62.5352L74.4624 56.8276L78.1886 52.9224L82.1386 56.6039L82.3047 62.3115C82.3111 62.548 82.5221 62.7397 82.7585 62.7333L87.8525 62.5863L88.0954 70.9783H88.0251L88.0315 70.9719Z" fill="white"/>
<path d="M68.9211 72.5888C68.6079 72.5888 68.3394 72.3331 68.3267 72.0199L68.0582 62.7843C68.0518 62.4647 68.3139 62.1899 68.6334 62.1771L73.5741 62.0301L73.4207 56.706C73.4207 56.5526 73.5037 56.38 73.5868 56.2906L77.7093 51.9699C77.933 51.7398 78.2973 51.7271 78.5338 51.9444L82.9056 56.0157C83.027 56.1308 83.0909 56.265 83.0973 56.4184L83.2507 61.7041L88.1913 61.5571H88.2041C88.4981 61.5571 88.7602 61.8192 88.7666 62.126L89.035 71.3936C89.0414 71.7132 88.7793 71.988 88.4598 72.0008L68.9275 72.5696C68.9275 72.5696 68.9147 72.5696 68.9083 72.5696L68.9211 72.5888ZM78.1376 52.0978C78.0609 52.0978 77.9906 52.1297 77.933 52.1872L73.8105 56.5079C73.7658 56.5526 73.7211 56.6549 73.7274 56.706L73.8936 62.3305L68.6462 62.4839C68.4928 62.4839 68.3586 62.6245 68.365 62.7779L68.6334 72.0136C68.6334 72.1606 68.7741 72.2884 68.9211 72.2884C68.9211 72.2884 68.9211 72.2884 68.9275 72.2884L88.4598 71.7195C88.6132 71.7195 88.7474 71.5789 88.741 71.4255L88.4725 62.1579C88.4725 61.9981 88.3064 61.8703 88.2105 61.8831L82.9631 62.0365L82.7969 56.444C82.7969 56.3928 82.7841 56.3289 82.7011 56.2522L78.3293 52.1808C78.2782 52.1297 78.2079 52.1041 78.1376 52.1041V52.0978ZM69.2023 71.6748L68.9466 62.976L74.194 62.8226C74.2707 62.8226 74.341 62.7843 74.3922 62.7332C74.4433 62.6756 74.4752 62.6053 74.4752 62.535L74.3091 56.7635L74.3538 56.7188L78.1823 52.7049L82.2856 56.5334L82.4518 62.3049C82.4518 62.3752 82.4901 62.4455 82.5413 62.5031C82.5988 62.5542 82.6819 62.5861 82.7458 62.5861L87.9932 62.4328L88.2488 71.1315L81.084 71.3425L80.969 67.4309C80.9306 66.1462 79.8121 65.1044 78.5019 65.1363C77.1788 65.1747 76.137 66.2676 76.1754 67.5715L76.2904 71.4831L69.1959 71.6876L69.2023 71.6748ZM69.2598 63.27L69.4963 71.3616L75.9836 71.1699L75.875 67.5587C75.8302 66.0887 77.0063 64.8551 78.4955 64.8104C78.521 64.8104 78.5466 64.8104 78.5786 64.8104C80.0294 64.8104 81.231 65.9544 81.2758 67.4053L81.3844 71.0165L87.9421 70.8247L87.7056 62.7332L82.765 62.8802C82.6052 62.8802 82.4582 62.829 82.3431 62.7204C82.2281 62.6117 82.1578 62.4647 82.1514 62.3113L81.9852 56.6677L78.1951 53.1332L74.6159 56.885L74.782 62.5286C74.782 62.682 74.7245 62.8354 74.6159 62.9505C74.5072 63.0655 74.3602 63.1294 74.2068 63.1358L69.2662 63.2828L69.2598 63.27ZM76.8465 71.4511L76.7314 67.5395C76.7187 67.041 76.8912 66.5744 77.23 66.2229C77.5687 65.8714 78.0289 65.6668 78.5274 65.654C79.5692 65.6221 80.4001 66.4018 80.4321 67.4309L80.5471 71.3425L76.8465 71.4511ZM78.585 65.9544C78.585 65.9544 78.553 65.9544 78.5338 65.9544C78.112 65.9672 77.7285 66.1334 77.4473 66.4274C77.1661 66.7214 77.019 67.1113 77.0318 67.5267L77.1405 71.1379L80.234 71.0484L80.1317 67.4373C80.1061 66.6 79.435 65.9544 78.5913 65.9544H78.585Z" fill="white"/>
<path d="M78.5979 61.1162C79.5404 61.1162 80.3044 60.3521 80.3044 59.4096C80.3044 58.4672 79.5404 57.7031 78.5979 57.7031C77.6554 57.7031 76.8914 58.4672 76.8914 59.4096C76.8914 60.3521 77.6554 61.1162 78.5979 61.1162Z" stroke="white" stroke-miterlimit="10"/>
</g>
<defs>
<clipPath id="clip0_123_166">
<rect width="101.305" height="62.9048" fill="white" transform="translate(9.47412 11.5566)"/>
</clipPath>
</defs>
</svg>
