<svg width="116" height="90" viewBox="0 0 116 90" fill="none" xmlns="http://www.w3.org/2000/svg">
<g clip-path="url(#clip0_123_167)">
<path d="M57.0057 76.9911C56.748 76.9911 56.4962 76.915 56.2678 76.7685C55.8812 76.5167 55.6587 76.1067 55.6587 75.644V27.6211C55.6587 27.0822 55.9632 26.6078 56.4611 26.3911C70.189 20.2821 84.1102 20.2879 97.8382 26.3911C98.3301 26.6137 98.6405 27.0822 98.6405 27.6211V75.644C98.6405 76.1067 98.418 76.5167 98.0315 76.7685C97.6449 77.0204 97.1822 77.0614 96.7547 76.8798C83.7471 71.2804 70.5521 71.2804 57.5387 76.8798C57.363 76.956 57.1814 76.9911 56.9999 76.9911H57.0057ZM77.1525 22.8475C70.3823 22.8475 63.612 24.3411 56.8827 27.3341C56.7656 27.3868 56.6953 27.4864 56.6953 27.6211V75.644C56.6953 75.7553 56.7422 75.8431 56.8359 75.9017C56.9296 75.9661 57.0291 75.972 57.1287 75.9251C70.4116 70.2085 83.8818 70.2085 97.1647 75.9251C97.2701 75.972 97.3638 75.9603 97.4575 75.9017C97.5512 75.8373 97.5981 75.7553 97.5981 75.6381V27.6211C97.5981 27.4922 97.5336 27.3868 97.4107 27.3341C90.6872 24.3411 83.917 22.8475 77.1467 22.8475H77.1525Z" fill="white"/>
<path d="M57.7495 75.9483V24.9793L57.8842 24.8329C64.8243 17.3006 80.9828 15.6079 93.9025 21.0609C94.4765 21.3069 94.863 21.8633 94.863 22.449V70.5715C94.863 71.0166 94.6463 71.4032 94.2656 71.6199C93.9084 71.8249 93.4809 71.8483 93.065 71.6785C80.6138 66.6589 65.4861 68.1466 58.628 75.058L57.7437 75.9542L57.7495 75.9483ZM58.7861 25.3835V73.5C66.2651 67.022 81.1585 65.7569 93.4574 70.712C93.639 70.7823 93.7268 70.7355 93.7561 70.712C93.7971 70.6886 93.8322 70.6593 93.8322 70.5656V22.4432C93.8322 22.2733 93.6975 22.0917 93.5043 22.0097C81.0414 16.7442 65.533 18.267 58.7861 25.3835Z" fill="white"/>
<path d="M57.0174 76.1068C56.8417 76.1068 56.666 76.0716 56.4962 76.0013C55.9808 75.7905 55.6646 75.3102 55.6646 74.7538V27.3635C55.6646 27.053 55.7641 26.7719 55.9515 26.5318C63.3719 17.0607 79.0735 14.4426 89.961 17.3829C90.5584 17.541 90.9566 18.0682 90.9566 18.6832V66.8056C90.9566 67.2273 90.7751 67.608 90.4354 67.8657C90.1016 68.1293 89.6916 68.2113 89.2816 68.1117C78.4234 65.3999 64.959 68.6623 57.9604 75.6968C57.6968 75.9603 57.363 76.1009 57.0116 76.1009L57.0174 76.1068ZM81.0355 17.3126C72.0104 17.3126 62.0307 20.4462 56.7656 27.1702C56.7187 27.2288 56.7012 27.2873 56.7012 27.3635V74.7538C56.7012 74.8885 56.7715 74.9939 56.8944 75.0408C57.0174 75.0935 57.1404 75.0642 57.2341 74.9705C64.5842 67.5787 78.1716 64.2694 89.5393 67.1102C89.6389 67.1336 89.7209 67.116 89.8087 67.0516C89.8907 66.9872 89.9317 66.911 89.9317 66.8056V18.689C89.9317 18.5426 89.8439 18.4254 89.7033 18.3903C87.0796 17.6816 84.1161 17.3184 81.0472 17.3184L81.0355 17.3126Z" fill="white"/>
<path d="M73.7382 57.4979C73.5625 57.4979 73.3926 57.4511 73.2403 57.3515C73.0061 57.2109 72.8597 56.9942 72.8011 56.7248C72.5668 55.5768 72.192 53.3628 72.151 50.7036C71.9929 50.9672 71.7059 51.1429 71.3779 51.1546C66.7512 51.3772 65.779 47.7692 65.574 46.1995C65.5389 45.93 65.6091 45.6782 65.779 45.4732C65.9488 45.2623 66.1772 45.1393 66.4466 45.1159C68.4028 44.9402 69.9079 45.3385 70.9153 46.2873C71.6766 47.0019 72.028 47.9273 72.1861 48.7591C72.2564 47.3826 72.4321 45.9418 72.7659 44.495C72.8011 44.3428 72.7659 44.1963 72.6547 44.085C69.4804 40.8167 71.5126 37.7007 72.5317 36.5117C72.7074 36.3067 72.9416 36.1954 73.2111 36.1779C73.4805 36.1603 73.7264 36.254 73.9197 36.4356C75.3546 37.7827 76.0632 39.165 76.0281 40.5473C75.9812 42.2986 74.7396 43.593 74.0076 44.2022C73.9138 44.2842 73.8611 44.3779 73.8494 44.5009C73.8026 44.987 73.7557 45.5083 73.7206 46.0472C74.0603 45.1569 74.6752 44.0909 75.8055 43.4818C77.0237 42.8258 78.5757 42.8316 80.4206 43.5052C80.6724 43.5989 80.8657 43.7746 80.9711 44.0206C81.0765 44.2666 81.0824 44.5302 80.977 44.7762C80.3737 46.2346 78.4937 49.4795 74.0895 48.0621C73.908 48.0035 73.7499 47.8981 73.6386 47.7575C73.5683 50.6685 73.8143 54.0129 74.8509 56.9298L74.9446 57.1934L73.9958 57.4511C73.908 57.4745 73.826 57.4862 73.7382 57.4862V57.4979ZM73.2638 36.6992C73.2638 36.6992 73.2462 36.6992 73.2345 36.6992C73.1056 36.705 73.0061 36.7577 72.9182 36.8514C71.9929 37.9292 70.1422 40.764 73.0178 43.7219C73.252 43.962 73.3399 44.2842 73.2638 44.6122C72.0983 49.6201 72.9006 54.6748 73.3048 56.6194C73.3282 56.7482 73.3985 56.8419 73.5097 56.9064C73.621 56.9767 73.7323 56.9884 73.8611 56.9591L74.2711 56.8478C72.8772 52.7126 72.9885 47.8395 73.3282 44.4482C73.3516 44.1905 73.4687 43.9738 73.6679 43.8039C74.3355 43.2475 75.46 42.0819 75.501 40.5297C75.5361 39.2997 74.8802 38.0522 73.5566 36.8104C73.4687 36.7284 73.3692 36.6874 73.2579 36.6874L73.2638 36.6992ZM67.3134 45.5962C67.0499 45.5962 66.7746 45.6079 66.4935 45.6313C66.3646 45.643 66.2651 45.6958 66.1831 45.7953C66.1011 45.8949 66.0718 46.0062 66.0894 46.1292C66.2768 47.5525 67.1611 50.8384 71.3486 50.6333C71.5829 50.6216 71.7645 50.4342 71.7703 50.2058C71.7996 49.3389 71.6766 47.7223 70.5521 46.6622C69.8025 45.9535 68.7132 45.5962 67.3134 45.5962ZM73.703 46.9961L73.9548 47.0546C73.9021 47.2831 74.031 47.5056 74.2535 47.5818C78.2419 48.8645 79.952 45.9183 80.5026 44.5946C80.5494 44.4775 80.5494 44.3603 80.5026 44.2432C80.4499 44.126 80.3679 44.0499 80.2507 44.003C78.5464 43.3822 77.135 43.3646 76.0574 43.9445C74.6986 44.6825 74.1598 46.2053 73.9666 47.0546L73.7147 46.9961H73.703Z" fill="white"/>
<path d="M15.0663 76.9909C14.8086 76.9909 14.5567 76.9147 14.3283 76.7683C13.9418 76.5164 13.7192 76.1064 13.7192 75.6437V27.6209C13.7192 27.082 14.0238 26.6076 14.5216 26.3908C28.2496 20.2877 42.1708 20.2877 55.8987 26.3908C56.3907 26.6076 56.7011 27.082 56.7011 27.6209V75.6437C56.7011 76.1064 56.4785 76.5164 56.092 76.7683C55.7055 77.0202 55.2428 77.0612 54.8153 76.8796C41.8077 71.2801 28.6127 71.2801 15.5992 76.8796C15.4235 76.9557 15.242 76.9909 15.0604 76.9909H15.0663ZM35.2072 22.8473C28.437 22.8473 21.6667 24.3408 14.9433 27.3339C14.8261 27.3866 14.7559 27.4861 14.7559 27.6209V75.6437C14.7559 75.755 14.8027 75.8429 14.8964 75.9014C14.9901 75.9659 15.0897 75.9717 15.1893 75.9249C28.4721 70.2083 41.9424 70.2083 55.2252 75.9249C55.3306 75.9717 55.4244 75.96 55.5181 75.9014C55.6118 75.837 55.6586 75.755 55.6586 75.6379V27.6209C55.6586 27.492 55.5942 27.3866 55.4712 27.3339C48.7478 24.3408 41.9775 22.8473 35.2014 22.8473H35.2072Z" fill="white"/>
<path d="M21.2626 64.3858C20.9756 64.3858 20.7003 64.2921 20.4602 64.1106C20.1147 63.847 19.9214 63.4663 19.9214 63.0328V62.7283C19.9214 62.1191 20.3138 61.5978 20.8994 61.4338C23.8629 60.5904 29.8425 59.1671 36.5367 59.132C36.8822 59.132 37.2336 59.2667 37.4972 59.5244C37.7548 59.7821 37.8954 60.1101 37.8954 60.4791V60.7603C37.8954 61.4983 37.2922 62.1074 36.5542 62.1074C30.1881 62.1426 24.4778 63.5131 21.6432 64.3273C21.5144 64.3624 21.3855 64.38 21.2626 64.38V64.3858ZM21.1864 62.4296C21.0459 62.4706 20.958 62.5818 20.958 62.7283V63.0328C20.958 63.1383 20.999 63.2203 21.081 63.2847C21.163 63.3491 21.2508 63.3608 21.3563 63.3374C24.2436 62.5057 30.0534 61.1117 36.5484 61.0766C36.7182 61.0766 36.8588 60.936 36.8588 60.7661V60.485C36.8588 60.3913 36.8295 60.3268 36.7651 60.2624C36.7007 60.198 36.6362 60.157 36.5425 60.1687C29.9714 60.2038 24.0972 61.6037 21.1864 62.4296ZM21.2626 58.2475C20.9756 58.2475 20.7003 58.1538 20.4602 57.9723C20.1147 57.7087 19.9214 57.328 19.9214 56.8945V56.59C19.9214 55.9808 20.3138 55.4595 20.8994 55.2955C25.9479 53.8605 38.8735 50.9729 49.8078 55.1901C50.3349 55.3892 50.6687 55.8871 50.6687 56.4494V56.7657C50.6687 57.2167 50.452 57.6267 50.0831 57.8785C49.7082 58.1363 49.2514 58.189 48.8297 58.0191C38.6626 54.0421 26.4281 56.8125 21.6374 58.189C21.5085 58.2241 21.3797 58.2417 21.2567 58.2417L21.2626 58.2475ZM21.1864 56.2912C21.0459 56.3322 20.958 56.4435 20.958 56.59V56.8945C20.958 57 20.999 57.082 21.081 57.1464C21.163 57.2108 21.2508 57.2225 21.3563 57.1991C26.2466 55.7934 38.7505 52.9644 49.2104 57.0585C49.3158 57.0995 49.4096 57.0878 49.4974 57.0293C49.5911 56.9648 49.6321 56.8828 49.6321 56.7715V56.4553C49.6321 56.3205 49.5618 56.2151 49.433 56.1624C38.7856 52.0565 26.1294 54.8914 21.1806 56.2971L21.1864 56.2912ZM21.2626 52.1092C20.9756 52.1092 20.7003 52.0155 20.4602 51.8339C20.1147 51.5704 19.9214 51.1897 19.9214 50.7562V50.4517C19.9214 49.8425 20.3138 49.3212 20.8994 49.1572C25.9479 47.7222 38.8676 44.8346 49.8078 49.0518C50.3349 49.2509 50.6687 49.7488 50.6687 50.3111V50.6274C50.6687 51.0784 50.452 51.4884 50.0831 51.7402C49.7082 51.998 49.2514 52.0448 48.8297 51.8808C38.6626 47.8979 26.4281 50.6742 21.6374 52.0507C21.5085 52.0858 21.3797 52.1034 21.2567 52.1034L21.2626 52.1092ZM36.7944 47.8862C30.1822 47.8862 24.2319 49.2919 21.1864 50.1529C21.0459 50.1939 20.958 50.3052 20.958 50.4517V50.7562C20.958 50.8617 20.999 50.9437 21.081 51.0081C21.163 51.0725 21.2508 51.0842 21.3563 51.0608C26.2466 49.6551 38.7505 46.8261 49.2104 50.9202C49.3158 50.9612 49.4096 50.9495 49.4974 50.8851C49.5911 50.8207 49.6321 50.7387 49.6321 50.6274V50.3111C49.6321 50.1764 49.5618 50.0709 49.433 50.0182C45.3333 48.4368 40.9291 47.8862 36.7826 47.8862H36.7944ZM21.2626 45.9709C20.9756 45.9709 20.7003 45.8772 20.4602 45.6956C20.1147 45.4321 19.9214 45.0514 19.9214 44.6179V44.3134C19.9214 43.7042 20.3138 43.1829 20.8994 43.0131C25.9479 41.5781 38.8735 38.6905 49.8078 42.9076C50.3349 43.1068 50.6687 43.6046 50.6687 44.1669V44.4832C50.6687 44.9342 50.452 45.3442 50.0831 45.5961C49.7082 45.8538 49.2514 45.9006 48.8297 45.7366C38.6626 41.7538 26.4281 44.5301 21.6374 45.9065C21.5085 45.9416 21.3797 45.9592 21.2567 45.9592L21.2626 45.9709ZM21.1864 44.0205C21.0459 44.0615 20.958 44.1728 20.958 44.3192V44.6238C20.958 44.7292 20.999 44.8112 21.081 44.8756C21.163 44.9401 21.2508 44.9518 21.3563 44.9284C26.2466 43.5226 38.7505 40.6936 49.2104 44.7878C49.3158 44.8288 49.4096 44.8171 49.4974 44.7585C49.5911 44.6941 49.6321 44.6121 49.6321 44.5008V44.1845C49.6321 44.0498 49.5618 43.9444 49.433 43.8916C38.7856 39.7858 26.1294 42.6206 21.1806 44.0264L21.1864 44.0205ZM21.2626 39.8385C20.9756 39.8385 20.7003 39.7448 20.4602 39.5632C20.1147 39.3055 19.9214 38.9189 19.9214 38.4855V38.1809C19.9214 37.5718 20.3138 37.0505 20.8994 36.8806C25.9479 35.4456 38.8735 32.558 49.8078 36.7752C50.3349 36.9743 50.6687 37.4722 50.6687 38.0345V38.3508C50.6687 38.8018 50.452 39.2118 50.0831 39.4636C49.7082 39.7155 49.2514 39.7682 48.8297 39.6042C38.6626 35.6213 26.4281 38.3976 21.6374 39.7741C21.5085 39.8092 21.3797 39.8268 21.2567 39.8268L21.2626 39.8385ZM21.1864 37.8822C21.0459 37.9232 20.958 38.0345 20.958 38.1809V38.4855C20.958 38.5909 20.999 38.6729 21.081 38.7373C21.163 38.8018 21.2508 38.8193 21.3563 38.7901C26.2466 37.3843 38.7505 34.5553 49.2104 38.6495C49.3158 38.6905 49.4096 38.6788 49.4974 38.6143C49.5911 38.5499 49.6321 38.4679 49.6321 38.3566V38.0403C49.6321 37.9056 49.5618 37.8002 49.433 37.7475C38.7856 33.6416 26.1294 36.4765 21.1806 37.8822H21.1864ZM49.3334 33.5713C49.1694 33.5713 48.9996 33.542 48.8356 33.4776C41.9248 30.7716 33.9949 31.2402 28.5599 32.1129C28.1617 32.1773 27.7751 32.066 27.4706 31.8083C27.166 31.5506 26.9962 31.1816 26.9962 30.7833V30.4963C26.9962 29.8286 27.4764 29.2663 28.1324 29.1667C33.8953 28.253 42.3347 27.7669 49.8137 30.6486C50.3408 30.8477 50.6746 31.3456 50.6746 31.9079V32.2242C50.6746 32.6752 50.4579 33.0852 50.0889 33.337C49.8605 33.4952 49.597 33.5713 49.3334 33.5713ZM36.7592 30.3909C40.8003 30.3909 45.1635 30.9239 49.2163 32.5053C49.3217 32.5463 49.4154 32.5346 49.5033 32.4702C49.597 32.4057 49.638 32.3237 49.638 32.2125V31.8962C49.638 31.7615 49.5677 31.656 49.4388 31.6033C42.1766 28.8036 33.9305 29.2839 28.2964 30.1742C28.1441 30.1976 28.0328 30.3265 28.0328 30.4846V30.7716C28.0328 30.8712 28.068 30.9415 28.1441 31.0059C28.2202 31.0703 28.2964 31.0937 28.3959 31.0762C30.7972 30.6896 33.6845 30.3792 36.7592 30.3792V30.3909Z" fill="white"/>
</g>
<defs>
<clipPath id="clip0_123_167">
<rect width="84.9212" height="60.7505" fill="white" transform="translate(13.7192 16.2402)"/>
</clipPath>
</defs>
</svg>
