<svg width="116" height="90" viewBox="0 0 116 90" fill="none" xmlns="http://www.w3.org/2000/svg">
<g clip-path="url(#clip0_123_165)">
<path d="M62.9278 59.2465C62.7398 59.0585 62.4264 59.0585 62.2383 59.2465L57.8299 63.9822C57.7533 64.0588 57.7185 64.1702 57.7185 64.2886V81.3442C57.7185 81.6088 57.9483 81.8386 58.2199 81.8386H67.0019C67.2735 81.8386 67.5033 81.6088 67.5033 81.3442V64.2886C67.5033 64.1772 67.4685 64.0588 67.3849 63.9822L62.9348 59.2465H62.9278ZM66.4935 80.8845H58.6726V64.4697L62.5865 60.2633L66.5005 64.4697V80.8845H66.4935Z" fill="white"/>
<path d="M60.7827 65.1178V66.6709C60.7827 66.9355 61.0125 67.1653 61.2841 67.1653H63.9306C64.2022 67.1653 64.432 66.9355 64.432 66.6709V65.1178C64.432 64.1289 63.6241 63.335 62.6283 63.335C61.6324 63.335 60.7897 64.1707 60.7897 65.1178H60.7827ZM63.4291 65.1178V66.1764H61.7438V65.1178C61.7438 64.6651 62.1268 64.2821 62.5865 64.2821C63.0461 64.2821 63.4291 64.6582 63.4291 65.1178Z" fill="white"/>
<path d="M62.5865 69.5186C61.5906 69.5186 60.7827 70.3125 60.7827 71.3014V72.8544C60.7827 73.1191 61.0125 73.3489 61.2841 73.3489H63.9306C64.2022 73.3489 64.432 73.1191 64.432 72.8544V71.3014C64.3972 70.3125 63.5893 69.5186 62.5934 69.5186H62.5865ZM63.4291 72.36H61.7438V71.3014C61.7438 70.8487 62.1268 70.4657 62.5865 70.4657C63.0461 70.4657 63.4291 70.8418 63.4291 71.3014V72.36Z" fill="white"/>
<path d="M62.5865 75.6543C61.5906 75.6543 60.7827 76.4482 60.7827 77.4372V78.9902C60.7827 79.2548 61.0125 79.4847 61.2841 79.4847H63.9306C64.2022 79.4847 64.432 79.2548 64.432 78.9902V77.4372C64.3972 76.49 63.5893 75.6543 62.5934 75.6543H62.5865ZM63.4291 78.4957H61.7438V77.4372C61.7438 76.9845 62.1268 76.6014 62.5865 76.6014C63.0461 76.6014 63.4291 76.9775 63.4291 77.4372V78.4957Z" fill="white"/>
<path d="M78.0542 63.9754L73.6458 59.2397C73.4508 59.0516 73.1444 59.0516 72.9563 59.2397L68.548 63.9754C68.4713 64.052 68.4365 64.1634 68.4365 64.2818V81.3373C68.4365 81.602 68.6663 81.8318 68.938 81.8318H77.7199C77.9915 81.8318 78.2213 81.602 78.2213 81.3373V64.2818C78.1865 64.1704 78.1447 64.052 78.0681 63.9754H78.0542ZM77.2115 80.8847H69.3906V64.4698L73.3046 60.2634L77.2185 64.4698V80.8847H77.2115Z" fill="white"/>
<path d="M71.5007 63.8294V66.6709C71.5007 66.9355 71.7306 67.1653 72.0022 67.1653H74.6486C74.9202 67.1653 75.15 66.9355 75.15 66.6709V63.8294C75.15 63.5648 74.9202 63.335 74.6486 63.335H72.0022C71.6957 63.335 71.5007 63.5648 71.5007 63.8294ZM72.4618 64.2821H74.1472V66.1764H72.4618V64.2821Z" fill="white"/>
<path d="M74.6068 69.5117H71.9604C71.6888 69.5117 71.459 69.7415 71.459 70.0062V72.8476C71.459 73.1123 71.6888 73.3421 71.9604 73.3421H74.6068C74.8784 73.3421 75.1083 73.1123 75.1083 72.8476V70.0062C75.1083 69.7415 74.8784 69.5117 74.6068 69.5117ZM74.1472 72.3531H72.4618V70.4589H74.1472V72.3531Z" fill="white"/>
<path d="M74.6068 75.6543H71.9604C71.6888 75.6543 71.459 75.8841 71.459 76.1488V78.9902C71.459 79.2548 71.6888 79.4847 71.9604 79.4847H74.6068C74.8784 79.4847 75.1083 79.2548 75.1083 78.9902V76.1488C75.1083 75.8841 74.8784 75.6543 74.6068 75.6543ZM74.1472 78.4957H72.4618V76.6014H74.1472V78.4957Z" fill="white"/>
<path d="M44.201 26.4179C44.1523 26.1602 44.0756 25.8817 43.9851 25.624C45.1133 25.7006 46.2903 25.5613 47.3419 25.2549C47.3419 25.2688 47.328 25.2827 47.328 25.3036C47.314 25.9583 47.4673 26.599 47.7249 27.1979C46.6594 26.4806 45.4058 26.1324 44.201 26.4179Z" fill="white"/>
<path d="M89.9145 39.1627C89.2738 38.9677 89.5454 38.0484 90.1861 38.1738C92.2754 38.5986 93.7379 40.9804 92.9301 43.0279C92.6376 43.7592 91.4815 43.4876 91.7113 42.6936C92.1222 41.2311 91.4049 39.6293 89.9076 39.1697L89.9145 39.1627Z" fill="white"/>
<path d="M74.9761 42.1637C77.2325 41.126 79.8163 44.0232 78.7298 46.1891C78.4234 46.781 77.4971 46.3562 77.6782 45.7434C78.1379 44.2321 76.9121 42.7835 75.3313 42.9994C74.8577 43.0621 74.4468 42.3866 74.983 42.1568L74.9761 42.1637Z" fill="white"/>
<path d="M44.6467 65.4664C44.4168 64.4775 44.4795 63.4816 44.8765 62.5205C45.169 61.8311 46.144 62.2628 45.8236 62.9175C45.4545 63.6487 45.3501 64.4287 45.5033 65.2366C45.5938 65.7868 44.786 66.0305 44.6467 65.4664Z" fill="white"/>
<path d="M15.0276 50.0685C15.5778 50.1451 15.3758 50.9251 14.9022 50.9669C13.1333 51.1201 11.8658 48.801 13.0288 47.443C13.3631 47.046 14.0804 47.4708 13.9133 47.9583C13.579 48.9055 13.962 49.8944 15.0276 50.0616V50.0685Z" fill="white"/>
<path d="M56.7924 28.6044C56.9456 29.7465 57.1127 30.8956 57.2381 32.0517C58.3524 31.592 59.4527 31.1533 60.5322 30.6797C60.2118 30.3454 59.9193 29.9485 59.7104 29.5376C59.585 29.6629 59.4527 29.7674 59.2647 29.7813C58.2758 29.8719 57.3565 29.3704 56.7924 28.6044ZM48.6163 37.254C50.5524 38.2917 52.6625 38.9811 54.919 39.2527C54.8424 35.7567 54.7936 32.2676 54.7936 28.7715C53.8604 29.6281 52.6138 30.1156 51.2697 29.9345C50.7543 29.8579 50.2599 29.6769 49.8072 29.4331C51.214 31.9681 50.7543 35.311 48.6163 37.261V37.254ZM38.6225 64.951C38.0724 65.731 38.3509 66.7338 38.9708 67.3745C39.5209 67.9665 40.1477 68.1058 40.879 68.0779C40.9556 68.0501 41.0043 67.9874 41.074 67.9526C41.269 67.876 41.4222 67.9665 41.4988 68.1197C41.9097 68.3356 41.8191 69.0669 41.3456 69.2619C41.2202 69.3245 41.1018 69.3524 40.9625 69.3872C40.2731 70.6686 40.1268 72.3192 41.464 73.3081C42.1325 73.8095 43.0797 73.8722 43.8736 73.6424C44.6188 73.3986 45.0784 72.9251 45.5799 72.3749C45.5799 72.3261 45.5659 72.2844 45.5659 72.2217C45.552 71.7342 46.2693 71.6088 46.4365 72.0406C46.6941 72.166 46.8961 72.4654 46.8195 72.7858C46.8195 72.8136 46.7916 72.8485 46.7916 72.8763C47.1886 73.531 47.8781 74.0185 48.6859 73.9627C49.7724 73.8861 50.5315 72.7092 50.3504 71.6715C50.3016 71.5044 50.3504 71.3511 50.4131 71.2119C49.25 70.599 48.1706 69.7911 47.2374 68.8161C46.6593 68.2033 47.2234 66.9427 48.1218 67.291C49.3754 67.7785 50.6359 68.2033 51.9243 68.6211C51.9243 68.5306 51.9522 68.4401 52.0775 68.3774C52.9759 67.9177 52.962 66.8035 52.6416 65.9677C52.4466 65.4315 52.0915 64.9579 51.6179 64.6376C51.1304 64.3172 49.5913 64.0108 49.7584 65.1111C49.8629 65.919 48.7974 66.302 48.4631 65.7379C48.282 65.6126 48.1566 65.4176 48.2472 65.1738C48.8252 63.6765 48.0313 61.6777 46.4016 61.2529C44.3124 60.7027 43.1493 62.9313 43.3025 64.6376C43.3791 65.5081 42.1256 65.5708 41.8679 64.8326C41.8191 64.6933 41.8052 64.561 41.7774 64.4356C40.7884 63.8436 39.3329 63.9481 38.6156 64.937L38.6225 64.951ZM34.9733 42.1081C34.9733 42.3658 34.9593 42.6444 34.9245 42.902C35.5165 42.6861 36.1781 42.6444 36.7979 42.7627C36.7074 42.5956 36.6586 42.3936 36.6168 42.2126C36.5263 42.2404 36.4358 42.2752 36.3243 42.3031C35.99 42.3797 35.607 42.3658 35.2727 42.2544C35.1683 42.2265 35.0777 42.1638 34.9663 42.1011L34.9733 42.1081ZM22.6883 62.2906C22.4724 61.3295 21.6993 61.0092 20.9472 60.5635C20.4736 60.8072 19.805 60.3476 20.1393 59.7835C21.0238 58.3627 19.3733 57.5688 18.1127 57.0674C17.1238 58.2304 15.6891 58.9129 14.1918 58.5299C13.8575 59.2194 13.9341 60.0272 14.6027 60.5286C15.2713 61.0301 14.6306 62.1792 13.9341 61.6708C12.59 60.7097 10.654 60.0202 9.24718 61.2738C7.65932 62.6597 8.73182 64.8604 10.7584 64.4774C11.1554 64.4008 11.3991 64.6933 11.3852 65.0136C11.4479 65.0136 11.5106 65.0136 11.5802 65.0276C11.9911 65.0902 11.9911 65.7727 11.5802 65.8494C9.79736 66.1836 9.82522 68.461 11.5524 68.8858C12.9591 69.2549 13.9341 68.2172 14.6515 67.1447C14.6793 66.887 14.742 66.6085 14.8325 66.3647C15.0275 65.8285 15.7309 66.0165 15.7031 66.5458C15.8284 66.6711 15.919 66.8174 15.8841 67.0194C15.8563 67.1726 15.7936 67.3258 15.7449 67.4651C15.9259 68.3217 16.5388 69.1156 17.3954 69.3245C18.7047 69.6588 19.8399 68.4819 19.9304 67.2492C19.9583 66.7895 20.3413 66.5597 20.6965 66.5945C20.2229 65.8006 19.8259 64.9927 19.5543 64.2267C19.2827 63.4606 20.39 62.8547 20.9263 63.4327C21.2188 63.767 21.5391 64.0595 21.8386 64.3799C22.4654 63.8785 22.8624 63.0985 22.6952 62.2767L22.6883 62.2906ZM23.5727 52.3317C24.4293 52.4361 25.1606 51.8442 25.0561 50.9249C25.0283 50.8483 24.9795 50.7995 24.9516 50.7299C24.7706 50.1031 24.889 49.3579 25.2233 48.7311C23.4056 48.3342 22.0197 46.7185 22.1102 44.8729C21.3302 44.0024 20.2508 43.3199 19.0599 43.7308C17.7784 44.1904 17.8411 45.3952 18.7674 46.1265C19.2549 46.5235 18.7186 47.2408 18.1893 47.1154C17.9734 47.0527 17.7784 46.9622 17.6113 46.8577C17.4859 46.9204 17.3536 46.9344 17.2143 46.8299C15.4872 45.6877 12.6666 46.0986 11.7195 48.0974C11.1693 49.2604 11.5384 50.6115 12.3324 51.5586C13.0636 52.4431 14.0108 52.6869 15.0624 52.9654C15.6404 53.1186 15.6404 53.9892 15.0624 54.1285C14.9091 54.1772 14.7559 54.1772 14.6027 54.1911V54.2051C12.7293 54.7065 13.0288 57.0256 14.9718 57.1161C15.8075 57.1649 16.4343 56.7819 16.9079 56.2317C16.9358 56.0019 17.1238 55.7581 17.3536 55.6536C17.6879 55.1174 17.9456 54.5394 18.1963 54.024C18.44 53.4599 19.415 53.7315 19.3593 54.3304C19.3454 54.4697 19.3106 54.602 19.2827 54.7413C20.2577 56.2526 22.3052 56.371 23.3847 54.7901C22.6952 53.9683 22.0406 53.1117 21.4625 52.1785C21.0377 51.4751 22.0266 50.7299 22.5908 51.3079C22.925 51.6422 23.2593 51.9974 23.5797 52.3456L23.5727 52.3317ZM27.9045 80.1749C27.9672 80.3002 27.995 80.4186 27.995 80.5719C27.9811 80.6345 27.9811 80.6763 27.9811 80.739C37.2088 80.6902 46.4574 80.8435 55.6432 80.8156C55.7059 78.0717 55.7059 75.3208 55.7059 72.5629C54.3479 72.5629 53.0177 72.3052 51.7711 71.8317C51.8477 73.4822 50.7613 75.084 49.0411 75.3277C47.8641 75.4949 46.7986 74.9308 46.1718 74.0324C44.7999 75.5576 41.8261 75.6481 40.3566 74.3388C39.0474 73.1619 38.7409 70.9054 39.5906 69.3524C38.7688 69.0947 38.0515 68.4679 37.5918 67.6879C37.5779 68.071 37.5152 68.4331 37.3759 68.8161C37.0068 69.7633 36.3104 70.4458 35.4677 70.8149C36.7004 71.762 37.0834 73.7469 35.7881 75.084C33.9286 76.9922 29.9729 75.9685 29.8058 73.134C29.1163 74.0672 28.4199 74.9935 27.6399 75.8361C27.6259 75.8501 27.5911 75.8501 27.5772 75.8849C27.7165 77.3195 27.6816 78.7542 27.8975 80.1888L27.9045 80.1749ZM30.3002 28.4372C29.4436 30.617 31.4424 32.2676 33.462 32.386C33.6152 32.3094 33.7684 32.2188 33.9356 32.1701C34.5624 32.0029 34.9106 32.7342 34.5275 33.1938C33.8241 34.0156 33.065 34.524 32.6333 35.5756C32.285 36.5088 32.4034 37.4351 32.2084 38.3822C33.4411 38.7026 34.2977 39.587 34.6947 40.7013C35.0429 40.4088 35.5652 40.7152 35.6697 41.0704C35.8856 41.1192 36.0806 41.161 36.1572 41.161C36.4009 41.161 36.784 41.2236 37.0138 41.1749C37.0625 41.161 37.1043 41.1749 37.1531 41.1888C37.3063 41.1749 37.4595 41.2376 37.6127 41.3699C38.5877 42.331 39.305 43.3826 40.865 43.292C42.4808 43.1876 43.4558 41.8574 43.8527 40.4227C43.9154 40.2277 44.0477 40.1511 44.2218 40.1024C44.5422 39.796 45.1968 39.8726 45.3083 40.3949C45.552 41.7042 46.4225 43.2015 48.0383 42.714C49.1525 42.3797 49.7306 41.1401 49.5774 40.0467C48.2193 39.3294 46.91 38.4449 45.6843 37.4699C44.3124 36.5088 43.0449 35.3945 41.9166 34.0644C41.1993 33.2426 42.3415 32.0656 43.1215 32.8595C44.5074 34.2454 45.9141 35.4502 47.4115 36.5227C48.7834 34.9349 49.6679 33.1172 48.9854 30.9722C48.3725 29.0779 46.2554 27.0374 44.194 27.6154C44.18 27.7826 44.1661 27.9636 44.1174 28.1517C43.9015 28.8411 42.822 28.7297 42.822 27.9985C42.5643 27.8174 42.439 27.4204 42.7175 27.1906C42.7454 27.1767 42.7663 27.1627 42.7802 27.1419C42.7036 26.4733 42.4877 25.7977 42.1534 25.2336C41.8331 25.1083 41.5406 24.9899 41.255 24.8227C40.9834 24.6556 40.9208 24.3492 41.0113 24.0915C40.5865 23.8477 40.0781 23.6945 39.4861 23.6945C37.3829 23.6945 36.0527 25.7072 36.0388 27.6294C36.0527 27.706 36.0875 27.7826 36.1015 27.8592C36.2547 28.6252 35.3075 29.0222 34.8827 28.3745C34.3186 27.5388 33.6918 26.8633 32.6124 26.8215C31.5468 26.7936 30.6902 27.4761 30.3211 28.4372H30.3002ZM31.115 67.6949C31.512 68.3077 30.5231 68.8858 30.154 68.259C29.3322 66.8383 27.3474 67.479 27.2568 69.0042C27.2847 70.4388 27.3195 71.8735 27.3474 73.2942C28.19 72.4724 29.0397 71.6645 29.8475 70.8219C30.4883 70.1811 31.3449 71.1283 30.8225 71.7969C30.6275 72.0267 30.4395 72.2844 30.2584 72.5281C30.4256 72.5281 30.5927 72.5769 30.7041 72.7231C31.5468 73.8861 32.5218 75.3904 34.2002 74.6452C34.9315 74.311 35.5583 73.5449 35.3633 72.6952C35.1822 71.8386 34.3116 71.2467 33.455 71.4277C32.8631 71.5531 32.5706 70.7731 32.9815 70.4667C32.9675 70.0419 33.3297 69.5544 33.8938 69.6449C35.0568 69.826 36.0875 68.7326 36.1224 67.5974C36.1363 66.699 35.5304 65.919 34.8131 65.4454C34.0679 64.9579 33.1208 64.742 32.2502 64.9301C31.1081 65.1599 30.1888 66.2742 31.0315 67.3745M27.2081 67.2701C27.4658 66.9636 27.7722 66.706 28.1552 66.5667C28.6149 66.4135 29.0884 66.4135 29.5133 66.5388C29.4227 65.6265 29.8197 64.6654 30.6415 64.0665C32.1388 62.9801 34.2559 63.2099 35.7254 64.2336C36.2756 64.6167 36.7491 65.1042 37.0695 65.6683C37.0974 65.2574 37.1949 64.8604 37.3899 64.4913C38.2465 62.9801 40.2731 62.5552 41.7565 63.2377C42.1047 61.1136 44.3681 59.3168 46.52 59.7277C48.2472 60.062 49.4033 61.5315 49.6331 63.1472C49.7724 63.0706 49.8768 62.994 50.03 62.9522C51.2836 62.6319 52.5302 63.4119 53.2615 64.3729C54.2504 65.6822 54.4036 68.1406 52.7113 68.8579C53.7002 69.1644 54.6961 69.4708 55.699 69.7563C55.6084 60.466 55.2254 51.1547 54.9816 41.8783C53.4704 41.6833 52.0218 41.2097 50.6359 40.569C50.7752 42.1081 49.8908 43.7308 48.3029 44.1556C46.8543 44.5526 45.2038 43.7099 44.4308 42.4285C43.8388 43.6194 42.6897 44.5526 41.3665 44.7754C40.7258 44.9008 39.9597 44.8242 39.2424 44.6083C39.2563 44.6222 39.2702 44.6361 39.2702 44.671C40.1547 46.7324 38.2047 49.2813 36.0527 49.3231C36.5124 50.911 35.8229 52.8192 34.4022 53.7036C32.9049 54.602 31.0454 54.2956 29.8406 53.1535C29.367 54.9363 28.5731 56.6356 27.3543 57.931C27.229 58.0702 27.0827 58.126 26.9434 58.1469C27.0688 61.1833 27.1384 64.2336 27.215 67.2701H27.2081ZM25.2093 67.4651C25.1327 64.0177 25.07 60.5565 25.084 57.0883C25.084 56.9351 25.1118 56.7958 25.1745 56.6913C24.882 56.3988 24.6243 56.0994 24.3527 55.8069C23.5309 56.9977 22.1729 57.4226 20.9333 57.2136L21.0238 57.3042C21.5113 57.9727 21.7133 58.8572 21.4974 59.6372C22.6743 59.7904 23.6215 60.9952 23.7677 62.1513C23.907 63.3144 23.3081 64.3451 22.3818 64.944C23.2802 65.8285 24.2134 66.6711 25.2024 67.4651H25.2093ZM25.9824 51.9765C25.6759 52.6172 25.0979 53.0769 24.4293 53.2092C25.0213 53.836 25.6202 54.4906 26.1983 55.1452C26.7484 54.1981 27.2359 53.2231 27.6956 52.2342C27.1036 52.3595 26.4908 52.262 25.9893 51.9765H25.9824ZM27.3125 48.3899C26.5952 48.759 25.8152 49.337 26.0033 50.2494C26.0172 50.2981 26.052 50.312 26.0659 50.3538C26.0799 50.3817 26.0799 50.4304 26.0799 50.4583C26.3724 51.1895 27.2568 51.5865 28.0159 51.4472C28.3641 50.5767 28.7054 49.7061 28.9631 48.7938C29.2068 48.0138 30.3977 48.167 30.3977 48.9888C30.3838 50.0126 30.2584 51.0781 30.0634 52.1506C31.0106 53.0977 32.6124 53.4599 33.7893 52.652C35.022 51.8094 35.0986 50.3329 34.6111 49.0654C34.5833 48.961 34.5833 48.8495 34.5972 48.759C34.3534 48.2994 34.6738 47.6447 35.3633 47.784C36.2477 47.979 37.0277 47.7701 37.6336 47.0806C38.135 46.5026 38.3649 45.6738 37.9818 44.9774C37.3133 43.7865 35.419 43.5288 34.444 44.4411C34.4161 44.4551 34.3813 44.469 34.3674 44.4899C34.3534 44.5108 34.3534 44.5177 34.3395 44.5386C33.9704 45.1306 33.0581 44.6013 33.4063 44.0024C34.4579 42.2474 33.9216 39.6706 31.6652 39.3363C29.6525 39.016 28.1413 41.2097 29.1929 42.9647C29.2416 43.0692 29.2068 43.1597 29.165 43.2363C29.2695 43.3269 29.3809 43.4035 29.4854 43.494C30.0008 43.9049 29.3043 44.7894 28.782 44.4063C27.3195 43.306 24.4781 41.6902 23.5518 44.281C22.8833 46.1404 24.5756 47.4079 26.1913 47.7422C26.4629 47.6029 26.7693 47.5263 27.0897 47.5472C27.5006 47.5751 27.7304 48.1601 27.3195 48.369L27.3125 48.3899ZM60.0865 25.9301C60.7759 25.3033 62.1131 25.0735 63.0741 25.4286C63.4224 23.2488 65.3027 21.4799 67.5452 21.3545C67.5452 21.3267 67.5313 21.3058 67.5452 21.2779C67.97 19.3836 66.5841 17.9977 64.6759 18.3181C64.46 18.346 64.265 18.2694 64.1397 18.137H64.0909C63.499 18.1997 63.2204 17.357 63.6174 16.9949C64.3208 16.3263 64.9615 15.8319 64.9615 14.7663C64.9615 13.5754 64.2302 12.7188 63.1577 12.2801C61.0336 11.3956 56.8132 12.4611 57.2102 15.407C57.2868 15.9851 56.7366 16.3194 56.3397 16.1244C56.1238 16.1104 55.9149 15.999 55.7756 15.7901C54.3549 13.666 52.4327 12.6283 49.8699 13.1019C48.0243 13.4361 43.414 15.421 44.3611 17.9838C44.4099 18.1231 44.4099 18.2415 44.3611 18.3529C44.4099 18.6872 44.1452 19.0076 43.7691 18.917C43.219 18.8126 42.7941 18.4574 42.23 18.3669C41.5893 18.2624 40.8999 18.3669 40.3358 18.7151C39.1449 19.4602 38.9638 20.9297 39.2493 22.1972C39.2633 22.2111 39.2493 22.2251 39.2493 22.246C39.3259 22.246 39.4025 22.232 39.4652 22.232C40.872 22.232 42.1952 22.9772 43.0936 24.0776C44.577 24.4258 45.9629 24.579 47.5925 24.1263C48.0034 24.001 48.2472 24.384 48.2054 24.7044C48.3865 24.767 48.5397 24.8854 48.5884 25.1501C48.86 26.7519 49.7306 28.2004 51.4577 28.5069C52.7531 28.7227 53.9718 28.1238 54.7866 27.1627C54.8006 25.547 54.7866 23.9313 54.8145 22.2947C54.8284 21.7585 55.685 21.6052 55.7756 22.1694C56.0681 23.7085 56.3118 25.2685 56.5556 26.8354C56.7715 26.7449 57.0291 26.8076 57.1336 27.107C57.2729 27.5527 57.5306 27.887 57.8649 28.1169C58.032 27.8244 58.4568 27.6572 58.7981 27.9497C58.9652 28.089 59.1324 28.2213 59.2856 28.3606C59.1324 27.4901 59.3343 26.6056 60.0795 25.937L60.0865 25.9301ZM76.369 32.386C78.305 31.3204 78.6393 28.9526 76.752 27.5945C75.4427 26.6335 73.8549 26.5847 72.3854 27.2254C72.1138 27.5597 71.4731 27.3647 71.4243 26.8563C71.285 24.962 70.1708 23.012 68.0675 22.8588C66.0549 22.7056 64.4809 24.3422 64.0422 26.1877C64.0422 26.2017 64.0282 26.2156 64.0282 26.2156C64.1188 26.4106 64.1815 26.6265 64.1954 26.8702C64.2233 27.3299 63.5547 27.6363 63.2483 27.2672C62.914 26.8563 62.7329 26.522 62.134 26.4872C61.6883 26.4594 61.2008 26.6126 60.8804 26.9469C59.9472 27.9358 60.755 29.4052 61.5838 30.1992C62.6075 29.7395 63.6104 29.252 64.6063 28.7019C65.6927 28.089 66.5563 29.649 65.5674 30.3315C64.6063 31.0001 63.6313 31.6617 62.6354 32.3024C62.8931 33.9808 64.2093 35.5338 66.0827 35.2135C67.5034 34.9697 68.4506 33.751 68.7222 32.4208C68.4506 32.1144 68.1859 31.794 67.9909 31.4319C67.6079 30.7424 68.569 29.9345 69.1052 30.5752L69.3768 30.8469C69.5718 30.8608 69.7459 30.9861 69.8225 31.1951C69.8225 31.2438 69.8225 31.2717 69.8365 31.3204C71.6054 32.9222 74.0777 33.6395 76.369 32.372V32.386ZM109.108 62.402C111.183 60.9952 110.954 57.7011 108.377 57.2624C108.105 57.3111 107.827 57.2136 107.659 57.0326C107.646 57.0186 107.632 57.0047 107.632 56.9838C107.604 56.956 107.583 56.9351 107.569 56.9072C107.43 56.6913 107.416 56.4197 107.541 56.2386C108.043 54.4976 107.311 52.3944 105.438 51.8302C103.502 51.2383 101.761 52.6102 101.043 54.3026L101.092 54.3513C101.44 54.7204 101.106 55.4935 100.556 55.2636C99.3024 54.7622 97.7911 54.5742 96.9554 55.9531C96.057 57.3877 97.1991 59.0174 98.5293 59.5815C99.6715 59.2124 100.821 58.8015 101.949 58.3488C102.527 58.1051 103.168 58.9408 102.784 59.4492C101.231 61.5385 98.982 63.1124 96.454 63.7044C96.8649 64.3451 97.4777 64.8186 98.39 64.9858C99.9779 65.2922 101.231 64.2685 101.928 62.9731C101.426 62.3463 102.032 61.3086 102.861 61.7822C104.797 62.9104 107.04 63.7949 109.115 62.409L109.108 62.402ZM77.9359 46.8647C80.0252 45.9176 80.3456 43.1597 78.4095 41.739C76.6266 40.4436 74.5374 41.0844 73.1306 42.4842C73.2211 42.9438 73.2559 43.4452 73.1933 43.9815C73.1166 44.6083 72.079 44.9147 71.9745 44.1486C71.9466 43.9954 71.9118 43.8561 71.884 43.7238C71.5149 43.7377 71.1388 43.3547 71.3686 42.916C71.4174 42.8254 71.4731 42.7349 71.5358 42.6444C70.6374 40.6735 68.6386 39.4269 66.3961 40.8615C63.7845 42.5399 64.7038 45.5624 66.7165 47.192C66.8557 47.3174 66.8836 47.4845 66.8558 47.6377C66.9602 47.7004 67.0856 47.7422 67.1761 47.8327C67.7402 48.2576 67.0229 48.9958 66.4727 48.7311C65.3724 48.2158 63.8611 48.5779 63.3458 49.7688C62.8304 50.9319 63.7149 52.0879 64.7943 52.5894C67.8308 51.5029 70.7279 50.1031 73.4788 48.2994C74.4538 47.6726 75.4149 49.0654 74.6836 49.8524C71.4313 53.2997 67.3154 55.6954 62.7956 56.8097C63.2204 57.7569 63.9377 58.502 65.1147 58.6135C66.1663 58.6901 67.0368 58.1677 67.6636 57.4226C67.5731 56.9629 67.5243 56.5102 67.6009 56.0019C67.7263 55.3472 68.4993 55.4099 68.8197 55.8486C69.0356 55.8208 69.2654 55.9252 69.2793 56.2177C69.2932 56.5381 69.2515 56.8445 69.1749 57.1301C69.739 58.5786 71.2363 59.5885 72.8659 59.1567C74.8786 58.6204 75.7213 56.5033 75.8397 54.6369C75.8675 54.1215 76.5709 53.8917 76.8634 54.226C77.1211 54.212 77.3997 54.3026 77.5668 54.5324C79.2313 56.761 81.8568 54.7274 81.6549 52.4431C81.4877 50.3817 79.7606 49.1002 78.0404 48.2436C78.0125 48.2576 77.9916 48.2715 77.9638 48.2715C77.2325 48.4526 76.9122 47.5263 77.3997 47.1294C77.525 46.9483 77.72 46.8369 77.9499 46.8577L77.9359 46.8647ZM95.5765 55.577C95.6043 55.5144 95.6531 55.4726 95.6809 55.4099C94.887 55.4865 94.0513 55.4238 93.2713 55.2149C93.4245 57.1092 93.5777 59.0174 93.7449 60.9047C93.9747 60.856 94.2045 60.7793 94.4482 60.7236C94.6432 60.466 94.9845 60.4033 95.27 60.5077C95.862 60.3545 96.4609 60.2152 97.039 60.0342C95.6043 59.1776 94.8452 57.151 95.5765 55.577ZM84.364 39.5452C85.2624 36.676 88.1665 34.5867 91.384 35.0881C94.6502 35.6244 96.9066 39.0229 96.0082 42.0315C98.9541 41.5161 102.374 42.3797 102.861 45.8479C103.133 47.8188 101.503 49.6922 99.6993 49.8315C100.082 51.0502 99.8038 52.457 99.0447 53.5226C99.379 53.5226 99.7132 53.5852 100.034 53.6897C100.626 51.3427 103.237 49.741 105.647 50.319C108.147 50.911 109.672 53.6479 109.171 56.0994C111.615 56.6147 112.952 59.5954 111.657 61.9702C109.916 65.1877 105.779 65.3131 102.896 63.6626C102.193 65.4942 100.131 66.7756 98.1672 66.5179C96.7325 66.3229 95.3884 65.2852 94.685 63.9551C94.685 63.9551 94.6757 63.9597 94.6572 63.969C94.1836 63.9829 94.0652 63.4049 94.3507 63.1263C94.3368 63.1124 94.3368 63.0985 94.3229 63.0636C94.1836 63.0149 94.0513 62.9592 93.912 62.8965C94.3856 68.6977 94.8452 74.492 95.1934 80.2933C95.2074 80.3838 95.1795 80.4604 95.1656 80.537C100.458 80.5092 105.737 80.4604 111.037 80.4604C112.103 80.4465 112.103 82.0901 111.037 82.111C93.4872 82.3686 75.9441 82.4801 58.3941 82.6263C58.0459 82.6402 57.6768 82.6402 57.3286 82.6402C57.1127 82.7029 56.9038 82.7029 56.6879 82.6542C39.7647 82.8492 22.6325 83.7685 5.75807 82.8352C4.87361 82.7865 4.87361 81.526 5.75807 81.4633C12.0608 81.0176 18.3913 80.8226 24.7358 80.746C24.8263 77.3892 24.9934 74.0324 25.1327 70.6895C23.6075 70.1254 22.3122 68.9067 21.2884 67.486C21.1631 69.436 19.2897 71.0865 17.3049 70.7383C16.2393 70.5572 15.4106 69.826 14.9718 68.9067C13.7391 70.3552 11.5384 70.9542 9.8879 69.5752C8.74575 68.6281 8.697 66.887 9.46307 65.8494C7.88915 65.529 6.71915 63.391 7.28325 61.8031C8.13986 59.3447 10.654 58.9338 12.8059 59.6233C12.7781 59.1079 12.8965 58.5856 13.189 58.0981C12.0747 57.4295 11.5733 56.0854 12.0747 54.8806C12.2279 54.4976 12.4716 54.1354 12.792 53.8429C10.654 52.8192 9.37254 49.7549 10.3197 47.589C11.4061 45.1445 14.547 44.2183 16.8034 45.4231C16.6781 44.476 17.075 43.4104 17.869 42.8881C19.4847 41.8365 21.177 42.6304 22.2913 43.9119C22.3191 43.8213 22.34 43.7308 22.3679 43.6542C22.8275 42.5538 23.7538 41.746 24.9586 41.5927C26.2122 41.4395 27.3543 41.9758 28.3781 42.6792C27.417 40.6177 28.9909 38.1454 31.4006 38.236C31.4493 38.2499 31.4772 38.2499 31.5259 38.2499C30.6693 36.9406 31.1916 34.7886 32.2711 33.3958C29.6177 33.0615 27.7234 30.1922 28.9909 27.504C30.0147 25.3381 33.2043 24.6347 34.9733 25.9927C35.3563 24.3144 36.6656 22.8519 38.3579 22.3783C37.4456 20.8392 38.0236 18.729 39.4234 17.6913C40.2174 17.1133 41.6659 16.779 42.8081 17.0506C42.425 12.872 52.5302 8.81185 56.0959 13.1785C57.2381 10.7201 61.5281 9.759 63.8959 10.7827C65.4977 11.4861 66.612 12.9486 66.5981 14.7524C66.5841 15.4836 66.3682 16.2776 65.9713 16.9183C68.0606 17.0436 69.739 19.3279 69.0216 21.5077C70.9577 22.0719 72.4411 23.8547 72.5943 25.8395C76.1809 24.377 81.6409 27.8104 79.1547 31.8636C77.2604 34.9488 72.7336 35.2692 69.8504 33.3749C69.4395 35.2065 67.9283 36.7456 65.9295 36.9127C63.6243 37.0938 61.6256 35.3388 61.1241 33.2217C59.9611 33.9111 58.7911 34.5658 57.5724 35.1438C58.1852 41.4604 58.4708 47.8536 58.5961 54.2608C60.1491 53.9544 61.6604 53.5574 63.1438 53.0977C62.0295 52.276 61.3888 50.7508 61.8902 49.3579C62.3359 48.0626 63.5686 47.2686 64.864 47.1642C62.7608 45.1794 62.9418 41.4256 65.4559 39.6706C67.8029 38.0201 71.2711 38.9394 72.6431 41.2236C74.1543 39.8377 76.2924 39.2736 78.1658 40.0467C78.4583 38.5215 80.3456 37.5465 81.8429 37.7763C82.8806 37.9435 83.7372 38.6329 84.357 39.5174L84.364 39.5452ZM86.5786 75.5367C85.6941 75.474 84.8724 74.9447 84.4406 74.1926C84.0436 74.5895 83.5561 74.896 83.1313 75.0492C82.0309 75.4461 80.7077 75.2929 79.8372 74.4711C78.507 73.2036 78.8274 70.8079 80.1854 69.7424C78.6463 68.2172 79.0433 64.951 80.7356 63.6835C82.6716 62.2349 85.8961 63.2726 86.6691 65.5011C87.4909 64.8117 89.1902 64.951 89.8588 65.9886C90.7154 67.3467 90.5134 69.8608 89.2459 71.0517C90.0399 71.4974 90.8477 71.8595 91.7182 72.1799C91.9341 66.7477 91.9899 61.3644 91.7461 55.9461C91.7182 55.4586 91.6834 54.9711 91.6416 54.4836C91.579 54.4349 91.5024 54.407 91.4466 54.3583C90.8059 53.9126 91.0009 53.1395 91.5372 52.8749C91.5093 52.5685 91.4884 52.262 91.4606 51.9765C90.5134 53.5783 89.0788 55.2567 87.0174 54.9642C85.9309 54.811 84.8654 54.017 84.4824 53.0142C84.0993 53.2092 83.6745 53.3206 83.2636 53.3206C83.2009 53.7942 83.0965 54.2956 82.8806 54.804C81.8429 57.1092 78.6115 57.8404 76.9331 56.1342C76.5849 58.4045 74.9622 60.5008 72.5525 60.8002C70.8741 60.9952 69.1679 60.1595 68.2486 58.8154C67.4547 59.6581 66.2986 60.2013 65.1077 60.1595C63.4015 60.0969 61.7509 58.7736 61.2147 57.137C60.372 57.2902 59.5224 57.3947 58.6379 57.4574C58.7145 65.334 58.5613 73.1758 58.3802 80.8156H58.3941C69.3629 80.7251 80.3386 80.6345 91.3074 80.5579C91.4118 78.8517 91.5024 77.1385 91.5999 75.4183C90.7154 75.084 89.9215 74.6104 89.1763 74.0881C88.64 74.9726 87.6372 75.5994 86.5856 75.5367H86.5786ZM85.0674 72.3749C85.13 72.542 85.144 72.7092 85.13 72.8763C85.4016 73.4683 85.8752 74.0394 86.5647 74.0811C87.2193 74.1438 87.7068 73.6842 87.9227 73.134C86.9895 72.2774 86.1677 71.2885 85.5131 70.1254C85.0674 69.3594 86.0772 68.6142 86.7179 69.1922C87.2541 69.7076 87.8322 70.1254 88.4102 70.5224C89.1275 69.9304 89.2181 68.5863 89.1415 67.7576C89.0927 67.1935 88.9256 66.3856 88.3057 66.2185C87.86 66.0931 87.3447 66.3229 87.3447 66.8313C87.3447 67.4581 86.4115 67.5765 86.2583 66.9845C86.2304 66.8452 86.1956 66.7269 86.1956 66.6015H86.1816C85.5897 64.7977 83.1452 63.3074 81.4529 64.742C79.9138 66.0513 80.7077 67.9456 81.7733 69.2131C82.2608 69.2897 82.5184 70.0488 81.9891 70.2647C81.9404 70.2926 81.8847 70.3413 81.822 70.3692C81.7941 70.3831 81.7593 70.4179 81.7175 70.4319C80.8191 70.996 80.1157 72.3819 81.0629 73.2245C81.5086 73.6215 82.205 73.5936 82.7274 73.3638C83.382 73.0713 83.4934 72.5211 83.96 72.0824C84.3431 71.7133 84.9072 71.9013 85.0743 72.3749H85.0674ZM85.8613 51.6561C85.7847 52.8888 86.8502 53.7315 88.0899 53.3972C89.2807 53.0769 90.1652 51.9138 90.8338 50.9736C90.9383 50.8483 91.0636 50.7786 91.182 50.7438C89.9772 50.2285 88.8907 49.3858 88.055 48.3969C87.5954 47.8606 88.3127 47.1294 88.849 47.6169C89.2599 47.9999 89.7056 48.362 90.1443 48.7311C90.4925 48.9888 90.8756 49.2326 91.2725 49.4485C91.2099 48.6824 91.1681 47.9233 91.1054 47.1572C91.0288 46.1822 92.5261 46.2101 92.6166 47.1572C92.8325 49.1838 92.9649 51.2035 93.1041 53.2301C94.4761 53.7454 96.0013 53.9752 97.227 52.9376C98.3134 52.0252 98.5224 50.4235 97.7911 49.2465C97.7632 49.2186 97.7424 49.2186 97.7145 49.1838C97.5334 49.0445 97.4847 48.8356 97.5334 48.6197C97.5474 48.5431 97.5822 48.4665 97.624 48.3899C97.624 48.3899 97.624 48.376 97.6379 48.376C97.7772 48.1322 98.0627 47.9651 98.3552 48.0835C100.493 48.9819 102.095 46.7533 100.841 44.8799C99.6088 43.0483 97.3454 42.9856 95.3815 43.3408C95.2909 43.4661 95.2143 43.5845 95.1238 43.7099C94.7129 44.2113 94.114 43.7586 94.0861 43.2363C93.9607 43.0204 93.9956 42.7349 94.2393 42.5677C95.2282 39.7124 93.7518 36.6342 90.4229 36.5854C87.4352 36.5367 85.8125 38.8279 85.2345 41.3908C85.4016 42.0176 85.4643 42.6583 85.3877 43.2502C85.2972 43.877 84.3222 44.1486 84.169 43.4035C83.8625 41.941 83.7999 40.2417 82.3652 39.3433C81.1116 38.5772 79.4541 39.2388 79.099 40.5969C79.3427 40.764 79.5865 40.966 79.8163 41.1888C81.5991 43.0204 81.3275 45.9942 79.482 47.4915C81.1325 48.362 82.5672 49.7479 83.0965 51.4263C83.4656 51.3358 83.7372 51.6561 83.7511 51.9904C83.9949 51.9417 84.2108 51.8372 84.4197 51.6979C84.4684 51.5586 84.4824 51.4263 84.559 51.301C84.8654 50.6881 85.9031 50.9667 85.8543 51.6492L85.8613 51.6561Z" fill="white"/>
</g>
<defs>
<clipPath id="clip0_123_165">
<rect width="107.076" height="72.8604" fill="white" transform="translate(5.08936 10.3926)"/>
</clipPath>
</defs>
</svg>
