<svg width="116" height="90" viewBox="0 0 116 90" fill="none" xmlns="http://www.w3.org/2000/svg">
<g clip-path="url(#clip0_123_168)">
<path d="M91.7173 47.7299C92.8438 47.454 93.9013 46.9176 94.1695 45.6838C94.4301 44.4653 93.7021 43.3082 92.6446 42.7488C92.0928 42.4576 92.4836 41.538 93.0584 41.7449C94.775 42.3733 95.9781 44.0209 95.7329 45.8984C95.503 47.7376 93.8247 49.3698 91.9165 49.3162C91.0276 49.2856 90.8054 47.9445 91.7096 47.7222L91.7173 47.7299Z" fill="white"/>
<path d="M77.8775 25.8901C77.1495 28.8558 73.1722 30.0436 70.582 29.1547C69.9613 28.9478 70.2142 27.9898 70.8579 28.1661C72.0534 28.511 73.2872 28.396 74.3983 27.8213C75.5095 27.2618 76.0306 26.3959 76.7203 25.4073C77.1341 24.8172 78.0614 25.1774 77.8851 25.8901H77.8775Z" fill="white"/>
<path d="M65.3786 66.6507C64.5433 68.8424 61.8228 70.1528 59.6004 69.2868C59.11 69.0952 59.2863 68.4055 59.8227 68.4898C61.7462 68.804 63.3248 67.8615 64.1754 66.1449C64.5049 65.4552 65.6544 65.9533 65.3862 66.6507H65.3786Z" fill="white"/>
<path d="M58.7882 50.9259C58.8878 50.2286 59.8994 50.4585 59.9377 51.0792C60.022 52.5506 60.2979 53.8227 61.3248 54.9338C61.6696 55.3017 61.1715 55.7538 60.7883 55.4703C59.4013 54.3974 58.5123 52.6885 58.7882 50.9259Z" fill="white"/>
<path d="M49.0635 7.45161C51.4621 7.64319 53.5082 9.56668 53.7381 11.9806C53.8071 12.7086 52.6806 12.6933 52.5963 11.9806C52.42 10.0878 50.9946 8.47849 49.0558 8.23327C48.573 8.1643 48.55 7.4133 49.0558 7.45161H49.0635Z" fill="white"/>
<path d="M40.8176 35.5766C41.5303 35.8908 42.1357 35.7145 42.8637 35.7298C43.4002 35.7452 43.5534 36.4195 43.1243 36.7031C42.3426 37.2395 41.1318 36.979 40.3502 36.5805C39.4842 36.1437 38.8405 35.3697 38.6106 34.4271C38.511 33.9979 39.1317 33.6991 39.3386 34.1129C39.6528 34.7566 40.1586 35.2777 40.8176 35.5842V35.5766Z" fill="white"/>
<path d="M35.0012 70.214C32.9398 70.145 31.2692 68.1986 31.4071 66.1678C31.4378 65.593 32.2041 65.6314 32.2731 66.1678C32.48 67.7081 33.7521 68.62 35.1928 68.827C35.9898 68.9342 35.7829 70.2293 35.0012 70.214Z" fill="white"/>
<path d="M32.9398 59.2786C30.6868 59.2633 27.3839 58.4127 27.6291 55.5159C27.6828 54.9412 28.5181 54.9259 28.5334 55.5159C28.587 57.7766 31.3075 57.8379 32.9398 57.9299C33.8057 57.9835 33.8211 59.2863 32.9398 59.2709V59.2786Z" fill="white"/>
<path d="M25.2996 34.35C23.698 32.8403 24.8475 29.6141 27.1235 29.6447C27.8515 29.6447 28.0278 30.7559 27.2844 30.9245C26.0353 31.2234 25.2536 32.6411 26.02 33.7906C26.3188 34.258 25.6598 34.7102 25.292 34.35H25.2996Z" fill="white"/>
<path d="M46.2511 52.075C45.8143 52.6344 45.2472 53.0789 44.6188 53.3624C46.8258 55.217 49.3624 56.5734 52.374 56.9948C52.3357 53.8222 52.2514 50.642 52.0752 47.477C51.9909 45.8064 51.9679 43.7757 51.7073 41.9058C51.3625 42.0821 50.9947 42.1817 50.6115 42.2507C51.2322 43.4461 51.0253 45.0938 50.2437 46.136C49.4313 47.2088 48.1439 47.661 46.8795 47.523C47.3469 49.0633 47.2626 50.7646 46.2587 52.075H46.2511ZM30.457 27.7824C28.4109 27.5908 25.6828 28.7709 24.2958 30.2116C23.1539 31.3918 22.8704 33.3 23.9126 34.641C24.61 35.5453 25.5449 35.8595 26.6024 36.2043C27.4377 36.4649 27.2078 37.5454 26.4108 37.645C25.8897 37.714 25.3993 37.6757 24.9395 37.5454C22.2803 39.0551 19.215 41.0705 19.2763 44.3657C19.3606 48.5806 23.7057 49.2779 27.1082 49.4005C27.1925 49.3009 27.2614 49.1783 27.3381 49.0863C27.7212 48.5806 28.4799 48.9254 28.3496 49.4695C29.024 49.6611 29.1619 50.7569 28.3803 50.9255C28.1351 50.9638 27.8975 51.0098 27.6523 51.0481C26.5028 53.8299 26.0736 57.1251 28.3266 59.4854C31.1237 62.4204 35.8597 60.7882 35.5301 56.5657C35.4612 55.6461 36.8099 55.5618 37.0551 56.3588C37.1241 56.581 37.1624 56.7956 37.2084 57.0025C38.0054 57.7305 39.1012 58.06 40.1588 57.6769C41.3926 57.2247 41.8217 56.1519 42.0899 54.9717C42.1206 54.8338 42.1895 54.7265 42.2508 54.6422C39.3005 51.8451 37.0245 48.1974 35.3386 44.3657C34.9401 43.4461 36.1509 42.6951 36.7103 43.5534C38.6874 46.6264 40.8638 49.8527 43.5459 52.4045C44.2356 52.1976 44.8334 51.7302 45.2165 51.0864C46.0365 49.6841 45.5307 47.9828 44.7874 46.6954C44.2816 45.8141 45.5997 45.0478 46.1285 45.8984C46.1821 45.998 46.2358 46.1053 46.2894 46.2126C47.278 46.4195 48.3508 46.1283 48.9256 45.2623C49.6536 44.2048 49.2014 43.2162 48.7493 42.1894V42.1587C47.0864 41.7296 45.707 40.3885 45.5767 38.511C42.4884 39.8827 38.7717 40.3655 36.1355 37.7983C34.4036 36.1277 33.9285 32.9934 35.4918 31.1696C33.3768 30.6791 31.5529 29.453 30.4417 27.7671L30.457 27.7824ZM67.4477 56.65C64.8269 56.8952 62.2903 55.2399 61.7003 52.6038C61.3171 50.8489 61.9455 48.6955 63.3479 47.4847C62.413 46.864 61.7999 45.8141 61.7156 44.7029C61.4934 44.9252 61.2635 45.1397 60.9876 45.3237C59.5775 46.2432 57.2862 46.3812 55.9528 45.2547C55.5543 46.8333 55.3091 48.5346 55.2248 50.5194C55.0868 54.3204 55.1941 58.106 55.3474 61.8917C59.7921 61.0564 63.7694 59.1099 67.4477 56.65ZM78.6821 61.7767C81.303 63.3707 80.6822 67.4552 78.092 68.9649C75.1263 70.6815 70.4901 69.8308 68.0225 67.3173C67.4631 69.8385 65.371 71.9842 62.7578 72.559C60.865 72.9881 59.0258 72.4747 57.3552 71.5857C56.7958 71.2945 56.1597 70.9803 55.6156 70.5819C55.6539 73.2563 55.6309 75.9155 55.424 78.5977C61.3631 78.9425 67.2485 80.092 72.7277 81.8239C73.4404 82.0461 73.54 82.7818 73.2488 83.2799C73.3178 83.7704 73.0419 84.3221 72.3982 84.3068C58.8035 84.1459 45.1629 84.2532 31.5835 83.6324C30.6333 83.5941 30.6256 82.1611 31.5835 82.1534H32.2962C38.5495 79.5326 45.4158 78.4367 52.2974 78.4904C52.3281 75.9232 52.3511 73.356 52.3817 70.7964C51.2705 70.6202 50.19 70.329 49.1401 69.9611C49.0712 72.4747 47.278 74.8043 44.6648 75.2181C42.3888 75.5783 40.0438 74.3292 38.971 72.3521C37.3004 74.1376 34.4956 74.743 32.1353 73.7621C29.7367 72.7582 28.1274 69.9228 28.7635 67.4476C27.3611 67.6085 25.8667 67.0108 25.0697 65.7846C24.0659 64.2366 24.2728 61.6541 25.951 60.6272C26.2269 60.4663 26.5564 60.5429 26.7633 60.7345C26.9702 60.9414 27.0622 61.2556 26.8706 61.5468C26.1809 62.589 25.5679 63.7002 26.2269 64.9493C26.8476 66.0912 28.0891 66.459 29.2692 66.2827C29.3918 66.0758 29.5451 65.8689 29.706 65.6773C30.1582 65.1562 31.1314 65.708 30.8862 66.367C30.0662 68.6737 30.3114 71.2102 32.9016 72.2371C34.9707 73.0571 37.0168 72.3444 38.4575 70.8807C38.4269 70.6891 38.3732 70.4976 38.3579 70.306C38.3196 69.6852 38.9633 69.509 39.3848 69.7466C39.699 69.3864 40.358 69.6623 40.2047 70.1757C40.1511 70.3826 40.0438 70.5589 39.9595 70.7504C40.7795 72.5207 42.3505 73.8771 44.4425 73.6318C46.5116 73.4019 47.8757 71.5321 48.1362 69.5856C46.1591 68.735 44.3506 67.5165 42.8716 65.9226C42.2508 65.2789 43.0248 64.3209 43.8065 64.7118C46.5499 66.1218 49.3777 66.8652 52.3817 67.1104C52.397 64.6581 52.42 62.1829 52.397 59.7153C49.0252 59.2325 46.1438 57.8531 43.6685 55.8913C43.3544 58.9643 39.5687 60.0602 37.2467 58.5122C36.7563 61.9453 32.3652 64.0527 29.0853 62.4051C28.1657 61.9377 27.4147 61.3629 26.8246 60.6885C24.587 58.1367 24.6176 54.3127 26.0966 51.1707C22.2803 51.2244 18.1651 49.5768 17.4141 45.4616C16.6171 41.1242 20.1729 38.5723 23.6597 36.9707C21.7822 35.6909 20.8856 32.9091 21.8358 30.7404C22.9853 28.1196 26.8323 26.2421 29.821 26.5256C29.3305 25.2228 29.2309 23.7438 29.6984 22.1345C30.5797 19.0769 33.8519 17.1304 36.7946 17.6055C35.2543 13.1072 39.3618 7.31374 43.4387 5.53586C48.5041 3.29818 55.2401 4.8385 57.5161 10.0879C59.317 7.53598 62.5509 6.21789 65.5319 7.69691C67.9075 8.86173 68.8808 11.4136 68.2217 13.7203C73.586 12.7087 79.3105 17.3297 80.1841 22.6403C80.7435 26.0275 79.2798 28.679 76.9425 30.3802C80.3604 30.204 83.418 33.093 83.2111 36.5645C89.1348 33.1773 96.3383 36.9937 98.5224 43.2469C99.5339 46.159 99.3423 49.3545 96.7905 51.3547C94.844 52.8797 92.0162 53.6766 89.5487 53.1939C90.6752 55.922 88.859 59.1482 86.0925 60.1521C84.307 60.7958 81.5099 60.5813 80.0308 59.1942C79.8929 60.1674 79.4025 61.0564 78.6974 61.7844L78.6821 61.7767ZM69.4095 59.5007C65.3633 62.4205 60.5738 64.2596 55.4394 64.6581C55.493 66.1295 55.5466 67.5778 55.5773 69.0339C56.198 69.9381 58.3514 70.6815 58.9951 70.8884C60.3285 71.3022 61.6006 71.3558 62.9341 70.8731C65.6622 69.8845 66.4362 67.4859 66.4975 64.8114C66.5128 63.9608 67.8002 63.7385 68.0071 64.6045C68.0914 64.9723 68.1298 65.3555 68.1604 65.731C69.808 67.3939 72.1377 68.2445 74.5133 68.1756C76.0766 68.1373 77.8085 67.5855 78.4369 66.0222C78.9273 64.8037 78.6668 63.455 77.5173 62.7423H77.502C76.682 63.2328 75.7317 63.5546 74.7738 63.5623M75.5402 61.8304C77.7625 61.271 78.3526 59.3628 78.2453 57.332C78.23 56.8492 78.7128 56.535 79.1342 56.581C79.3412 56.4201 79.7243 56.4737 79.8469 56.7879C81.6478 61.3706 90.0008 58.0371 87.5026 53.0866C87.3493 52.8107 87.3646 52.5655 87.4489 52.3586C86.9125 51.7378 87.6788 50.7263 88.5448 51.0941C90.8054 52.0444 94.5145 51.2704 96.2157 49.3545C98.1469 47.1628 97.0127 43.7297 95.641 41.561C92.8669 37.1546 87.4949 35.7139 82.9199 38.1585C82.8893 38.1738 82.8816 38.1738 82.8663 38.1738C82.5367 39.1241 81.0577 38.7486 81.3413 37.76C82.4908 33.8517 79.2109 30.5718 75.2873 31.7366C75.0804 31.8056 74.9041 31.706 74.7968 31.5757C72.9959 32.3191 70.9728 32.6486 69.0034 32.4417C70.5514 34.6334 70.8962 37.7677 68.8808 39.8214C67.4554 41.2621 65.0568 41.7296 63.2176 40.9479C63.1869 41.6606 63.0413 42.358 62.7885 43.0093C63.0184 43.132 63.2023 43.3925 63.118 43.7374C62.8421 44.9482 63.2559 46.1819 64.2828 46.91C64.4054 46.8563 64.528 46.772 64.666 46.7337C65.2254 46.5574 65.6545 47.3084 65.2407 47.7223C64.0069 48.9177 62.9111 50.0979 63.0567 51.9601C63.2482 54.1977 65.4706 55.6538 67.555 55.6538C67.9535 55.6538 68.0914 55.9833 68.0225 56.2745C70.8196 54.328 73.4711 52.0903 75.9923 49.799C76.7356 49.1246 77.9388 49.9753 77.3947 50.8719C75.5938 53.8222 73.3331 56.3971 70.7276 58.5122C69.7774 60.9644 73.747 62.3132 75.5325 61.861L75.5402 61.8304ZM68.2677 30.7021C73.701 31.1389 80.3144 27.928 77.7855 21.4448C76.1379 17.23 71.7468 14.7778 67.3558 15.3832C67.2715 15.4905 67.2178 15.6054 67.1335 15.6974C66.4208 16.548 65.2101 15.3295 65.9227 14.4866C67.6776 12.4022 66.3366 9.52077 63.892 8.83107C61.478 8.1567 59.271 9.52843 57.8533 11.4136C57.7154 12.088 56.6425 12.4252 56.3053 11.6895C54.1826 7.19113 49.4697 5.40558 44.7951 7.03786C41.0937 8.3253 36.4804 13.8735 38.3196 18.1266C38.9096 18.4255 39.4614 18.8393 39.9212 19.4064C40.404 19.9582 39.7603 20.9697 39.1012 20.4793C38.9633 20.372 38.81 20.2877 38.6644 20.1881C38.5418 20.1881 38.4192 20.1497 38.3042 20.0348C38.2659 19.9965 38.2506 19.9658 38.2046 19.9275C35.2696 18.4178 31.6985 19.6823 31.1084 23.3683C30.572 26.8245 33.1545 29.5833 36.2811 30.5029C36.4191 30.4032 36.5264 30.2959 36.695 30.227C37.3923 29.8821 38.1663 30.7634 37.5609 31.3382C35.3922 33.4226 36.1509 36.304 38.8254 37.4994C41.0094 38.4727 43.4387 37.9899 45.6687 37.3615C45.7683 37.1852 45.9445 37.0856 46.1361 37.0856C46.2204 37.0856 46.3124 37.1163 46.412 37.1546C46.8412 37.032 47.1247 37.5914 46.8412 37.8673C46.9791 39.1854 47.4695 40.3502 48.7646 40.9403C48.9715 41.0245 49.1785 41.0935 49.393 41.1318C49.4313 41.1318 49.4773 41.1318 49.531 41.1625C50.19 41.2621 50.872 41.1625 51.5081 40.8866C51.4085 40.4345 51.3012 39.9977 51.1632 39.5992C49.8758 35.9208 48.3508 35.7675 46.32 33.3996C45.0709 31.9282 44.5498 30.9856 44.3199 29.1618H44.3046C44.3046 29.0775 44.2893 29.0238 44.2739 28.9395C44.1743 28.0506 45.615 27.8973 45.8219 28.7326C47.3163 34.687 53.217 36.1124 58.3361 33.9207C61.0949 32.7405 62.9494 29.3687 64.0606 26.7555C64.3901 25.9738 65.7312 26.5486 65.4323 27.3456C64.1832 30.6101 62.6352 33.4915 60.5354 36.3193C58.6963 38.8022 57.3782 40.9709 56.5122 43.3465C57.6387 44.3581 59.202 44.634 60.4741 43.6071C61.478 42.7948 61.9148 41.5227 62.0911 40.2582C61.8305 40.013 61.6006 39.7524 61.4014 39.4229C60.9339 38.6719 61.9378 37.806 62.5969 38.2811C62.7731 38.2504 62.957 38.3347 63.0107 38.557C63.0107 38.5876 63.026 38.6259 63.026 38.6566C64.3671 39.9287 66.5281 40.059 67.8999 38.6029C69.6548 36.7484 68.8348 33.6525 67.3788 31.8976C67.1565 31.637 67.2945 31.3228 67.532 31.2079C67.6393 30.9167 67.8922 30.6868 68.26 30.7174L68.2677 30.7021Z" fill="white"/>
</g>
<defs>
<clipPath id="clip0_123_168">
<rect width="81.7826" height="79.7748" fill="white" transform="translate(17.2991 4.53223)"/>
</clipPath>
</defs>
</svg>
