<svg width="99" height="99" viewBox="0 0 99 99" fill="none" xmlns="http://www.w3.org/2000/svg">
<path d="M15 42.8066C15 43.7886 15.1379 44.7878 15.5342 45.7182C17.2575 49.9563 21.583 52.5578 27.0975 50.3526C28.4244 49.8185 64.9582 35.1055 64.9582 35.1055C64.9582 35.1055 50.5687 71.5779 50.0345 72.939C47.9321 78.1592 50.4481 82.897 54.739 84.4992C55.6869 84.8438 56.6691 85.0161 57.6514 84.9988C61.1325 84.9816 64.2172 82.9142 65.7164 78.8138C65.9577 78.1936 83.9488 28.7999 84.3452 27.5939C84.5692 26.9048 85 25.2509 85 24.0966C85 21.6501 84.0867 19.3415 82.3461 17.6015C80.6229 15.8786 78.3653 15 75.9355 15C74.7809 15 73.8159 15.2067 72.3683 15.6719C71.5067 15.9476 25.1157 33.2104 21.1522 34.692C17.1714 36.1737 15 39.3264 15 42.8066Z" fill="#ED1C24"/>
</svg>
