<svg width="37" height="37" viewBox="0 0 37 37" fill="none" xmlns="http://www.w3.org/2000/svg">
<path d="M26.94 36.07H20.83L18.04 35.15L15.27 36.07H9.13C4.09 36.07 0 31.98 0 26.94V9.13C0 4.09 4.09 0 9.13 0H26.94C31.98 0 36.07 4.09 36.07 9.13V26.94C36.07 31.98 31.98 36.07 26.94 36.07Z" fill="#337FFF"/>
<path d="M15.2505 14.1097V18.0297H10.7305V23.1797H15.2505V36.0597H20.8205V23.1797H24.9705L25.7605 18.0297H20.8205V14.6897C20.8205 13.2797 21.5105 11.9097 23.7205 11.9097H25.9705V7.52969C25.9705 7.52969 23.9305 7.17969 21.9805 7.17969C17.9105 7.17969 15.2505 9.64969 15.2505 14.1097Z" fill="white"/>
</svg>
