<svg width="247" height="26" viewBox="0 0 247 26" fill="none" xmlns="http://www.w3.org/2000/svg">
<path d="M211.809 15.333L215.02 11.732H216.489L213.577 14.891L215.553 20H212.719L211.575 16.373L210.808 20H208L209.755 11.745H212.576L211.809 15.333ZM220.859 11.615C221.604 11.615 222.206 11.7103 222.666 11.901C223.134 12.0917 223.502 12.3863 223.771 12.785C223.944 13.0537 224.078 13.357 224.174 13.695C224.269 14.033 224.317 14.423 224.317 14.865C224.317 15.2463 224.282 15.6277 224.213 16.009C224.143 16.3903 224.044 16.7587 223.914 17.114C223.792 17.4607 223.641 17.79 223.459 18.102C223.285 18.4053 223.09 18.674 222.874 18.908C222.466 19.35 221.994 19.662 221.457 19.844C220.928 20.0173 220.274 20.104 219.494 20.104C218.74 20.104 218.133 20.026 217.674 19.87C217.214 19.714 216.85 19.4627 216.582 19.116C216.391 18.8733 216.239 18.5657 216.127 18.193C216.023 17.8203 215.971 17.3523 215.971 16.789C215.971 15.827 216.14 14.969 216.478 14.215C216.824 13.4523 217.314 12.85 217.947 12.408C218.328 12.1393 218.753 11.94 219.221 11.81C219.689 11.68 220.235 11.615 220.859 11.615ZM219.39 19.194C219.589 19.194 219.775 19.1073 219.949 18.934C220.131 18.752 220.295 18.5137 220.443 18.219C220.599 17.9157 220.737 17.5733 220.859 17.192C220.989 16.8107 221.097 16.4163 221.184 16.009C221.27 15.6017 221.335 15.1987 221.379 14.8C221.431 14.3927 221.457 14.0243 221.457 13.695C221.457 13.2443 221.409 12.9367 221.314 12.772C221.227 12.5987 221.097 12.512 220.924 12.512C220.724 12.512 220.534 12.5987 220.352 12.772C220.17 12.9453 219.996 13.1793 219.832 13.474C219.676 13.76 219.533 14.0937 219.403 14.475C219.281 14.8477 219.173 15.2333 219.078 15.632C218.991 16.0307 218.922 16.425 218.87 16.815C218.826 17.205 218.805 17.5647 218.805 17.894C218.805 18.388 218.857 18.7303 218.961 18.921C219.073 19.103 219.216 19.194 219.39 19.194ZM232.514 13.708C232.514 14.2193 232.371 14.6917 232.085 15.125C231.799 15.5583 231.327 15.8877 230.668 16.113L232.176 20H229.277L228.133 16.399H227.99L227.223 20H224.415L226.17 11.745H229.589C229.988 11.745 230.365 11.771 230.72 11.823C231.075 11.8663 231.383 11.9617 231.643 12.109C231.912 12.2477 232.124 12.447 232.28 12.707C232.436 12.9583 232.514 13.292 232.514 13.708ZM228.77 15.567C228.995 15.567 229.186 15.4933 229.342 15.346C229.507 15.19 229.637 15.0037 229.732 14.787C229.836 14.5703 229.91 14.3407 229.953 14.098C229.996 13.8467 230.018 13.63 230.018 13.448C230.018 13.2227 229.979 13.032 229.901 12.876C229.823 12.7113 229.654 12.629 229.394 12.629H228.809L228.159 15.567H228.77ZM234.397 11.745H239.87L239.662 12.733H237.01L236.464 15.242H238.687L238.479 16.217H236.256L235.658 18.999H238.31L238.115 20H232.642L234.397 11.745ZM246.382 20H243.34L243.158 17.933H240.753L239.83 20H238.569L242.404 11.745H245.485L246.382 20ZM241.182 16.984H243.067L242.768 13.448L241.182 16.984Z" fill="white" fill-opacity="0.6"/>
<path d="M70.6885 0.559822C64.7869 1.73807 56.7869 6.05832 56.918 14.0442C56.918 18.4954 62.4262 21.2446 68.8525 20.9828C72.3934 20.8519 75.8033 20.1973 76.1967 20.1973L78.5574 14.1752C75.541 14.6988 72.5246 15.3534 70.0328 14.437C65.8361 12.7351 68.459 8.41482 71.3443 6.97474C72.6557 6.32015 74.3607 5.79649 76.5902 5.9274C77.5082 5.9274 79.6066 5.9274 80.5246 7.89115L83.4098 0.821657C78.4262 -0.48751 73.3115 0.036156 70.6885 0.559822ZM102.689 0.428907L100.066 7.76024H95.2131L97.8361 0.428907H88.5246L81.0492 20.4592H90.3606L92.8525 13.7824H97.7049L95.2131 20.4592H104.525L112 0.428907H102.689ZM47.3443 0.428907L39.8688 20.5901H49.7049L57.1803 0.559822H47.3443V0.428907ZM27.9344 0.428907L20.7213 11.295C20.7213 11.295 21.1148 5.66557 21.2459 4.22549C21.377 3.17816 21.2459 0.428907 18.7541 0.428907H7.47541L0 20.4592H8.91803L14.1639 5.9274L12.9836 20.4592H20.8525L30.6885 6.32015L25.4426 20.5901H34.3607L41.8361 0.559822L27.9344 0.428907ZM199.738 0.428907L194.754 14.1752C194.885 12.7351 195.148 7.23657 195.279 4.09457C195.41 2.78541 195.016 1.86899 194.492 1.21441C193.705 0.428906 192.787 0.428907 192.787 0.428907H181.508L174.033 20.4592H182.295L187.541 6.18924L186.754 20.5901H200.525L208 0.559822H199.738V0.428907ZM165.771 0.428907L158.295 20.4592H168.131L175.607 0.428907H165.771ZM124.59 5.79649H135.738L137.705 0.559822H117.508L109.902 20.5901H130.361L132.328 15.2225H120.918L121.705 12.9969H132.328L134.164 8.15299H123.541L124.59 5.79649ZM152.525 0.428907H142.951L135.607 20.5901H154.623L157.115 14.0442H147.541L152.525 0.428907Z" fill="white"/>
</svg>
