<svg width="37" height="37" viewBox="0 0 37 37" fill="none" xmlns="http://www.w3.org/2000/svg">
<path d="M26.94 0H9.13C4.08765 0 0 4.08761 0 9.12997V26.94C0 31.9823 4.08765 36.07 9.13 36.07H26.94C31.9824 36.07 36.07 31.9823 36.07 26.94V9.12997C36.07 4.08761 31.9824 0 26.94 0Z" fill="black"/>
<path fill-rule="evenodd" clip-rule="evenodd" d="M22.7086 15.2093C24.1486 16.2393 25.9186 16.8493 27.8286 16.8493V13.1793C27.4686 13.1793 27.1086 13.1393 26.7486 13.0693V15.9593C24.8386 15.9593 23.0686 15.3493 21.6286 14.3193V21.8193C21.6286 25.5693 18.5886 28.6093 14.8386 28.6093C13.4386 28.6093 12.1386 28.1893 11.0586 27.4593C12.2886 28.7193 14.0086 29.4993 15.9186 29.4993C19.6686 29.4993 22.7086 26.4593 22.7086 22.7093V15.2093ZM24.0386 11.4993C23.2986 10.6893 22.8186 9.6493 22.7086 8.4993V8.0293H21.6886C21.9486 9.4893 22.8186 10.7393 24.0386 11.4993ZM13.4286 24.5793C13.0186 24.0393 12.7986 23.3793 12.7986 22.6993C12.7986 20.9793 14.1886 19.5893 15.9086 19.5893C16.2286 19.5893 16.5486 19.6393 16.8486 19.7393V15.9793C16.4886 15.9293 16.1286 15.9093 15.7686 15.9193V18.8393C15.4686 18.7393 15.1486 18.6893 14.8286 18.6893C13.1086 18.6893 11.7186 20.0793 11.7186 21.7993C11.7186 23.0093 12.4186 24.0593 13.4286 24.5693V24.5793Z" fill="#EE1D52"/>
<path fill-rule="evenodd" clip-rule="evenodd" d="M21.6294 14.3093C23.0694 15.3393 24.8394 15.9493 26.7494 15.9493V13.0593C25.6794 12.8293 24.7394 12.2793 24.0294 11.4993C22.8194 10.7393 21.9394 9.4893 21.6794 8.0293H18.9994V22.6993C18.9994 24.4093 17.5994 25.7993 15.8894 25.7993C14.8794 25.7993 13.9794 25.3193 13.4194 24.5693C12.4094 24.0593 11.7094 23.0093 11.7094 21.7993C11.7094 20.0793 13.0994 18.6893 14.8194 18.6893C15.1494 18.6893 15.4694 18.7393 15.7594 18.8393V15.9193C12.0694 15.9993 9.10938 19.0093 9.10938 22.7093C9.10938 24.5593 9.84938 26.2293 11.0494 27.4593C12.1294 28.1893 13.4294 28.6093 14.8294 28.6093C18.5794 28.6093 21.6194 25.5693 21.6194 21.8193V14.3193L21.6294 14.3093Z" fill="white"/>
<path fill-rule="evenodd" clip-rule="evenodd" d="M26.7591 13.0587V12.2787C25.7991 12.2787 24.8591 12.0087 24.0391 11.4987C24.7591 12.2887 25.7091 12.8387 26.7591 13.0587ZM21.6891 8.02869C21.6691 7.88869 21.6491 7.74867 21.6291 7.60867V7.13867H17.9291V21.8187C17.9291 23.5287 16.5391 24.9187 14.8191 24.9187C14.3191 24.9187 13.8391 24.7987 13.4191 24.5887C13.9891 25.3387 14.8791 25.8187 15.8891 25.8187C17.5991 25.8187 18.9891 24.4287 18.9991 22.7187V8.04868H21.6791L21.6891 8.02869ZM15.7691 15.9187V15.0887C15.4591 15.0487 15.1491 15.0287 14.8391 15.0287C11.0891 15.0287 8.03906 18.0687 8.03906 21.8187C8.03906 24.1687 9.23907 26.2387 11.0491 27.4587C9.84907 26.2387 9.10907 24.5587 9.10907 22.7087C9.10907 19.0087 12.0691 15.9987 15.7591 15.9187H15.7691Z" fill="#69C9D0"/>
</svg>
