<svg width="37" height="26" viewBox="0 0 37 26" fill="none" xmlns="http://www.w3.org/2000/svg">
<rect x="10" y="7.00195" width="17" height="13" fill="white"/>
<path d="M36.19 7.94193C36.19 3.55193 32.63 0.00195312 28.25 0.00195312H7.94C3.55 0.00195312 0 3.56192 0 7.94193V17.3919C0 21.7819 3.56 25.3319 7.94 25.3319H28.25C32.64 25.3319 36.19 21.7719 36.19 17.3919V7.94193ZM24.24 13.3719L15.13 17.8819C14.77 18.0719 13.56 17.8119 13.56 17.4119V8.16193C13.56 7.75193 14.78 7.49193 15.14 7.69193L23.86 12.4319C24.23 12.6419 24.61 13.1719 24.24 13.3719Z" fill="#FF0000"/>
</svg>
