<svg width="30" height="30" viewBox="0 0 30 30" fill="none" xmlns="http://www.w3.org/2000/svg">
<path d="M20.672 27H16.4372L14.5035 26.3624L12.5836 27H8.32798C4.83477 27 2 24.1652 2 20.672V8.32797C2 4.83476 4.83477 2 8.32798 2H20.672C24.1652 2 27 4.83476 27 8.32797V20.672C27 24.1652 24.1652 27 20.672 27Z" fill="#A70007"/>
<path d="M12.5698 11.7797V14.4967H9.43701V18.0661H12.5698V26.9932H16.4304V18.0661H19.3067L19.8543 14.4967H16.4304V12.1817C16.4304 11.2045 16.9086 10.2549 18.4403 10.2549H19.9998V7.21915C19.9998 7.21915 18.5859 6.97656 17.2343 6.97656C14.4134 6.97656 12.5698 8.68851 12.5698 11.7797Z" fill="white"/>
</svg>
