<svg width="30" height="30" viewBox="0 0 30 30" fill="none" xmlns="http://www.w3.org/2000/svg">
<path d="M21.1182 6.45605C20.3111 6.45605 19.6514 7.11579 19.6514 7.92292C19.6514 8.73006 20.3111 9.38979 21.1182 9.38979C21.9254 9.38979 22.5851 8.73006 22.5851 7.92292C22.5851 7.11579 21.9254 6.45605 21.1182 6.45605Z" fill="#A70007"/>
<path d="M14.5986 8.33789C11.2017 8.33789 8.44336 11.1032 8.44336 14.4931C8.44336 17.8831 11.2087 20.6484 14.5986 20.6484C17.9886 20.6484 20.7539 17.8831 20.7539 14.4931C20.7539 11.1032 17.9886 8.33789 14.5986 8.33789ZM14.5986 18.4446C12.4229 18.4446 10.6542 16.6759 10.6542 14.5002C10.6542 12.3244 12.4229 10.5557 14.5986 10.5557C16.7744 10.5557 18.543 12.3244 18.543 14.5002C18.543 16.6759 16.7744 18.4446 14.5986 18.4446Z" fill="#A70007"/>
<path d="M19.4902 27H9.50984C5.3689 27 2 23.6311 2 19.4902V9.50982C2 5.36889 5.3689 2 9.50984 2H19.4902C23.6311 2 27 5.36889 27 9.50982V19.4902C27 23.6311 23.6311 27 19.4902 27ZM9.50281 4.34419C6.66031 4.34419 4.34419 6.66031 4.34419 9.50281V19.4832C4.34419 22.3257 6.66031 24.6418 9.50281 24.6418H19.4832C22.3257 24.6418 24.6418 22.3257 24.6418 19.4832V9.50281C24.6418 6.66031 22.3257 4.34419 19.4832 4.34419H9.50281Z" fill="#A70007"/>
</svg>
