<svg width="424" height="173" viewBox="0 0 424 173" fill="none" xmlns="http://www.w3.org/2000/svg">
<path fill-rule="evenodd" clip-rule="evenodd" d="M14.6508 161.32H5.97083V163.96H11.5908V166.91H5.97083V172.26H0.800781V158.24H14.6508V161.32Z" fill="white"/>
<path fill-rule="evenodd" clip-rule="evenodd" d="M0 2.64014H23.76C69.6 2.64014 74.02 29.0101 74.02 69.7101C74.02 110.41 70.4501 136.78 28.1801 136.78H0V2.65015V2.64014ZM27.3301 116.06C44.5701 115.87 45.41 110.22 45.41 69.5302C45.41 28.8402 44.5701 23.5602 27.3301 23.3702V116.06Z" fill="white"/>
<path fill-rule="evenodd" clip-rule="evenodd" d="M90.1699 2.64014H117.51V136.78H90.1699V2.64014Z" fill="white"/>
<path fill-rule="evenodd" clip-rule="evenodd" d="M135.77 2.64014H197.6V23.3702H163.11V57.6501H188.56V79.5101H163.11V116.06H199.07V136.78H135.77V2.64014Z" fill="white"/>
<path fill-rule="evenodd" clip-rule="evenodd" d="M230.16 97.97C230.16 105.51 230.16 118.69 241.94 118.69C250.98 118.69 254.13 111.15 254.13 105.69C254.13 81.77 204.5 76.3 204.5 36.55C204.5 16.39 216.7 0 239.83 0C264.44 0 273.9 16.77 274.53 40.88H250.14C250.14 33.34 250.14 20.72 239.2 20.72C232.68 20.72 228.9 25.62 228.9 32.96C228.9 55.76 278.53 63.48 278.53 102.48C278.53 123.01 265.49 139.4 240.89 139.4C211.66 139.4 205.77 116.42 205.77 97.95H230.16V97.97Z" fill="white"/>
<path fill-rule="evenodd" clip-rule="evenodd" d="M290.91 2.64014H352.73V23.3702H318.25V57.6501H343.69V79.5101H318.25V116.06H354.21V136.78H290.91V2.64014Z" fill="white"/>
<path fill-rule="evenodd" clip-rule="evenodd" d="M366.58 2.64014H393.92V116.06H423.71V136.78H366.58V2.64014Z" fill="white"/>
<path fill-rule="evenodd" clip-rule="evenodd" d="M409.26 8.86011C409.26 5.42011 412.5 2.6001 416.51 2.6001C420.52 2.6001 423.71 5.42011 423.71 8.86011C423.71 12.3001 420.49 15.1901 416.51 15.1901C412.53 15.1901 409.26 12.3701 409.26 8.86011ZM410.64 8.86011C410.64 11.7301 413.25 13.9601 416.51 13.9601C419.77 13.9601 422.34 11.7301 422.34 8.86011C422.34 5.99011 419.74 3.83008 416.51 3.83008C413.28 3.83008 410.64 6.08011 410.64 8.86011ZM420.12 12.4101H418.75L416.44 9.1601H415.03V12.4101H413.83V5.36011H417.36C418.04 5.36011 418.71 5.40007 419.33 5.70007C419.93 6.00007 420.23 6.63009 420.23 7.22009C420.23 8.61009 419.11 9.1301 417.68 9.1601L420.13 12.4101H420.12ZM416.33 8.2901C417.47 8.2901 419.02 8.47007 419.02 7.20007C419.02 6.29007 418.12 6.1601 417.11 6.1601H415.02V8.28009H416.33V8.2901Z" fill="white"/>
<path fill-rule="evenodd" clip-rule="evenodd" d="M29.1299 172.45C24.2299 172.45 20.09 169.6 20.11 165.09C20.05 160.28 24.2699 158.04 29.1299 158.04C33.9899 158.04 37.8899 160.8 37.9099 165.12C37.9299 169.56 34.0299 172.44 29.1299 172.44V172.45ZM31.74 163.43C31.64 162.22 30.49 160.88 28.99 160.88C27.49 160.88 26.4199 162.21 26.2599 163.43C26.1799 164.16 26.01 166.05 26.24 167.24C26.49 168.64 27.55 169.72 28.99 169.72C30.43 169.72 31.4099 168.64 31.6399 167.2C31.8199 166.22 31.8 164.26 31.74 163.42V163.43Z" fill="white"/>
<path fill-rule="evenodd" clip-rule="evenodd" d="M50.2798 167V172.26H45.0898V158.24H56.2698C59.5698 158.24 61.2298 160 61.3198 162.42C61.3998 164.38 60.0698 166.16 58.1198 166.77L61.1398 172.26H55.4998L52.9598 167H50.2698H50.2798ZM50.2798 164.04H54.0098C54.9298 164.04 55.6498 163.38 55.6498 162.57C55.6498 161.76 54.9098 161.1 54.0098 161.1H50.2798V164.04Z" fill="white"/>
<path fill-rule="evenodd" clip-rule="evenodd" d="M84.8695 162.21C84.8695 162.56 85.3996 162.79 85.7896 162.84C87.2296 163.03 87.2895 163 89.1295 163.24C91.4895 163.54 93.3296 164.46 94.3196 166.37C94.8496 167.36 94.7696 168.78 93.9696 169.92C92.4296 172.09 89.0295 172.38 87.6295 172.44C85.5995 172.53 80.7995 172.3 78.7695 169.38L81.2695 167.67C81.6195 167.93 82.1695 168.37 82.5195 168.58C84.3195 169.8 86.9496 169.75 88.2196 169.42C88.5696 169.33 88.9796 169.11 89.0796 168.93C89.3496 168.54 89.1996 167.97 88.6096 167.88C87.5196 167.67 86.8895 167.72 84.3995 166.99C82.8795 166.59 80.9096 165.92 79.9296 164.12C79.3396 163.07 79.3595 161.6 80.0095 160.55C80.9695 158.91 83.7195 158.31 84.8895 158.16C87.7595 157.83 91.0795 158.25 93.9095 160.55L91.3296 162.3C89.5696 161.15 86.9795 161.04 85.5095 161.55C85.1395 161.71 84.8895 161.86 84.8895 162.21H84.8695Z" fill="white"/>
<path fill-rule="evenodd" clip-rule="evenodd" d="M110.179 169.06C112.209 169.06 113.189 168.38 113.189 167.21V158.24H117.209V167.77C117.209 170.79 115.379 172.45 110.129 172.45H109.119C103.869 172.45 102.039 170.77 102.039 167.77V158.24H107.249V167.24C107.249 168.32 108.149 169.06 110.199 169.06H110.179Z" fill="white"/>
<path fill-rule="evenodd" clip-rule="evenodd" d="M141.279 167.5C140.849 169.77 138.549 171.56 136.209 172.13C135.529 172.31 134.099 172.44 132.909 172.44C128.419 172.44 124.519 169.21 124.539 165.06C124.539 161.06 128.439 158.03 132.869 158.03C134.349 158.03 135.469 158.22 136.209 158.4C138.549 158.92 140.559 160.5 140.989 162.77L136.599 163.19C136.539 161.37 134.709 160.79 133.399 160.87C131.579 160.94 130.219 162.29 130.219 165.13V165.46C130.219 168.33 131.589 169.6 133.339 169.73C135.349 169.83 136.619 169.4 136.969 166.99L141.279 167.5Z" fill="white"/>
<path fill-rule="evenodd" clip-rule="evenodd" d="M164.939 167.5C164.509 169.77 162.209 171.56 159.869 172.13C159.189 172.31 157.759 172.44 156.569 172.44C152.079 172.44 148.179 169.21 148.199 165.06C148.199 161.06 152.099 158.03 156.529 158.03C158.009 158.03 159.129 158.22 159.869 158.4C162.209 158.92 164.219 160.5 164.649 162.77L160.259 163.19C160.199 161.37 158.369 160.79 157.059 160.87C155.239 160.94 153.879 162.29 153.879 165.13V165.46C153.879 168.33 155.249 169.6 156.999 169.73C159.009 169.83 160.279 169.4 160.629 166.99L164.939 167.5Z" fill="white"/>
<path fill-rule="evenodd" clip-rule="evenodd" d="M186.629 172.26H172.109V158.24H185.979V161.32H177.299V163.96H182.899V166.91H177.299V169.34H186.629V172.26Z" fill="white"/>
<path fill-rule="evenodd" clip-rule="evenodd" d="M199.18 162.21C199.18 162.56 199.71 162.79 200.1 162.84C201.54 163.03 201.6 163 203.44 163.24C205.8 163.54 207.63 164.46 208.63 166.37C209.16 167.36 209.08 168.78 208.28 169.92C206.74 172.09 203.34 172.38 201.94 172.44C199.91 172.53 195.11 172.3 193.08 169.38L195.58 167.67C195.93 167.93 196.48 168.37 196.83 168.58C198.62 169.8 201.26 169.75 202.53 169.42C202.88 169.33 203.29 169.11 203.39 168.93C203.66 168.54 203.51 167.97 202.92 167.88C201.83 167.67 201.2 167.72 198.7 166.99C197.18 166.59 195.21 165.92 194.23 164.12C193.64 163.07 193.66 161.6 194.31 160.55C195.27 158.91 198.02 158.31 199.19 158.16C202.06 157.83 205.38 158.25 208.21 160.55L205.63 162.3C203.87 161.15 201.28 161.04 199.81 161.55C199.44 161.71 199.19 161.86 199.19 162.21H199.18Z" fill="white"/>
<path fill-rule="evenodd" clip-rule="evenodd" d="M221.411 162.21C221.411 162.56 221.941 162.79 222.331 162.84C223.771 163.03 223.831 163 225.671 163.24C228.031 163.54 229.861 164.46 230.861 166.37C231.391 167.36 231.31 168.78 230.51 169.92C228.97 172.09 225.571 172.38 224.171 172.44C222.141 172.53 217.341 172.3 215.311 169.38L217.811 167.67C218.161 167.93 218.711 168.37 219.061 168.58C220.861 169.8 223.49 169.75 224.76 169.42C225.11 169.33 225.52 169.11 225.62 168.93C225.89 168.54 225.741 167.97 225.161 167.88C224.071 167.67 223.441 167.72 220.951 166.99C219.431 166.59 217.451 165.92 216.481 164.12C215.901 163.07 215.921 161.6 216.561 160.55C217.521 158.91 220.271 158.31 221.441 158.16C224.311 157.83 227.631 158.25 230.461 160.55L227.88 162.3C226.12 161.15 223.531 161.04 222.061 161.55C221.691 161.71 221.431 161.86 221.431 162.21H221.411Z" fill="white"/>
<path fill-rule="evenodd" clip-rule="evenodd" d="M252.309 161.32H243.619V163.96H249.239V166.91H243.619V172.26H238.449V158.24H252.309V161.32Z" fill="white"/>
<path fill-rule="evenodd" clip-rule="evenodd" d="M268.06 169.06C270.09 169.06 271.07 168.38 271.07 167.21V158.24H275.09V167.77C275.09 170.79 273.26 172.45 268.01 172.45H266.99C261.74 172.45 259.91 170.77 259.91 167.77V158.24H265.12V167.24C265.12 168.32 266.01 169.06 268.06 169.06Z" fill="white"/>
<path fill-rule="evenodd" clip-rule="evenodd" d="M287.901 158.24V169.18H295.411V172.26H282.691V158.24H287.901Z" fill="white"/>
<path fill-rule="evenodd" clip-rule="evenodd" d="M319.062 158.24V169.18H326.572V172.26H313.852V158.24H319.062Z" fill="white"/>
<path fill-rule="evenodd" clip-rule="evenodd" d="M339.09 158.24V172.26H333.9V158.24H339.09Z" fill="white"/>
<path fill-rule="evenodd" clip-rule="evenodd" d="M351.061 158.24L354.961 167.26L358.921 158.24H363.451L357.26 172.26H351.891L345.811 158.19L351.061 158.24Z" fill="white"/>
<path fill-rule="evenodd" clip-rule="evenodd" d="M375.68 158.24V172.26H370.49V158.24H375.68Z" fill="white"/>
<path fill-rule="evenodd" clip-rule="evenodd" d="M395 165.83V158.24H399.04V172.26H394.73L387.23 164.22V172.26H383.24V158.24H387.94L395 165.83Z" fill="white"/>
<path fill-rule="evenodd" clip-rule="evenodd" d="M415.02 167.61V164.92H423.12V172.3H421.27L419.98 170.8C418.48 172.06 415.84 172.46 413.95 172.46C409.52 172.46 406.24 168.98 406.24 165.01C406.24 161.04 410.1 158.05 414.59 158.05C415.78 158.05 417.21 158.19 417.89 158.33C420.25 158.89 422.34 160.43 422.77 162.72L418.36 163.14C418.36 161.78 416.7 160.8 415.08 160.8C413.28 160.8 411.9 161.69 411.9 163.82V166.86C411.9 168.82 413.5 169.62 415.28 169.62C416.66 169.62 418.15 168.61 418.15 167.73C418.15 167.64 418.11 167.61 418 167.61H415.04H415.02Z" fill="white"/>
</svg>
