<svg width="30" height="30" viewBox="0 0 30 30" fill="none" xmlns="http://www.w3.org/2000/svg">
<path fill-rule="evenodd" clip-rule="evenodd" d="M20.67 12.0696C22.11 13.0996 23.88 13.7096 25.79 13.7096V10.0396C25.43 10.0396 25.07 9.99963 24.71 9.92963V12.8196C22.8 12.8196 21.03 12.2096 19.59 11.1796V18.6796C19.59 22.4296 16.55 25.4696 12.8 25.4696C11.4 25.4696 10.1 25.0496 9.02002 24.3196C10.25 25.5796 11.97 26.3596 13.88 26.3596C17.63 26.3596 20.67 23.3196 20.67 19.5696V12.0696ZM22 8.35965C21.26 7.54965 20.78 6.50965 20.67 5.35965V4.88965H19.65C19.91 6.34965 20.78 7.59965 22 8.35965ZM11.39 21.4396C10.98 20.8996 10.76 20.2396 10.76 19.5596C10.76 17.8396 12.15 16.4496 13.87 16.4496C14.19 16.4496 14.51 16.4996 14.81 16.5996V12.8396C14.45 12.7896 14.09 12.7696 13.73 12.7796V15.6996C13.43 15.5996 13.11 15.5496 12.79 15.5496C11.07 15.5496 9.68002 16.9396 9.68002 18.6596C9.68002 19.8696 10.38 20.9196 11.39 21.4296V21.4396Z" fill="#EE1D52"/>
<path fill-rule="evenodd" clip-rule="evenodd" d="M19.5898 11.1696C21.0298 12.1996 22.7998 12.8096 24.7098 12.8096V9.91965C23.6398 9.68965 22.6998 9.13965 21.9898 8.35965C20.7798 7.59965 19.8998 6.34965 19.6398 4.88965H16.9598V19.5596C16.9598 21.2696 15.5598 22.6596 13.8498 22.6596C12.8398 22.6596 11.9398 22.1796 11.3798 21.4296C10.3698 20.9196 9.66983 19.8696 9.66983 18.6596C9.66983 16.9396 11.0598 15.5496 12.7798 15.5496C13.1098 15.5496 13.4298 15.5996 13.7198 15.6996V12.7796C10.0298 12.8596 7.06982 15.8696 7.06982 19.5696C7.06982 21.4196 7.80983 23.0896 9.00983 24.3196C10.0898 25.0496 11.3898 25.4696 12.7898 25.4696C16.5398 25.4696 19.5798 22.4296 19.5798 18.6796V11.1796L19.5898 11.1696Z" fill="#A70007"/>
<path fill-rule="evenodd" clip-rule="evenodd" d="M24.72 9.92001V9.14001C23.76 9.14001 22.82 8.87002 22 8.36002C22.72 9.15002 23.67 9.70001 24.72 9.92001ZM19.65 4.89001C19.63 4.75001 19.61 4.61 19.59 4.47V4H15.89V18.68C15.89 20.39 14.5 21.78 12.78 21.78C12.28 21.78 11.8 21.66 11.38 21.45C11.95 22.2 12.84 22.68 13.85 22.68C15.56 22.68 16.95 21.29 16.96 19.58V4.91H19.64L19.65 4.89001ZM13.73 12.78V11.95C13.42 11.91 13.11 11.89 12.8 11.89C9.04999 11.89 6 14.93 6 18.68C6 21.03 7.20001 23.1 9.01001 24.32C7.81001 23.1 7.07001 21.42 7.07001 19.57C7.07001 15.87 10.03 12.86 13.72 12.78H13.73Z" fill="#69C9D0"/>
</svg>
