<svg xmlns="http://www.w3.org/2000/svg" width="36" height="36" viewBox="0 0 36 36">
  <g id="그룹_16" data-name="그룹 16" transform="translate(-6521 2622)">
    <rect id="사각형_63" data-name="사각형 63" width="36" height="36" transform="translate(6521 -2622)" fill="none"/>
    <path id="패스_8" data-name="패스 8" d="M33.412,4.323s-1.987-3.064-7.4-2.537c0,0-4.524.6-3.758,4.931.8,4.535,7.133,10.436,5.505,15.223-1.615,4.749-6.152,8.593-7.707,8.761-.305.032,7.635-3.471-2.226-14.721,0,0-.862-.79-.6.029.247.77,2.346,5.213,2.633,6.649s.41,5.168-1.771,7.229a11.156,11.156,0,0,1-2.649,1.859,7.6,7.6,0,0,1-3.814.965,26.63,26.63,0,0,1-6.036-.063,8.253,8.253,0,0,1-3.176-.88A5.2,5.2,0,0,1,.763,29.887,6,6,0,0,1,.332,25c.192-.718,0,3.59,2.92,4.643,2.47.891,4.049,1.747,7.257,1.441a2.876,2.876,0,0,0,2.6-2.583,4.559,4.559,0,0,0-1.192-3.549C9.568,22.369,8.638,12.222,9.069,10.882c.463-1.44,3.112-7.062,5.912-8.235,0,0,8.138-4.212,14.505-2.01,0,0,4.453.909,4.165,3.973" transform="translate(6522 -2621)" fill="#6aae27"/>
  </g>
</svg>
