<svg xmlns="http://www.w3.org/2000/svg" xmlns:xlink="http://www.w3.org/1999/xlink" width="123.293" height="32.846" viewBox="0 0 123.293 32.846">
  <defs>
    <clipPath id="clip-path">
      <rect id="사각형_18" data-name="사각형 18" width="123.293" height="32.846" transform="translate(0 0)" fill="none"/>
    </clipPath>
  </defs>
  <g id="그룹_2" data-name="그룹 2" transform="translate(-117.707 0)">
    <g id="그룹_1" data-name="그룹 1" transform="translate(117.707)" clip-path="url(#clip-path)">
      <path id="패스_2" data-name="패스 2" d="M33.412,4.323s-1.987-3.064-7.4-2.537c0,0-4.524.6-3.758,4.931.8,4.535,7.133,10.436,5.505,15.223-1.615,4.749-6.152,8.593-7.707,8.761-.305.032,7.635-3.471-2.226-14.721,0,0-.862-.79-.6.029.247.77,2.346,5.213,2.633,6.649s.41,5.168-1.771,7.229a11.156,11.156,0,0,1-2.649,1.859,7.6,7.6,0,0,1-3.814.965,26.63,26.63,0,0,1-6.036-.063,8.253,8.253,0,0,1-3.176-.88A5.2,5.2,0,0,1,.763,29.887,6,6,0,0,1,.332,25c.192-.718,0,3.59,2.92,4.643,2.47.891,4.049,1.747,7.257,1.441a2.876,2.876,0,0,0,2.6-2.583,4.559,4.559,0,0,0-1.192-3.549C9.568,22.369,8.638,12.222,9.069,10.882c.463-1.44,3.112-7.062,5.912-8.235,0,0,8.138-4.212,14.505-2.01,0,0,4.453.909,4.165,3.973" fill="#6aae27"/>
      <path id="패스_3" data-name="패스 3" d="M31.42,12.424c0-1.45,1.251-2.1,2.531-2.1a2.163,2.163,0,0,1,2.418,2.1V29.689a2.153,2.153,0,0,1-2.418,2.189,2.242,2.242,0,0,1-2.531-2.189Z"/>
      <path id="패스_4" data-name="패스 4" d="M56.99,18.027c-.654.939-1.308,1.935-1.962,3.044-.683,1.109-1.337,2.1-1.934,3.015a2.113,2.113,0,0,1-1.849.91,2.05,2.05,0,0,1-1.792-.939l-3.84-6.172v11.8a2.17,2.17,0,0,1-2.446,2.19,2.2,2.2,0,0,1-2.474-2.19V12.453a2.235,2.235,0,0,1,2.474-2.133,3.432,3.432,0,0,1,3.47,1.877l4.608,7.225L56.023,12.2a3.5,3.5,0,0,1,3.413-1.877,2.166,2.166,0,0,1,2.446,2.133V29.689a2.461,2.461,0,0,1-4.892,0Z"/>
      <path id="패스_5" data-name="패스 5" d="M71.042,29.689a2.176,2.176,0,0,1-2.418,2.189c-1.336,0-2.531-.682-2.531-2.189V11.827c0-1,.825-1.507,2.048-1.507h6.712c4.836,0,8.874,1.848,8.874,6.683v.171c0,4.835-3.839,6.712-8.646,6.712H71.042Zm4.039-9.045c2.3,0,3.726-1.024,3.726-3.271v-.4c0-2.19-1.764-3.157-4.153-3.157H71.042v6.826Z"/>
      <path id="패스_6" data-name="패스 6" d="M86.629,25.28c-.028-1.365-.057-2.731-.057-4.1,0-1.337.029-2.73.057-4.152.086-4.92,3.783-6.712,8.675-6.712,4.75,0,8.419,1.99,8.646,6.712.114,2.73.086,5.66,0,8.248-.085,4.75-3.839,6.741-8.646,6.741-5.006,0-8.589-1.82-8.675-6.741M95.3,13.818c-2.474,0-3.839,1.053-3.925,3.242-.057,2.759-.057,5.489,0,8.22.086,2.247,1.451,3.214,3.925,3.214,2.3,0,3.783-1.08,3.925-3.242a79.059,79.059,0,0,0,0-8.22c-.085-2.19-1.564-3.214-3.925-3.214"/>
      <path id="패스_7" data-name="패스 7" d="M108.047,12.424c0-1.45,1.223-2.1,2.5-2.1,1.337,0,2.417.682,2.417,2.1v15.9h8.192c1.593,0,2.133.825,2.133,1.821,0,.8-.455,1.734-2.133,1.734H110.38c-1.451,0-2.333-.711-2.333-1.962Z"/>
    </g>
  </g>
</svg>
