<?xml version="1.0" encoding="UTF-8"?>
<svg id="Layer_1" data-name="Layer 1" xmlns="http://www.w3.org/2000/svg" viewBox="0 0 237.47 237.62">
  <g>
    <path d="M44.32,24.16c1.32-1.01,2.08-1.6,2.29-1.79.3-.26.7-.58,1.19-.97l.78-.61.67.08c.39.05.63.11.72.2.09.08.14.28.16.6.02.32,0,.54-.07.66-.07.13-.24.3-.52.52-.33.26-.79.67-1.37,1.22-.6.57-1.03.93-1.29,1.08-.53.26-1.2.81-2,1.64-.2.23-.46.44-.78.61-.29.15-.53.34-.73.57-.2.23-.3.45-.31.65-.01.2.19.55.59,1.04.4.5.7.76.9.78.2.02.46-.05.8-.22.33-.17.59-.38.76-.61.18-.22.45-.42.8-.59.35-.14.62-.32.83-.54.24-.24.63-.58,1.17-1.03.59-.48.95-.81,1.1-.98.17-.21.38-.37.64-.5.24-.11.56-.34.94-.7.3-.26.49-.4.56-.42.07-.02.3.03.67.15.48.16.76.34.84.54.08.2.02.54-.2,1.01-.17.34-.31.56-.42.69-.11.12-.4.35-.87.7-.63.49-1.13.92-1.5,1.29l-.56.55.41.52c.28.36.48.65.6.86.08.17.14.26.17.27s.12-.01.25-.07c.17-.08.26-.15.28-.22,0-.06.26-.32.77-.79.51-.47.94-.85,1.3-1.13.37-.31.69-.6.96-.87.29-.28.55-.45.79-.5.19-.05.36-.13.5-.24.27-.21.56-.19.89.07.31.24.5.5.56.78.06.29-.03.52-.27.7-.13.1-.25.28-.39.53-.16.41-.42.66-.78.76-.16.05-.51.28-1.05.68-.53.41-.95.76-1.24,1.07-.34.34-.71.65-1.1.93-.41.29-.71.6-.91.94-.2.33-.51.64-.95.93-.97.68-1.68,1.33-2.14,1.94-.15.19-.38.35-.68.45-.3.11-.59.27-.87.49-.42.38-.72.44-.92.19-.05-.06-.17-.13-.35-.2-.18-.07-.31-.16-.39-.25-.07-.09-.13-.3-.17-.61-.04-.31-.04-.5.02-.56.07-.08.32-.28.77-.62.45-.34.76-.55.94-.64.21-.12.36-.27.44-.46.08-.19.33-.46.76-.83.4-.34.62-.58.65-.72.04-.15-.04-.34-.24-.6-.16-.2-.27-.41-.33-.62-.09-.34-.22-.52-.4-.54-.18-.02-.45.1-.79.37-.27.21-.5.34-.69.39-.24.06-.41.18-.51.36-.2.26-.44.42-.71.48-.27.06-.71.05-1.31-.04-.73-.12-1.2-.32-1.42-.6-.1-.13-.24-.24-.43-.35-.15-.09-.3-.26-.47-.51-.17-.25-.25-.44-.25-.57-.02-.09-.2-.37-.54-.83-.23-.33-.37-.55-.42-.66-.05-.11-.08-.27-.08-.47-.02-.29-.06-.52-.13-.7-.09-.24-.09-.42-.03-.55s.24-.27.51-.44c.26-.13.54-.34.86-.65.32-.31.54-.59.67-.85.1-.16.78-.71,2.02-1.66ZM52.11,35.24c.42-.25.86-.53,1.32-.84.39-.25.82-.47,1.29-.67.47-.19.83-.29,1.07-.31.37-.01.73-.12,1.07-.34.21-.12.38-.19.5-.22.12-.03.33-.02.64.01.42.02.69.03.79.03.11.01.29.09.53.23.26.17.53.32.8.44,1.16.57,1.73,1.38,1.71,2.43,0,.28.04.52.13.7.17.45.06.88-.33,1.29-.23.26-.38.47-.44.65-.19.6-.84,1.36-1.96,2.26-.6.5-1.01.88-1.23,1.15-.25.27-.48.44-.7.51-.22.07-.4.19-.54.36-.13.17-.42.32-.85.45-.43.13-.81.19-1.13.16-.28,0-.56,0-.84.05-.52.08-1.36-.16-2.5-.71-.48-.23-.93-.76-1.32-1.59-.4-.83-.56-1.58-.5-2.24.02-.24.05-.41.11-.52.06-.11.18-.28.38-.51.16-.15.31-.52.46-1.12.04-.24.14-.45.29-.65.22-.3.64-.64,1.26-1.02ZM54.14,36.86s-.05.05-.11.1-.14.14-.23.26c-.1.12-.19.22-.27.31-.57.6-.93,1.02-1.06,1.27-.14.25-.14.45-.02.61.04.05.04.23,0,.53-.06.35-.02.59.13.72.14.13.49.25,1.05.34.41.06.72.12.94.18.15.03.27.04.35.01.08-.03.27-.14.57-.35.42-.28.76-.47,1.03-.58.32-.15.71-.42,1.18-.83.47-.41.81-.77,1.02-1.08.24-.34.41-.55.5-.62.2-.16.29-.43.27-.82-.02-.39-.13-.71-.32-.97-.19-.26-.42-.38-.69-.37-.15.04-.37,0-.67-.12-.4-.19-.86-.23-1.35-.1-.5.12-.92.39-1.27.79-.28.29-.52.48-.73.57-.17.08-.27.13-.3.16Z"/>
    <path d="M58.29,14c.52-.22.97-.46,1.35-.72.24-.14.69-.36,1.33-.67.64-.31,1.03-.48,1.17-.52.19-.06.54-.2,1.04-.41.51-.24.88-.34,1.13-.32.26.02.44-.03.54-.13.2-.18.56-.18,1.1,0,.54.18.87.43,1,.75.06.19.2.37.43.52.21.18.4.43.57.75.17.32.45,1.03.86,2.13.24.67.35,1.08.34,1.23,0,.15-.18.38-.51.68-.25.25-.52.43-.81.52-.36.13-.84.5-1.44,1.11-.42.44-1.38,1.06-2.87,1.87-1.5.81-2.41,1.2-2.74,1.18-.23,0-.49.08-.78.26-.55.37-.98.44-1.29.21-.11-.08-.31-.15-.6-.21-.28-.05-.5-.16-.66-.32-.3-.29-.58-.56-.85-.79-.38-.36-.65-.71-.78-1.04-.11-.33-.3-.73-.56-1.2-.18-.33-.29-.55-.31-.65-.02-.1-.02-.27.02-.49.08-.27.12-.52.13-.76.02-.42.23-.79.65-1.12.2-.13.44-.3.72-.5.18-.12.34-.2.49-.24.15-.02.34-.18.56-.48.22-.31.49-.52.8-.65ZM62.87,14.02c-.31.15-.52.29-.63.42-.08.11-.43.35-1.07.73-.61.34-1.12.67-1.54,1-.42.35-.84.64-1.26.88-.44.24-.67.43-.7.56-.03.13.11.47.41,1.01.54.98,1,1.43,1.38,1.36.75-.1,1.3-.3,1.65-.61.46-.41.89-.62,1.3-.62.22,0,.41-.08.57-.21.19-.15.39-.27.59-.36.4-.18.9-.46,1.49-.83.59-.38.96-.65,1.09-.81.15-.18.09-.64-.2-1.38-.29-.74-.59-1.22-.92-1.43-.14-.08-.27-.12-.4-.12-.13,0-.41.05-.87.14-.29.05-.59.15-.9.29ZM68.89,19.1c.01-.06.13-.14.37-.23.24-.09.44-.14.61-.17.21-.03.37-.07.48-.13.19-.11.46-.04.81.2.35.24.55.5.58.77.01.11-.02.25-.11.44-.09.19-.19.31-.29.37-.07.04-.19.2-.35.47-.14.24-.26.38-.34.43s-.26.09-.52.12c-.28.04-.86.3-1.74.78-.89.48-1.38.81-1.47.97-.11.22-.1.5.01.85.11.35.26.54.44.58.25.04.92-.19,2.01-.71.51-.24.89-.36,1.14-.36.22,0,.38-.05.48-.13.12-.11.34-.07.66.13.32.2.6.45.84.74.24.29.37.55.39.79,0,.13.05.3.14.5.14.24.18.52.13.82-.05.3-.17.51-.36.61-.07.04-.19.2-.35.47-.42.65-1.02,1.14-1.79,1.48-.34.17-.61.34-.81.52-.28.27-.51.49-.67.65-.23.2-.43.4-.59.6-.15.18-.48.4-.96.67-.42.23-.68.44-.77.62-.09.18-.09.42.01.73.05.13.11.2.17.21.06.01.28-.02.65-.09.43-.1,1-.33,1.72-.7.72-.37,1.21-.68,1.46-.93.2-.18.59-.43,1.19-.76.59-.33,1.01-.59,1.24-.79.22-.22.46-.34.72-.37.23-.04.42-.12.55-.24.13-.1.26-.13.38-.09.12.03.33.18.63.42.29.23.45.42.49.57.04.15-.02.34-.17.56s-.26.38-.31.48c-.11.22-.39.42-.86.62-.28.11-.53.27-.76.49s-.63.49-1.21.81c-.59.33-.92.55-1.02.67-.18.21-.63.5-1.37.85-.73.35-1.25.54-1.55.57-.31.01-.57.07-.76.18-.33.19-.7.21-1.1.06-.19-.05-.38-.07-.58-.05-.38.05-.67-.03-.86-.24-.12-.14-.35-.3-.68-.48-.58-.34-.96-.86-1.16-1.55-.19-.69-.08-1.16.34-1.39.12-.07.31-.3.57-.7.25-.37.55-.65.9-.85.36-.18.57-.33.64-.46.08-.14.71-.55,1.88-1.25.24-.14.48-.25.7-.35.93-.43,1.4-.93,1.4-1.5,0-.29-.07-.47-.18-.52-.12-.05-.32,0-.6.16-.18.1-.36.16-.54.2-.17.03-.38.16-.64.39-.23.24-1.06.82-2.48,1.72s-2.27,1.39-2.55,1.46c-.11.04-.3-.05-.57-.28-.27-.23-.4-.41-.41-.55.02-.26.09-.51.22-.75.13-.24.3-.42.51-.54.26-.15.46-.29.59-.43.15-.15.41-.35.79-.61.36-.25.57-.42.6-.52.04-.1,0-.28-.12-.53-.15-.26-.24-.46-.27-.61-.03-.1-.06-.15-.09-.17-.03-.02-.12,0-.26.02-.19.04-.53.19-1.02.45-.49.26-.76.44-.8.53-.1.24-.31.39-.64.46-.2.04-.53.18-.98.41-.34.17-.56.25-.67.25-.1,0-.26-.06-.49-.19-.22-.13-.35-.22-.4-.28-.04-.06-.08-.17-.1-.34-.06-.4,0-.72.19-.96.19-.24.58-.54,1.18-.9.43-.26.68-.44.77-.53.1-.15.3-.26.6-.34.27-.08.57-.24.89-.46s.56-.36.72-.4c.15-.02.27-.08.37-.2.18-.21.9-.66,2.17-1.35.64-.33,1.3-.72,1.99-1.18.66-.41,1-.65,1.01-.72Z"/>
    <path d="M83.67,5.98c.41-.1.69-.12.85-.03.16.08.42.36.78.85.58.79,1.12,1.95,1.6,3.47.49,1.53.65,2.58.5,3.17-.04.12-.05.38-.04.78.09,1.56-.3,2.38-1.18,2.47-.25.02-.5.13-.75.3-.26.18-.61.37-1.05.57-.45.2-.77.31-.96.31-.17,0-.94.23-2.32.69-1.38.46-2.17.7-2.37.71-.27.03-.46.09-.57.17-.35.21-.78.23-1.29.05-.31-.08-.55-.13-.72-.15-.51-.07-1-.35-1.45-.85-.14-.14-.36-.39-.68-.74-.19-.17-.41-.54-.66-1.13-.22-.54-.4-.92-.54-1.14-.13-.19-.22-.41-.27-.67-.02-.23-.16-.73-.42-1.51-.37-1.08-.48-1.85-.33-2.32.15-.47.56-.68,1.24-.62.33.03.55.1.67.22.12.12.27.41.46.87.19.53.32.82.4.89.08.07.29.05.63-.05.61-.13,1.06-.32,1.33-.54.21-.18.57-.34,1.07-.48.52-.15.89-.3,1.11-.46.37-.28.91-.5,1.62-.65.34-.06.62-.17.84-.33.24-.15.64-.33,1.18-.52.51-.18.8-.36.88-.52.08-.17.02-.53-.19-1.1-.1-.35-.16-.6-.17-.77,0-.17.04-.34.14-.53.09-.16.31-.29.65-.4ZM81.91,11.88c-.28.12-.61.35-1,.68-.27.25-.54.41-.81.48-.29.08-.75.27-1.39.56-.66.28-1.21.46-1.63.52-.52.08-.87.16-1.05.23-.18.07-.25.19-.24.36.04.22.2.65.48,1.29.28.64.47,1,.56,1.07.15.07.48.06.97-.05.49-.1.87-.23,1.13-.39.39-.22.81-.35,1.26-.39.36,0,.66-.08.91-.23s.61-.27,1.11-.37c.5-.09,1.01-.27,1.54-.54.53-.27.85-.49.96-.66.11-.18.13-.49.08-.94-.03-.26-.02-.52.05-.75.08-.41,0-.76-.23-1.03-.24-.28-.54-.35-.89-.22-.21.07-.46.12-.75.14-.44.03-.79.1-1.07.23ZM83.24,19.66c.51.24.82.71.93,1.42.07.44.2.73.38.87.18.14.38.12.62-.05.14-.09.47-.23,1-.42.6-.24,1.24-.51,1.94-.82,1.25-.55,2.07-.89,2.46-1,.4-.11.69-.07.88.11.46.45.65.82.58,1.12-.08.29-.46.66-1.15,1.1-.3.22-.51.34-.63.39-.11.04-.29.07-.54.1-.64.04-1.55.42-2.72,1.14-.36.19-.65.29-.89.29-.45,0-.88.14-1.28.43-.46.31-1.31.71-2.53,1.2s-2.1.77-2.6.84c-.35.04-.75.12-1.22.25-.72.19-1.2.16-1.44-.09-.44-.5-.45-1-.04-1.48.41-.49,1.11-.8,2.1-.95.26-.05.75-.23,1.48-.55.73-.31,1.12-.51,1.17-.6.04-.08,0-.29-.1-.63-.08-.33-.11-.6-.09-.79.02-.18,0-.36-.07-.55-.07-.19-.07-.38-.02-.58.06-.2.16-.36.31-.48.47-.4.96-.48,1.47-.24Z"/>
    <path d="M97.41,1.7c.18.11.34.15.48.13.37-.07.63.27.75.99,0,.04.02.09.03.15.06.34.16.52.31.54.15.03.62-.05,1.42-.24.18-.03.31-.05.38-.07,1.19-.25,1.84-.39,1.94-.4.23-.06.52.06.86.37.34.31.49.57.45.8-.02.23-.24.48-.66.76-.42.28-.78.42-1.08.43-.18,0-.42.01-.72.07-.06.01-.22.04-.48.1-.26.06-.64.13-1.12.21-.48.09-.9.17-1.25.25-2.46.45-4.28.91-5.46,1.36-.59.23-.98.21-1.16-.04-.1-.1-.22-.22-.37-.36-.17-.13-.25-.23-.27-.3-.01-.07,0-.22.04-.45.09-.3.24-.53.46-.69.22-.16.59-.3,1.12-.41.02,0,.07-.01.15-.03,1.44-.36,2.27-.61,2.5-.76.23-.15.31-.52.25-1.1v-.03c-.1-.67-.02-1.12.24-1.35.3-.28.7-.25,1.2.06ZM97.62,7.15c.14-.05.46-.08.94-.11,1.03-.06,1.89.03,2.61.27.39.13.75.2,1.07.21.45,0,.75.05.89.15.15.1.29.33.41.69.06.25.21.56.44.93.65,1.04.78,1.99.38,2.83-.14.27-.18.55-.12.84.06.34.06.57.02.7-.05.13-.18.27-.4.41-.27.19-.46.38-.57.56-.08.14-.4.41-.95.81-.56.4-.92.62-1.07.65-.29.07-.47.2-.53.38s0,.45.19.8c.13.26.21.57.26.93.03.38.08.61.17.69.08.08.27.08.56,0,.34-.12.79-.23,1.34-.33.63-.13,1.25-.28,1.87-.45,1.36-.36,2.26-.57,2.69-.61.44-.05.71.02.83.2.43.74.54,1.23.33,1.5-.15.19-.56.4-1.24.65s-1.16.34-1.46.29c-.21-.02-.58.04-1.12.2-1.14.32-1.92.55-2.35.69-.19.07-.4.08-.64.02-.25-.04-.51,0-.77.14-.6.29-1.93.61-4,.97-2.07.35-3.29.46-3.66.33-.17-.05-.32-.18-.43-.38-.24-.53-.12-.97.36-1.34.47-.37,1.17-.56,2.08-.58.3-.01.76-.09,1.39-.25.62-.15,1.03-.27,1.21-.37.13-.08.2-.16.23-.24.03-.08.02-.21-.01-.41-.04-.22-.04-.49,0-.82.07-.42.01-.71-.17-.88-.18-.17-.59-.31-1.22-.42-.61-.1-1.13-.31-1.57-.64-.25-.16-.56-.36-.93-.6-.39-.26-.71-.67-.96-1.23-.25-.56-.32-1.06-.22-1.48.03-.19.02-.37-.03-.54-.05-.17-.05-.42,0-.73.06-.31.15-.57.27-.78.14-.23.27-.54.39-.92.22-.61.38-.99.48-1.14.1-.15.32-.27.65-.37.23-.08.67-.3,1.32-.66.56-.3.91-.47,1.05-.52ZM97.32,9.7c-.47.31-.79.76-.95,1.36-.11.39-.24.74-.39,1.07-.18.38-.18.83,0,1.36.17.53.46.95.86,1.26.35.26.97.3,1.85.12s1.46-.48,1.74-.87c.14-.23.33-.44.56-.65.19-.2.33-.47.43-.84.08-.36.15-.62.23-.77.12-.22.15-.48.08-.77-.07-.29-.21-.51-.42-.66-.16-.11-.3-.27-.42-.47-.09-.15-.26-.27-.51-.37-.25-.1-.49-.13-.73-.08-.08.01-.29,0-.65-.04-.64-.07-1.2.05-1.67.36Z"/>
    <path d="M116.86.09c.43.13.7.31.82.55.14.28.14.64.03,1.08-.12.44-.35.82-.69,1.16-.16.18-.32.39-.46.64-.14.25-.22.43-.22.55,0,.06-.07.2-.22.42-.18.26-.24.47-.18.64.07.17.27.35.61.54.79.41,1.44.83,1.93,1.26.33.29.56.45.68.49.24.06.41.14.51.23.1.09.2.27.29.53.15.44.2.76.13.96-.06.2-.29.43-.67.68-.63.37-1.15.32-1.56-.15-.12-.12-.33-.26-.62-.4-.3-.16-.6-.39-.92-.67-.32-.29-.57-.5-.77-.64-.22-.12-.37-.28-.44-.46-.1-.18-.3-.35-.62-.52-.3-.14-.51-.22-.63-.22-.12,0-.23.09-.33.26-.1.16-.27.39-.49.68-.23.28-.4.52-.52.74-.1.22-.33.46-.67.71-.41.29-.69.44-.85.45-.16,0-.37-.1-.62-.33-.06-.04-.12-.09-.18-.15s-.11-.11-.15-.14c-.04-.03-.07-.06-.09-.08-.18-.12-.12-.47.17-1.05.15-.32.22-.51.22-.57,0-.04.15-.22.46-.53.31-.33.52-.63.64-.89.14-.28.39-.59.74-.95.37-.35.62-.67.77-.95.14-.26.31-.44.49-.53.2-.1.37-.28.52-.56.12-.28.29-.48.49-.59.3-.19.46-.47.46-.83,0-.22.12-.46.36-.73.23-.27.35-.42.35-.46,0-.06.08-.12.24-.18.24-.14.58-.14,1.01-.01ZM114.65,13.14c.28.17.46.33.55.49.09.16.11.4.06.72-.05.6.18,1.24.69,1.93.14.18.45.36.95.53.5.17.9.23,1.2.2.26-.04.57-.01.93.08.36.11.65.14.87.09.22-.05,1.21-.05,2.97-.01,1.76.04,2.84.08,3.24.13.44.07.72.17.84.31.06.08.21.26.44.55.27.35.36.63.27.84-.09.22-.35.35-.77.41-.28.04-.51.09-.69.17-.36.13-.96.13-1.8,0-.32-.05-.67-.05-1.06-.02-.39.03-.82.03-1.27-.02-.46-.05-.91-.04-1.35,0-.42.07-.77.08-1.05.01-.42-.11-.97-.13-1.65-.06-.34.03-.63,0-.87-.07-.26-.08-.54-.13-.84-.13-.54.01-.98-.16-1.31-.5-.16-.14-.34-.26-.53-.34-.48-.21-.82-.52-1.03-.95-.14-.3-.29-.58-.47-.85-.14-.2-.21-.35-.23-.44-.02-.09-.03-.26-.02-.5.02-.32,0-.62-.08-.9-.1-.24-.09-.54.01-.9s.27-.65.49-.86c.35-.33.85-.31,1.53.08ZM124.61,1.36c.47.09.77.25.91.5.33.57.43,1.36.29,2.38-.21,1.58-.31,2.65-.32,3.21-.01.74-.12,1.6-.31,2.58-.02.1-.11.19-.27.27-.12.04-.29.11-.51.2-.22.1-.44.09-.65-.01-.21-.1-.31-.27-.31-.49,0-.1-.06-.27-.17-.51-.1-.16-.15-.31-.16-.45,0-.14,0-.46.03-.96.05-.86,0-1.39-.14-1.59-.15-.2-.55-.32-1.21-.35-.46-.03-.76-.07-.9-.12-.14-.05-.31-.21-.5-.47-.51-.69-.54-1.13-.1-1.32.16-.08.37-.2.64-.38.28-.18.59-.28.94-.31.54-.05.92-.19,1.15-.4.22-.22.34-.56.35-1.04-.02-.26.06-.46.22-.6.22-.16.57-.19,1.04-.1ZM128.81,1.14c.47.22.7.48.69.78,0,.14.04.41.14.81.11.42.15.75.1.99-.04.26-.08.86-.12,1.8-.05,1.78-.15,3.06-.29,3.84-.14.78-.36,1.2-.67,1.28-.42.11-.79.1-1.11-.05-.32-.15-.47-.38-.47-.7,0-.1-.05-.23-.14-.39-.21-.36-.26-.87-.13-1.53.06-.3.11-.76.13-1.38s0-1.03-.05-1.23c-.04-.14,0-.3.1-.48.08-.18.1-.41.04-.69-.06-.28-.04-.54.04-.78.08-.24.11-.43.07-.57-.1-.22-.08-.54.06-.94.14-.41.31-.68.51-.82.26-.18.63-.16,1.09.06Z"/>
    <path d="M142.61,9.7c.3.13.51.21.62.23.27.06.45.21.52.44.07.23.05.52-.07.86-.27.74-1.06.93-2.37.57-1.41-.38-2.32-.52-2.73-.43-.26.06-.62.03-1.09-.09l-.7-.16-.27.4c-.41.63-.52,1.34-.33,2.14.19.8.59,1.26,1.2,1.38.23.05.5.14.8.27.26.14.48.21.66.21.52-.03,1.2.1,2.04.37.84.27,1.31.52,1.4.75.13.25.23.45.3.59.21.42.17.71-.14.89-.02.02-.19.11-.5.29-.31.2-.6.22-.88.08-.16-.1-.41-.17-.75-.2-1.63-.22-2.6-.47-2.91-.75-.24-.2-.48-.29-.71-.28-.41,0-.73-.09-.95-.31-.16-.18-.33-.28-.49-.29-.35,0-.68-.22-.98-.68-.19-.25-.38-.49-.58-.71-.14-.2-.23-.35-.28-.46-.05-.11-.08-.32-.09-.63-.06-.46-.13-.87-.22-1.22-.1-.37-.12-.67-.07-.91.05-.23.19-.48.41-.74.23-.28.36-.56.41-.86.09-.66.39-1.12.9-1.4.51-.27,1.2-.33,2.07-.18.28.04.59.03.93-.04.34-.07.63-.04.86.07.23.11.44.15.64.1.2-.05.58-.03,1.15.06.77.13,1.5.35,2.19.65ZM144.02,5.16c.2.07.38.15.54.25.18.12.36.19.54.21.32.01.62.33.89.97.19.43.25.75.17.95-.08.2-.3.34-.66.42-.2.06-.37.07-.52.04-.15-.03-.49-.15-1.04-.36-.32-.13-.64-.22-.96-.25-.31,0-.64-.1-1.01-.29-.53-.28-.99-.39-1.38-.31-.24.05-.51.05-.83,0-.2-.02-.62-.08-1.26-.16-.54-.06-.91-.14-1.11-.25-.24-.12-.64-.18-1.18-.21-.18-.02-.32-.07-.43-.14-.11-.07-.15-.16-.13-.26.02-.1,0-.25-.05-.47-.07-.24-.08-.42-.02-.53s.23-.24.54-.4c.45-.29.88-.43,1.29-.42.41.01,1.2.17,2.38.48.35.1.76.18,1.24.25.44.06.97.16,1.59.3.63.12.97.17,1.01.14s.17-.01.37.05ZM151.14,7.35c.1.08.26.17.46.26.19.08.31.19.36.33.04.11,0,.52-.1,1.24-.1.72-.19,1.22-.28,1.51-.11.28-.22.65-.34,1.09-.1.45-.19.74-.26.86-.06.09-.08.27-.06.55.02.28-.04.54-.17.78-.14.24-.22.51-.25.84-.06.34-.15.61-.29.83s-.23.48-.26.8c-.02.35-.06.62-.13.83-.07.21-.1.46-.11.75,0,.25-.09.7-.27,1.35-.19.65-.34,1.03-.44,1.13-.16.15-.52.32-1.1.52-.2.08-.4.02-.6-.18-.2-.2-.28-.41-.23-.62.04-.18.03-.44-.04-.78-.1-.56.03-1.54.39-2.96.11-.51.16-.8.14-.89-.02-.09.04-.25.17-.48.17-.29.19-.49.06-.6-.13-.11-.53-.24-1.19-.39-.61-.12-.96-.21-1.06-.28s-.27-.36-.53-.87c-.19-.35-.25-.61-.18-.78s.25-.22.54-.15c.12.03.36-.03.73-.16.37-.13.68-.2.92-.21.22,0,.48,0,.78-.04.26-.04.45-.06.6-.05.28.04.5-.32.67-1.08.12-.42.21-.68.27-.77.08-.06.16-.37.24-.93.1-.88.36-1.42.79-1.6.23-.11.48-.05.76.17Z"/>
    <path d="M202.79,52.97c.25.42.52.86.83,1.33.25.39.47.82.65,1.29.19.47.29.83.3,1.08,0,.37.12.73.33,1.07.11.21.19.38.21.5s.02.33-.02.64c-.03.42-.04.69-.04.79-.02.11-.1.29-.24.52-.18.26-.33.53-.45.8-.58,1.15-1.39,1.71-2.45,1.69-.28,0-.52.03-.7.12-.45.17-.88.06-1.28-.34-.25-.23-.47-.38-.65-.45-.6-.19-1.35-.85-2.24-1.98-.49-.61-.87-1.02-1.14-1.24-.27-.25-.44-.48-.51-.71-.07-.22-.19-.4-.36-.54-.17-.14-.32-.42-.45-.85s-.18-.81-.15-1.13c0-.28,0-.56-.04-.84-.07-.52.17-1.35.73-2.49.23-.48.77-.92,1.6-1.31.83-.39,1.58-.55,2.24-.48.24.02.41.05.52.11.11.06.28.19.51.39.15.16.52.32,1.12.47.24.04.45.14.65.3.3.22.64.65,1.01,1.27ZM201.16,54.98s-.05-.05-.1-.11-.14-.14-.26-.24-.22-.19-.31-.28c-.59-.58-1.01-.94-1.26-1.07-.25-.14-.45-.15-.61-.03-.05.04-.23.03-.53,0-.35-.06-.59-.02-.72.12-.13.14-.25.49-.35,1.04-.07.4-.13.72-.19.94-.03.15-.04.27-.01.35.02.08.14.27.34.57.27.42.46.77.57,1.04.14.32.42.71.82,1.19.4.47.76.82,1.07,1.03.34.24.54.41.62.51.16.21.43.3.82.28s.71-.12.97-.31c.26-.19.39-.42.38-.69-.04-.15,0-.37.13-.67.2-.4.23-.85.11-1.35-.12-.5-.38-.93-.77-1.28-.29-.28-.48-.53-.57-.74-.08-.17-.13-.27-.15-.3ZM213.94,45.27c1,1.33,1.59,2.1,1.77,2.31.26.3.58.7.96,1.19l.6.78-.09.67c-.05.39-.12.63-.2.72s-.28.14-.6.16c-.32.02-.54,0-.66-.08-.13-.07-.3-.24-.52-.53-.26-.33-.66-.79-1.21-1.38-.56-.6-.92-1.03-1.07-1.3-.26-.53-.8-1.2-1.62-2.01-.23-.2-.43-.46-.6-.79-.15-.29-.34-.54-.57-.74-.23-.2-.44-.31-.64-.32s-.55.18-1.05.58c-.5.4-.77.69-.79.89s.05.46.22.8c.17.34.37.59.61.76.22.19.41.45.58.8.14.35.32.63.53.84.24.25.58.64,1.02,1.18.48.59.8.96.97,1.11.21.17.37.38.49.64.11.24.34.56.69.95.26.3.4.49.42.57.02.07-.03.3-.15.67-.16.48-.34.76-.55.84s-.54.01-1.01-.21c-.33-.17-.56-.31-.68-.42-.12-.11-.35-.4-.69-.87-.49-.63-.91-1.14-1.28-1.52l-.55-.56-.52.4c-.37.28-.66.48-.87.59-.17.08-.26.13-.27.17s0,.12.06.25c.08.17.15.26.22.29.06,0,.32.27.79.78.47.51.84.95,1.12,1.31.31.37.59.69.86.97.28.29.44.56.5.79.05.19.12.36.23.5.21.27.18.57-.07.89-.24.31-.5.49-.79.55-.29.06-.52-.04-.7-.27-.1-.13-.27-.26-.53-.39-.41-.17-.66-.43-.75-.78-.05-.16-.28-.51-.68-1.05-.4-.54-.75-.95-1.06-1.25-.34-.34-.65-.71-.92-1.1-.29-.41-.6-.71-.93-.91-.33-.2-.64-.52-.92-.96-.67-.97-1.31-1.69-1.92-2.16-.19-.15-.34-.38-.45-.68-.1-.3-.26-.59-.48-.88-.37-.42-.43-.73-.18-.92.06-.05.13-.16.21-.35.07-.18.16-.31.25-.38.09-.07.3-.13.61-.17s.5-.03.56.02c.08.07.28.33.62.78.33.45.54.77.64.95.11.21.27.36.46.44.19.08.46.34.82.77.33.4.57.62.71.66.14.04.34-.04.6-.23.21-.16.41-.27.62-.33.34-.08.52-.22.54-.4.02-.18-.1-.45-.37-.8-.21-.27-.33-.5-.38-.69-.05-.24-.17-.41-.36-.52-.26-.21-.42-.44-.47-.71-.06-.27-.04-.71.05-1.31.12-.73.33-1.2.61-1.42.13-.1.25-.24.35-.42.09-.15.26-.3.51-.47.25-.17.44-.25.57-.25.09-.02.37-.19.84-.53.33-.23.55-.37.66-.42s.27-.08.47-.08c.29-.02.52-.06.7-.12.24-.08.42-.09.55-.02.13.07.27.24.43.52.12.26.34.55.65.87s.59.54.84.68c.16.11.7.78,1.64,2.03Z"/>
    <path d="M218.77,69.86c.06.01.14.14.22.38.08.24.14.44.16.61.03.21.07.37.12.48.1.19.04.46-.21.81-.24.35-.5.54-.78.58-.11.01-.25-.03-.44-.12-.19-.09-.31-.19-.37-.3-.04-.07-.2-.19-.47-.36-.24-.14-.38-.26-.43-.35s-.08-.26-.11-.52c-.04-.28-.29-.86-.77-1.75-.48-.89-.79-1.38-.96-1.48-.22-.11-.5-.11-.85,0-.35.11-.54.26-.58.44-.04.25.19.92.69,2.02.23.51.35.89.35,1.14,0,.22.05.38.12.48.11.12.07.34-.14.66-.2.32-.45.59-.74.83-.29.24-.56.37-.8.38-.13,0-.3.05-.5.14-.25.13-.52.18-.82.12s-.5-.17-.61-.37c-.04-.07-.2-.19-.47-.36-.64-.42-1.13-1.02-1.46-1.8-.17-.34-.33-.61-.51-.81-.27-.29-.48-.51-.64-.68-.2-.23-.4-.43-.6-.6-.18-.15-.4-.48-.67-.97-.23-.42-.43-.68-.61-.78-.18-.1-.42-.09-.73,0-.13.05-.21.11-.22.17-.01.06.02.28.08.65.1.43.33,1,.69,1.73.36.73.67,1.21.92,1.46.18.2.43.6.75,1.19.33.6.59,1.01.78,1.25.21.23.33.47.36.73.04.23.11.42.24.56.09.13.12.26.09.38s-.18.33-.43.63c-.23.29-.42.45-.57.48-.15.04-.34-.02-.56-.17-.22-.15-.38-.26-.48-.32-.22-.11-.42-.4-.61-.86-.11-.28-.27-.54-.48-.76-.21-.23-.48-.63-.8-1.22-.32-.59-.54-.93-.66-1.02-.21-.18-.49-.64-.83-1.37-.34-.74-.53-1.25-.56-1.56-.01-.31-.07-.57-.17-.76-.18-.33-.2-.7-.05-1.1.06-.19.08-.38.06-.58-.05-.38.04-.67.25-.85.14-.12.3-.35.49-.68.35-.58.87-.96,1.56-1.14.7-.19,1.16-.07,1.39.35.07.12.3.32.69.58.37.26.65.56.84.91.17.36.33.57.45.64.14.08.55.71,1.24,1.89.13.25.25.48.35.7.42.93.91,1.4,1.49,1.41.29,0,.47-.06.52-.18.05-.12,0-.32-.16-.6-.1-.18-.16-.36-.19-.54-.02-.17-.15-.38-.39-.64-.24-.23-.81-1.06-1.7-2.49-.89-1.43-1.37-2.28-1.43-2.57-.04-.11.06-.3.29-.57.23-.26.42-.4.55-.4.26.02.51.09.75.22.24.13.42.3.54.51.14.26.29.46.42.59.15.15.35.41.61.8.25.37.42.57.52.61s.28,0,.53-.12c.26-.14.47-.23.61-.26.1-.03.15-.06.17-.09.02-.03,0-.12-.02-.26-.03-.19-.18-.53-.44-1.02-.26-.5-.43-.77-.53-.81-.24-.1-.39-.31-.45-.64-.04-.2-.18-.53-.4-.98-.17-.34-.25-.57-.25-.67,0-.1.07-.26.2-.48s.22-.35.28-.39c.06-.04.17-.08.34-.1.4-.06.72,0,.96.19.24.19.54.58.89,1.19.26.43.43.69.52.77.15.1.26.3.33.61.08.27.23.57.46.9s.35.56.4.72c.01.15.08.27.2.37.21.18.65.91,1.33,2.18.33.64.71,1.31,1.16,2,.41.67.64,1,.71,1.01ZM223.96,59.3c.22.52.45.97.71,1.36.13.25.35.69.66,1.33.3.64.47,1.03.51,1.18.06.19.19.54.4,1.05.23.51.33.89.31,1.13-.02.26.02.44.13.55.18.2.17.57-.01,1.1-.19.53-.44.87-.76.99-.2.06-.37.2-.52.42-.18.21-.43.4-.75.56-.32.16-1.03.44-2.14.84-.67.23-1.08.34-1.24.33s-.38-.18-.68-.52c-.25-.25-.42-.52-.51-.81-.13-.36-.5-.85-1.1-1.45-.44-.42-1.05-1.39-1.85-2.89s-1.18-2.42-1.16-2.75c0-.23-.08-.49-.26-.78-.37-.55-.43-.98-.19-1.29.08-.11.15-.31.22-.6.05-.28.16-.5.33-.66.29-.3.56-.58.8-.85.36-.38.71-.64,1.05-.78.33-.11.73-.29,1.2-.55.33-.18.55-.28.65-.31.1-.02.27-.01.49.02.27.08.52.12.76.13.42.02.79.24,1.11.66.13.2.3.44.5.72.12.18.2.35.23.49.01.15.17.34.48.56s.52.49.65.81ZM223.89,63.88c-.15-.31-.28-.52-.41-.63-.11-.08-.35-.44-.72-1.07-.34-.61-.66-1.13-.98-1.55-.35-.43-.63-.85-.86-1.27-.24-.44-.42-.67-.56-.71-.13-.03-.47.1-1.01.4-.98.54-1.44.99-1.37,1.37.09.75.29,1.3.6,1.66.41.46.61.9.61,1.31,0,.22.08.41.21.57.15.19.27.39.36.59.17.41.45.91.82,1.5.37.6.64.96.8,1.1.17.15.64.09,1.38-.19.75-.28,1.23-.58,1.44-.9.08-.14.13-.27.13-.39s-.04-.41-.13-.87c-.05-.29-.14-.59-.29-.9Z"/>
    <path d="M218.11,84.25c-.25.51-.72.81-1.43.91-.44.07-.73.19-.87.37s-.12.38.04.62c.09.14.23.47.41,1,.23.6.5,1.24.81,1.94.54,1.25.87,2.07.98,2.47.11.4.07.69-.12.88-.46.46-.83.65-1.12.57-.29-.08-.66-.46-1.09-1.16-.21-.31-.34-.52-.38-.63-.04-.11-.07-.29-.09-.54-.04-.65-.41-1.55-1.11-2.73-.19-.36-.28-.65-.28-.89.01-.45-.13-.88-.42-1.28-.31-.46-.7-1.31-1.18-2.54-.47-1.23-.75-2.1-.82-2.61-.04-.35-.12-.75-.24-1.22-.19-.72-.15-1.2.1-1.43.51-.43,1-.44,1.48-.03s.79,1.12.93,2.11c.05.26.23.75.53,1.48.31.73.5,1.12.59,1.18.08.04.29,0,.63-.1.33-.07.6-.1.79-.09.18.02.36,0,.55-.07.19-.07.38-.07.58-.01.2.06.36.16.47.31.4.47.48.97.23,1.48ZM231.78,84.81c.1.41.11.69.03.85-.08.16-.37.42-.86.78-.79.58-1.96,1.1-3.49,1.57-1.53.47-2.59.63-3.17.47-.12-.04-.38-.06-.78-.04-1.56.08-2.38-.32-2.46-1.21-.02-.25-.12-.5-.3-.75-.17-.26-.36-.61-.56-1.06-.2-.45-.3-.77-.3-.96,0-.17-.22-.95-.67-2.32-.45-1.38-.68-2.17-.69-2.38-.03-.27-.09-.46-.17-.58-.21-.35-.22-.78-.04-1.29.08-.31.14-.55.16-.72.07-.51.36-1,.86-1.45.14-.14.39-.36.75-.68.17-.19.55-.4,1.14-.65.54-.21.92-.39,1.15-.53.19-.13.41-.22.67-.27.23-.02.73-.15,1.51-.4,1.08-.36,1.86-.46,2.32-.31.47.15.67.57.61,1.25-.03.33-.11.55-.23.67s-.41.27-.88.45c-.53.19-.83.32-.9.39-.07.08-.05.29.05.63.13.61.31,1.06.53,1.34.18.21.34.57.47,1.07.14.52.29.89.45,1.11.28.37.49.91.63,1.62.06.34.16.62.33.84.15.24.32.64.51,1.19.18.51.35.8.52.88.17.08.53.02,1.1-.18.35-.1.6-.15.77-.16.17,0,.34.04.53.15.16.09.29.31.39.66ZM225.9,82.99c-.12-.28-.34-.61-.67-1.01-.25-.27-.4-.55-.48-.82-.08-.29-.26-.76-.55-1.4-.28-.67-.45-1.21-.51-1.63-.08-.52-.15-.87-.22-1.05s-.19-.26-.35-.24c-.22.03-.65.19-1.3.47-.64.28-1,.46-1.08.55-.07.15-.06.48.04.97.1.5.23.87.38,1.14.22.39.35.81.38,1.27,0,.36.07.66.22.91.15.24.27.62.36,1.11.09.5.27,1.01.53,1.55s.48.85.66.96c.17.11.49.14.94.09.26-.03.52-.01.75.06.41.09.76.02,1.04-.22.28-.24.35-.53.23-.89-.07-.21-.12-.46-.13-.75-.03-.44-.1-.79-.21-1.07Z"/>
    <path d="M230.49,98.72c.04.14.08.46.1.94.05,1.03-.05,1.89-.29,2.6-.14.39-.21.74-.22,1.07,0,.45-.06.74-.16.89-.1.15-.33.28-.69.41-.25.06-.56.21-.93.43-1.05.64-1.99.76-2.83.35-.27-.14-.55-.18-.84-.13-.34.06-.57.06-.7.01s-.26-.18-.4-.4c-.19-.27-.37-.47-.55-.58-.13-.08-.4-.4-.8-.96-.4-.56-.61-.92-.64-1.08-.07-.29-.2-.47-.38-.53s-.45,0-.81.18c-.26.12-.57.21-.93.25-.38.02-.61.08-.69.16-.08.08-.08.27-.01.56.12.35.22.79.32,1.35.12.63.27,1.25.44,1.87.35,1.36.55,2.26.59,2.7s-.03.71-.21.83c-.74.43-1.24.53-1.5.31-.19-.15-.4-.57-.64-1.25-.24-.68-.33-1.17-.27-1.46.03-.21-.04-.58-.19-1.12-.31-1.14-.54-1.93-.67-2.35-.07-.19-.08-.4-.01-.64.04-.25,0-.51-.13-.77-.28-.6-.59-1.94-.93-4.01-.34-2.07-.44-3.29-.29-3.66.05-.17.18-.31.38-.43.53-.23.97-.11,1.34.37.36.48.55,1.17.56,2.08.01.3.09.77.23,1.39s.26,1.03.36,1.22c.08.13.16.21.24.23.08.03.21.03.41,0,.22-.04.49-.03.82.01.42.07.71.02.89-.16.17-.18.32-.59.43-1.21.1-.61.32-1.13.65-1.57.16-.25.36-.56.61-.92.26-.39.67-.71,1.24-.95.57-.25,1.06-.31,1.49-.2.19.03.37.02.54-.03.17-.05.42-.04.73.01.31.06.57.15.78.28.23.14.53.28.92.39.61.22.98.39,1.13.49.15.11.27.32.37.65.08.23.29.67.65,1.32.3.56.47.91.51,1.06ZM227.94,98.4c-.3-.48-.75-.8-1.35-.96-.38-.12-.74-.25-1.07-.4-.38-.18-.83-.19-1.36-.02s-.95.45-1.27.85c-.27.35-.31.96-.13,1.85.18.88.46,1.46.86,1.74.23.14.44.33.64.56.19.19.47.34.83.44.36.08.61.16.77.24.22.12.48.15.77.08.29-.07.51-.21.66-.42.12-.16.27-.3.48-.42.15-.09.27-.25.37-.5.1-.25.13-.49.09-.73-.01-.08,0-.29.04-.65.08-.64-.04-1.2-.34-1.68ZM235.93,98.55c-.11.18-.16.34-.13.48.06.37-.27.62-1,.75-.04,0-.09.02-.15.02-.34.06-.52.16-.54.3-.03.15.05.62.22,1.42.03.18.05.31.06.38.24,1.2.37,1.84.39,1.94.06.23-.07.52-.37.85-.31.34-.58.48-.81.44-.23-.02-.48-.24-.75-.67-.27-.42-.42-.78-.42-1.08,0-.18-.01-.42-.06-.72,0-.06-.04-.22-.1-.49s-.12-.64-.2-1.12c-.08-.48-.16-.9-.24-1.25-.43-2.46-.87-4.29-1.31-5.47-.22-.59-.21-.98.05-1.16.11-.1.23-.22.37-.37.13-.16.24-.25.3-.26.07-.01.22,0,.45.05.3.09.53.25.69.46.16.22.29.59.4,1.12,0,.02.01.07.02.15.34,1.44.59,2.28.74,2.51.15.23.51.31,1.09.26h.03c.67-.1,1.12-.01,1.35.26.27.3.25.7-.07,1.2Z"/>
    <path d="M224.35,115.72c-.17.28-.33.46-.49.54s-.4.1-.72.06c-.6-.06-1.25.17-1.94.67-.18.14-.36.45-.53.95-.17.5-.24.89-.21,1.2.03.26,0,.57-.08.93-.11.36-.14.65-.1.87.04.22.04,1.21-.01,2.97-.05,1.76-.1,2.84-.15,3.24-.07.44-.18.72-.32.83-.08.06-.27.2-.55.44-.35.27-.63.36-.85.26-.22-.1-.35-.35-.4-.77-.03-.28-.09-.51-.16-.69-.13-.36-.13-.96.01-1.8.05-.32.06-.67.03-1.06-.03-.39-.02-.82.03-1.27.05-.46.05-.91,0-1.35-.07-.42-.07-.77,0-1.05.11-.42.13-.97.07-1.65-.03-.34,0-.63.08-.87.09-.26.13-.54.14-.84,0-.54.16-.98.51-1.31.14-.16.26-.33.34-.53.21-.48.53-.82.96-1.03.3-.13.59-.29.85-.46.2-.14.35-.21.44-.23.09-.02.26-.02.5-.02.32.03.62,0,.9-.07.24-.09.54-.09.9.02s.64.28.86.5c.33.35.3.86-.1,1.53ZM236.23,129.98c-.22.46-.48.69-.78.69-.14,0-.41.04-.81.13-.42.11-.75.14-.99.1-.26-.05-.86-.09-1.8-.13-1.78-.06-3.06-.17-3.83-.32-.78-.15-1.2-.37-1.27-.68-.11-.42-.09-.79.06-1.11.15-.32.38-.47.7-.46.1,0,.23-.04.39-.14.37-.21.88-.25,1.53-.11.3.07.76.11,1.38.14.62.02,1.03.01,1.23-.04.14-.04.3,0,.48.1.18.08.41.1.69.05.28-.05.54-.04.78.05.24.09.43.11.57.07.22-.1.54-.07.94.07.41.14.68.31.81.52.17.26.15.63-.07,1.09ZM236.04,125.78c-.09.47-.26.77-.5.9-.57.33-1.36.42-2.38.27-1.58-.22-2.64-.33-3.2-.35-.74-.02-1.6-.13-2.57-.33-.1-.02-.19-.11-.26-.28-.04-.12-.1-.29-.2-.52-.09-.22-.09-.44.02-.65s.27-.31.49-.3c.1,0,.27-.05.51-.17.16-.1.31-.15.45-.15.14,0,.46,0,.96.04.86.06,1.39.02,1.59-.13.2-.15.32-.55.36-1.21.03-.46.07-.76.13-.9.05-.14.21-.31.48-.5.69-.5,1.13-.53,1.32-.09.08.16.2.37.38.64.17.28.28.6.31.94.05.54.18.92.39,1.15.21.23.56.34,1.04.36.26-.01.46.06.59.22.15.22.19.57.09,1.04ZM237.37,118.04c-.13.43-.32.7-.56.81-.28.13-.64.14-1.08.02-.44-.12-.82-.36-1.15-.7-.18-.17-.39-.32-.63-.47-.25-.15-.43-.22-.55-.22-.06,0-.2-.08-.41-.22-.26-.19-.47-.25-.64-.18-.17.07-.35.27-.54.6-.42.79-.85,1.43-1.28,1.92-.29.33-.45.56-.5.68-.07.24-.15.41-.24.5-.09.1-.27.19-.53.29-.44.15-.77.19-.96.13s-.42-.29-.67-.68c-.36-.63-.31-1.15.16-1.56.12-.12.26-.32.41-.62.17-.3.39-.6.68-.91s.5-.57.65-.76c.12-.22.28-.36.46-.44.18-.1.36-.3.53-.62.15-.3.22-.5.23-.62,0-.12-.08-.23-.26-.34-.16-.1-.38-.27-.68-.5-.27-.23-.52-.4-.74-.53-.22-.11-.45-.33-.7-.68-.29-.41-.44-.69-.44-.85,0-.16.1-.37.33-.62.04-.06.09-.12.15-.18s.11-.11.14-.15c.03-.04.06-.07.08-.09.12-.18.47-.12,1.05.18.32.15.5.22.57.22.04,0,.22.16.53.46.33.31.63.53.88.65.28.15.59.39.94.74.35.37.67.63.94.77.26.15.43.31.53.49.09.2.28.38.56.52.28.13.47.29.59.49.19.31.47.46.83.47.22,0,.46.13.73.36.26.24.42.36.46.36.06,0,.12.08.17.24.13.24.14.58,0,1.01Z"/>
    <path d="M229.82,152.22c-.09.1-.17.26-.26.46-.08.19-.19.3-.33.35-.11.04-.52,0-1.24-.11-.71-.11-1.22-.2-1.5-.29-.28-.11-.65-.22-1.09-.35-.45-.1-.74-.19-.86-.26-.09-.06-.27-.08-.55-.07s-.54-.04-.77-.18c-.24-.14-.51-.22-.83-.26-.33-.06-.61-.16-.82-.3s-.48-.23-.8-.27c-.34-.02-.62-.06-.83-.13-.21-.07-.46-.11-.74-.11-.25,0-.7-.09-1.35-.29-.65-.19-1.03-.34-1.13-.45-.15-.16-.32-.53-.51-1.11-.08-.2-.01-.4.19-.6.2-.2.41-.27.62-.22.17.04.43.03.78-.03.56-.1,1.54.04,2.95.42.51.12.8.17.89.15.09-.02.25.04.48.18.29.17.49.19.6.06.11-.13.25-.52.4-1.18.12-.61.22-.96.29-1.06.07-.1.37-.27.88-.52.35-.18.61-.24.78-.17s.22.25.15.54c-.03.12.02.36.15.73.13.37.2.68.2.92-.01.22,0,.48.03.78.04.26.06.45.04.6-.04.28.31.5,1.07.68.42.12.68.21.77.27.06.08.37.16.93.25.88.1,1.41.37,1.6.81.11.23.05.48-.18.76ZM227.55,143.68c-.13.3-.21.51-.24.62-.06.27-.21.44-.44.51-.23.07-.52.04-.86-.08-.74-.28-.92-1.07-.55-2.38.39-1.41.54-2.32.46-2.73-.06-.26-.03-.62.1-1.09l.16-.7-.4-.28c-.62-.41-1.33-.53-2.14-.35-.8.18-1.26.58-1.39,1.18-.05.23-.15.5-.28.8-.14.25-.21.47-.22.66.02.52-.11,1.2-.38,2.04-.28.84-.53,1.3-.76,1.39-.26.12-.45.22-.59.29-.42.21-.72.16-.89-.15-.02-.02-.11-.19-.28-.5-.19-.31-.22-.61-.07-.88.1-.16.17-.41.21-.75.24-1.63.5-2.6.77-2.9.2-.24.3-.47.29-.7,0-.41.1-.73.31-.94.18-.16.28-.32.3-.48,0-.35.23-.68.69-.98.25-.19.49-.38.72-.57.2-.14.35-.23.47-.28.11-.05.33-.07.64-.08.46-.06.87-.12,1.22-.21.37-.1.68-.12.91-.06.23.06.48.19.73.42.28.23.56.37.86.42.66.09,1.12.4,1.39.91s.32,1.21.16,2.07c-.04.28-.04.59.03.93.06.34.04.63-.08.86-.12.23-.15.44-.1.64.05.2.02.58-.07,1.15-.14.77-.36,1.5-.67,2.19ZM232.08,145.12c-.07.2-.15.38-.25.54-.12.18-.2.35-.22.53-.01.33-.34.62-.98.88-.43.19-.75.24-.95.16s-.34-.3-.41-.67c-.06-.2-.07-.37-.03-.52.03-.15.16-.49.37-1.04.14-.32.22-.64.25-.96.01-.31.11-.64.3-1.01.29-.53.4-.99.32-1.37-.05-.24-.04-.51,0-.83.03-.2.08-.62.17-1.25.07-.54.15-.91.26-1.11.12-.24.19-.63.22-1.18.02-.18.07-.32.15-.43.08-.11.16-.15.26-.12s.25,0,.47-.04c.24-.07.42-.07.53-.02.11.06.24.24.4.54.28.46.42.89.4,1.3-.01.41-.18,1.2-.5,2.38-.1.35-.19.76-.26,1.23-.06.44-.17.97-.31,1.59-.13.63-.18.97-.15,1.01.03.05.01.17-.06.37Z"/>
    <path d="M183.76,203.49c-.42.24-.86.51-1.34.82-.39.25-.82.46-1.3.64-.48.18-.83.28-1.08.29-.37,0-.73.11-1.07.32-.22.11-.38.18-.5.21s-.33.02-.64-.02c-.42-.03-.69-.05-.79-.05-.11-.02-.29-.1-.52-.24-.26-.18-.53-.33-.79-.45-1.15-.59-1.7-1.41-1.67-2.46.01-.28-.03-.52-.12-.7-.17-.45-.05-.88.35-1.28.24-.25.39-.47.45-.64.2-.6.87-1.34,2-2.23.61-.49,1.03-.86,1.25-1.13.25-.26.49-.43.71-.5.22-.07.4-.19.54-.35.14-.17.42-.31.85-.44.43-.12.81-.17,1.13-.14.28.01.56,0,.84-.03.52-.07,1.35.18,2.49.75.48.24.91.78,1.29,1.62.38.84.54,1.59.46,2.25-.02.24-.06.41-.12.52-.06.11-.19.27-.39.5-.16.15-.32.52-.48,1.11-.05.24-.15.45-.3.64-.23.3-.65.63-1.27,1ZM181.76,201.84s.05-.05.11-.1c.06-.06.14-.14.24-.26s.19-.22.28-.3c.58-.59.94-1.01,1.08-1.25.14-.25.15-.45.03-.61-.04-.05-.03-.23.01-.53.06-.35.02-.59-.11-.72-.14-.13-.49-.25-1.04-.36-.4-.07-.72-.14-.94-.2-.15-.04-.27-.04-.35-.02-.08.02-.27.14-.57.34-.42.27-.77.46-1.04.56-.32.14-.72.41-1.19.81-.48.4-.82.75-1.04,1.07-.25.34-.42.54-.51.61-.21.16-.3.43-.29.82.02.39.12.71.3.97.19.26.41.39.69.39.15-.04.37,0,.67.14.4.2.85.24,1.35.12.5-.12.93-.37,1.28-.76.28-.29.53-.48.74-.56.17-.08.27-.13.3-.15ZM191.36,214.7c-1.34.98-2.11,1.57-2.32,1.75-.31.26-.71.57-1.2.95l-.79.6-.67-.09c-.39-.05-.63-.12-.72-.21-.09-.08-.14-.28-.15-.6-.01-.32.01-.54.08-.66.07-.13.25-.3.53-.51.34-.25.8-.65,1.39-1.2.61-.56,1.04-.91,1.3-1.06.54-.25,1.21-.79,2.02-1.6.2-.23.47-.43.79-.6.29-.14.54-.33.74-.56.2-.23.31-.44.32-.64s-.18-.55-.57-1.05c-.39-.51-.69-.77-.88-.8-.2-.03-.46.04-.8.21-.34.17-.59.37-.77.6-.19.22-.46.41-.81.57-.35.14-.63.31-.84.52-.25.24-.64.57-1.19,1.01-.59.47-.97.79-1.12.96-.17.21-.39.37-.65.49-.24.11-.56.33-.95.68-.31.26-.5.39-.57.41-.07.02-.29-.03-.66-.16-.48-.17-.75-.35-.83-.55-.08-.2,0-.54.22-1.01.18-.33.32-.56.43-.68.11-.12.4-.35.88-.68.64-.48,1.15-.9,1.53-1.26l.57-.54-.4-.53c-.28-.37-.47-.66-.58-.87-.08-.17-.13-.26-.17-.27-.03-.01-.12,0-.25.06-.17.08-.26.15-.29.22,0,.06-.27.32-.78.78s-.96.83-1.32,1.11c-.37.3-.7.59-.98.85-.29.27-.56.44-.8.49-.19.04-.36.12-.5.23-.27.2-.57.18-.89-.08-.31-.24-.49-.51-.54-.79-.05-.29.04-.52.28-.7.13-.1.26-.27.39-.52.17-.41.43-.65.79-.75.16-.05.52-.27,1.06-.67.54-.4.96-.74,1.26-1.04.35-.34.72-.64,1.11-.92.41-.29.72-.59.92-.92.2-.33.52-.63.96-.92.98-.66,1.7-1.3,2.17-1.9.16-.19.38-.34.68-.44.3-.1.59-.26.88-.48.42-.37.73-.43.92-.17.05.06.16.13.35.21.18.08.31.16.38.26s.13.3.16.61c.04.31.03.5-.03.56-.07.08-.33.28-.78.61-.45.33-.77.54-.96.63-.22.11-.37.26-.45.45-.08.19-.34.46-.78.81-.4.33-.62.57-.67.71-.04.14.03.34.23.6.16.21.26.42.32.62.08.34.21.52.39.55s.45-.09.8-.36c.27-.21.5-.33.69-.37.24-.05.41-.17.52-.36.21-.26.45-.41.72-.47.27-.05.71-.03,1.31.07.72.13,1.2.34,1.41.62.1.13.24.25.42.36.14.09.3.26.46.51.17.25.25.44.24.57.02.09.19.37.52.84.23.33.36.55.41.67.05.11.07.27.07.47.02.29.06.52.12.7.08.24.09.42.02.55-.07.13-.24.27-.52.43-.26.12-.55.33-.87.64s-.55.58-.68.84c-.11.16-.79.7-2.05,1.62Z"/>
    <path d="M166.72,219.32c-.01.06-.14.14-.38.22-.24.08-.44.14-.61.16-.21.02-.37.06-.48.12-.19.1-.46.03-.81-.21-.35-.25-.54-.51-.57-.78-.01-.11.03-.25.12-.44s.19-.31.3-.36c.07-.04.19-.19.36-.47.15-.24.26-.38.35-.42.09-.05.26-.08.52-.11.28-.04.86-.29,1.76-.75s1.39-.78,1.48-.95c.11-.22.11-.5,0-.85-.11-.35-.25-.55-.43-.59-.25-.05-.93.18-2.02.67-.51.23-.89.34-1.15.34-.22,0-.38.05-.48.12-.12.11-.34.06-.65-.14s-.59-.46-.83-.75c-.24-.29-.36-.56-.38-.8,0-.13-.05-.3-.13-.51-.13-.25-.17-.52-.12-.82.05-.3.18-.5.37-.61.07-.04.19-.19.36-.47.43-.64,1.03-1.12,1.81-1.45.34-.16.62-.33.82-.5.29-.27.52-.48.68-.64.24-.19.44-.39.6-.59.16-.17.48-.39.98-.66.42-.23.68-.43.78-.61s.1-.42,0-.73c-.05-.13-.1-.21-.17-.22-.06-.01-.28.01-.66.08-.43.09-1,.32-1.73.67-.73.36-1.22.66-1.47.91-.2.17-.6.42-1.2.74-.6.32-1.02.58-1.25.77-.23.21-.47.33-.73.36-.23.03-.42.11-.56.23-.13.09-.26.12-.38.08-.12-.04-.33-.18-.62-.43-.28-.23-.44-.43-.48-.58-.04-.15.02-.34.18-.55.15-.22.26-.38.32-.48.11-.22.4-.42.87-.6.28-.11.54-.27.77-.48s.64-.48,1.23-.79c.59-.32.93-.53,1.03-.65.18-.21.64-.49,1.38-.82.74-.34,1.26-.52,1.56-.54.31,0,.57-.07.76-.17.34-.18.7-.19,1.1-.04.19.06.38.08.58.06.38-.05.67.04.85.26.12.14.34.3.67.49.57.35.95.88,1.13,1.57.18.7.06,1.16-.36,1.39-.12.07-.32.29-.59.69-.26.36-.56.64-.92.83-.36.17-.58.32-.65.45-.09.14-.72.54-1.9,1.22-.25.13-.48.25-.7.34-.94.41-1.41.9-1.42,1.47,0,.29.06.47.18.52.12.05.32,0,.6-.15.18-.09.36-.16.55-.19.17-.02.39-.15.65-.38.24-.24,1.07-.8,2.5-1.68,1.43-.88,2.29-1.35,2.58-1.41.12-.04.3.06.56.29s.39.42.4.55c-.02.26-.1.51-.23.75-.13.24-.3.42-.52.53-.26.14-.46.28-.59.42-.15.15-.42.35-.8.6-.37.24-.57.41-.61.51-.04.1,0,.28.11.53.14.26.23.47.26.61.03.1.06.16.09.17.03.02.12,0,.26-.02.19-.03.53-.18,1.03-.43s.77-.43.81-.52c.1-.24.32-.38.65-.45.21-.04.53-.17.98-.39.34-.16.57-.24.67-.24.1,0,.26.07.48.2.22.13.35.23.39.29.04.06.07.17.1.34.06.4-.01.72-.2.96-.19.24-.59.53-1.2.88-.43.25-.69.43-.78.52-.1.15-.31.25-.61.33-.27.08-.58.23-.9.45s-.57.35-.73.39c-.15.01-.27.08-.37.2-.18.21-.91.65-2.19,1.31-.64.32-1.31.7-2.01,1.14-.67.4-1.01.64-1.02.7ZM177.24,224.61c-.52.21-.98.44-1.36.69-.25.13-.69.35-1.34.65-.64.3-1.04.46-1.18.5-.2.06-.55.19-1.05.39-.51.23-.89.33-1.13.3-.26-.02-.44.02-.55.12-.2.17-.57.17-1.1-.02s-.86-.45-.99-.76c-.06-.2-.2-.37-.42-.53-.21-.18-.4-.43-.56-.76s-.44-1.04-.82-2.15c-.22-.67-.33-1.09-.32-1.24s.18-.38.53-.67c.25-.25.53-.42.82-.5.36-.13.85-.49,1.46-1.09.43-.43,1.39-1.04,2.9-1.82,1.51-.78,2.43-1.16,2.76-1.14.23.01.49-.07.79-.25.55-.36.99-.43,1.3-.18.11.08.31.15.6.23.28.05.5.17.65.33.29.3.57.57.84.81.38.37.63.72.77,1.05.11.33.29.73.54,1.21.18.33.28.55.3.66.02.1.01.27-.03.49-.08.27-.13.52-.14.76-.02.42-.25.79-.67,1.11-.2.13-.44.29-.72.49-.18.12-.35.2-.49.23-.15.01-.34.17-.56.47s-.5.51-.81.64ZM172.66,224.5c.31-.14.52-.28.63-.41.08-.11.44-.35,1.08-.71.62-.33,1.14-.65,1.56-.97.43-.34.86-.63,1.28-.85.44-.24.68-.42.71-.55s-.1-.47-.39-1.02c-.53-.99-.98-1.45-1.35-1.39-.75.08-1.3.28-1.66.58-.46.41-.9.61-1.31.6-.22,0-.41.07-.57.2-.19.15-.39.26-.59.35-.41.17-.91.44-1.51.81s-.97.63-1.11.79c-.16.17-.1.64.18,1.38.28.75.57,1.23.89,1.45.14.08.27.13.39.13.13,0,.42-.04.87-.12.29-.04.6-.14.9-.28Z"/>
    <path d="M152.37,218.53c-.51-.25-.81-.73-.9-1.44-.07-.44-.19-.73-.36-.88-.17-.14-.38-.13-.62.04-.14.09-.47.22-1,.4-.6.23-1.25.49-1.95.79-1.25.53-2.08.85-2.48.96-.4.1-.69.06-.88-.13-.45-.46-.64-.83-.56-1.12.08-.29.47-.65,1.17-1.08.31-.21.52-.33.63-.37.11-.04.29-.07.54-.09.65-.03,1.56-.39,2.73-1.09.36-.19.66-.28.89-.27.45.02.88-.12,1.29-.41.47-.31,1.32-.69,2.55-1.16,1.24-.46,2.11-.73,2.61-.79.35-.03.75-.11,1.22-.23.72-.18,1.2-.14,1.43.11.43.51.43,1,.01,1.48-.42.48-1.12.78-2.11.91-.26.05-.75.22-1.49.52-.73.3-1.13.49-1.18.58-.04.08,0,.29.09.63.07.33.1.6.08.8-.02.18,0,.36.06.55s.07.38,0,.58c-.06.2-.16.36-.31.47-.48.39-.97.47-1.48.22ZM151.69,232.2c-.41.1-.69.1-.85.02-.16-.08-.41-.37-.77-.86-.57-.8-1.08-1.97-1.54-3.5s-.61-2.59-.45-3.17c.04-.12.06-.38.05-.78-.07-1.56.34-2.38,1.23-2.45.25-.02.5-.12.76-.29.26-.17.61-.36,1.06-.55.45-.2.77-.29.96-.3.17,0,.95-.21,2.33-.65,1.38-.44,2.18-.66,2.39-.67.27-.03.46-.08.58-.17.35-.21.78-.21,1.29-.03.3.09.54.14.72.17.51.08.99.37,1.44.87.13.14.36.4.67.75.18.17.4.55.64,1.14.21.54.38.93.52,1.15.13.19.21.41.26.67.01.23.14.73.39,1.52.35,1.09.44,1.86.29,2.33s-.58.67-1.25.6c-.33-.04-.55-.11-.67-.23s-.26-.41-.44-.88c-.18-.53-.31-.83-.39-.9-.08-.07-.29-.05-.64.04-.61.12-1.06.3-1.34.52-.21.18-.57.33-1.08.46-.52.14-.9.28-1.12.44-.37.27-.91.48-1.63.62-.34.05-.62.16-.84.32-.25.15-.64.31-1.19.5-.51.17-.81.34-.89.51s-.03.53.17,1.1c.1.35.15.6.15.77,0,.17-.05.34-.15.53-.09.16-.31.29-.66.38ZM153.56,226.33c.28-.12.61-.34,1.01-.66.28-.24.55-.4.82-.47.29-.08.76-.26,1.4-.54.67-.27,1.21-.44,1.64-.5.52-.07.88-.14,1.05-.21.18-.07.26-.19.24-.35-.03-.22-.19-.66-.46-1.3-.27-.65-.45-1.01-.54-1.08-.15-.08-.48-.06-.97.03-.5.09-.88.22-1.14.37-.39.22-.81.34-1.27.37-.36,0-.66.07-.91.21-.25.15-.62.26-1.12.35-.5.08-1.02.26-1.55.51-.54.26-.86.47-.97.65-.11.17-.14.49-.09.94.03.26,0,.52-.06.75-.09.41-.02.76.21,1.04.23.28.53.36.89.24.21-.07.46-.11.75-.13.44-.02.79-.09,1.07-.21Z"/>
    <path d="M137.77,230.79c-.15.04-.46.07-.94.09-1.03.04-1.89-.06-2.6-.32-.39-.14-.74-.22-1.07-.22-.45-.01-.74-.06-.89-.16-.15-.1-.28-.33-.4-.7-.06-.25-.2-.57-.42-.94-.63-1.05-.74-2-.33-2.83.14-.26.19-.55.14-.84-.05-.34-.05-.57,0-.7.05-.13.19-.26.41-.4.27-.19.47-.37.58-.55.08-.13.4-.4.97-.79.57-.39.93-.6,1.08-.63.29-.07.47-.19.53-.37.06-.18,0-.45-.17-.81-.12-.26-.2-.58-.24-.93-.02-.38-.07-.61-.15-.69-.08-.08-.27-.08-.56-.02-.35.12-.8.22-1.35.3-.63.12-1.25.26-1.88.42-1.36.34-2.27.53-2.7.57-.44.04-.71-.03-.82-.22-.42-.74-.52-1.24-.3-1.5.15-.19.57-.39,1.25-.62.68-.23,1.17-.32,1.46-.26.21.03.58-.03,1.13-.18,1.15-.3,1.93-.52,2.36-.65.19-.07.4-.07.64,0,.25.04.51,0,.77-.12.6-.28,1.94-.58,4.02-.9,2.08-.32,3.3-.41,3.66-.26.17.05.31.18.43.39.23.53.1.98-.38,1.34-.48.36-1.17.54-2.09.54-.3,0-.77.08-1.39.22-.63.14-1.03.25-1.22.35-.13.08-.21.16-.24.24-.03.08-.03.21,0,.41.03.22.03.49-.02.82-.08.42-.02.71.16.89.18.17.58.32,1.21.45.6.11,1.13.33,1.56.66.25.16.55.37.92.61.39.26.7.68.94,1.25.24.57.31,1.07.19,1.49-.03.19-.02.37.03.54s.04.42-.02.73-.16.57-.29.77c-.15.23-.28.53-.4.91-.23.6-.4.98-.5,1.13-.11.15-.33.27-.66.36-.23.08-.67.29-1.33.64-.56.29-.91.46-1.06.5ZM137.89,236.24c-.18-.11-.34-.16-.48-.14-.38.06-.62-.28-.74-1.01,0-.04-.01-.09-.02-.15-.05-.34-.15-.52-.3-.54s-.62.04-1.42.21c-.18.03-.31.05-.39.06-1.2.23-1.85.35-1.95.37-.23.06-.52-.07-.85-.38-.33-.31-.48-.58-.43-.81.02-.23.25-.47.67-.74.42-.27.79-.41,1.09-.42.18.01.42,0,.72-.05.06,0,.22-.04.49-.09.27-.05.64-.12,1.12-.19.48-.08.9-.15,1.25-.23,2.47-.41,4.29-.83,5.48-1.27.59-.22.98-.2,1.16.06.1.11.22.23.36.37.16.14.25.24.26.31.01.07,0,.22-.05.45-.09.3-.25.53-.47.68s-.59.29-1.12.39c-.02,0-.07.01-.15.02-1.45.33-2.28.57-2.51.72-.23.15-.32.51-.27,1.09v.03c.09.67,0,1.12-.27,1.35-.3.27-.7.24-1.2-.08ZM138.11,228.24c.48-.3.8-.75.97-1.34.12-.38.26-.74.41-1.07.18-.37.19-.83.03-1.36-.17-.53-.45-.96-.84-1.28-.35-.27-.96-.32-1.85-.15-.88.17-1.47.45-1.75.84-.15.22-.34.44-.57.64-.19.19-.34.47-.45.83-.08.36-.17.61-.24.77-.13.22-.16.48-.09.77.07.29.2.51.41.66.16.12.3.28.41.48.08.15.25.27.5.38.25.1.49.13.73.1.08-.01.29,0,.65.05.64.08,1.2-.03,1.68-.33Z"/>
    <path d="M106.49,236.27c-.46-.22-.69-.49-.68-.79,0-.14-.04-.41-.12-.81-.11-.42-.14-.75-.09-.99.05-.26.1-.86.15-1.8.08-1.78.2-3.05.35-3.83s.38-1.2.69-1.27c.42-.11.79-.08,1.11.07.32.15.47.39.46.71,0,.1.04.23.14.39.21.37.24.88.1,1.53-.07.3-.12.76-.15,1.38-.03.62-.02,1.03.03,1.23.04.14,0,.3-.11.48-.09.18-.1.41-.05.69.05.28.03.54-.06.78s-.11.43-.08.57c.09.22.07.54-.08.94-.14.4-.32.67-.52.81-.27.17-.63.14-1.09-.08ZM120.84,224.51c-.27-.17-.45-.33-.54-.5s-.1-.4-.05-.72c.06-.6-.16-1.25-.66-1.94-.13-.18-.45-.37-.94-.54-.49-.18-.89-.25-1.19-.22-.26.03-.57,0-.93-.09-.36-.11-.65-.15-.87-.1-.22.04-1.21.03-2.97-.04-1.76-.07-2.84-.13-3.24-.18-.44-.07-.71-.18-.83-.33-.06-.08-.2-.27-.43-.55-.27-.35-.35-.63-.26-.85s.36-.35.78-.39c.28-.03.51-.08.7-.16.36-.13.96-.12,1.8.03.32.05.67.06,1.06.04.39-.03.82-.01,1.27.04.46.06.91.06,1.35.01.42-.07.77-.06,1.05,0,.42.11.97.14,1.65.08.34-.03.63,0,.87.09.26.09.54.14.84.15.54,0,.97.17,1.3.52.16.14.33.26.53.35.47.21.81.54,1.02.96.13.3.28.59.45.86.13.2.21.35.23.44.02.09.02.26.01.5-.03.32,0,.62.06.9.09.24.08.54-.03.9-.11.36-.28.64-.51.85-.35.33-.86.29-1.53-.11ZM110.69,236.12c-.47-.1-.77-.27-.9-.51-.32-.57-.41-1.36-.25-2.38.23-1.57.36-2.64.38-3.2.02-.74.14-1.6.35-2.57.02-.1.12-.19.28-.26.12-.04.29-.1.52-.19.22-.09.44-.09.64.02.21.11.31.27.3.49,0,.1.05.27.16.52.09.16.14.31.15.46,0,.14,0,.46-.05.96-.07.86-.03,1.39.11,1.59.14.2.54.33,1.2.37.46.03.76.08.9.13s.3.21.49.48c.5.7.52,1.14.08,1.32-.16.08-.38.2-.64.37-.29.17-.6.27-.94.3-.54.04-.93.17-1.15.38-.23.21-.35.56-.36,1.04.01.26-.06.46-.23.59-.23.15-.57.18-1.04.09ZM118.42,237.51c-.43-.13-.69-.32-.81-.57-.13-.28-.13-.64,0-1.08.12-.44.36-.82.71-1.15.17-.17.32-.38.47-.63.15-.25.22-.43.23-.55,0-.06.08-.2.22-.41.19-.25.25-.47.19-.64-.06-.17-.26-.35-.6-.54-.79-.43-1.42-.86-1.91-1.29-.33-.29-.56-.46-.67-.5-.24-.07-.41-.15-.5-.24-.1-.09-.19-.27-.28-.53-.15-.45-.19-.77-.12-.96.07-.2.29-.42.68-.67.63-.36,1.15-.3,1.56.17.12.12.32.26.62.41.29.17.6.4.91.69.31.29.56.51.76.66.22.13.36.28.44.46.09.18.3.36.61.53.3.15.5.23.62.23.12,0,.23-.08.34-.26.11-.16.27-.38.5-.67.23-.27.41-.52.53-.73.11-.22.33-.45.68-.7.41-.29.69-.43.85-.44.16,0,.37.11.62.33.06.04.12.09.17.16.06.06.11.11.15.14s.07.06.09.08c.18.13.11.47-.18,1.04-.15.32-.23.5-.23.56,0,.04-.16.21-.47.52-.31.33-.53.62-.66.88-.15.28-.4.59-.75.94-.37.35-.63.66-.78.94-.15.25-.31.43-.5.52-.2.09-.38.28-.53.55-.13.28-.3.47-.5.58-.31.19-.47.46-.48.83,0,.22-.13.46-.37.72-.24.26-.36.41-.36.45,0,.06-.08.12-.25.17-.24.13-.58.13-1.01,0Z"/>
    <path d="M84.29,229.67c-.1-.09-.26-.18-.46-.27-.18-.09-.3-.2-.35-.33-.03-.11,0-.52.12-1.24.11-.71.21-1.21.3-1.5.11-.28.23-.64.36-1.09.11-.45.2-.73.27-.86.06-.09.09-.27.07-.55-.01-.28.05-.54.19-.77.14-.23.23-.51.26-.83.06-.33.16-.61.31-.82.14-.21.23-.48.27-.8.02-.34.07-.62.14-.83.07-.21.11-.46.12-.74,0-.25.1-.7.3-1.35.2-.65.35-1.03.46-1.12.16-.15.53-.31,1.11-.5.2-.07.4,0,.6.19.2.2.27.41.22.62-.04.17-.03.43.03.78.09.56-.06,1.54-.44,2.95-.12.5-.17.8-.15.89s-.04.25-.18.48c-.17.29-.2.49-.07.6.13.11.52.25,1.18.41.61.13.96.23,1.05.3.1.07.27.37.51.88.18.35.24.61.16.78s-.25.22-.54.14c-.12-.03-.36.02-.73.15-.37.13-.68.19-.93.19-.22-.01-.48,0-.78.03-.26.04-.46.05-.6.04-.28-.05-.51.31-.69,1.07-.12.42-.22.68-.28.77-.08.06-.16.37-.26.93-.11.88-.38,1.41-.82,1.59-.23.11-.48.05-.76-.18ZM91.37,231.98c-.2-.07-.38-.15-.54-.25-.18-.12-.35-.2-.53-.22-.32-.02-.62-.35-.87-.98-.18-.44-.23-.75-.15-.95.08-.2.3-.33.67-.41.2-.05.37-.06.52-.03.15.04.49.16,1.04.38.32.14.63.23.95.26.31.01.64.12,1.01.31.53.29.98.4,1.37.33.24-.04.51-.04.83.02.2.03.62.09,1.25.18.54.07.91.16,1.11.27.24.12.63.19,1.18.23.18.02.32.07.43.15.1.08.15.16.12.26-.02.1-.01.25.04.47.06.24.07.42.01.53-.06.11-.24.24-.54.39-.46.28-.89.41-1.3.39-.41-.02-1.2-.19-2.38-.52-.34-.1-.76-.19-1.23-.27-.44-.07-.97-.17-1.59-.33-.63-.13-.96-.18-1.01-.15-.05.03-.17,0-.37-.06ZM92.85,227.47c-.3-.13-.5-.22-.62-.24-.27-.07-.44-.22-.51-.45-.07-.23-.04-.52.09-.86.28-.73,1.08-.91,2.38-.53,1.4.4,2.31.56,2.72.48.26-.06.62-.02,1.08.11l.7.17.28-.39c.42-.62.54-1.33.37-2.13-.17-.8-.56-1.27-1.17-1.4-.23-.06-.5-.15-.79-.29-.25-.14-.47-.22-.66-.22-.52.02-1.2-.12-2.03-.4-.84-.29-1.3-.54-1.39-.77-.12-.26-.22-.46-.29-.6-.21-.42-.15-.72.16-.89.02-.02.19-.11.5-.28.31-.19.61-.21.88-.06.16.1.41.17.75.21,1.63.25,2.59.52,2.89.8.24.2.47.3.7.29.41,0,.73.1.94.32.16.18.32.28.48.3.35,0,.67.24.97.7.19.25.37.49.56.72.14.2.23.35.27.47.04.11.07.33.08.64.05.46.12.87.2,1.22.09.37.11.68.06.91-.06.23-.2.48-.42.73-.23.27-.37.56-.42.85-.1.66-.41,1.12-.92,1.38-.52.26-1.21.31-2.07.14-.28-.05-.59-.04-.93.02-.34.06-.63.03-.86-.09-.23-.12-.44-.15-.64-.11-.2.04-.58.02-1.15-.08-.77-.15-1.49-.38-2.18-.69Z"/>
    <path d="M26.44,196.11c-1.05-1.29-1.67-2.03-1.86-2.23-.27-.29-.61-.68-1-1.16l-.63-.76.06-.68c.04-.39.09-.64.17-.73.08-.09.28-.15.59-.18.31-.03.54-.01.67.05.13.06.31.23.54.51.27.32.69.76,1.27,1.33.59.58.96,1,1.12,1.25.28.52.85,1.17,1.7,1.94.24.19.45.45.63.76.16.28.36.52.6.71.24.19.46.29.66.29.2,0,.54-.2,1.02-.62.49-.42.74-.72.75-.92.02-.2-.06-.46-.25-.79-.18-.33-.4-.58-.64-.74-.23-.18-.43-.44-.61-.78-.15-.34-.34-.61-.57-.82-.25-.24-.6-.62-1.07-1.14-.5-.57-.84-.93-1.01-1.07-.21-.16-.39-.37-.52-.62-.12-.24-.36-.54-.73-.92-.27-.29-.42-.48-.44-.55s.02-.3.12-.67c.14-.48.31-.77.51-.86.2-.09.54-.03,1.02.17.34.16.57.29.7.39.13.1.37.38.72.84.51.61.96,1.1,1.34,1.46l.57.54.51-.42c.35-.29.63-.5.84-.63.16-.08.25-.14.26-.18s-.01-.12-.07-.25c-.08-.16-.16-.26-.23-.28-.06,0-.33-.25-.82-.74-.49-.49-.88-.91-1.17-1.27-.32-.36-.62-.67-.9-.93-.29-.28-.46-.54-.53-.77-.05-.19-.14-.35-.25-.49-.22-.26-.21-.56.04-.89.23-.32.48-.51.77-.58.28-.07.52.02.71.25.1.12.28.25.54.37.41.15.67.4.78.75.06.16.3.5.72,1.02.42.52.79.92,1.1,1.21.35.33.68.69.97,1.07.31.4.63.69.96.88.34.19.66.49.96.92.71.95,1.38,1.64,2.01,2.08.2.15.36.37.47.66.12.29.29.58.52.86.39.4.46.71.22.91-.06.05-.13.17-.19.36-.07.19-.15.32-.24.39s-.29.14-.6.19c-.31.05-.5.05-.56,0-.08-.06-.29-.31-.65-.75-.35-.44-.58-.74-.67-.92-.12-.21-.28-.35-.47-.43-.19-.07-.48-.32-.85-.74-.35-.39-.6-.6-.74-.63-.15-.04-.34.05-.59.26-.2.17-.4.28-.61.35-.33.1-.51.24-.53.42-.02.18.12.44.4.78.22.26.35.49.41.68.06.23.19.4.38.5.27.19.43.43.5.7.07.27.07.71,0,1.31-.09.73-.28,1.21-.56,1.44-.12.1-.24.25-.34.44-.08.15-.25.31-.49.49-.24.18-.43.27-.56.27-.09.02-.36.21-.82.57-.32.24-.54.39-.65.44-.11.05-.27.09-.47.1-.29.03-.52.08-.7.15-.24.09-.42.11-.55.05-.13-.06-.28-.23-.46-.5-.13-.25-.36-.53-.68-.84s-.61-.52-.87-.64c-.16-.1-.73-.75-1.72-1.96ZM37.27,187.97c-.26-.41-.56-.84-.88-1.29-.26-.38-.5-.8-.71-1.27-.21-.47-.32-.82-.34-1.06-.02-.37-.15-.72-.37-1.06-.12-.21-.2-.37-.23-.49-.03-.12-.03-.33,0-.64.01-.43.01-.69,0-.79.01-.11.08-.29.22-.53.17-.27.3-.54.41-.81.53-1.17,1.32-1.77,2.38-1.79.28,0,.52-.05.7-.15.44-.19.87-.09,1.29.29.26.22.49.36.67.42.61.17,1.38.8,2.32,1.89.52.59.91.98,1.19,1.19.28.24.45.47.53.69.08.22.21.4.38.52s.33.41.48.83c.15.42.21.8.2,1.12,0,.29.03.56.07.84.1.52-.12,1.36-.63,2.52-.21.49-.73.95-1.55,1.37-.82.42-1.56.61-2.22.57-.24,0-.42-.04-.52-.09-.11-.05-.28-.17-.52-.37-.16-.16-.53-.3-1.13-.42-.24-.04-.46-.13-.66-.27-.31-.21-.66-.62-1.06-1.22ZM38.82,185.9s.05.05.11.11c.06.06.15.13.27.23.12.1.23.18.32.26.62.55,1.05.89,1.3,1.02.25.13.45.13.61,0,.05-.04.22-.04.53-.02.35.05.59,0,.72-.15.13-.15.23-.5.31-1.06.05-.41.1-.72.15-.95.03-.15.03-.27,0-.35-.03-.08-.15-.27-.37-.55-.29-.41-.49-.75-.61-1.01-.16-.31-.44-.7-.87-1.15-.42-.46-.79-.79-1.11-.98-.35-.23-.56-.39-.64-.48-.17-.2-.44-.28-.83-.25s-.71.15-.96.35c-.25.2-.37.43-.35.7.04.15,0,.37-.1.67-.18.41-.2.86-.06,1.36.14.5.42.91.82,1.25.3.27.5.51.6.71.08.16.14.26.17.29Z"/>
    <path d="M15.85,182.49c-.24-.51-.49-.95-.76-1.33-.14-.24-.38-.67-.71-1.3-.33-.63-.51-1.01-.55-1.16-.07-.19-.22-.54-.44-1.03-.25-.5-.37-.87-.35-1.12,0-.26-.04-.44-.15-.54-.19-.19-.2-.56-.03-1.1.17-.54.4-.88.72-1.02.19-.07.36-.22.5-.44.17-.22.41-.42.73-.59.31-.18,1.01-.49,2.1-.93.66-.26,1.07-.38,1.22-.38.15,0,.39.17.7.49.26.24.44.5.54.79.14.36.53.83,1.16,1.41.45.41,1.11,1.34,1.96,2.81.86,1.47,1.28,2.37,1.27,2.7,0,.23.1.49.29.77.39.54.47.96.25,1.29-.07.11-.14.32-.2.61-.04.28-.14.5-.3.67-.28.31-.54.6-.77.88-.35.39-.68.67-1.01.82-.32.12-.72.32-1.18.6-.33.19-.54.31-.64.33s-.27.03-.49,0c-.27-.07-.53-.1-.76-.1-.42,0-.8-.21-1.14-.61-.14-.2-.31-.43-.52-.7-.13-.18-.21-.34-.25-.48-.02-.15-.19-.33-.5-.54-.31-.21-.54-.47-.68-.78ZM15.73,177.91c.16.3.3.51.44.61.11.07.37.42.77,1.04.36.6.71,1.1,1.04,1.51.36.41.67.82.92,1.24.26.43.45.66.58.68.13.03.46-.12,1-.44.96-.58,1.4-1.05,1.32-1.42-.12-.75-.34-1.29-.66-1.63-.43-.44-.65-.87-.66-1.28-.02-.22-.09-.41-.23-.56-.16-.19-.28-.38-.38-.58-.19-.4-.48-.89-.88-1.47-.39-.58-.68-.93-.85-1.06-.18-.15-.64-.07-1.37.25-.73.31-1.2.63-1.4.96-.08.14-.12.27-.11.4,0,.12.06.41.17.86.06.29.17.59.32.89ZM20.62,171.73c-.06,0-.14-.13-.24-.37-.09-.24-.16-.44-.19-.6-.03-.21-.08-.37-.14-.47-.11-.19-.06-.46.17-.82.23-.36.48-.56.75-.61.11-.02.25.02.44.1.19.08.32.18.38.28.04.07.2.18.48.34.24.13.39.24.44.33.05.09.1.26.13.51.05.27.33.85.84,1.72.51.87.85,1.35,1.02,1.44.22.1.51.09.85-.04.35-.12.53-.28.56-.46.03-.25-.22-.92-.77-1.99-.25-.5-.39-.88-.4-1.13-.02-.22-.06-.38-.14-.47-.12-.12-.08-.34.11-.66.19-.32.43-.61.71-.86.28-.25.54-.39.78-.42.13,0,.3-.06.5-.16.24-.14.51-.2.82-.16.3.04.51.15.62.34.04.07.2.18.48.34.66.4,1.17.98,1.53,1.74.18.34.36.6.54.79.28.27.5.49.67.65.21.23.41.42.62.57.18.15.42.46.7.94.25.41.46.66.64.75.18.09.43.08.73-.04.13-.05.2-.11.21-.18,0-.06-.03-.28-.11-.65-.11-.42-.36-.99-.76-1.7-.39-.71-.72-1.19-.98-1.43-.19-.19-.45-.58-.8-1.16-.35-.58-.63-.99-.83-1.21-.22-.22-.35-.45-.39-.71-.04-.23-.13-.41-.26-.55-.1-.13-.13-.25-.1-.38.03-.12.16-.34.4-.64.22-.29.4-.46.55-.51.15-.04.34,0,.56.15.23.14.39.24.49.3.22.1.44.38.64.84.12.28.29.53.51.74.22.22.51.61.85,1.19.34.58.58.91.7,1,.22.17.52.62.89,1.34s.58,1.23.62,1.53c.02.31.09.56.21.75.2.33.23.69.1,1.1-.05.19-.06.39-.04.58.06.38,0,.67-.22.86-.13.13-.29.36-.46.69-.32.59-.83.99-1.52,1.21-.69.21-1.15.12-1.4-.3-.07-.12-.31-.3-.71-.55-.38-.24-.67-.53-.87-.88-.19-.35-.35-.56-.48-.62-.14-.08-.58-.69-1.31-1.84-.14-.24-.27-.47-.38-.68-.46-.92-.97-1.37-1.54-1.35-.29.01-.46.08-.51.2-.04.12.02.32.18.59.1.17.17.35.22.54.03.17.17.38.41.63.25.22.85,1.03,1.8,2.42.95,1.39,1.46,2.23,1.54,2.51.04.11-.04.31-.27.58-.22.27-.4.41-.53.42-.26,0-.51-.07-.76-.19-.25-.12-.43-.28-.56-.49-.15-.26-.3-.45-.45-.57-.15-.14-.37-.4-.64-.77-.26-.36-.44-.55-.54-.58-.1-.03-.28.01-.53.14-.26.15-.46.25-.6.29-.1.03-.15.07-.17.1s0,.12.03.26c.04.19.2.52.48,1.01.28.49.47.75.56.79.24.09.4.3.48.62.05.2.2.52.44.96.18.34.27.56.27.66,0,.1-.06.27-.18.49-.12.23-.21.36-.27.4-.05.04-.17.08-.33.11-.4.08-.72.02-.97-.16s-.56-.56-.94-1.15c-.27-.42-.46-.67-.56-.75-.15-.1-.27-.29-.35-.59-.09-.27-.26-.56-.49-.88-.23-.31-.38-.55-.42-.71-.02-.15-.09-.27-.22-.36-.22-.17-.69-.88-1.41-2.12-.35-.63-.77-1.28-1.24-1.95-.44-.65-.68-.98-.75-.99Z"/>
    <path d="M7.01,157.34c-.12-.41-.14-.69-.06-.85.08-.16.35-.43.82-.81.77-.61,1.91-1.18,3.42-1.71,1.51-.53,2.56-.74,3.15-.6.12.04.38.04.78.01,1.56-.14,2.39.22,2.5,1.1.03.25.14.49.33.74.19.25.39.59.6,1.04s.33.76.34.95c0,.17.26.94.76,2.29.51,1.36.77,2.14.79,2.35.04.26.1.45.19.57.22.34.25.77.09,1.29-.07.31-.11.55-.13.73-.05.52-.32,1.01-.8,1.48-.14.14-.38.38-.72.71-.16.19-.53.43-1.11.7-.53.23-.91.42-1.13.58-.18.14-.4.24-.66.29-.23.03-.72.18-1.49.46-1.07.4-1.84.54-2.31.4-.47-.14-.69-.54-.66-1.22.02-.33.09-.55.2-.68.11-.12.4-.28.86-.49.52-.21.81-.35.88-.43.07-.08.04-.29-.07-.63-.15-.61-.35-1.04-.59-1.32-.19-.2-.36-.56-.52-1.05-.16-.52-.33-.88-.5-1.09-.29-.36-.52-.89-.7-1.6-.07-.34-.19-.61-.36-.83-.16-.24-.35-.63-.56-1.17-.2-.5-.38-.79-.55-.86s-.53,0-1.09.22c-.34.11-.6.18-.76.19-.17.01-.34-.03-.53-.13-.16-.09-.3-.3-.42-.64ZM12.96,158.92c.13.27.37.6.71.98.26.26.43.53.51.8.09.29.29.74.61,1.37.3.65.49,1.19.57,1.61.1.52.19.87.27,1.04.08.17.2.25.36.23.22-.04.65-.22,1.28-.52.63-.3.98-.5,1.05-.6.07-.16.04-.48-.08-.97s-.26-.86-.43-1.12c-.24-.38-.38-.8-.43-1.25-.01-.36-.1-.66-.26-.9-.16-.24-.29-.6-.4-1.1-.11-.49-.31-1-.59-1.53-.28-.52-.51-.83-.69-.94-.18-.1-.49-.12-.94-.05-.26.04-.51.03-.75-.02-.42-.07-.76.02-1.03.26-.27.25-.33.55-.19.9.08.2.14.45.17.74.04.43.13.79.26,1.06ZM20.69,157.34c.22-.52.69-.84,1.39-.97.44-.09.72-.22.86-.4s.11-.39-.07-.62c-.1-.13-.25-.46-.45-.98-.25-.59-.55-1.22-.89-1.91-.59-1.23-.95-2.04-1.08-2.43-.12-.39-.1-.69.08-.89.44-.47.8-.68,1.1-.61.3.07.67.44,1.14,1.11.23.3.36.5.4.61.04.11.08.29.12.54.06.64.47,1.54,1.22,2.68.2.35.31.64.31.88,0,.45.16.87.47,1.27.33.45.76,1.28,1.28,2.49.52,1.21.83,2.07.92,2.57.05.35.15.75.29,1.21.22.71.2,1.19-.04,1.44-.49.45-.98.48-1.48.09s-.84-1.08-1.01-2.07c-.06-.26-.26-.74-.59-1.46-.34-.72-.55-1.1-.63-1.15-.08-.03-.29,0-.63.12-.33.09-.59.13-.79.12-.18-.02-.36.01-.55.09-.19.07-.38.09-.58.04-.2-.05-.36-.15-.49-.29-.42-.46-.52-.95-.29-1.47Z"/>
    <path d="M2.3,143.79c.1-.19.14-.35.11-.48-.08-.37.25-.63.97-.79.04,0,.09-.02.15-.03.33-.07.51-.18.53-.33.02-.15-.07-.62-.28-1.41-.04-.18-.06-.3-.08-.38-.29-1.19-.45-1.83-.47-1.93-.07-.23.04-.52.34-.87.29-.35.56-.5.79-.47.23.01.49.23.78.63.29.41.45.76.47,1.07,0,.18.03.42.09.72.01.06.05.22.12.48.07.26.15.63.25,1.11.1.48.2.89.29,1.24.53,2.44,1.04,4.25,1.53,5.41.25.58.25.97,0,1.17-.1.1-.22.23-.35.38-.13.17-.23.26-.29.28-.07.01-.22,0-.45-.03-.3-.08-.54-.22-.7-.43-.17-.21-.31-.58-.45-1.1,0-.02-.01-.07-.03-.15-.4-1.43-.68-2.25-.84-2.48-.16-.22-.53-.29-1.1-.21h-.03c-.67.13-1.12.06-1.36-.2-.28-.29-.28-.69.02-1.2ZM7.74,143.4c-.05-.14-.1-.46-.14-.94-.09-1.02-.03-1.89.19-2.61.12-.39.18-.75.17-1.08-.01-.45.03-.75.12-.9.09-.15.32-.3.68-.43.25-.07.56-.23.91-.47,1.02-.68,1.96-.84,2.81-.47.27.13.55.16.85.1.33-.07.56-.08.7-.04.13.04.27.17.42.39.2.27.39.45.58.55.14.07.42.38.84.93.42.55.65.9.68,1.05.08.29.21.46.4.51.19.05.45-.02.8-.21.26-.14.56-.23.92-.29.38-.04.61-.1.68-.19.07-.09.07-.28-.01-.56-.13-.34-.26-.78-.37-1.33-.15-.62-.32-1.24-.51-1.85-.41-1.35-.64-2.24-.7-2.67s0-.71.18-.83c.72-.46,1.22-.58,1.49-.37.19.14.42.55.69,1.22.26.67.38,1.15.33,1.45-.02.21.06.58.23,1.12.36,1.13.61,1.9.76,2.32.08.19.09.4.04.63-.03.25.02.51.16.76.31.59.67,1.91,1.09,3.97.42,2.06.57,3.27.44,3.65-.05.17-.17.32-.37.44-.52.25-.97.15-1.35-.31-.38-.46-.6-1.15-.65-2.06-.02-.3-.12-.76-.29-1.38-.17-.62-.31-1.02-.41-1.2-.09-.12-.17-.2-.25-.22-.08-.02-.21-.02-.41.02-.22.04-.49.05-.82.02-.42-.05-.71.01-.88.2-.16.19-.29.6-.39,1.23-.08.61-.27,1.14-.58,1.59-.15.26-.34.57-.57.95-.24.4-.64.73-1.2,1-.56.27-1.05.36-1.48.26-.19-.02-.37,0-.54.05-.17.06-.42.06-.73.02-.32-.05-.58-.13-.79-.25-.23-.14-.54-.25-.93-.36-.61-.2-1-.35-1.15-.45-.15-.1-.28-.31-.39-.64-.09-.23-.32-.66-.7-1.29-.32-.55-.5-.89-.55-1.03ZM10.3,143.61c.32.46.78.77,1.39.9.39.1.75.22,1.09.35.38.17.83.15,1.36-.04.52-.19.93-.49,1.24-.9.25-.36.27-.98.06-1.85s-.52-1.44-.93-1.71c-.23-.14-.45-.31-.66-.54-.2-.18-.48-.32-.85-.4-.36-.07-.62-.13-.78-.2-.23-.12-.49-.13-.78-.05-.29.08-.5.23-.64.44-.11.17-.26.31-.46.43-.14.09-.26.26-.35.52-.09.25-.11.5-.06.73.02.08.01.29-.02.65-.05.64.09,1.2.41,1.66Z"/>
    <path d="M.07,124.35c.11-.43.29-.71.53-.83.28-.14.64-.17,1.08-.06.44.1.84.32,1.18.66.18.16.4.3.65.44.25.14.44.2.56.2.06,0,.2.07.42.2.26.18.48.23.65.15.17-.07.34-.28.52-.62.39-.81.79-1.46,1.2-1.97.27-.34.43-.58.47-.7.06-.24.13-.41.22-.51.09-.1.26-.2.52-.31.44-.17.76-.22.96-.17.2.06.44.27.7.65.39.61.36,1.13-.09,1.56-.12.12-.24.33-.38.64-.16.3-.37.62-.65.94-.27.32-.48.59-.62.79-.12.22-.26.37-.44.46-.18.1-.34.32-.5.64-.13.3-.2.51-.2.63,0,.12.09.23.28.33.16.1.39.25.7.47.28.22.54.38.76.5.22.1.47.31.73.65.31.4.47.67.48.83.01.16-.09.37-.31.64-.04.06-.09.12-.15.18s-.1.11-.13.15-.05.07-.07.09c-.12.18-.47.14-1.05-.13-.32-.13-.51-.2-.57-.2-.04,0-.22-.15-.55-.44-.34-.29-.65-.5-.91-.62-.28-.14-.61-.37-.97-.7-.37-.35-.69-.6-.97-.73-.26-.14-.44-.29-.55-.47-.1-.2-.3-.37-.58-.5-.28-.12-.48-.27-.61-.47-.2-.3-.49-.44-.85-.44-.22,0-.47-.11-.74-.33-.27-.23-.43-.34-.47-.34-.06,0-.12-.08-.18-.24-.14-.24-.16-.57-.05-1ZM.74,112.37c.2-.47.45-.71.75-.72.14,0,.41-.06.81-.16.42-.13.75-.17.99-.14.26.04.86.06,1.8.06,1.78,0,3.06.05,3.84.16.78.12,1.22.33,1.3.62.13.42.12.79-.01,1.11-.13.32-.36.49-.68.49-.1,0-.23.05-.39.16-.36.23-.87.28-1.53.17-.3-.06-.76-.08-1.38-.08s-1.03.03-1.23.09c-.14.04-.3.02-.48-.08-.18-.08-.41-.08-.69-.02-.28.06-.54.06-.78-.02s-.43-.09-.57-.05c-.22.1-.53.09-.95-.03-.41-.12-.69-.28-.83-.48-.18-.26-.17-.62.03-1.1ZM1.09,116.57c.07-.47.23-.78.47-.92.55-.35,1.34-.47,2.36-.37,1.58.15,2.65.23,3.21.22.74-.01,1.6.06,2.58.23.1.02.19.11.27.27.04.12.11.29.22.51.1.22.11.43.01.64-.1.21-.25.32-.47.32-.1,0-.27.06-.51.19-.16.1-.31.16-.45.17s-.46.01-.96,0c-.86-.03-1.39.04-1.59.19-.2.15-.3.56-.31,1.22-.01.46-.04.76-.09.9-.05.14-.2.31-.46.52-.67.53-1.11.58-1.32.14-.08-.16-.22-.37-.4-.62-.18-.28-.3-.58-.35-.92-.07-.54-.21-.92-.44-1.13-.22-.22-.58-.32-1.06-.31-.26.02-.46-.04-.6-.2-.16-.22-.21-.56-.14-1.03ZM13.18,126.14c.16-.28.31-.47.47-.56.16-.09.4-.12.72-.09.6.03,1.24-.22,1.91-.75.18-.14.34-.47.49-.97.15-.5.21-.9.16-1.2-.04-.26-.03-.57.04-.93.09-.36.11-.65.06-.87-.05-.22-.09-1.21-.11-2.97-.02-1.76-.01-2.84.02-3.24.05-.44.15-.72.29-.84.08-.06.26-.21.53-.46.34-.29.61-.39.84-.3s.37.34.43.76c.04.28.11.51.19.69.15.36.17.96.06,1.8-.04.32-.03.68.02,1.06.05.39.05.81.02,1.27-.03.46-.02.91.05,1.35.09.42.1.77.05,1.05-.09.42-.09.97,0,1.65.04.34.03.63-.05.87-.08.26-.11.54-.11.84.03.54-.12.98-.46,1.33-.14.16-.24.34-.32.55-.19.48-.5.84-.91,1.06-.3.15-.57.31-.83.49-.2.14-.34.23-.43.25-.09.02-.25.03-.49.04-.32-.01-.62.02-.9.1-.24.1-.54.11-.9.01-.36-.09-.65-.25-.88-.47-.35-.33-.33-.84.04-1.53Z"/>
    <path d="M4.27,97.08c.06-.2.14-.39.23-.55.12-.18.18-.36.2-.54,0-.33.31-.63.94-.92.43-.2.74-.27.94-.2.2.07.35.29.44.65.06.2.08.37.05.51-.03.15-.14.5-.32,1.05-.12.32-.2.65-.22.97,0,.31-.08.65-.26,1.02-.27.54-.35,1-.27,1.38.06.24.06.51.02.83-.02.2-.06.62-.12,1.26-.04.54-.11.92-.21,1.12-.11.24-.16.64-.17,1.19-.01.18-.06.33-.13.43-.07.11-.16.15-.25.13-.1-.02-.25,0-.47.06-.24.08-.41.09-.53.04s-.25-.23-.42-.52c-.3-.44-.45-.87-.46-1.28,0-.41.13-1.21.4-2.4.09-.35.16-.76.21-1.24.04-.44.13-.97.25-1.6.1-.63.14-.97.1-1.02-.03-.05-.02-.17.04-.37ZM6.24,89.9c.08-.11.16-.26.24-.47.08-.19.18-.31.31-.37.11-.04.52-.02,1.24.06s1.22.15,1.51.23c.29.1.65.2,1.1.3.45.09.74.16.87.23.09.06.28.07.56.05.28-.03.54.02.78.15.24.13.52.2.84.22.34.04.62.13.83.27s.49.21.81.23c.35,0,.62.04.84.1.21.06.46.09.75.08.25-.01.7.06,1.36.23.66.17,1.04.3,1.14.4.15.15.34.51.56,1.08.08.2.03.4-.16.61-.19.21-.4.29-.61.25-.18-.03-.44-.01-.78.06-.55.12-1.54.02-2.97-.3-.51-.1-.81-.13-.9-.11-.09.02-.25-.03-.49-.16-.29-.16-.5-.17-.6-.04-.11.13-.22.53-.35,1.2-.1.61-.18.97-.25,1.07-.07.1-.35.28-.85.55-.34.2-.6.27-.77.2-.17-.06-.23-.24-.17-.54.02-.12-.04-.36-.18-.72s-.22-.67-.24-.92c0-.22-.02-.48-.06-.78-.05-.25-.08-.45-.07-.59.03-.28-.33-.49-1.1-.64-.43-.1-.69-.18-.78-.24-.07-.07-.38-.14-.94-.21-.88-.07-1.43-.31-1.63-.74-.12-.23-.07-.48.15-.77ZM8.86,98.34c.12-.3.19-.51.21-.63.05-.27.19-.45.42-.53.23-.08.52-.06.86.04.75.25.96,1.03.65,2.35-.33,1.42-.45,2.34-.34,2.74.07.26.05.62-.06,1.09l-.14.71.41.26c.64.39,1.36.47,2.15.26s1.24-.63,1.34-1.24c.05-.24.13-.5.25-.81.13-.26.19-.48.19-.67-.04-.52.06-1.2.3-2.05.25-.85.48-1.32.7-1.42.25-.13.44-.24.58-.32.41-.23.71-.19.9.11.02.02.12.19.3.49.21.3.24.6.11.88-.09.17-.15.42-.18.76-.17,1.64-.39,2.61-.65,2.93-.19.25-.28.49-.26.71.02.41-.07.73-.28.96-.17.17-.27.34-.28.5.01.35-.2.68-.65,1-.24.2-.47.4-.7.6-.19.15-.34.25-.45.29-.11.05-.32.09-.63.11-.46.07-.87.16-1.21.26-.37.11-.67.15-.91.1-.24-.04-.49-.17-.75-.39-.28-.22-.58-.34-.87-.38-.66-.07-1.13-.35-1.42-.85-.29-.5-.37-1.19-.25-2.06.03-.28.01-.59-.07-.93-.08-.34-.06-.63.04-.86.11-.23.13-.45.08-.64-.05-.19-.05-.58.02-1.16.11-.77.3-1.51.58-2.21Z"/>
  </g>
  <circle cx="25.26" cy="62.58" r="6.6"/>
  <circle cx="177.94" cy="30.41" r="6.6"/>
  <circle cx="212.06" cy="183.05" r="6.6"/>
  <circle cx="58.87" cy="212.2" r="6.6"/>
</svg>