<svg width="70" height="70" viewBox="0 0 70 70" fill="none" xmlns="http://www.w3.org/2000/svg">
<g clip-path="url(#clip0_125_508)">
<path d="M4.17999 17.6296C4.17999 17.6296 -0.990014 22.8596 0.929985 32.1396C2.84999 41.4196 8.08999 41.1896 11.55 40.2796C15.01 39.3696 17.4 36.5996 17.63 33.2996C17.86 29.9996 14.32 16.4196 6.61999 16.5696C6.61999 16.5696 4.98999 16.7996 4.17999 17.6396C4.17999 17.6196 4.15999 17.6596 4.17999 17.6396V17.6296Z" fill="#FFB7C3"/>
<path d="M4.17999 17.6398C4.99999 16.7998 6.61999 16.5698 6.61999 16.5698C14.32 16.4098 17.86 29.9998 17.63 33.2998C17.4 36.5998 15 39.3698 11.55 40.2798C8.09999 41.1898 2.84999 41.4298 0.929985 32.1398C-0.990014 22.8598 4.17999 17.6298 4.17999 17.6298V17.6398Z" stroke="#1D1D1D" stroke-linecap="round" stroke-linejoin="round"/>
<path d="M19.9 1.5701C19.9 1.5701 14.72 6.8001 16.65 16.0801C18.58 25.3601 23.81 25.1301 27.27 24.2201C30.73 23.3101 33.12 20.5401 33.35 17.2401C33.58 13.9401 30.04 0.360098 22.34 0.500098C22.34 0.500098 20.72 0.730098 19.9 1.5701C19.9 1.5501 19.88 1.5901 19.9 1.5701Z" fill="#FFB7C3"/>
<path d="M19.9 1.5701C19.9 1.5701 14.72 6.8001 16.65 16.0801C18.58 25.3601 23.81 25.1301 27.27 24.2201C30.73 23.3101 33.12 20.5401 33.35 17.2401C33.58 13.9401 30.04 0.360098 22.34 0.500098C22.34 0.500098 20.72 0.730098 19.9 1.5701Z" stroke="#1D1D1D" stroke-linecap="round" stroke-linejoin="round"/>
<path d="M47.87 2.04972C47.87 2.04972 40.66 3.55972 37.13 12.3697C33.6 21.1797 38.1 23.8597 41.49 24.9897C44.89 26.1197 48.41 25.1397 50.42 22.4997C52.44 19.8697 56.99 6.59972 50.49 2.49972C50.49 2.49972 49.01 1.80972 47.86 2.04972C47.88 2.02972 47.84 2.04972 47.86 2.04972H47.87Z" fill="#FFB7C3"/>
<path d="M47.87 2.04972C47.87 2.04972 40.66 3.55972 37.13 12.3697C33.6 21.1797 38.1 23.8597 41.49 24.9897C44.89 26.1197 48.41 25.1397 50.42 22.4997C52.44 19.8697 56.99 6.59972 50.49 2.49972C50.49 2.49972 49.01 1.80972 47.86 2.04972H47.87Z" stroke="#1D1D1D" stroke-linecap="round" stroke-linejoin="round"/>
<path d="M63.59 19.5997C63.59 19.5997 57.1 20.9597 53.91 28.8997C50.73 36.8297 54.78 39.2397 57.84 40.2697C60.91 41.2897 64.07 40.3997 65.89 38.0297C67.71 35.6497 71.82 23.6997 65.95 20.0097C65.95 20.0097 64.62 19.3897 63.58 19.6097C63.6 19.5897 63.56 19.6097 63.58 19.6097L63.59 19.5997Z" fill="#FFB7C3"/>
<path d="M63.59 19.5997C63.59 19.5997 57.1 20.9597 53.91 28.8997C50.73 36.8297 54.78 39.2397 57.84 40.2697C60.91 41.2897 64.07 40.3997 65.89 38.0297C67.71 35.6497 71.82 23.6997 65.95 20.0097C65.95 20.0097 64.62 19.3897 63.58 19.6097L63.59 19.5997Z" stroke="#1D1D1D" stroke-linecap="round" stroke-linejoin="round"/>
<path d="M26.41 5.15032C26.41 5.15032 24.25 2.14032 22.1 2.70032C19.95 3.26032 19.22 7.67032 19.02 10.9003C18.79 14.7103 19.81 18.3403 20.68 19.4203C21.55 20.4903 22.24 21.0303 22.24 21.0303" stroke="#1D1D1D" stroke-linecap="round" stroke-linejoin="round"/>
<path d="M11.26 20.65C11.26 20.65 8.77999 18.2 6.62999 18.76C4.47999 19.32 3.08999 23.72 3.33999 26.95C3.59999 30.18 4.26999 34.52 5.13999 35.6C6.00999 36.68 6.66999 37.31 6.66999 37.31" fill="#FFB7C3"/>
<path d="M11.26 20.65C11.26 20.65 8.77999 18.2 6.62999 18.76C4.47999 19.32 3.08999 23.72 3.33999 26.95C3.59999 30.18 4.26999 34.52 5.13999 35.6C6.00999 36.68 6.66999 37.31 6.66999 37.31" stroke="#1D1D1D" stroke-linecap="round" stroke-linejoin="round"/>
<path d="M52.3 7.9899C52.3 7.9899 51.88 5.3099 49.56 4.5499C47.24 3.7899 43.34 7.0199 41.65 10.1399C39.96 13.2599 37.98 17.6599 38.14 19.1699C38.3 20.6799 39.11 21.4999 39.11 21.4999" stroke="#1D1D1D" stroke-linecap="round" stroke-linejoin="round"/>
<path d="M57.91 37.41C57.91 37.41 56.93 37.64 55.67 35.98C54.41 34.32 55.74 30.63 57.48 28.12C59.35 25.43 62.57 23 63.83 22.71C65.09 22.42 64.94 24.18 64.94 24.18" stroke="#1D1D1D" stroke-linecap="round" stroke-linejoin="round"/>
<path d="M20.62 38.5167C20.33 38.5767 20.11 38.8067 20.08 39.1167C19.95 40.4167 19.79 43.6567 21.27 45.2167C23.15 47.2167 29.88 44.8367 32.62 47.0167C35.36 49.1967 38.04 50.3867 37.89 52.8067C37.73 55.2167 37.93 53.6467 37.93 53.6467C37.93 53.6467 38.74 48.8067 41.9 49.2767C45.06 49.7367 48.62 49.8167 49 44.4367C49.38 39.0667 49.31 33.8867 46.19 31.7467C43.07 29.6067 39.42 27.1367 32.1 28.2967C24.79 29.4467 30.22 31.0267 28.25 33.7767C26.55 36.1667 22.12 38.1867 20.6 38.5167H20.62Z" fill="#FFC76D" stroke="#1D1D1D" stroke-linecap="round" stroke-linejoin="round"/>
<path d="M30.74 32.5402C30.74 32.5402 30.31 31.0002 32.21 30.3602C34.11 29.7202 37.74 30.0902 38.21 30.3602" stroke="#1D1D1D" stroke-linecap="round" stroke-linejoin="round"/>
<path d="M41.21 31.8096C41.21 31.8096 38.6 41.0196 39.71 44.3596C40.82 47.6996 43.41 49.3096 44.29 49.2696" stroke="#1D1D1D" stroke-linecap="round" stroke-linejoin="round"/>
<path d="M18.62 41.9003C18.62 41.9003 18.62 47.2003 19.96 47.6903C21.3 48.1803 22.97 46.8903 24.19 47.5003C25.41 48.1103 29 49.6803 29.42 51.7203C29.42 51.7203 32.49 51.1603 33.02 51.8403C33.02 51.8403 34.45 54.0203 34.44 55.5603C34.43 57.1003 34.04 58.4003 33.11 59.0903C32.18 59.7803 26.41 60.7303 25.5 62.8503C24.58 64.9703 23.19 65.1903 24.57 68.6403C24.57 68.6403 11.18 66.4103 10.95 56.2903C10.72 46.1703 18.6 41.7103 18.61 41.9003H18.62Z" fill="#B4B4B4" stroke="#1D1D1D" stroke-linecap="round" stroke-linejoin="round"/>
<path d="M16.66 48.4297C16.66 48.4297 9.96001 56.9497 16.97 63.1597" stroke="#1D1D1D" stroke-linecap="round" stroke-linejoin="round"/>
<path d="M53.87 52.4104C53.87 52.4104 44.87 50.9104 42.91 51.8704C40.96 52.8304 37.64 55.3704 37.75 60.6504C37.86 65.9404 34.37 60.7204 29.75 63.1504C26.26 64.9804 26.41 67.1804 26.71 68.1404C26.8 68.4304 27.08 68.6304 27.38 68.6204L55.3 68.2404C55.3 68.2404 61.4 67.1604 62.34 56.5404C62.34 56.5404 62.5 55.7604 60.36 53.2404C59.86 52.6404 59.26 52.1404 58.59 51.7404C56.57 50.5504 51.74 47.3704 51.76 44.4404" fill="#FFC76D"/>
<path d="M53.87 52.4104C53.87 52.4104 44.87 50.9104 42.91 51.8704C40.96 52.8304 37.64 55.3704 37.75 60.6504C37.86 65.9404 34.37 60.7204 29.75 63.1504C26.26 64.9804 26.41 67.1804 26.71 68.1404C26.8 68.4304 27.08 68.6304 27.38 68.6204L55.3 68.2404C55.3 68.2404 61.4 67.1604 62.34 56.5404C62.34 56.5404 62.5 55.7604 60.36 53.2404C59.86 52.6404 59.26 52.1404 58.59 51.7404C56.57 50.5504 51.74 47.3704 51.76 44.4404" stroke="#1D1D1D" stroke-linecap="round" stroke-linejoin="round"/>
<path d="M50.17 54.4003C50.17 54.4003 42.44 51.6103 40.79 58.6803" stroke="#1D1D1D" stroke-linecap="round" stroke-linejoin="round"/>
<path d="M33.87 35.7599C33.87 36.1899 33.14 36.5299 32.22 36.5299C31.3 36.5299 30.8 36.3499 30.8 35.9199C30.8 35.4899 31.26 35.0899 32.22 34.9899C33.12 34.8899 33.87 35.3299 33.87 35.7599Z" fill="#1D1D1D" stroke="#1D1D1D" stroke-miterlimit="10"/>
<path d="M27.31 53.1302C27.31 53.4102 26.94 53.4502 26.39 53.4502C25.84 53.4502 25.41 53.2302 25.41 52.9502C25.41 52.6702 25.85 52.4502 26.39 52.4502C26.93 52.4502 27.31 52.8502 27.31 53.1302Z" fill="#1D1D1D" stroke="#1D1D1D" stroke-linecap="round" stroke-linejoin="round"/>
</g>
<defs>
<clipPath id="clip0_125_508">
<rect width="69.5" height="69.13" fill="white"/>
</clipPath>
</defs>
</svg>
