<svg width="215" height="51" viewBox="0 0 215 51" fill="none" xmlns="http://www.w3.org/2000/svg">
<path d="M59.6281 37.2919H67.635V35.3158H61.6893C60.2095 35.3158 59.7074 34.6307 59.7074 33.2343V28.4389C59.7074 27.0425 60.2095 26.3574 61.6893 26.3574H80.5569C81.2175 26.3574 81.5346 26.6736 81.5346 27.2796C81.5346 27.8856 81.2175 28.2018 80.5569 28.2018H66.6837C66.2608 28.2018 66.0494 28.3862 66.0494 28.7288V32.9445C66.0494 33.287 66.2608 33.4714 66.6837 33.4714H74.9019C75.2983 33.4714 75.5097 33.287 75.5097 32.9445C75.5097 31.6534 76.5667 30.7049 78.6807 30.7049C80.7947 30.7049 81.8517 31.627 81.8517 33.2079V34.0247C81.8517 34.9469 81.4818 35.3158 80.3983 35.3158H73.977V37.2919H81.9838C82.6445 37.2919 82.9616 37.6081 82.9616 38.2141C82.9616 38.8201 82.6445 39.1363 81.9838 39.1363H59.6281C58.9675 39.1363 58.6504 38.8201 58.6504 38.2141C58.6504 37.6081 58.9675 37.2919 59.6281 37.2919ZM76.7252 49.2803H64.8339C61.0287 49.2803 59.4431 47.7785 59.4431 45.0646C59.4431 42.3507 61.0287 40.8489 64.8339 40.8489H76.7252C80.5305 40.8489 82.116 42.3507 82.116 45.0646C82.116 47.7785 80.5305 49.2803 76.7252 49.2803ZM72.9464 42.6933H68.6127C66.5251 42.6933 65.7852 43.4837 65.7852 45.0646C65.7852 46.6455 66.5251 47.4359 68.6127 47.4359H72.9464C75.034 47.4359 75.7739 46.6455 75.7739 45.0646C75.7739 43.4837 75.034 42.6933 72.9464 42.6933Z" fill="#582B16"/>
<path d="M86.0534 36.1062H108.409C109.07 36.1062 109.387 36.4224 109.387 37.0284C109.387 37.6344 109.07 37.9506 108.409 37.9506H100.402V39.795H106.295C107.775 39.795 108.277 40.48 108.277 41.8765V43.1148C108.277 44.5113 107.775 45.1963 106.295 45.1963H93.1089C92.6861 45.1963 92.4747 45.3808 92.4747 45.7233V46.909C92.4747 47.2515 92.6861 47.4359 93.1089 47.4359H101.697C101.856 47.4359 101.935 47.3569 101.935 47.1725C101.935 46.303 102.86 45.7233 105.106 45.7233C107.352 45.7233 108.277 46.303 108.277 47.4359V47.9893C108.277 48.9114 107.907 49.2803 106.824 49.2803H88.1146C86.6348 49.2803 86.1327 48.5953 86.1327 47.1988V45.4335C86.1327 44.037 86.6348 43.352 88.1146 43.352H101.301C101.724 43.352 101.935 43.1675 101.935 42.825V42.1663C101.935 41.8238 101.724 41.6393 101.301 41.6393H87.1104C86.4498 41.6393 86.1327 41.3232 86.1327 40.7172C86.1327 40.1112 86.4498 39.795 87.1104 39.795H94.0603V37.9506H86.0534C85.3928 37.9506 85.0757 37.6344 85.0757 37.0284C85.0757 36.4224 85.3928 36.1062 86.0534 36.1062ZM88.1146 34.2619C86.6348 34.2619 86.1327 33.5768 86.1327 32.1804V28.4389C86.1327 27.0425 86.6348 26.3574 88.1146 26.3574H106.295C107.775 26.3574 108.277 27.0425 108.277 28.4389V32.1804C108.277 33.5768 107.775 34.2619 106.295 34.2619H88.1146ZM92.4747 31.8905C92.4747 32.2331 92.6861 32.4175 93.1089 32.4175H101.301C101.724 32.4175 101.935 32.2331 101.935 31.8905V28.7288C101.935 28.3862 101.724 28.2018 101.301 28.2018H93.1089C92.6861 28.2018 92.4747 28.3862 92.4747 28.7288V31.8905Z" fill="#582B16"/>
<path d="M121.939 46.2758C120.855 46.2758 120.486 45.907 120.486 44.9848V40.8481H114.54C113.06 40.8481 112.558 40.1631 112.558 38.7666V29.5184C112.558 27.595 113.615 26.6201 115.729 26.6201C117.843 26.6201 118.9 27.595 118.9 29.5184V32.4167H128.36V29.5184C128.36 27.595 129.417 26.6201 131.531 26.6201C133.645 26.6201 134.702 27.595 134.702 29.5184V38.7666C134.702 40.1631 134.2 40.8481 132.72 40.8481H126.828V43.641C126.828 44.2734 127.013 44.4315 127.726 44.4315H133.275C135.072 44.4315 135.812 45.1165 135.812 46.592C135.812 48.0675 135.072 48.7526 133.275 48.7526H112.479C111.818 48.7526 111.501 48.4364 111.501 47.8304C111.501 47.2244 111.818 46.9082 112.479 46.9082H133.513C133.804 46.9082 133.962 46.8028 133.962 46.592C133.962 46.3812 133.804 46.2758 133.513 46.2758H121.939ZM128.36 34.2611H118.9V38.4768C118.9 38.8193 119.111 39.0037 119.534 39.0037H127.726C128.149 39.0037 128.36 38.8193 128.36 38.4768V34.2611Z" fill="#582B16"/>
<path d="M145.299 41.9024C140.622 41.9024 138.983 39.8209 138.983 36.8962C138.983 33.9716 140.622 31.8901 145.299 31.8901H154.812C159.489 31.8901 161.128 33.9716 161.128 36.8962C161.128 39.8209 159.489 41.9024 154.812 41.9024H153.253V43.6414C153.253 44.2737 153.438 44.4318 154.151 44.4318H159.701C161.498 44.4318 162.237 45.1168 162.237 46.5923C162.237 48.0678 161.498 48.7529 159.701 48.7529H138.904C138.243 48.7529 137.926 48.4367 137.926 47.8307C137.926 47.2247 138.243 46.9085 138.904 46.9085H159.938C160.229 46.9085 160.388 46.8031 160.388 46.5923C160.388 46.3816 160.229 46.2762 159.938 46.2762H148.364C147.281 46.2762 146.911 45.9073 146.911 44.9851V41.9024H145.299ZM159.674 29.3607C159.965 29.3607 160.123 29.2553 160.123 29.0445C160.123 28.8337 159.965 28.7283 159.674 28.7283H148.364C147.281 28.7283 146.911 28.3594 146.911 27.4372V26.4887C146.911 25.0923 148.206 24.3809 150.082 24.3809C151.958 24.3809 153.253 25.0923 153.253 26.4887V26.6205C153.253 26.963 153.464 27.1474 153.887 27.1474H159.569C161.365 27.1474 161.973 27.8061 161.973 29.0445C161.973 30.2828 161.365 30.9415 159.569 30.9415H139.089C138.481 30.9415 138.191 30.6781 138.191 30.1511C138.191 29.6241 138.481 29.3607 139.089 29.3607H159.674ZM148.919 40.058H151.192C153.755 40.058 154.786 38.8723 154.786 36.8962C154.786 34.9201 153.755 33.7345 151.192 33.7345H148.919C146.356 33.7345 145.325 34.9201 145.325 36.8962C145.325 38.8723 146.356 40.058 148.919 40.058Z" fill="#582B16"/>
<path d="M169.266 29.5451V38.24C169.266 39.6364 168.896 40.058 167.416 40.058H165.937C164.457 40.058 164.087 39.6364 164.087 38.24V33.1284C164.087 29.4134 164.933 27.6217 166.835 26.8576V26.6205C166.835 25.224 167.707 24.3809 170.006 24.3809C172.305 24.3809 173.177 25.224 173.177 26.6205V26.8576C174.895 27.569 175.793 29.1762 175.899 32.417H177.3V28.2013C177.3 26.3306 178.198 25.5665 179.889 25.5665C181.58 25.5665 182.479 26.3306 182.479 28.2013V41.4018C182.479 42.7982 182.109 43.2198 180.629 43.2198H179.149C177.669 43.2198 177.3 42.7982 177.3 41.4018V34.2614H175.925V38.24C175.925 39.6364 175.555 40.058 174.076 40.058H172.596C171.116 40.058 170.746 39.6364 170.746 38.24V29.5451C170.746 28.4648 170.508 28.2013 170.006 28.2013C169.504 28.2013 169.266 28.4648 169.266 29.5451ZM171.486 46.8997C171.486 47.2423 171.697 47.4267 172.12 47.4267H181.818C182.162 47.4267 182.32 47.2423 182.32 46.8997C182.32 45.6087 183.377 44.6601 185.491 44.6601C187.605 44.6601 188.662 45.5823 188.662 47.1632V47.98C188.662 48.9022 188.292 49.2711 187.209 49.2711H167.126C165.646 49.2711 165.144 48.586 165.144 47.1896V44.2649C165.144 42.3415 166.201 41.3666 168.315 41.3666C170.429 41.3666 171.486 42.3415 171.486 44.2649V46.8997ZM188.662 41.4018C188.662 42.7982 188.292 43.2198 186.813 43.2198H185.333C183.853 43.2198 183.483 42.7982 183.483 41.4018V28.2013C183.483 26.3306 184.381 25.5665 186.073 25.5665C187.764 25.5665 188.662 26.3306 188.662 28.2013V41.4018Z" fill="#582B16"/>
<path d="M199.206 45.3275C199.603 45.3275 199.814 45.1431 199.814 44.8006C199.814 43.5095 200.871 42.561 202.985 42.561C205.099 42.561 206.156 43.4831 206.156 45.064V45.8808C206.156 46.803 205.786 47.1719 204.703 47.1719H193.551C192.071 47.1719 191.569 46.4868 191.569 45.0904V28.9653C191.569 27.5689 192.071 26.8838 193.551 26.8838H204.544C205.205 26.8838 205.522 27.2 205.522 27.806C205.522 28.412 205.205 28.7282 204.544 28.7282H198.546C198.123 28.7282 197.911 28.9126 197.911 29.2551V36.1057H202.959C203.619 36.1057 203.936 36.4218 203.936 37.0279C203.936 37.6339 203.619 37.95 202.959 37.95H197.911V44.8006C197.911 45.1431 198.123 45.3275 198.546 45.3275H199.206ZM214.559 47.1982C214.559 48.5947 214.057 49.2797 212.577 49.2797H210.199C208.719 49.2797 208.217 48.5947 208.217 47.1982V37.95H205.548C204.888 37.95 204.571 37.6339 204.571 37.0279C204.571 36.4218 204.888 36.1057 205.548 36.1057H208.217V28.4647C208.217 26.5413 209.274 25.5664 211.388 25.5664C213.502 25.5664 214.559 26.5413 214.559 28.4647V47.1982Z" fill="#582B16"/>
<path d="M3.65079 13.3579C4.24096 12.7518 5.41247 12.585 5.41247 12.585C10.9618 12.4708 13.5162 22.2635 13.3488 24.6436C13.1815 27.0238 11.455 29.0174 8.96226 29.6761C6.46948 30.3348 2.69068 30.5017 1.30776 23.8093C-0.0751572 17.1169 3.65079 13.3491 3.65079 13.3491V13.3579ZM3.65079 13.3579C3.63318 13.3754 3.65079 13.3403 3.65079 13.3579Z" stroke="#EB9D00" stroke-linecap="round" stroke-linejoin="round"/>
<path d="M14.9872 1.77372C14.9872 1.77372 11.2525 5.54151 12.6442 12.2339C14.0359 18.9264 17.8059 18.7595 20.2987 18.1008C22.7915 17.4421 24.5179 15.4484 24.6853 13.0683C24.8526 10.6882 22.2982 0.895452 16.7489 1.00084C16.7489 1.00084 15.5774 1.16772 14.9872 1.77372ZM14.9872 1.77372C14.9696 1.79129 14.9872 1.75616 14.9872 1.77372Z" stroke="#EB9D00" stroke-linecap="round" stroke-linejoin="round"/>
<path d="M35.1495 2.11647C35.1495 2.11647 29.9525 3.20553 27.4069 9.55543C24.8613 15.9053 28.1028 17.8375 30.5515 18.6543C33.0003 19.4711 35.5371 18.7597 36.9905 16.8626C38.4438 14.9656 41.7294 5.40121 37.0433 2.44143C37.0433 2.44143 35.9775 1.94082 35.1495 2.11647ZM35.1495 2.11647C35.1319 2.11647 35.1671 2.09891 35.1495 2.11647Z" stroke="#EB9D00" stroke-linecap="round" stroke-linejoin="round"/>
<path d="M46.4861 14.7721C46.4861 14.7721 41.8088 15.7557 39.5099 21.4733C37.2197 27.1908 40.1352 28.9298 42.3462 29.6676C44.5571 30.4053 46.8384 29.7642 48.1509 28.0515C49.4633 26.3389 52.423 17.7231 48.1949 15.0619C48.1949 15.0619 47.2348 14.614 46.4861 14.7721ZM46.4861 14.7721C46.4685 14.7721 46.5037 14.7545 46.4861 14.7721Z" stroke="#EB9D00" stroke-linecap="round" stroke-linejoin="round"/>
<path d="M19.682 4.35552C19.682 4.35552 18.1229 2.18619 16.5726 2.5902C15.0223 2.9942 14.4938 6.17354 14.3529 8.50096C14.1855 11.25 14.9254 13.8672 15.5508 14.6401C16.1762 15.413 16.6783 15.7994 16.6783 15.7994" stroke="#EB9D00" stroke-linecap="round" stroke-linejoin="round"/>
<path d="M8.75976 15.5279C8.75976 15.5279 6.97166 13.7625 5.42138 14.1665C3.8711 14.5705 2.86695 17.7411 3.05192 20.0685C3.2369 22.3959 3.72136 25.5226 4.34676 26.3043C4.97215 27.0859 5.44781 27.5338 5.44781 27.5338" stroke="#EB9D00" stroke-linecap="round" stroke-linejoin="round"/>
<path d="M38.347 6.40258C38.347 6.40258 38.0475 4.47038 36.3739 3.92585C34.7003 3.38133 31.8904 5.70875 30.6749 7.95712C29.4593 10.2055 28.0323 13.3761 28.1469 14.4651C28.2614 15.5542 28.8427 16.1426 28.8427 16.1426" stroke="#EB9D00" stroke-linecap="round" stroke-linejoin="round"/>
<path d="M42.3902 27.6126C42.3902 27.6126 41.6855 27.7794 40.7783 26.585C39.871 25.3905 40.8311 22.7294 42.0819 20.9201C43.4296 18.9792 45.755 17.2314 46.6623 17.0206C47.5696 16.8098 47.4639 18.0833 47.4639 18.0833" stroke="#EB9D00" stroke-linecap="round" stroke-linejoin="round"/>
<path d="M15.6567 28.262C15.4453 28.3059 15.2867 28.4728 15.2691 28.6924C15.1722 29.6321 15.0577 31.9683 16.1235 33.0925C17.48 34.5329 22.3334 32.8202 24.3065 34.3923C26.2796 35.9644 28.2174 36.8251 28.1029 38.5641C27.9884 40.3031 28.1293 39.1701 28.1293 39.1701C28.1293 39.1701 28.7107 35.6834 30.9921 36.0171C33.2735 36.3509 35.8367 36.4036 36.1098 32.5304C36.3828 28.6572 36.33 24.9246 34.0838 23.3788C31.8377 21.8331 29.204 20.0589 23.9277 20.8933C18.6603 21.7189 22.5712 22.8606 21.1531 24.8455C19.9287 26.5669 16.7313 28.0249 15.639 28.262H15.6567Z" stroke="#EB9D00" stroke-linecap="round" stroke-linejoin="round"/>
<path d="M22.8003 24.0994C22.8003 24.0994 22.4921 22.9928 23.8574 22.5273C25.2227 22.0618 27.8476 22.3341 28.1823 22.5273" stroke="#EB9D00" stroke-linecap="round" stroke-linejoin="round"/>
<path d="M30.3491 23.5723C30.3491 23.5723 28.4641 30.212 29.2656 32.6185C30.0672 35.0249 31.9346 36.1842 32.5688 36.1579" stroke="#EB9D00" stroke-linecap="round" stroke-linejoin="round"/>
<path d="M14.0624 30.8442C14.0624 30.8442 14.0624 34.6647 15.0313 35.016C16.0002 35.3673 17.1982 34.4364 18.079 34.8755C18.9599 35.3146 21.5495 36.4476 21.849 37.9143C21.849 37.9143 24.0599 37.5103 24.4475 38.0022C24.4475 38.0022 25.4781 39.5743 25.4693 40.6809C25.4605 41.7875 25.1786 42.7273 24.5092 43.2279C23.8397 43.7285 19.6822 44.4135 19.0215 45.9417C18.3609 47.4699 17.3567 47.628 18.3521 50.1135C18.3521 50.1135 8.69809 48.5063 8.53073 41.2078C8.36337 33.9094 14.0448 30.6949 14.0536 30.8355L14.0624 30.8442Z" stroke="#EB9D00" stroke-linecap="round" stroke-linejoin="round"/>
<path d="M12.6531 35.5518C12.6531 35.5518 7.82608 41.6909 12.8733 46.1701" stroke="#EB9D00" stroke-linecap="round" stroke-linejoin="round"/>
<path d="M39.4746 38.4236C39.4746 38.4236 32.9828 37.3433 31.5734 38.0371C30.1641 38.731 27.777 40.5578 27.8563 44.3695C27.9356 48.1812 25.4164 44.4222 22.0868 46.1699C19.5676 47.4874 19.6821 49.077 19.8935 49.7709C19.9551 49.9816 20.1577 50.1222 20.378 50.1134L40.5051 49.8411C40.5051 49.8411 44.9005 49.0595 45.5788 41.4097C45.5788 41.4097 45.6933 40.8476 44.1518 39.0296C43.7907 38.5992 43.3591 38.2392 42.8746 37.9493C41.4212 37.0886 37.9331 34.7963 37.9507 32.6885" stroke="#EB9D00" stroke-linecap="round" stroke-linejoin="round"/>
<path d="M36.8056 39.8554C36.8056 39.8554 31.2299 37.8442 30.0408 42.9382" stroke="#EB9D00" stroke-linecap="round" stroke-linejoin="round"/>
<path d="M25.0551 26.4177C25.0551 26.7251 24.5266 26.971 23.866 26.971C23.2054 26.971 22.8442 26.8393 22.8442 26.5319C22.8442 26.2245 23.179 25.9347 23.866 25.8644C24.5178 25.7941 25.0551 26.1103 25.0551 26.4177Z" fill="#EB9D00" stroke="#EB9D00" stroke-miterlimit="10"/>
<path d="M20.325 38.942C20.325 39.144 20.0608 39.1704 19.6644 39.1704C19.268 39.1704 18.9597 39.0123 18.9597 38.8103C18.9597 38.6083 19.2768 38.4502 19.6644 38.4502C20.052 38.4502 20.325 38.74 20.325 38.942Z" fill="#EB9D00" stroke="#EB9D00" stroke-linecap="round" stroke-linejoin="round"/>
</svg>
