<svg width="321" height="70" viewBox="0 0 321 70" fill="none" xmlns="http://www.w3.org/2000/svg">
<path d="M79.5283 47.1724H92.0435V44.069H82.75C80.437 44.069 79.6522 42.9931 79.6522 40.8V33.269C79.6522 31.0759 80.437 30 82.75 30H112.241C113.274 30 113.77 30.4966 113.77 31.4483C113.77 32.4 113.274 32.8966 112.241 32.8966H90.5565C89.8956 32.8966 89.5652 33.1862 89.5652 33.7241V40.3448C89.5652 40.8828 89.8956 41.1724 90.5565 41.1724H103.402C104.022 41.1724 104.352 40.8828 104.352 40.3448C104.352 38.3172 106.004 36.8276 109.309 36.8276C112.613 36.8276 114.265 38.2759 114.265 40.7586V42.0414C114.265 43.4897 113.687 44.069 111.993 44.069H101.957V47.1724H114.472C115.504 47.1724 116 47.669 116 48.6207C116 49.5724 115.504 50.069 114.472 50.069H79.5283C78.4957 50.069 78 49.5724 78 48.6207C78 47.669 78.4957 47.1724 79.5283 47.1724ZM106.238 66H87.6514C81.7036 66 79.2254 63.6414 79.2254 59.3793C79.2254 55.1172 81.7036 52.7586 87.6514 52.7586H106.238C112.186 52.7586 114.664 55.1172 114.664 59.3793C114.664 63.6414 112.186 66 106.238 66ZM100.346 55.6552H93.5717C90.3087 55.6552 89.1522 56.8966 89.1522 59.3793C89.1522 61.8621 90.3087 63.1034 93.5717 63.1034H100.346C103.609 63.1034 104.765 61.8621 104.765 59.3793C104.765 56.8966 103.609 55.6552 100.346 55.6552Z" fill="white"/>
<path d="M120.528 45.3103H155.472C156.504 45.3103 157 45.8069 157 46.7586C157 47.7103 156.504 48.2069 155.472 48.2069H142.957V51.1034H152.167C154.48 51.1034 155.265 52.1793 155.265 54.3724V56.3172C155.265 58.5103 154.48 59.5862 152.167 59.5862H131.557C130.896 59.5862 130.565 59.8759 130.565 60.4138V62.2759C130.565 62.8138 130.896 63.1034 131.557 63.1034H144.98C145.228 63.1034 145.352 62.9793 145.352 62.6897C145.352 61.3241 146.798 60.4138 150.309 60.4138C153.82 60.4138 155.265 61.3241 155.265 63.1034V63.9724C155.265 65.4207 154.687 66 152.993 66H123.75C121.437 66 120.652 64.9241 120.652 62.731V59.9586C120.652 57.7655 121.437 56.6897 123.75 56.6897H144.361C145.022 56.6897 145.352 56.4 145.352 55.8621V54.8276C145.352 54.2897 145.022 54 144.361 54H122.18C121.148 54 120.652 53.5034 120.652 52.5517C120.652 51.6 121.148 51.1034 122.18 51.1034H133.043V48.2069H120.528C119.496 48.2069 119 47.7103 119 46.7586C119 45.8069 119.496 45.3103 120.528 45.3103ZM123.75 42.4138C121.437 42.4138 120.652 41.3379 120.652 39.1448V33.269C120.652 31.0759 121.437 30 123.75 30H152.167C154.48 30 155.265 31.0759 155.265 33.269V39.1448C155.265 41.3379 154.48 42.4138 152.167 42.4138H123.75ZM130.565 38.6897C130.565 39.2276 130.896 39.5172 131.557 39.5172H144.361C145.022 39.5172 145.352 39.2276 145.352 38.6897V33.7241C145.352 33.1862 145.022 32.8966 144.361 32.8966H131.557C130.896 32.8966 130.565 33.1862 130.565 33.7241V38.6897Z" fill="white"/>
<path d="M177.315 61.1952C175.622 61.1952 175.043 60.6286 175.043 59.2119V52.8571H165.75C163.437 52.8571 162.652 51.8048 162.652 49.6595V35.4524C162.652 32.4976 164.304 31 167.609 31C170.913 31 172.565 32.4976 172.565 35.4524V39.9048H187.352V35.4524C187.352 32.4976 189.004 31 192.309 31C195.613 31 197.265 32.4976 197.265 35.4524V49.6595C197.265 51.8048 196.48 52.8571 194.167 52.8571H184.957V57.1476C184.957 58.119 185.246 58.3619 186.361 58.3619H195.035C197.843 58.3619 199 59.4143 199 61.681C199 63.9476 197.843 65 195.035 65H162.528C161.496 65 161 64.5143 161 63.5833C161 62.6524 161.496 62.1667 162.528 62.1667H195.407C195.861 62.1667 196.109 62.0048 196.109 61.681C196.109 61.3571 195.861 61.1952 195.407 61.1952H177.315ZM187.352 42.7381H172.565V49.2143C172.565 49.7405 172.896 50.0238 173.557 50.0238H186.361C187.022 50.0238 187.352 49.7405 187.352 49.2143V42.7381Z" fill="white"/>
<path d="M213.524 54.3189C206.213 54.3189 203.652 51.0735 203.652 46.5135C203.652 41.9535 206.213 38.7081 213.524 38.7081H228.393C235.704 38.7081 238.265 41.9535 238.265 46.5135C238.265 51.0735 235.704 54.3189 228.393 54.3189H225.957V57.0303C225.957 58.0162 226.246 58.2627 227.361 58.2627H236.035C238.843 58.2627 240 59.3308 240 61.6314C240 63.9319 238.843 65 236.035 65H203.528C202.496 65 202 64.507 202 63.5622C202 62.6173 202.496 62.1243 203.528 62.1243H236.407C236.861 62.1243 237.109 61.96 237.109 61.6314C237.109 61.3027 236.861 61.1384 236.407 61.1384H218.315C216.622 61.1384 216.043 60.5632 216.043 59.1254V54.3189H213.524ZM235.98 34.7643C236.434 34.7643 236.682 34.6 236.682 34.2714C236.682 33.9427 236.434 33.7784 235.98 33.7784H218.301C216.608 33.7784 216.03 33.2032 216.03 31.7654V30.2865C216.03 28.1092 218.054 27 220.986 27C223.919 27 225.943 28.1092 225.943 30.2865V30.4919C225.943 31.0259 226.273 31.3135 226.934 31.3135H235.815C238.623 31.3135 239.573 32.3405 239.573 34.2714C239.573 36.2022 238.623 37.2292 235.815 37.2292H203.804C202.854 37.2292 202.399 36.8184 202.399 35.9968C202.399 35.1751 202.854 34.7643 203.804 34.7643H235.98ZM219.183 51.4432H222.735C226.741 51.4432 228.352 49.5946 228.352 46.5135C228.352 43.4324 226.741 41.5838 222.735 41.5838H219.183C215.176 41.5838 213.565 43.4324 213.565 46.5135C213.565 49.5946 215.176 51.4432 219.183 51.4432Z" fill="white"/>
<path d="M251.009 35.0889V48.7079C251.009 50.8952 250.437 51.5556 248.148 51.5556H245.86C243.572 51.5556 243 50.8952 243 48.7079V40.7016C243 34.8825 244.308 32.0762 247.249 30.8794V30.5079C247.249 28.3206 248.598 27 252.153 27C255.708 27 257.056 28.3206 257.056 30.5079V30.8794C259.712 31.9937 261.101 34.5111 261.265 39.5873H263.43V32.9841C263.43 30.054 264.819 28.8571 267.434 28.8571C270.049 28.8571 271.439 30.054 271.439 32.9841V53.6603C271.439 55.8476 270.867 56.5079 268.578 56.5079H266.29C264.002 56.5079 263.43 55.8476 263.43 53.6603V42.4762H261.305V48.7079C261.305 50.8952 260.733 51.5556 258.445 51.5556H256.157C253.869 51.5556 253.297 50.8952 253.297 48.7079V35.0889C253.297 33.3968 252.929 32.9841 252.153 32.9841C251.376 32.9841 251.009 33.3968 251.009 35.0889ZM254.441 62.2857C254.441 62.8222 254.768 63.1111 255.422 63.1111H270.417C270.948 63.1111 271.194 62.8222 271.194 62.2857C271.194 60.2635 272.828 58.7778 276.097 58.7778C279.366 58.7778 281 60.2222 281 62.6984V63.9778C281 65.4222 280.428 66 278.753 66H247.699C245.411 66 244.634 64.927 244.634 62.7397V58.1587C244.634 55.146 246.269 53.619 249.538 53.619C252.806 53.619 254.441 55.146 254.441 58.1587V62.2857ZM281 53.6603C281 55.8476 280.428 56.5079 278.14 56.5079H275.852C273.563 56.5079 272.991 55.8476 272.991 53.6603V32.9841C272.991 30.054 274.381 28.8571 276.996 28.8571C279.611 28.8571 281 30.054 281 32.9841V53.6603Z" fill="white"/>
<path d="M297.626 59.8333C298.23 59.8333 298.552 59.5456 298.552 59.0111C298.552 56.9967 300.161 55.5167 303.379 55.5167C306.598 55.5167 308.207 56.9556 308.207 59.4222V60.6967C308.207 62.1356 307.644 62.7111 305.994 62.7111H289.017C286.764 62.7111 286 61.6422 286 59.4633V34.3033C286 32.1244 286.764 31.0556 289.017 31.0556H305.753C306.759 31.0556 307.241 31.5489 307.241 32.4944C307.241 33.44 306.759 33.9333 305.753 33.9333H296.621C295.977 33.9333 295.655 34.2211 295.655 34.7556V45.4444H303.339C304.345 45.4444 304.828 45.9378 304.828 46.8833C304.828 47.8289 304.345 48.3222 303.339 48.3222H295.655V59.0111C295.655 59.5456 295.977 59.8333 296.621 59.8333H297.626ZM321 62.7522C321 64.9311 320.236 66 317.983 66H314.362C312.109 66 311.345 64.9311 311.345 62.7522V48.3222H307.282C306.276 48.3222 305.793 47.8289 305.793 46.8833C305.793 45.9378 306.276 45.4444 307.282 45.4444H311.345V33.5222C311.345 30.5211 312.954 29 316.172 29C319.391 29 321 30.5211 321 33.5222V62.7522Z" fill="white"/>
<path d="M4.67691 18.1296C4.67691 18.1296 -0.491347 23.3559 1.42689 32.6389C3.34514 41.922 8.5867 41.6905 12.0444 40.7768C15.5021 39.8631 17.8969 37.0977 18.129 33.7963C18.3612 30.4948 14.8179 16.9114 7.12053 17.0697C7.12053 17.0697 5.49552 17.3012 4.67691 18.1418C4.67691 18.1174 4.65247 18.1662 4.67691 18.1418V18.1296Z" fill="#FFB7C3"/>
<path d="M4.67691 18.1418C5.49552 17.3012 7.12053 17.0697 7.12053 17.0697C14.8179 16.9114 18.3612 30.4948 18.129 33.7963C17.8969 37.0977 15.5021 39.8631 12.0444 40.7768C8.5867 41.6905 3.34514 41.922 1.42689 32.6389C-0.491347 23.3559 4.67691 18.1296 4.67691 18.1296V18.1418ZM4.67691 18.1418C4.65247 18.1662 4.67691 18.1174 4.67691 18.1418Z" stroke="#1D1D1D" stroke-linecap="round" stroke-linejoin="round"/>
<path d="M20.4017 2.07323C20.4017 2.07323 15.2212 7.29951 17.1517 16.5826C19.0821 25.8656 24.3115 25.6341 27.7692 24.7204C31.2269 23.8068 33.6217 21.0413 33.8538 17.7399C34.086 14.4384 30.5427 0.854981 22.8453 1.00117C22.8453 1.00117 21.2203 1.23264 20.4017 2.07323C20.4017 2.04886 20.3773 2.09759 20.4017 2.07323Z" fill="#FFB7C3"/>
<path d="M20.4017 2.07323C20.4017 2.07323 15.2212 7.29951 17.1517 16.5826C19.0821 25.8656 24.3115 25.6341 27.7692 24.7204C31.2269 23.8068 33.6217 21.0413 33.8538 17.7399C34.086 14.4384 30.5427 0.854981 22.8453 1.00117C22.8453 1.00117 21.2203 1.23264 20.4017 2.07323ZM20.4017 2.07323C20.3773 2.09759 20.4017 2.04886 20.4017 2.07323Z" stroke="#1D1D1D" stroke-linecap="round" stroke-linejoin="round"/>
<path d="M48.3688 2.54842C48.3688 2.54842 41.1601 4.05904 37.6291 12.867C34.098 21.6749 38.5943 24.3551 41.9909 25.488C45.3876 26.621 48.9064 25.6342 50.9224 23.0028C52.9383 20.3714 57.4957 7.10466 50.9957 2.99917C50.9957 2.99917 49.5173 2.30477 48.3688 2.54842C48.3932 2.52405 48.3443 2.54842 48.3688 2.54842Z" fill="#FFB7C3"/>
<path d="M48.3688 2.54842C48.3688 2.54842 41.1601 4.05904 37.6291 12.867C34.098 21.6749 38.5943 24.3551 41.9909 25.488C45.3876 26.621 48.9064 25.6342 50.9224 23.0028C52.9383 20.3714 57.4957 7.10466 50.9957 2.99917C50.9957 2.99917 49.5173 2.30477 48.3688 2.54842ZM48.3688 2.54842C48.3443 2.54842 48.3932 2.52405 48.3688 2.54842Z" stroke="#1D1D1D" stroke-linecap="round" stroke-linejoin="round"/>
<path d="M64.0936 20.103C64.0936 20.103 57.6058 21.4675 54.4169 29.3983C51.2402 37.329 55.2844 39.7412 58.3511 40.7645C61.4179 41.7878 64.5823 40.8985 66.4028 38.5229C68.2233 36.1473 72.3286 24.1963 66.4639 20.505C66.4639 20.505 65.1322 19.8837 64.0936 20.103C64.1181 20.0787 64.0692 20.103 64.0936 20.103Z" fill="#FFB7C3"/>
<path d="M64.0936 20.103C64.0936 20.103 57.6058 21.4675 54.4169 29.3983C51.2402 37.329 55.2844 39.7412 58.3511 40.7645C61.4179 41.7878 64.5823 40.8985 66.4028 38.5229C68.2233 36.1473 72.3286 24.1963 66.4639 20.505C66.4639 20.505 65.1322 19.8837 64.0936 20.103ZM64.0936 20.103C64.0692 20.103 64.1181 20.0787 64.0936 20.103Z" stroke="#1D1D1D" stroke-linecap="round" stroke-linejoin="round"/>
<path d="M26.914 5.65497C26.914 5.65497 24.7514 2.6459 22.6011 3.20629C20.4507 3.76669 19.7176 8.17674 19.5221 11.4051C19.29 15.2182 20.3163 18.8486 21.1838 19.9206C22.0512 20.9927 22.7477 21.5287 22.7477 21.5287" stroke="#1D1D1D" stroke-linecap="round" stroke-linejoin="round"/>
<path d="M11.7626 21.1508C11.7626 21.1508 9.28236 18.7022 7.13198 19.2626C4.98159 19.8229 3.58873 24.2208 3.84531 27.4492C4.10189 30.6775 4.77389 35.0145 5.64137 36.0987C6.50886 37.183 7.16863 37.8043 7.16863 37.8043" fill="#FFB7C3"/>
<path d="M11.7626 21.1508C11.7626 21.1508 9.28236 18.7022 7.13198 19.2626C4.98159 19.8229 3.58873 24.2208 3.84531 27.4492C4.10189 30.6775 4.77389 35.0145 5.64137 36.0987C6.50886 37.183 7.16863 37.8043 7.16863 37.8043" stroke="#1D1D1D" stroke-linecap="round" stroke-linejoin="round"/>
<path d="M52.804 8.49341C52.804 8.49341 52.3886 5.81327 50.0672 5.05795C47.7457 4.30264 43.8482 7.531 42.1621 10.6497C40.476 13.7684 38.4966 18.1663 38.6555 19.6769C38.8143 21.1876 39.6207 22.0038 39.6207 22.0038" stroke="#1D1D1D" stroke-linecap="round" stroke-linejoin="round"/>
<path d="M58.4117 37.9142C58.4117 37.9142 57.4342 38.1457 56.1757 36.4888C54.9173 34.832 56.2491 31.1407 57.984 28.6311C59.8534 25.9388 63.079 23.5145 64.3374 23.2221C65.5959 22.9297 65.4493 24.6962 65.4493 24.6962" stroke="#1D1D1D" stroke-linecap="round" stroke-linejoin="round"/>
<path d="M21.3302 38.8157C21.037 38.8767 20.8171 39.1081 20.7927 39.4127C20.6583 40.7162 20.4994 43.9567 21.9778 45.5161C23.8594 47.514 30.5916 45.1384 33.3284 47.3191C36.0653 49.4998 38.7533 50.6937 38.5944 53.1058C38.4356 55.5179 38.6311 53.9464 38.6311 53.9464C38.6311 53.9464 39.4375 49.1099 42.602 49.5729C45.7664 50.0358 49.3219 50.1089 49.7007 44.7364C50.0794 39.364 50.0061 34.1864 46.8905 32.0423C43.7749 29.8982 40.1217 27.4373 32.803 28.5946C25.4966 29.7398 30.9215 31.3235 28.9543 34.0768C27.256 36.4645 22.8209 38.4868 21.3058 38.8157H21.3302Z" fill="#FFC76D" stroke="#1D1D1D" stroke-linecap="round" stroke-linejoin="round"/>
<path d="M31.2387 33.0413C31.2387 33.0413 30.811 31.5063 32.7048 30.8606C34.5986 30.2149 38.2396 30.5926 38.7039 30.8606" stroke="#1D1D1D" stroke-linecap="round" stroke-linejoin="round"/>
<path d="M41.7093 32.3105C41.7093 32.3105 39.0946 41.5205 40.2065 44.8585C41.3183 48.1965 43.9086 49.8046 44.7883 49.768" stroke="#1D1D1D" stroke-linecap="round" stroke-linejoin="round"/>
<path d="M19.1179 42.3972C19.1179 42.3972 19.1179 47.6966 20.4619 48.1839C21.8059 48.6712 23.4676 47.3798 24.6894 47.989C25.9112 48.5981 29.5033 50.1696 29.9187 52.2041C29.9187 52.2041 32.9855 51.6437 33.5231 52.3259C33.5231 52.3259 34.9526 54.5066 34.9404 56.0416C34.9282 57.5766 34.5372 58.8801 33.6086 59.5745C32.68 60.2689 26.9131 61.2191 25.9967 63.3389C25.0804 65.4586 23.6875 65.6779 25.0682 69.1256C25.0682 69.1256 11.6771 66.8962 11.445 56.7725C11.2128 46.6489 19.0935 42.1901 19.1057 42.385L19.1179 42.3972Z" fill="#B4B4B4" stroke="#1D1D1D" stroke-linecap="round" stroke-linejoin="round"/>
<path d="M17.1637 48.9272C17.1637 48.9272 10.4682 57.4428 17.4691 63.6559" stroke="#1D1D1D" stroke-linecap="round" stroke-linejoin="round"/>
<path d="M54.367 52.9107C54.367 52.9107 45.3623 51.4123 43.4074 52.3747C41.4525 53.3371 38.1414 55.8711 38.2513 61.1583C38.3613 66.4455 34.8669 61.2314 30.2485 63.6557C26.7541 65.483 26.9129 67.6881 27.2062 68.6505C27.2917 68.9429 27.5727 69.1378 27.8782 69.1256L55.7965 68.7479C55.7965 68.7479 61.8934 67.6637 62.8342 57.0528C62.8342 57.0528 62.993 56.2731 60.8548 53.7513C60.3539 53.1544 59.7552 52.6549 59.0832 52.2529C57.0672 51.059 52.2288 47.8794 52.2533 44.9556" fill="#FFC76D"/>
<path d="M54.367 52.9107C54.367 52.9107 45.3623 51.4123 43.4074 52.3747C41.4525 53.3371 38.1414 55.8711 38.2513 61.1583C38.3613 66.4455 34.8669 61.2314 30.2485 63.6557C26.7541 65.483 26.9129 67.6881 27.2062 68.6505C27.2917 68.9429 27.5727 69.1378 27.8782 69.1256L55.7965 68.7479C55.7965 68.7479 61.8934 67.6637 62.8342 57.0528C62.8342 57.0528 62.993 56.2731 60.8548 53.7513C60.3539 53.1544 59.7552 52.6549 59.0832 52.2529C57.0672 51.059 52.2288 47.8794 52.2533 44.9556" stroke="#1D1D1D" stroke-linecap="round" stroke-linejoin="round"/>
<path d="M50.6652 54.8967C50.6652 54.8967 42.9312 52.1069 41.2817 59.1727" stroke="#1D1D1D" stroke-linecap="round" stroke-linejoin="round"/>
<path d="M34.3665 36.2573C34.3665 36.6837 33.6335 37.0248 32.7171 37.0248C31.8007 37.0248 31.2998 36.8421 31.2998 36.4157C31.2998 35.9893 31.7641 35.5873 32.7171 35.4898C33.6212 35.3923 34.3665 35.8309 34.3665 36.2573Z" fill="#1D1D1D" stroke="#1D1D1D" stroke-miterlimit="10"/>
<path d="M27.8054 53.6295C27.8054 53.9097 27.4389 53.9462 26.8891 53.9462C26.3393 53.9462 25.9116 53.7269 25.9116 53.4467C25.9116 53.1665 26.3515 52.9473 26.8891 52.9473C27.4267 52.9473 27.8054 53.3493 27.8054 53.6295Z" fill="#1D1D1D" stroke="#1D1D1D" stroke-linecap="round" stroke-linejoin="round"/>
</svg>
