<svg width="183" height="183" viewBox="0 0 183 183" fill="none" xmlns="http://www.w3.org/2000/svg">
<g style="mix-blend-mode:difference" clip-path="url(#clip0_114_399)">
<path d="M175.738 64.0864C175.772 64.1346 175.8 64.2861 175.834 64.534C175.862 64.8576 175.807 65.1055 175.669 65.2708C175.531 65.436 175.268 65.5669 174.875 65.6633C174.599 65.7459 174.398 65.8285 174.274 65.8974C173.895 66.1935 173.467 66.3725 172.997 66.4414C172.742 66.4689 172.583 66.5102 172.507 66.5515C172.452 66.5997 172.321 66.6411 172.107 66.6686C171.913 66.7099 171.741 66.7857 171.575 66.9027C171.43 66.9991 171.126 67.13 170.657 67.2952C170.298 67.4054 170.077 67.4674 169.987 67.4811C169.897 67.4949 169.753 67.4605 169.566 67.3779C169.242 67.247 169.028 67.1162 168.931 66.9922C168.834 66.8683 168.827 66.6961 168.917 66.4896C169.014 66.2623 169.055 66.0626 169.041 65.8767C169.028 65.6908 168.966 65.5669 168.855 65.5049C168.8 65.4636 168.627 65.3052 168.351 65.0229C167.944 64.5822 167.695 64.0313 167.606 63.3703C167.516 62.7092 167.606 62.1377 167.875 61.6625C168.11 61.2563 168.448 60.85 168.883 60.4506C169.318 60.0512 169.704 59.7827 170.042 59.6656C170.222 59.5899 170.374 59.4866 170.505 59.3695C170.636 59.2525 170.781 59.1767 170.933 59.1492C171.085 59.1216 171.209 59.0803 171.306 59.0184C171.402 58.9564 171.63 58.8806 171.996 58.798C172.348 58.7154 172.576 58.6396 172.686 58.5777C172.811 58.5157 172.983 58.5157 173.211 58.5639C173.529 58.6396 173.722 58.7223 173.784 58.8118C173.846 58.9013 173.86 59.101 173.825 59.4246C173.798 59.7276 173.687 59.9617 173.494 60.127C173.301 60.2923 172.99 60.4024 172.569 60.4644C171.313 60.6779 170.422 61.1668 169.904 61.938C169.78 62.1308 169.704 62.2272 169.663 62.241C169.532 62.2892 169.463 62.482 169.463 62.8194C169.463 63.1568 169.518 63.4804 169.642 63.7834C169.732 63.9969 169.849 64.1621 169.98 64.2723C170.118 64.3825 170.319 64.4789 170.602 64.5546C170.664 64.5615 170.767 64.5891 170.905 64.6304C171.043 64.6786 171.133 64.6992 171.161 64.7061C171.292 64.7474 171.61 64.6855 172.12 64.5271C172.624 64.3687 172.983 64.2861 173.19 64.293C173.384 64.2654 173.611 64.2172 173.86 64.1415C174.357 63.9762 174.709 63.8867 174.902 63.8592C175.096 63.8316 175.275 63.8523 175.427 63.9142C175.6 63.9831 175.703 64.0451 175.731 64.0933L175.738 64.0864Z" fill="white"/>
<path d="M177.519 69.8575C177.512 70.0021 177.546 70.1605 177.636 70.3395C177.726 70.5186 177.76 70.6838 177.753 70.8284C177.753 70.9799 177.76 71.1796 177.795 71.4344C177.829 71.6892 177.829 71.8751 177.802 71.9921C177.774 72.1092 177.753 72.2469 177.747 72.3846C177.726 72.7014 177.512 73.0939 177.111 73.5552C176.711 74.0166 176.338 74.3058 175.979 74.4229C175.745 74.5055 175.586 74.6019 175.517 74.7052C175.365 74.9118 175.103 75.0495 174.723 75.1183C174.343 75.1872 173.97 75.1597 173.618 75.0357C173.391 74.9669 173.19 74.9324 173.018 74.9462C172.541 74.96 172.038 74.6708 171.506 74.0786C171.382 73.9271 171.271 73.81 171.168 73.7343C171.05 73.6654 170.947 73.5277 170.857 73.3211C170.781 73.1283 170.615 72.8253 170.36 72.4191C170.174 72.123 170.056 71.9233 170.015 71.82C169.967 71.7167 169.918 71.5032 169.87 71.1727C169.856 71.1176 169.849 71.0488 169.842 70.9661C169.794 70.7114 169.704 70.5736 169.587 70.5599C169.463 70.5461 169.048 70.615 168.351 70.7733C168.123 70.8284 167.944 70.8697 167.806 70.9042C166.667 71.1796 166.059 71.3035 165.976 71.2829C165.942 71.2622 165.769 71.2691 165.452 71.3036C165.114 71.3311 164.886 71.2829 164.748 71.1727C164.616 71.0625 164.541 70.8491 164.52 70.5254C164.513 70.312 164.527 70.1674 164.575 70.0847C164.616 70.0021 164.72 69.9401 164.886 69.9057C165.017 69.8713 165.196 69.8093 165.417 69.7129C165.617 69.6096 165.818 69.5545 166.018 69.5476C166.204 69.5476 166.377 69.5063 166.542 69.4237C166.681 69.348 166.922 69.2791 167.26 69.2309C167.606 69.1896 167.882 69.1207 168.089 69.0312C168.31 68.9348 168.613 68.8384 169 68.7489C169.387 68.6525 169.677 68.6043 169.863 68.6043C170.077 68.6043 170.27 68.563 170.45 68.4597C170.629 68.377 170.781 68.3357 170.912 68.3495C171.009 68.3495 171.396 68.2737 172.072 68.1154C172.742 67.9501 173.094 67.8468 173.121 67.7986C173.156 67.778 173.253 67.7573 173.411 67.7504C173.819 67.7229 174.219 67.5714 174.619 67.2891C174.937 67.0687 175.303 67.0136 175.724 67.11C176.145 67.2064 176.394 67.3992 176.463 67.6953C176.49 67.8055 176.566 67.9708 176.704 68.198C176.835 68.4252 176.939 68.5767 177.015 68.6456C177.105 68.7351 177.201 68.8453 177.291 68.983C177.464 69.2378 177.553 69.5201 177.539 69.8368L177.519 69.8575ZM175.772 70.2362C175.696 70.1674 175.62 69.9952 175.538 69.7198C175.475 69.5201 175.427 69.403 175.399 69.3617C175.365 69.3204 175.31 69.286 175.22 69.2653C175.082 69.2171 174.799 69.2378 174.378 69.3411C173.957 69.4444 173.653 69.5545 173.467 69.6647C173.328 69.7404 173.239 69.7818 173.197 69.7955C173.156 69.8024 173.08 69.7955 172.956 69.768C172.831 69.7267 172.631 69.7404 172.355 69.8093C172.079 69.8782 171.872 69.9608 171.727 70.071C171.547 70.2018 171.465 70.4015 171.478 70.6838C171.492 70.9661 171.603 71.276 171.803 71.6272C172.086 72.0817 172.3 72.3778 172.445 72.5017C172.59 72.6325 172.976 72.8667 173.598 73.2109C173.729 73.2936 173.839 73.3624 173.929 73.4313C173.984 73.4726 174.129 73.4588 174.364 73.39C174.978 73.1696 175.386 72.9355 175.586 72.6807C175.786 72.426 175.903 71.999 175.945 71.3931C175.979 70.8353 175.924 70.4497 175.772 70.2431V70.2362Z" fill="white"/>
<path d="M183 85.035C183 85.0832 182.959 85.2072 182.855 85.4069C182.738 85.6892 182.524 85.8958 182.227 86.0128C181.93 86.1299 181.633 86.1437 181.336 86.0335C181.039 85.944 180.798 86.006 180.605 86.2332C180.411 86.4604 180.308 86.7909 180.294 87.2385C180.287 87.5277 180.266 87.7412 180.232 87.8858C180.197 88.0373 180.19 88.1888 180.197 88.3403C180.218 88.6983 180.101 88.9531 179.838 89.0977C179.576 89.2423 179.258 89.2423 178.872 89.0839C178.685 89.0013 178.568 88.9049 178.513 88.7947C178.458 88.6846 178.437 88.4918 178.444 88.1957C178.444 87.7963 178.416 87.3969 178.361 86.9975C178.299 86.5981 178.237 86.3847 178.168 86.3502C178.126 86.3089 177.933 86.302 177.588 86.3227C177.243 86.3434 176.98 86.3778 176.808 86.4329C176.656 86.4673 176.483 86.4535 176.283 86.3847C175.972 86.2676 175.613 86.2745 175.206 86.4122C174.992 86.4811 174.654 86.5362 174.198 86.5913C173.743 86.6395 173.432 86.6532 173.266 86.6395C173.114 86.605 172.942 86.5224 172.755 86.3916C172.569 86.2607 172.438 86.123 172.355 85.9922C172.279 85.8613 172.3 85.6617 172.41 85.4C172.521 85.1383 172.659 85.0006 172.811 84.9937C172.88 84.9937 172.99 84.9455 173.135 84.8698C173.591 84.677 173.943 84.6012 174.178 84.6425C174.357 84.6701 174.999 84.6425 176.104 84.5668C176.228 84.5599 176.532 84.553 177.015 84.553C177.553 84.553 177.871 84.4842 177.961 84.374C178.05 84.2569 178.092 83.8989 178.078 83.2929C178.064 82.7971 178.181 82.4528 178.43 82.2669C178.678 82.081 179.017 82.0741 179.445 82.2531C179.659 82.3495 179.79 82.4528 179.845 82.5699C179.9 82.6869 179.942 82.9555 179.969 83.3824C179.969 83.41 179.969 83.4513 179.976 83.5064C179.997 83.892 180.059 84.1192 180.156 84.1881C180.252 84.2569 180.584 84.2914 181.15 84.2845C181.219 84.2845 181.267 84.2845 181.295 84.2982C181.889 84.2914 182.261 84.3051 182.42 84.3533C182.572 84.4015 182.724 84.5255 182.862 84.7389C182.952 84.8973 183 85.0006 183.007 85.0488L183 85.035Z" fill="white"/>
<path d="M180.094 93.3871C180.156 93.4972 180.183 93.7038 180.17 94.0068C180.156 94.3098 180.114 94.5921 180.032 94.8469C179.956 95.0948 179.907 95.3289 179.9 95.563C179.893 95.7696 179.831 95.9968 179.728 96.2378C179.624 96.4788 179.514 96.6441 179.396 96.7198C178.913 97.0848 178.513 97.4015 178.195 97.6632C178.112 97.7114 178.002 97.8285 177.871 98.0006C177.622 98.3311 177.332 98.5171 177.001 98.5446C176.863 98.5446 176.718 98.5653 176.559 98.6272C176.338 98.703 176.124 98.6754 175.917 98.5584C175.779 98.4826 175.669 98.4413 175.572 98.4413C175.475 98.4413 175.337 98.3931 175.165 98.2967C174.73 98.0557 174.364 97.918 174.06 97.8767C173.895 97.8422 173.75 97.7596 173.625 97.6288C173.501 97.4979 173.301 97.2225 173.025 96.7956C172.673 96.2309 172.472 95.7351 172.41 95.3151C172.355 94.8951 172.41 94.3717 172.59 93.7589C172.652 93.5661 172.707 93.3113 172.749 92.9808C172.776 92.6916 172.859 92.4506 173.004 92.2647C173.121 92.1063 173.218 91.9479 173.294 91.8033C173.349 91.7207 173.46 91.6105 173.611 91.4659C173.763 91.3213 173.86 91.2455 173.901 91.2524C173.929 91.2524 174.074 91.1422 174.329 90.915C174.516 90.7566 174.654 90.6533 174.744 90.612C174.833 90.5707 175.061 90.5087 175.427 90.4468C175.786 90.3779 176.2 90.4192 176.663 90.5569C176.953 90.6396 177.181 90.6809 177.36 90.6878C177.539 90.7084 177.705 90.7429 177.85 90.7911C177.988 90.853 178.133 90.915 178.299 90.977C178.568 91.0734 178.754 91.2593 178.858 91.5347C178.893 91.6449 178.968 91.7551 179.072 91.8515C179.162 91.9479 179.224 92.0581 179.245 92.1683C179.251 92.2647 179.383 92.4643 179.638 92.7604C179.873 93.0428 180.025 93.2425 180.087 93.3595L180.094 93.3871ZM178.375 94.0412C178.299 93.6212 178.175 93.2838 177.995 93.0152C177.933 92.9188 177.871 92.8568 177.829 92.8293C177.781 92.8086 177.671 92.7811 177.491 92.7467C177.353 92.7122 177.229 92.664 177.105 92.5883C176.932 92.4575 176.801 92.3748 176.718 92.3473C176.635 92.3197 176.476 92.2991 176.242 92.2853C175.689 92.2647 175.192 92.4643 174.744 92.8844C174.295 93.3044 174.115 93.7382 174.191 94.1858C174.233 94.4337 174.253 94.6334 174.247 94.7918C174.253 94.9295 174.281 95.0397 174.329 95.1223C174.371 95.2049 174.392 95.3495 174.385 95.5561C174.371 95.9417 174.502 96.1896 174.792 96.2998C174.93 96.348 175.047 96.4169 175.158 96.5133C175.268 96.6097 175.496 96.6716 175.855 96.7198C176.925 96.8438 177.595 96.527 177.864 95.7696C177.926 95.5905 178.002 95.4459 178.092 95.322C178.195 95.2049 178.271 95.0879 178.333 94.9777C178.437 94.778 178.458 94.4681 178.382 94.0481L178.375 94.0412Z" fill="white"/>
<path d="M181.102 110.513C181.088 110.561 181.012 110.664 180.86 110.829C180.667 111.07 180.404 111.201 180.087 111.243C179.769 111.284 179.479 111.201 179.224 111.015C178.962 110.843 178.713 110.843 178.464 111.002C178.216 111.167 178.023 111.456 177.885 111.876C177.795 112.152 177.712 112.351 177.643 112.482C177.567 112.62 177.519 112.764 177.484 112.909C177.408 113.26 177.222 113.467 176.932 113.536C176.642 113.604 176.331 113.508 176.007 113.253C175.855 113.122 175.765 112.992 175.745 112.875C175.724 112.758 175.751 112.558 175.848 112.282C175.965 111.897 176.048 111.511 176.097 111.112C176.152 110.712 176.145 110.485 176.097 110.43C176.062 110.382 175.883 110.32 175.544 110.244C175.206 110.168 174.944 110.134 174.764 110.134C174.612 110.134 174.447 110.065 174.274 109.941C174.005 109.741 173.66 109.652 173.232 109.666C173.004 109.666 172.666 109.638 172.217 109.556C171.768 109.48 171.465 109.404 171.313 109.342C171.175 109.266 171.03 109.142 170.892 108.963C170.747 108.784 170.657 108.619 170.622 108.468C170.588 108.316 170.657 108.13 170.843 107.917C171.03 107.696 171.195 107.6 171.34 107.634C171.409 107.648 171.52 107.634 171.685 107.607C172.182 107.545 172.535 107.572 172.755 107.676C172.921 107.758 173.542 107.91 174.626 108.137C174.751 108.165 175.04 108.24 175.51 108.378C176.028 108.523 176.345 108.55 176.469 108.461C176.587 108.371 176.725 108.041 176.884 107.455C177.008 106.973 177.215 106.677 177.505 106.567C177.802 106.457 178.126 106.546 178.485 106.836C178.665 106.987 178.761 107.125 178.782 107.249C178.803 107.373 178.768 107.641 178.672 108.061C178.672 108.089 178.658 108.13 178.644 108.185C178.561 108.564 178.554 108.798 178.623 108.888C178.692 108.977 179.003 109.101 179.548 109.253C179.617 109.266 179.659 109.287 179.686 109.308C180.259 109.466 180.611 109.583 180.749 109.673C180.888 109.762 180.991 109.927 181.067 110.168C181.108 110.347 181.129 110.458 181.115 110.506L181.102 110.513Z" fill="white"/>
<path d="M181.302 117.948C181.26 118.003 181.143 118.106 180.943 118.272C180.922 118.279 180.894 118.299 180.86 118.334C180.639 118.506 180.46 118.588 180.322 118.575C180.177 118.561 179.783 118.451 179.127 118.23C179.01 118.189 178.927 118.161 178.872 118.148C178.817 118.127 178.741 118.106 178.637 118.072C178.002 117.845 177.622 117.728 177.498 117.728C177.374 117.728 177.277 117.824 177.208 118.038C177.201 118.065 177.194 118.086 177.187 118.093C177.146 118.21 177.132 118.313 177.146 118.409C177.16 118.499 177.208 118.664 177.291 118.891C177.346 119.07 177.367 119.194 177.346 119.27C177.325 119.346 177.222 119.559 177.029 119.917C176.891 120.145 176.725 120.344 176.525 120.51C176.338 120.682 176.235 120.792 176.214 120.854C176.193 120.916 176.014 121.026 175.682 121.198C175.351 121.37 175.096 121.474 174.923 121.501C174.737 121.542 174.557 121.611 174.392 121.715C174.122 121.873 173.867 121.907 173.632 121.832C173.501 121.79 173.356 121.783 173.197 121.818C173.045 121.839 172.831 121.818 172.562 121.756C172.272 121.701 172.044 121.666 171.879 121.639C171.651 121.639 171.368 121.536 171.043 121.336C170.947 121.274 170.802 121.246 170.609 121.26C170.415 121.274 170.222 121.219 170.029 121.109C169.835 120.985 169.656 120.909 169.49 120.888C169.311 120.861 169.138 120.751 168.966 120.558C168.848 120.434 168.765 120.351 168.717 120.324C168.669 120.296 168.579 120.275 168.448 120.275C168.075 120.255 167.813 120.138 167.647 119.931C167.481 119.725 167.447 119.449 167.537 119.098C167.64 118.699 167.889 118.499 168.282 118.499C168.676 118.499 169.297 118.692 170.139 119.077C170.595 119.284 171.175 119.49 171.879 119.683C172.369 119.821 172.707 119.883 172.88 119.89C173.287 119.89 173.501 119.89 173.536 119.89C174.157 119.91 174.599 119.697 174.868 119.27C175.137 118.836 175.137 118.32 174.868 117.728C174.757 117.459 174.695 117.266 174.688 117.163C174.612 116.777 174.26 116.426 173.625 116.109C173.384 115.999 173.204 115.896 173.073 115.793C172.852 115.621 172.659 115.545 172.493 115.579C172.403 115.593 172.148 115.524 171.734 115.373C171.299 115.228 170.995 115.145 170.809 115.132C170.615 115.111 170.422 115.021 170.243 114.877C170.042 114.739 169.877 114.643 169.746 114.601C169.601 114.553 169.476 114.422 169.373 114.216C169.269 114.009 169.242 113.83 169.29 113.686C169.428 113.279 169.69 113.066 170.084 113.038C170.477 113.011 171.099 113.162 171.955 113.486C172.424 113.658 173.142 113.906 174.122 114.243C175.103 114.581 175.676 114.76 175.841 114.787C176.021 114.815 176.207 114.911 176.407 115.063C176.642 115.228 177.319 115.552 178.444 116.027C179.562 116.502 180.28 116.771 180.577 116.826C180.701 116.853 180.846 116.97 181.012 117.177C181.184 117.383 181.281 117.576 181.316 117.748C181.343 117.845 181.336 117.92 181.295 117.969L181.302 117.948Z" fill="white"/>
<path d="M172.224 127.52C172.203 127.562 172.134 127.665 172.017 127.823C171.872 128.044 171.609 128.347 171.23 128.725C170.85 129.104 170.588 129.331 170.45 129.407C170.45 129.421 170.305 129.49 170.029 129.627C169.863 129.717 169.78 129.779 169.766 129.8C169.753 129.827 169.587 129.861 169.269 129.917C168.952 129.972 168.731 129.985 168.62 129.965C168.503 129.958 168.254 129.868 167.882 129.696C167.557 129.545 167.343 129.428 167.247 129.338C167.15 129.249 167.081 129.111 167.046 128.932C167.012 128.753 166.97 128.608 166.943 128.519C166.901 128.381 166.929 128.133 167.026 127.789C167.122 127.438 167.233 127.21 167.343 127.093C167.461 126.997 167.537 126.866 167.571 126.694C167.606 126.515 167.709 126.212 167.868 125.799C168.027 125.379 168.144 125.131 168.206 125.055C168.261 124.959 168.344 124.876 168.441 124.8C168.558 124.676 168.641 124.518 168.682 124.346C168.724 124.174 168.703 124.057 168.613 124.022C168.427 123.94 168.179 123.974 167.882 124.132C167.578 124.291 167.309 124.511 167.06 124.8C166.812 125.09 166.605 125.399 166.432 125.73C166.259 126.06 166.204 126.357 166.259 126.625C166.287 126.763 166.315 126.887 166.335 127.004C166.356 127.148 166.363 127.293 166.335 127.438C166.28 127.761 166.114 127.989 165.852 128.126C165.583 128.264 165.321 128.271 165.072 128.147C164.817 128.023 164.672 127.803 164.637 127.486C164.644 127.369 164.637 127.245 164.623 127.114C164.561 126.46 164.651 125.785 164.906 125.083C165.162 124.38 165.486 123.891 165.887 123.623C166.018 123.533 166.101 123.451 166.135 123.375C166.218 123.189 166.418 122.982 166.736 122.762C167.046 122.542 167.343 122.404 167.612 122.342C167.778 122.315 167.937 122.28 168.089 122.246C168.254 122.218 168.503 122.191 168.834 122.177C169.166 122.163 169.366 122.17 169.428 122.197C169.49 122.225 169.587 122.232 169.718 122.218C169.849 122.204 170.015 122.239 170.229 122.342C170.457 122.445 170.795 122.714 171.251 123.148C171.333 123.23 171.43 123.306 171.534 123.368C171.651 123.451 171.824 123.685 172.065 124.077C172.307 124.463 172.41 124.69 172.383 124.752C172.369 124.78 172.396 124.876 172.452 125.055C172.528 125.351 172.541 125.558 172.479 125.682C172.452 125.744 172.452 125.902 172.486 126.164C172.514 126.405 172.486 126.611 172.403 126.783C172.321 126.956 172.272 127.114 172.252 127.259C172.245 127.403 172.231 127.5 172.21 127.548L172.224 127.52ZM170.926 125.737C170.926 125.475 170.905 125.324 170.864 125.275C170.823 125.227 170.795 125.117 170.767 124.938C170.74 124.67 170.629 124.532 170.429 124.532C170.325 124.532 170.243 124.573 170.181 124.656C170.118 124.738 170.036 124.931 169.925 125.234C169.545 126.26 169.138 127.073 168.696 127.672C168.558 127.865 168.607 128.016 168.834 128.119C169.173 128.271 169.594 128.099 170.105 127.589C170.65 127.066 170.926 126.446 170.933 125.737H170.926Z" fill="white"/>
<path d="M167.35 142.187C167.323 142.229 167.205 142.298 167.005 142.387C166.736 142.532 166.446 142.566 166.135 142.477C165.825 142.387 165.59 142.215 165.417 141.946C165.245 141.692 165.01 141.595 164.713 141.65C164.423 141.705 164.133 141.905 163.85 142.249C163.664 142.47 163.512 142.628 163.401 142.718C163.284 142.821 163.181 142.931 163.091 143.055C162.884 143.351 162.635 143.475 162.338 143.427C162.042 143.379 161.793 143.179 161.586 142.821C161.496 142.642 161.462 142.49 161.482 142.373C161.503 142.256 161.614 142.084 161.8 141.864C162.048 141.547 162.276 141.223 162.476 140.872C162.677 140.521 162.759 140.314 162.725 140.239C162.711 140.184 162.566 140.053 162.283 139.86C162 139.667 161.772 139.529 161.6 139.467C161.462 139.406 161.33 139.282 161.22 139.103C161.047 138.813 160.764 138.6 160.357 138.455C160.143 138.373 159.846 138.214 159.46 137.973C159.073 137.732 158.818 137.553 158.7 137.436C158.597 137.319 158.514 137.147 158.452 136.927C158.39 136.706 158.369 136.52 158.39 136.369C158.41 136.217 158.548 136.073 158.804 135.935C159.059 135.797 159.246 135.777 159.37 135.859C159.425 135.901 159.536 135.935 159.701 135.963C160.185 136.093 160.502 136.245 160.661 136.424C160.785 136.562 161.303 136.933 162.221 137.553C162.325 137.622 162.566 137.808 162.946 138.104C163.374 138.435 163.657 138.579 163.802 138.545C163.947 138.51 164.202 138.249 164.568 137.767C164.865 137.367 165.169 137.168 165.479 137.181C165.797 137.181 166.059 137.395 166.287 137.801C166.398 138.008 166.432 138.173 166.404 138.297C166.377 138.421 166.246 138.655 165.997 139.006C165.983 139.027 165.956 139.061 165.928 139.109C165.707 139.426 165.611 139.64 165.645 139.757C165.673 139.867 165.914 140.101 166.363 140.445C166.418 140.487 166.453 140.514 166.473 140.542C166.943 140.9 167.226 141.148 167.323 141.278C167.419 141.409 167.454 141.602 167.426 141.85C167.398 142.036 167.371 142.146 167.343 142.187H167.35Z" fill="white"/>
<path d="M159.888 146.953C159.867 147.084 159.757 147.263 159.563 147.49C159.363 147.717 159.156 147.91 158.928 148.069C158.714 148.213 158.528 148.372 158.376 148.551C158.238 148.709 158.058 148.847 157.824 148.971C157.589 149.095 157.403 149.157 157.264 149.143C156.657 149.129 156.146 149.129 155.739 149.143C155.642 149.129 155.483 149.15 155.276 149.205C154.876 149.315 154.531 149.274 154.255 149.095C154.151 149.005 154.02 148.936 153.854 148.888C153.633 148.805 153.481 148.661 153.392 148.44C153.33 148.296 153.267 148.199 153.192 148.131C153.116 148.069 153.04 147.945 152.957 147.766C152.763 147.311 152.563 146.974 152.349 146.76C152.239 146.629 152.177 146.478 152.163 146.299C152.142 146.12 152.163 145.782 152.211 145.28C152.287 144.619 152.432 144.102 152.653 143.737C152.867 143.365 153.24 143.001 153.758 142.629C153.923 142.519 154.13 142.346 154.365 142.112C154.565 141.899 154.779 141.768 155.007 141.713C155.2 141.658 155.373 141.596 155.525 141.527C155.621 141.499 155.773 141.479 155.98 141.458C156.188 141.437 156.312 141.437 156.339 141.465C156.36 141.486 156.54 141.486 156.885 141.465C157.126 141.458 157.299 141.465 157.403 141.486C157.499 141.506 157.713 141.603 158.045 141.775C158.369 141.947 158.673 142.229 158.949 142.629C159.121 142.87 159.28 143.049 159.418 143.166C159.543 143.29 159.653 143.421 159.743 143.551C159.812 143.682 159.888 143.82 159.977 143.971C160.136 144.212 160.164 144.474 160.067 144.756C160.026 144.867 160.019 144.997 160.04 145.142C160.046 145.28 160.033 145.397 159.977 145.5C159.922 145.583 159.902 145.817 159.915 146.209C159.922 146.581 159.915 146.829 159.902 146.96L159.888 146.953ZM158.134 146.402C158.334 146.03 158.452 145.686 158.473 145.356C158.479 145.238 158.473 145.156 158.452 145.108C158.431 145.059 158.355 144.97 158.238 144.832C158.155 144.722 158.086 144.598 158.031 144.467C157.975 144.254 157.927 144.116 157.879 144.04C157.837 143.965 157.72 143.854 157.547 143.703C157.126 143.345 156.616 143.193 156.001 143.248C155.387 143.304 154.973 143.531 154.759 143.93C154.641 144.157 154.531 144.323 154.427 144.44C154.344 144.55 154.296 144.66 154.282 144.75C154.262 144.846 154.186 144.97 154.054 145.128C153.806 145.417 153.758 145.7 153.909 145.961C153.985 146.085 154.041 146.209 154.061 146.354C154.089 146.492 154.227 146.691 154.482 146.946C155.249 147.71 155.967 147.876 156.65 147.442C156.809 147.339 156.961 147.27 157.106 147.228C157.258 147.194 157.396 147.16 157.506 147.111C157.713 147.015 157.92 146.781 158.12 146.409L158.134 146.402Z" fill="white"/>
<path d="M152.922 154.369C152.791 154.431 152.674 154.548 152.563 154.707C152.453 154.872 152.329 154.982 152.19 155.051C152.059 155.12 151.887 155.23 151.68 155.388C151.473 155.54 151.314 155.636 151.196 155.671C151.079 155.705 150.955 155.753 150.824 155.822C150.534 155.96 150.092 155.967 149.491 155.856C148.891 155.739 148.449 155.553 148.173 155.306C147.979 155.14 147.821 155.058 147.696 155.044C147.441 155.016 147.192 154.858 146.944 154.562C146.695 154.266 146.537 153.935 146.468 153.563C146.419 153.329 146.343 153.143 146.254 152.999C146.005 152.593 146.005 152.014 146.261 151.264C146.336 151.078 146.378 150.926 146.392 150.802C146.392 150.664 146.468 150.506 146.599 150.327C146.73 150.162 146.909 149.873 147.137 149.453C147.303 149.143 147.42 148.95 147.482 148.853C147.551 148.764 147.71 148.612 147.973 148.406C148.014 148.371 148.069 148.323 148.138 148.282C148.338 148.11 148.414 147.972 148.366 147.855C148.318 147.738 148.048 147.421 147.565 146.891C147.406 146.719 147.275 146.588 147.186 146.485C146.385 145.631 145.971 145.163 145.957 145.087C145.957 145.046 145.867 144.901 145.681 144.639C145.494 144.364 145.418 144.137 145.446 143.964C145.474 143.792 145.625 143.62 145.895 143.448C146.074 143.338 146.212 143.283 146.302 143.276C146.392 143.269 146.495 143.331 146.613 143.455C146.709 143.558 146.847 143.675 147.041 143.82C147.234 143.944 147.379 144.088 147.482 144.254C147.572 144.412 147.696 144.543 147.848 144.646C147.979 144.729 148.159 144.901 148.373 145.176C148.58 145.459 148.773 145.665 148.953 145.796C149.146 145.941 149.374 146.154 149.65 146.443C149.926 146.733 150.106 146.96 150.202 147.118C150.306 147.304 150.444 147.449 150.617 147.552C150.782 147.662 150.886 147.779 150.941 147.896C150.989 147.986 151.245 148.282 151.721 148.785C152.19 149.287 152.46 149.535 152.515 149.542C152.556 149.563 152.612 149.638 152.701 149.769C152.922 150.107 153.26 150.382 153.702 150.589C154.047 150.754 154.282 151.043 154.406 151.456C154.531 151.87 154.482 152.179 154.261 152.386C154.179 152.462 154.075 152.613 153.937 152.84C153.806 153.068 153.723 153.233 153.702 153.329C153.668 153.453 153.619 153.591 153.544 153.736C153.405 154.011 153.198 154.225 152.922 154.376V154.369ZM151.735 153.047C151.756 152.951 151.873 152.799 152.073 152.593C152.218 152.441 152.294 152.345 152.315 152.296C152.335 152.248 152.335 152.179 152.308 152.09C152.28 151.945 152.121 151.711 151.825 151.394C151.528 151.078 151.279 150.871 151.093 150.768C150.962 150.685 150.879 150.63 150.851 150.603C150.824 150.575 150.789 150.499 150.755 150.382C150.727 150.251 150.617 150.086 150.423 149.879C150.23 149.673 150.05 149.535 149.885 149.459C149.685 149.363 149.464 149.397 149.229 149.549C148.994 149.7 148.773 149.948 148.566 150.293C148.311 150.761 148.159 151.091 148.118 151.277C148.076 151.463 148.062 151.918 148.069 152.627C148.069 152.785 148.055 152.916 148.042 153.019C148.028 153.088 148.118 153.205 148.297 153.378C148.794 153.804 149.201 154.039 149.519 154.087C149.836 154.135 150.271 154.025 150.817 153.763C151.321 153.515 151.624 153.274 151.735 153.047Z" fill="white"/>
<path d="M75.3911 176.706C75.3359 176.706 75.1909 176.665 74.9493 176.568C74.6524 176.437 74.4591 176.265 74.3832 176.065C74.3073 175.866 74.3211 175.57 74.4246 175.184C74.4868 174.902 74.5144 174.688 74.5075 174.551C74.4315 174.075 74.4799 173.621 74.6593 173.173C74.756 172.939 74.8043 172.781 74.8043 172.698C74.7905 172.623 74.8181 172.492 74.8941 172.292C74.9562 172.106 74.97 171.913 74.9493 171.714C74.9355 171.541 74.97 171.218 75.0528 170.729C75.1288 170.364 75.184 170.137 75.2185 170.054C75.253 169.971 75.3497 169.861 75.5154 169.737C75.7915 169.517 76.0055 169.4 76.1643 169.372C76.323 169.345 76.468 169.427 76.6061 169.606C76.758 169.799 76.9167 169.937 77.0824 170.013C77.2481 170.089 77.3931 170.095 77.4966 170.033C77.5587 169.999 77.7796 169.937 78.1593 169.834C78.7461 169.696 79.3467 169.744 79.968 169.992C80.5893 170.233 81.0449 170.591 81.3279 171.059C81.5696 171.466 81.756 171.955 81.9009 172.526C82.039 173.098 82.0804 173.566 82.0252 173.917C82.0045 174.11 82.0183 174.296 82.0597 174.468C82.1011 174.64 82.0942 174.798 82.039 174.95C81.9838 175.095 81.9631 175.225 81.9769 175.336C81.9838 175.446 81.9354 175.687 81.8388 176.045C81.7352 176.389 81.6938 176.63 81.7007 176.754C81.6938 176.892 81.611 177.043 81.4522 177.215C81.2313 177.456 81.0656 177.58 80.9552 177.594C80.8516 177.601 80.6652 177.518 80.4029 177.332C80.1544 177.167 80.0025 176.954 79.9542 176.699C79.9059 176.444 79.9542 176.121 80.1061 175.728C80.5341 174.53 80.5341 173.518 80.113 172.691C80.0094 172.492 79.9542 172.375 79.9611 172.333C79.9818 172.196 79.8506 172.044 79.5538 171.879C79.2639 171.714 78.9463 171.603 78.6218 171.562C78.3871 171.535 78.1869 171.562 78.0213 171.617C77.8556 171.679 77.6761 171.817 77.469 172.017C77.4345 172.065 77.3585 172.141 77.255 172.244C77.1445 172.347 77.0824 172.409 77.0686 172.43C76.972 172.526 76.8615 172.829 76.758 173.352C76.6475 173.869 76.5439 174.22 76.4473 174.399C76.3714 174.585 76.3092 174.798 76.254 175.06C76.1505 175.577 76.0676 175.921 75.9917 176.107C75.9158 176.293 75.8191 176.437 75.6879 176.541C75.543 176.658 75.4394 176.713 75.3842 176.72L75.3911 176.706Z" fill="white"/>
<path d="M69.4749 175.438C69.3507 175.363 69.1919 175.314 68.9986 175.307C68.7984 175.294 68.6396 175.252 68.5085 175.17C68.3773 175.094 68.1978 175.004 67.9562 174.908C67.7146 174.812 67.5558 174.722 67.4592 174.64C67.3694 174.557 67.259 174.474 67.1416 174.399C66.8724 174.226 66.6377 173.848 66.4237 173.276C66.2097 172.705 66.1406 172.236 66.2166 171.864C66.258 171.617 66.2511 171.438 66.1959 171.321C66.0854 171.093 66.0992 170.79 66.2235 170.425C66.3477 170.06 66.5548 169.751 66.8379 169.503C67.0105 169.337 67.1347 169.179 67.2107 169.028C67.4316 168.601 67.9286 168.304 68.7087 168.132C68.902 168.105 69.0607 168.057 69.1712 168.002C69.2886 167.933 69.4611 167.912 69.6889 167.933C69.896 167.96 70.2412 167.967 70.7175 167.94C71.0696 167.919 71.2974 167.919 71.4079 167.926C71.5183 167.933 71.7323 167.995 72.043 168.112C72.0982 168.125 72.1603 168.153 72.2363 168.187C72.4848 168.27 72.6436 168.263 72.7195 168.16C72.7885 168.057 72.9266 167.664 73.1337 166.976C73.1958 166.748 73.2442 166.569 73.2856 166.438C73.6031 165.309 73.7895 164.717 73.8447 164.662C73.8793 164.641 73.9621 164.49 74.0864 164.194C74.2313 163.891 74.3832 163.705 74.542 163.643C74.7008 163.581 74.9286 163.615 75.2185 163.76C75.4049 163.856 75.5292 163.939 75.5775 164.021C75.6258 164.104 75.6327 164.221 75.5844 164.38C75.5499 164.51 75.5153 164.696 75.4946 164.93C75.4946 165.158 75.4394 165.357 75.3497 165.536C75.2599 165.695 75.2116 165.874 75.2047 166.053C75.2047 166.211 75.1426 166.452 75.0252 166.776C74.894 167.099 74.8181 167.368 74.7974 167.588C74.7767 167.822 74.7077 168.132 74.6041 168.518C74.4937 168.904 74.397 169.179 74.3142 169.337C74.2037 169.523 74.1485 169.716 74.1554 169.916C74.1416 170.115 74.1002 170.267 74.0242 170.377C73.969 170.46 73.8516 170.838 73.6653 171.5C73.4789 172.161 73.4029 172.519 73.4305 172.574C73.4305 172.615 73.4029 172.711 73.3339 172.849C73.1613 173.214 73.0992 173.641 73.1475 174.13C73.182 174.509 73.0578 174.86 72.7678 175.184C72.4779 175.5 72.1879 175.624 71.8911 175.542C71.7876 175.514 71.6012 175.5 71.3319 175.507C71.0627 175.507 70.8832 175.528 70.7866 175.562C70.6623 175.597 70.5173 175.624 70.3586 175.638C70.0479 175.666 69.758 175.604 69.4888 175.438H69.4749ZM69.9927 173.737C70.0893 173.71 70.2757 173.724 70.5588 173.786C70.759 173.827 70.8901 173.848 70.9384 173.841C70.9937 173.841 71.0489 173.799 71.111 173.731C71.2215 173.634 71.3388 173.373 71.4562 172.959C71.5736 172.539 71.6288 172.223 71.615 172.009C71.615 171.851 71.6219 171.754 71.6357 171.713C71.6495 171.672 71.6909 171.61 71.7737 171.513C71.8704 171.424 71.9532 171.245 72.0292 170.976C72.1051 170.701 72.1327 170.48 72.112 170.301C72.0844 170.081 71.9463 169.909 71.6978 169.792C71.4424 169.675 71.1179 169.613 70.7175 169.613C70.1791 169.633 69.8201 169.675 69.6406 169.744C69.4611 169.806 69.0676 170.026 68.4602 170.405C68.3221 170.48 68.2047 170.542 68.1081 170.584C68.046 170.611 67.9838 170.742 67.9286 170.983C67.8181 171.623 67.832 172.099 67.9562 172.395C68.0805 172.691 68.398 173.008 68.9089 173.338C69.3852 173.641 69.7442 173.779 69.9996 173.751L69.9927 173.737Z" fill="white"/>
<path d="M53.4938 172.802C53.4523 172.781 53.3626 172.678 53.2383 172.499C53.052 172.258 52.976 171.976 53.0105 171.659C53.052 171.342 53.19 171.081 53.4247 170.874C53.6525 170.661 53.7147 170.413 53.6111 170.137C53.5076 169.862 53.266 169.607 52.8863 169.38C52.6378 169.228 52.4583 169.104 52.3547 169.008C52.2374 168.905 52.1062 168.822 51.9681 168.753C51.6437 168.595 51.4849 168.368 51.478 168.071C51.478 167.775 51.6368 167.493 51.9612 167.238C52.1269 167.121 52.2719 167.059 52.3892 167.066C52.5066 167.066 52.693 167.149 52.9415 167.3C53.2867 167.5 53.6525 167.672 54.0253 167.81C54.3981 167.954 54.6259 168.003 54.688 167.954C54.7433 167.934 54.8468 167.768 54.9987 167.459C55.1506 167.149 55.2472 166.901 55.2817 166.722C55.3231 166.57 55.4198 166.433 55.5786 166.295C55.834 166.081 56.0066 165.765 56.0825 165.345C56.1308 165.124 56.2413 164.801 56.4208 164.381C56.6003 163.961 56.7383 163.685 56.835 163.547C56.9385 163.43 57.0973 163.32 57.3044 163.224C57.5115 163.127 57.6979 163.072 57.8498 163.072C58.0016 163.072 58.1673 163.182 58.3399 163.41C58.5125 163.637 58.5677 163.823 58.4987 163.954C58.4711 164.016 58.4503 164.133 58.4503 164.298C58.3951 164.794 58.2916 165.131 58.1397 165.317C58.0223 165.462 57.7324 166.033 57.263 167.032C57.2077 167.142 57.0628 167.41 56.8281 167.83C56.5726 168.306 56.4691 168.609 56.5243 168.739C56.5795 168.877 56.8764 169.084 57.4148 169.373C57.8567 169.6 58.0983 169.869 58.1397 170.179C58.1811 170.488 58.0223 170.784 57.6496 171.067C57.4632 171.205 57.3044 171.273 57.1732 171.266C57.049 171.26 56.7936 171.163 56.407 170.977C56.3794 170.964 56.3448 170.95 56.2965 170.922C55.9513 170.757 55.7235 170.695 55.6131 170.743C55.5026 170.791 55.3162 171.06 55.047 171.563C55.0194 171.625 54.9918 171.666 54.9642 171.687C54.6811 172.21 54.4809 172.527 54.3636 172.637C54.2462 172.747 54.0667 172.816 53.8113 172.83C53.6249 172.83 53.5145 172.83 53.4662 172.802H53.4938Z" fill="white"/>
<path d="M47.6191 166.185C47.4879 166.185 47.2946 166.109 47.0392 165.944C46.7837 165.786 46.5559 165.607 46.3695 165.414C46.197 165.228 46.0037 165.07 45.8104 164.946C45.6309 164.836 45.4652 164.677 45.3064 164.464C45.1477 164.25 45.0579 164.078 45.0441 163.94C44.9613 163.341 44.8853 162.839 44.8094 162.432C44.8094 162.336 44.7611 162.185 44.6713 161.985C44.4987 161.606 44.4849 161.262 44.623 160.959C44.6989 160.842 44.7404 160.697 44.7611 160.539C44.8094 160.305 44.9337 160.133 45.1339 160.015C45.265 159.933 45.3548 159.85 45.41 159.768C45.4583 159.685 45.5688 159.589 45.7344 159.478C46.1555 159.217 46.4593 158.969 46.6388 158.728C46.7492 158.604 46.8942 158.514 47.0668 158.466C47.2394 158.418 47.5845 158.383 48.0885 158.356C48.7512 158.328 49.2897 158.39 49.6831 158.549C50.0835 158.707 50.5046 159.01 50.9533 159.465C51.0914 159.609 51.2916 159.788 51.5608 159.981C51.8025 160.146 51.9681 160.339 52.0579 160.553C52.1407 160.732 52.2305 160.89 52.3202 161.028C52.3616 161.117 52.4099 161.262 52.4652 161.468C52.5204 161.675 52.5342 161.792 52.5135 161.826C52.4997 161.847 52.5273 162.026 52.5963 162.364C52.6447 162.605 52.6654 162.77 52.6585 162.873C52.6516 162.976 52.5894 163.197 52.4721 163.548C52.3547 163.892 52.12 164.237 51.7679 164.567C51.5539 164.774 51.4021 164.96 51.3123 165.111C51.2088 165.256 51.0983 165.38 50.981 165.49C50.8636 165.579 50.7324 165.676 50.6013 165.793C50.3873 165.986 50.1319 166.054 49.835 165.999C49.7177 165.979 49.5934 165.986 49.4484 166.027C49.3173 166.054 49.193 166.054 49.0895 166.027C48.9997 165.986 48.765 166.006 48.3784 166.075C48.0125 166.144 47.764 166.171 47.6329 166.178L47.6191 166.185ZM47.8883 164.374C48.2887 164.512 48.6476 164.574 48.9721 164.546C49.0895 164.539 49.1723 164.519 49.2137 164.491C49.2551 164.464 49.338 164.374 49.4553 164.237C49.552 164.133 49.6624 164.051 49.7867 163.975C49.9869 163.885 50.118 163.816 50.1871 163.761C50.2561 163.706 50.3459 163.575 50.4701 163.376C50.7601 162.908 50.8291 162.377 50.6772 161.778C50.5253 161.186 50.2354 160.814 49.8143 160.663C49.5727 160.58 49.3863 160.497 49.262 160.415C49.1378 160.353 49.0273 160.325 48.9307 160.318C48.834 160.318 48.696 160.263 48.5234 160.153C48.192 159.953 47.9159 159.947 47.6812 160.139C47.5707 160.236 47.4534 160.305 47.3153 160.353C47.1772 160.401 47.0047 160.566 46.7976 160.856C46.1624 161.723 46.1072 162.46 46.6457 163.066C46.7699 163.211 46.8597 163.348 46.9218 163.479C46.977 163.624 47.0392 163.754 47.1013 163.858C47.2256 164.051 47.4879 164.216 47.8883 164.354V164.374Z" fill="white"/>
<path d="M32.1763 158.672C32.1418 158.637 32.0866 158.52 32.0176 158.307C31.9071 158.018 31.914 157.728 32.0383 157.432C32.1625 157.136 32.3696 156.923 32.6596 156.792C32.9357 156.647 33.06 156.434 33.0393 156.138C33.0185 155.842 32.8598 155.532 32.556 155.208C32.3558 154.995 32.2247 154.829 32.1487 154.705C32.0659 154.575 31.9623 154.458 31.8519 154.354C31.5827 154.113 31.4929 153.852 31.5757 153.562C31.6586 153.273 31.8933 153.053 32.273 152.894C32.4663 152.826 32.6181 152.812 32.7355 152.846C32.8529 152.881 33.0047 153.012 33.2049 153.225C33.488 153.514 33.7848 153.776 34.1024 154.017C34.4268 154.258 34.6201 154.368 34.696 154.341C34.7513 154.341 34.8962 154.21 35.131 153.955C35.3657 153.7 35.5244 153.494 35.6073 153.328C35.6901 153.197 35.8213 153.087 36.0146 152.998C36.3183 152.867 36.5668 152.605 36.767 152.227C36.8706 152.027 37.0708 151.751 37.3607 151.4C37.6507 151.049 37.8578 150.822 37.9889 150.719C38.1201 150.636 38.2996 150.574 38.5274 150.539C38.7552 150.505 38.9416 150.505 39.0935 150.539C39.2453 150.581 39.3696 150.732 39.4731 151.001C39.5767 151.269 39.5767 151.455 39.4731 151.572C39.4248 151.621 39.3765 151.731 39.3282 151.889C39.1349 152.35 38.9416 152.647 38.7483 152.784C38.5964 152.888 38.1615 153.356 37.4298 154.189C37.3469 154.279 37.1329 154.499 36.7878 154.836C36.4081 155.215 36.2286 155.484 36.2424 155.628C36.2562 155.773 36.484 156.055 36.9189 156.482C37.2779 156.826 37.4367 157.15 37.3883 157.46C37.34 157.77 37.1053 158.011 36.6704 158.176C36.4495 158.259 36.2769 158.272 36.1595 158.231C36.0422 158.19 35.8213 158.024 35.5037 157.742C35.483 157.722 35.4554 157.694 35.414 157.66C35.1241 157.405 34.9239 157.281 34.8065 157.295C34.6891 157.308 34.4337 157.522 34.0333 157.921C33.985 157.969 33.9505 158.004 33.9229 158.018C33.5087 158.438 33.2256 158.686 33.0807 158.761C32.9357 158.837 32.7424 158.844 32.4939 158.789C32.3144 158.741 32.2109 158.699 32.1694 158.665L32.1763 158.672Z" fill="white"/>
<path d="M25.5768 155.209C25.5491 155.147 25.5146 154.988 25.4663 154.733C25.4663 154.713 25.4663 154.678 25.4594 154.63C25.4111 154.355 25.4318 154.155 25.5077 154.038C25.5837 153.921 25.8805 153.632 26.3914 153.163C26.4811 153.081 26.5501 153.019 26.5915 152.984C26.633 152.95 26.6951 152.895 26.7779 152.819C27.2888 152.378 27.5787 152.103 27.6409 152C27.703 151.896 27.6616 151.766 27.5166 151.6C27.4959 151.58 27.4821 151.566 27.4752 151.552C27.3923 151.463 27.3095 151.401 27.2198 151.366C27.1369 151.332 26.9712 151.297 26.7296 151.256C26.5432 151.215 26.4259 151.173 26.3706 151.118C26.3154 151.07 26.1773 150.87 25.9564 150.526C25.8184 150.299 25.7286 150.051 25.6872 149.796C25.632 149.548 25.5837 149.404 25.5422 149.356C25.5008 149.307 25.487 149.101 25.5008 148.722C25.5146 148.35 25.5491 148.075 25.6044 147.916C25.6596 147.737 25.6872 147.545 25.6734 147.352C25.6734 147.042 25.7562 146.801 25.9426 146.636C26.0462 146.546 26.1221 146.422 26.1635 146.264C26.2188 146.119 26.343 145.947 26.5294 145.74C26.7158 145.513 26.8608 145.334 26.9643 145.203C27.0817 145.004 27.3026 144.811 27.6339 144.625C27.7375 144.57 27.8272 144.46 27.917 144.288C28.0067 144.115 28.1448 143.971 28.3312 143.854C28.5314 143.744 28.6833 143.626 28.7868 143.496C28.9042 143.351 29.0836 143.255 29.3322 143.2C29.4978 143.158 29.6083 143.124 29.6566 143.096C29.7049 143.069 29.7671 143 29.8292 142.883C30.0294 142.573 30.2641 142.394 30.5195 142.353C30.775 142.311 31.0442 142.415 31.3065 142.662C31.6034 142.952 31.6586 143.262 31.4653 143.606C31.272 143.95 30.8026 144.391 30.0501 144.942C29.6428 145.231 29.1872 145.644 28.6694 146.161C28.3105 146.525 28.0896 146.78 27.9998 146.932C27.7996 147.283 27.6892 147.476 27.6823 147.503C27.3647 148.033 27.3302 148.522 27.5718 148.97C27.8203 149.418 28.2691 149.665 28.918 149.727C29.2079 149.762 29.4012 149.796 29.4978 149.844C29.8706 149.968 30.3539 149.831 30.9406 149.431C31.1546 149.273 31.3341 149.17 31.486 149.108C31.7483 149.004 31.9002 148.867 31.9623 148.708C31.9968 148.626 32.1832 148.433 32.5146 148.151C32.8529 147.848 33.0738 147.613 33.1773 147.469C33.2947 147.31 33.4603 147.187 33.6813 147.097C33.9022 146.994 34.0609 146.89 34.1645 146.801C34.2749 146.698 34.4475 146.656 34.6822 146.663C34.9169 146.677 35.0826 146.739 35.1862 146.849C35.4761 147.166 35.5313 147.503 35.3657 147.861C35.2 148.219 34.7582 148.688 34.0609 149.266C33.6813 149.59 33.1083 150.099 32.3351 150.788C31.5619 151.476 31.127 151.89 31.0235 152.02C30.9061 152.158 30.7404 152.282 30.5057 152.378C30.2434 152.502 29.6359 152.936 28.6694 153.68C27.703 154.424 27.1231 154.913 26.9298 155.147C26.847 155.243 26.6744 155.312 26.4052 155.353C26.1359 155.401 25.9219 155.395 25.7632 155.339C25.6665 155.312 25.6044 155.271 25.5768 155.215V155.209Z" fill="white"/>
<path d="M21.6419 142.641C21.6143 142.6 21.5591 142.497 21.4762 142.311C21.352 142.077 21.2208 141.698 21.0758 141.182C20.9308 140.665 20.8549 140.328 20.8618 140.176C20.8549 140.163 20.8618 140.011 20.8756 139.708C20.8756 139.522 20.8687 139.419 20.848 139.391C20.8342 139.371 20.8756 139.205 20.993 138.902C21.1034 138.599 21.1932 138.407 21.2691 138.317C21.3312 138.221 21.5314 138.049 21.8697 137.801C22.1596 137.587 22.3667 137.463 22.491 137.422C22.6153 137.381 22.7671 137.388 22.9466 137.449C23.1261 137.505 23.2642 137.546 23.3608 137.56C23.5058 137.594 23.706 137.739 23.9614 137.993C24.2168 138.248 24.3687 138.455 24.417 138.613C24.4446 138.765 24.5206 138.896 24.6517 139.006C24.7898 139.123 25.0038 139.357 25.2937 139.701C25.5837 140.045 25.7425 140.266 25.777 140.362C25.8322 140.459 25.8667 140.569 25.8874 140.693C25.9427 140.858 26.0324 141.003 26.1705 141.127C26.3016 141.251 26.4121 141.285 26.488 141.23C26.6537 141.106 26.7434 140.879 26.7503 140.541C26.7572 140.204 26.6951 139.853 26.564 139.501C26.4328 139.143 26.2602 138.813 26.06 138.496C25.8598 138.179 25.6251 137.987 25.3559 137.911C25.2247 137.87 25.1005 137.835 24.99 137.794C24.8519 137.746 24.7208 137.677 24.6103 137.587C24.3549 137.381 24.2375 137.126 24.2444 136.83C24.2582 136.534 24.3756 136.3 24.6103 136.141C24.845 135.983 25.1074 135.962 25.4042 136.086C25.5008 136.148 25.6113 136.21 25.7356 136.258C26.3361 136.52 26.8815 136.933 27.3716 137.491C27.8618 138.055 28.131 138.579 28.1724 139.054C28.1862 139.212 28.2208 139.329 28.2691 139.391C28.3933 139.557 28.4693 139.832 28.5107 140.211C28.5521 140.589 28.5314 140.913 28.4486 141.175C28.3933 141.333 28.345 141.492 28.3036 141.636C28.2484 141.795 28.1448 142.022 27.9998 142.318C27.8549 142.614 27.7444 142.786 27.6892 142.827C27.634 142.869 27.5787 142.951 27.5304 143.068C27.4821 143.185 27.3647 143.316 27.1714 143.454C26.9712 143.599 26.5709 143.764 25.9703 143.95C25.8598 143.984 25.7425 144.026 25.6389 144.088C25.5146 144.149 25.2178 144.184 24.7622 144.205C24.3066 144.225 24.0581 144.205 24.0166 144.149C24.0028 144.129 23.8993 144.094 23.7198 144.06C23.4229 143.984 23.2366 143.895 23.1537 143.778C23.1123 143.723 22.9742 143.647 22.7326 143.55C22.5117 143.454 22.3391 143.33 22.2287 143.179C22.1113 143.02 22.0009 142.903 21.8835 142.814C21.7592 142.738 21.6833 142.676 21.6488 142.635L21.6419 142.641ZM23.8371 142.38C24.065 142.504 24.2099 142.559 24.2721 142.552C24.3342 142.538 24.4446 142.566 24.6172 142.635C24.8657 142.745 25.0383 142.71 25.135 142.538C25.1902 142.449 25.1902 142.352 25.1488 142.263C25.1074 142.173 24.9762 142.001 24.7691 141.76C24.0581 140.934 23.5472 140.176 23.2366 139.501C23.133 139.288 22.9811 139.254 22.7809 139.398C22.4772 139.619 22.4289 140.073 22.6291 140.762C22.8224 141.492 23.2297 142.029 23.844 142.38H23.8371Z" fill="white"/>
<path d="M11.1764 131.239C11.1557 131.198 11.1488 131.067 11.1626 130.839C11.1626 130.53 11.28 130.268 11.5078 130.041C11.7356 129.813 12.0048 129.696 12.3224 129.676C12.633 129.648 12.8332 129.49 12.923 129.207C13.0127 128.925 12.9782 128.574 12.8263 128.161C12.7228 127.892 12.6607 127.686 12.6399 127.541C12.6123 127.39 12.564 127.245 12.495 127.107C12.3362 126.784 12.35 126.508 12.5364 126.274C12.7228 126.04 13.0196 125.923 13.4338 125.916C13.634 125.923 13.7859 125.964 13.8756 126.047C13.9654 126.123 14.062 126.302 14.1656 126.57C14.3175 126.942 14.4969 127.3 14.704 127.644C14.9111 127.989 15.0561 128.161 15.132 128.168C15.1873 128.188 15.3737 128.12 15.6774 127.968C15.9881 127.817 16.2159 127.679 16.3539 127.569C16.4782 127.479 16.6439 127.424 16.8579 127.417C17.1892 127.41 17.5206 127.259 17.845 126.983C18.0176 126.839 18.3076 126.653 18.708 126.432C19.1084 126.212 19.3914 126.081 19.5502 126.033C19.702 126.006 19.8953 126.012 20.1162 126.068C20.344 126.116 20.5166 126.191 20.6409 126.281C20.7652 126.377 20.8204 126.563 20.8204 126.853C20.8204 127.142 20.7444 127.314 20.6064 127.383C20.5442 127.41 20.4614 127.493 20.351 127.624C20.0058 127.975 19.7089 128.181 19.4742 128.237C19.2947 128.278 18.7149 128.546 17.7277 129.049C17.6172 129.104 17.3411 129.221 16.8924 129.414C16.3954 129.628 16.133 129.8 16.0916 129.944C16.0571 130.089 16.1537 130.433 16.4023 130.991C16.6094 131.445 16.6301 131.803 16.4713 132.072C16.3125 132.341 16.0019 132.471 15.5393 132.471C15.3046 132.465 15.139 132.416 15.0423 132.334C14.9457 132.251 14.8076 132.017 14.6143 131.631C14.6005 131.604 14.5867 131.569 14.5591 131.521C14.3865 131.177 14.2484 130.991 14.1311 130.956C14.0137 130.929 13.7031 131.025 13.1784 131.253C13.1163 131.28 13.068 131.301 13.0403 131.301C12.495 131.535 12.1429 131.666 11.9841 131.68C11.8254 131.7 11.639 131.631 11.4319 131.494C11.2869 131.383 11.1972 131.308 11.1764 131.259V131.239Z" fill="white"/>
<path d="M10.6449 122.417C10.5413 122.335 10.4378 122.156 10.3342 121.873C10.2307 121.591 10.1616 121.309 10.1409 121.04C10.1202 120.785 10.0719 120.544 9.98905 120.324C9.92002 120.131 9.8855 119.897 9.89241 119.635C9.89241 119.367 9.94073 119.181 10.0098 119.064C10.3204 118.541 10.5689 118.1 10.7553 117.735C10.8105 117.652 10.8727 117.508 10.9279 117.301C11.0315 116.895 11.2317 116.619 11.5285 116.468C11.6597 116.42 11.7839 116.337 11.9013 116.22C12.0808 116.069 12.2879 116.007 12.5157 116.041C12.6675 116.062 12.7918 116.048 12.8815 116.02C12.9713 115.986 13.1163 115.979 13.3165 115.993C13.8066 116.048 14.2001 116.034 14.4969 115.958C14.6626 115.931 14.8283 115.945 14.994 116.02C15.1596 116.089 15.4496 116.268 15.8638 116.557C16.4022 116.95 16.7819 117.329 16.9959 117.694C17.2099 118.059 17.3549 118.561 17.4239 119.195C17.4377 119.394 17.493 119.656 17.5758 119.973C17.6655 120.248 17.6724 120.503 17.6103 120.73C17.562 120.923 17.5344 121.102 17.5206 121.267C17.4999 121.364 17.4446 121.508 17.3618 121.701C17.279 121.894 17.2168 121.997 17.1754 122.011C17.1478 122.018 17.058 122.176 16.9062 122.486C16.7957 122.7 16.706 122.851 16.6369 122.927C16.5679 123.003 16.3815 123.14 16.0709 123.34C15.7602 123.54 15.3667 123.664 14.8835 123.712C14.5867 123.746 14.3519 123.795 14.1863 123.857C14.0137 123.905 13.848 123.939 13.6892 123.953C13.5443 123.953 13.3786 123.953 13.206 123.953C12.9161 123.974 12.6744 123.87 12.4742 123.65C12.3983 123.56 12.2879 123.492 12.1567 123.436C12.0324 123.381 11.9358 123.306 11.8737 123.209C11.8253 123.127 11.632 122.989 11.2869 122.81C10.9555 122.638 10.7415 122.507 10.638 122.431L10.6449 122.417ZM11.9841 121.164C12.2119 121.522 12.4604 121.791 12.7297 121.97C12.8263 122.039 12.9023 122.073 12.9575 122.073C13.0127 122.073 13.1232 122.059 13.3026 122.025C13.4407 122.004 13.5788 122.004 13.7237 122.025C13.9378 122.08 14.0827 122.108 14.1725 122.101C14.2622 122.101 14.4141 122.059 14.635 121.977C15.1527 121.784 15.5393 121.412 15.7878 120.854C16.0364 120.297 16.0433 119.821 15.7947 119.443C15.6567 119.229 15.56 119.05 15.5117 118.906C15.4496 118.782 15.3874 118.685 15.3115 118.63C15.2356 118.568 15.1665 118.444 15.0975 118.245C14.9663 117.88 14.7454 117.707 14.4417 117.714C14.2967 117.721 14.1587 117.707 14.0206 117.659C13.8894 117.611 13.6478 117.639 13.3026 117.735C12.2602 118.024 11.7632 118.575 11.8115 119.381C11.8184 119.567 11.8115 119.732 11.777 119.876C11.7287 120.028 11.7011 120.166 11.6873 120.283C11.6666 120.51 11.7701 120.799 11.9979 121.157L11.9841 121.164Z" fill="white"/>
<path d="M7.56602 112.737C7.56602 112.592 7.5315 112.434 7.44866 112.255C7.35892 112.076 7.3244 111.91 7.3244 111.766C7.3244 111.614 7.3175 111.415 7.28298 111.16C7.24847 110.905 7.24156 110.719 7.26917 110.595C7.29679 110.478 7.3106 110.34 7.3175 110.203C7.33821 109.886 7.54531 109.493 7.9457 109.025C8.34609 108.557 8.71887 108.268 9.07094 108.151C9.30565 108.068 9.45753 107.972 9.53346 107.868C9.67843 107.662 9.94766 107.524 10.3273 107.448C10.707 107.373 11.0798 107.4 11.4319 107.524C11.6597 107.593 11.8599 107.627 12.0325 107.614C12.5088 107.593 13.0196 107.882 13.5443 108.474C13.6685 108.626 13.779 108.743 13.8826 108.819C13.9999 108.887 14.1035 109.025 14.2001 109.232C14.276 109.425 14.4417 109.727 14.6971 110.127C14.8835 110.423 15.0009 110.616 15.0492 110.719C15.0975 110.822 15.1459 111.036 15.2011 111.366C15.2149 111.421 15.2218 111.49 15.2287 111.573C15.277 111.828 15.3668 111.965 15.491 111.979C15.6153 111.993 16.0295 111.917 16.7267 111.759C16.9545 111.704 17.134 111.656 17.2721 111.621C18.4111 111.339 19.0186 111.208 19.0946 111.236C19.1291 111.256 19.3017 111.249 19.6192 111.215C19.9575 111.187 20.1853 111.229 20.3233 111.339C20.4545 111.449 20.5373 111.662 20.5581 111.986C20.565 112.2 20.5512 112.344 20.5097 112.427C20.4683 112.509 20.3648 112.571 20.1991 112.606C20.0679 112.64 19.8884 112.702 19.6744 112.799C19.4742 112.909 19.274 112.964 19.0738 112.971C18.8875 112.971 18.7149 113.019 18.5492 113.102C18.4111 113.177 18.1695 113.246 17.8312 113.301C17.4861 113.343 17.2099 113.411 17.0098 113.508C16.7888 113.604 16.492 113.701 16.0985 113.797C15.7119 113.893 15.422 113.942 15.2356 113.949C15.0216 113.949 14.8283 113.99 14.6557 114.093C14.4762 114.176 14.3244 114.217 14.1932 114.21C14.0966 114.21 13.71 114.286 13.0403 114.451C12.3707 114.616 12.0187 114.727 11.991 114.775C11.9565 114.796 11.8599 114.816 11.7011 114.823C11.2938 114.851 10.8934 115.009 10.493 115.291C10.1755 115.512 9.8096 115.574 9.38849 115.477C8.96739 115.381 8.71887 115.188 8.64293 114.892C8.61532 114.782 8.53248 114.616 8.40132 114.389C8.27016 114.162 8.1597 114.011 8.09067 113.942C7.99402 113.852 7.90428 113.742 7.81454 113.604C7.63505 113.349 7.55221 113.067 7.55911 112.75L7.56602 112.737ZM9.30565 112.351C9.38159 112.42 9.45753 112.592 9.54037 112.867C9.6025 113.067 9.65082 113.184 9.68534 113.226C9.71985 113.267 9.77508 113.301 9.86482 113.315C10.0029 113.363 10.2859 113.336 10.707 113.232C11.1281 113.129 11.4319 113.019 11.6183 112.902C11.7563 112.826 11.8461 112.785 11.8875 112.771C11.9289 112.764 12.0048 112.771 12.1291 112.799C12.2534 112.84 12.4536 112.826 12.7297 112.757C13.0058 112.688 13.2129 112.606 13.3579 112.496C13.5374 112.365 13.6202 112.158 13.5995 111.883C13.5788 111.607 13.4684 111.291 13.2682 110.939C12.9851 110.485 12.7711 110.196 12.6261 110.065C12.4812 109.941 12.0946 109.7 11.4733 109.363C11.3421 109.28 11.2317 109.211 11.1419 109.149C11.0867 109.108 10.9417 109.122 10.707 109.19C10.0926 109.411 9.68534 109.652 9.48514 109.907C9.28494 110.161 9.16759 110.595 9.13307 111.194C9.09855 111.752 9.16068 112.138 9.31256 112.344L9.30565 112.351Z" fill="white"/>
<path d="M30.3746 29.5686C30.4022 29.5204 30.5195 29.424 30.7335 29.2794C31.0097 29.1072 31.2582 29.0452 31.4653 29.0866C31.6793 29.1348 31.914 29.3069 32.1763 29.6099C32.3765 29.8165 32.5422 29.9611 32.6596 30.0299C33.0945 30.2296 33.4534 30.5257 33.7296 30.9182C33.8745 31.1248 33.9781 31.2556 34.0471 31.3038C34.1162 31.3314 34.2128 31.4278 34.3371 31.5999C34.4613 31.7514 34.6132 31.8754 34.7858 31.9649C34.9377 32.0475 35.1931 32.261 35.5521 32.5984C35.8144 32.86 35.9732 33.0322 36.0215 33.1079C36.0698 33.1837 36.1043 33.3214 36.125 33.528C36.1526 33.8792 36.1388 34.127 36.0698 34.2648C36.0008 34.4094 35.8558 34.492 35.628 34.5058C35.3864 34.5264 35.1862 34.5815 35.0274 34.6779C34.8686 34.7743 34.7858 34.8845 34.7789 35.0153C34.772 35.0842 34.7029 35.3045 34.5787 35.6764C34.3716 36.241 33.9919 36.7093 33.4465 37.0949C32.8943 37.4805 32.3489 37.6595 31.8036 37.6389C31.3341 37.6113 30.8233 37.5011 30.2641 37.3014C29.7049 37.1018 29.2977 36.8745 29.0353 36.6335C28.8835 36.5096 28.7247 36.4201 28.559 36.3581C28.3933 36.2961 28.2622 36.1997 28.1655 36.0758C28.0758 35.9518 27.9791 35.8623 27.8756 35.8072C27.7789 35.7521 27.6063 35.58 27.3578 35.2976C27.1231 35.0222 26.9505 34.8501 26.8401 34.7881C26.7296 34.7055 26.6468 34.554 26.5916 34.3267C26.5156 34.01 26.5018 33.8034 26.5501 33.707C26.5985 33.6106 26.7779 33.5073 27.0748 33.3903C27.3578 33.2732 27.6132 33.2663 27.848 33.3627C28.0827 33.466 28.3243 33.6863 28.5728 34.0238C29.3391 35.0429 30.1813 35.6075 31.1063 35.7108C31.3341 35.7315 31.4584 35.759 31.486 35.7866C31.5896 35.883 31.7897 35.8554 32.0935 35.7039C32.3972 35.5524 32.6596 35.3527 32.8736 35.1048C33.0254 34.9258 33.1221 34.7468 33.1566 34.5746C33.198 34.4025 33.1842 34.1752 33.129 33.8929C33.1083 33.8378 33.0876 33.7345 33.06 33.5899C33.0323 33.4453 33.0185 33.3558 33.0047 33.3283C32.984 33.1906 32.7838 32.9358 32.411 32.5571C32.0383 32.1783 31.8036 31.896 31.7138 31.717C31.6034 31.5517 31.4515 31.3796 31.272 31.1868C30.8992 30.8218 30.6576 30.5533 30.5402 30.3949C30.4298 30.2296 30.3677 30.0712 30.347 29.906C30.3331 29.7201 30.3401 29.603 30.3677 29.5548L30.3746 29.5686Z" fill="white"/>
<path d="M34.696 25.3616C34.8272 25.2997 34.9515 25.1964 35.0688 25.038C35.1862 24.8796 35.3173 24.7694 35.4554 24.7075C35.5935 24.6455 35.7661 24.5422 35.9801 24.3907C36.1941 24.2392 36.3597 24.1566 36.4771 24.1291C36.5945 24.1015 36.7256 24.0533 36.8568 23.9982C37.1467 23.8743 37.5954 23.8812 38.1891 24.0189C38.7828 24.1566 39.2177 24.3632 39.48 24.6248C39.6664 24.797 39.8183 24.8865 39.9426 24.9072C40.1911 24.9416 40.4396 25.1137 40.6743 25.4236C40.909 25.7266 41.054 26.0709 41.1092 26.4427C41.1506 26.6768 41.2128 26.8696 41.3025 27.0143C41.5372 27.4343 41.5096 28.0127 41.2197 28.7495C41.1368 28.9285 41.0885 29.08 41.0678 29.2109C41.0609 29.3486 40.985 29.5001 40.84 29.6791C40.7019 29.8375 40.5086 30.1198 40.267 30.533C40.0875 30.8359 39.9633 31.0287 39.8942 31.1114C39.8252 31.2009 39.6526 31.3386 39.3834 31.5383C39.342 31.5727 39.2868 31.614 39.2108 31.6554C39.0037 31.8137 38.9209 31.9515 38.9692 32.0685C39.0175 32.1856 39.266 32.5161 39.7286 33.067C39.8804 33.246 40.0047 33.3837 40.0944 33.487C40.8607 34.3753 41.2542 34.8573 41.268 34.9331C41.268 34.9744 41.3508 35.1259 41.5303 35.3944C41.7029 35.6836 41.7719 35.9109 41.7374 36.0761C41.7029 36.2483 41.5441 36.4135 41.268 36.5788C41.0816 36.6821 40.9436 36.7372 40.8538 36.7303C40.7641 36.7303 40.6605 36.6683 40.5501 36.5375C40.4603 36.4342 40.3223 36.3033 40.1359 36.1587C39.9495 36.0279 39.8114 35.8764 39.7148 35.7043C39.6319 35.539 39.5146 35.4082 39.3627 35.298C39.2315 35.2085 39.0658 35.0295 38.8587 34.7471C38.6655 34.4579 38.4791 34.2445 38.3065 34.1067C38.1201 33.9553 37.8992 33.728 37.6369 33.425C37.3745 33.1221 37.202 32.8879 37.1122 32.7296C37.0156 32.5368 36.8844 32.3853 36.7187 32.2751C36.5599 32.158 36.4564 32.0341 36.4081 31.917C36.3667 31.8275 36.1181 31.5176 35.6694 31.0012C35.2207 30.4779 34.9653 30.2162 34.9031 30.2162C34.8686 30.1955 34.8065 30.1198 34.7306 29.9821C34.5235 29.6378 34.199 29.3486 33.7641 29.1213C33.4258 28.9423 33.198 28.6393 33.0945 28.2262C32.9909 27.813 33.0462 27.5032 33.2809 27.3035C33.3637 27.2346 33.4811 27.0831 33.6191 26.8628C33.7572 26.6424 33.8469 26.4772 33.8746 26.3808C33.916 26.2568 33.9712 26.126 34.0471 25.9814C34.1921 25.7059 34.4061 25.5062 34.696 25.3685V25.3616ZM35.8282 26.7319C35.8006 26.8283 35.6832 26.9729 35.4761 27.1726C35.3312 27.3172 35.2414 27.4136 35.2207 27.4618C35.2 27.51 35.2 27.5789 35.2207 27.6684C35.2414 27.813 35.3933 28.054 35.6763 28.3846C35.9594 28.7151 36.1941 28.9285 36.3874 29.0456C36.5185 29.1351 36.5945 29.1902 36.6221 29.2246C36.6497 29.2591 36.6773 29.3348 36.7049 29.4519C36.7256 29.5827 36.8292 29.748 37.0156 29.9614C37.202 30.1749 37.3745 30.3195 37.5333 30.4021C37.7335 30.5054 37.9475 30.4848 38.1891 30.3401C38.4307 30.1955 38.6586 29.9545 38.8795 29.624C39.1556 29.1627 39.3213 28.8459 39.3696 28.6531C39.4179 28.4603 39.4524 28.0196 39.4731 27.3035C39.487 27.1451 39.5008 27.0143 39.5146 26.911C39.5284 26.8421 39.4524 26.7182 39.2799 26.5391C38.8035 26.0915 38.4031 25.8436 38.0856 25.7817C37.768 25.7197 37.3331 25.8092 36.7739 26.0571C36.2562 26.2843 35.9455 26.5116 35.8282 26.7388V26.7319Z" fill="white"/>
<path d="M45.7068 13.5305C45.7483 13.503 45.8794 13.4892 46.1003 13.4892C46.411 13.4686 46.6871 13.5581 46.9287 13.7647C47.1703 13.9712 47.3153 14.2329 47.3567 14.5428C47.412 14.8458 47.5845 15.0317 47.8745 15.1005C48.1644 15.1694 48.5096 15.1074 48.91 14.9146C49.1723 14.7907 49.3725 14.708 49.5175 14.6736C49.6693 14.6323 49.8074 14.5703 49.9386 14.4946C50.2492 14.3087 50.5254 14.3018 50.7739 14.467C51.0224 14.6323 51.1674 14.9146 51.2019 15.3278C51.2088 15.5343 51.1812 15.6789 51.1121 15.7822C51.0431 15.8786 50.8774 15.9888 50.6151 16.1128C50.2561 16.2918 49.9179 16.4984 49.5865 16.7325C49.262 16.9666 49.0964 17.125 49.0964 17.2076C49.0826 17.2627 49.1654 17.4417 49.338 17.7378C49.5106 18.0339 49.6693 18.2474 49.7936 18.3782C49.8971 18.4953 49.9593 18.6537 49.9869 18.8671C50.0214 19.1976 50.194 19.5144 50.5046 19.8105C50.6634 19.9689 50.8705 20.2443 51.1259 20.623C51.3745 21.0018 51.5332 21.2703 51.5954 21.4287C51.6368 21.5802 51.6437 21.773 51.6092 22.0002C51.5747 22.2274 51.5194 22.4065 51.4366 22.5373C51.3538 22.6681 51.1674 22.7439 50.8843 22.7577C50.6013 22.7714 50.4149 22.7232 50.339 22.5924C50.3044 22.5304 50.2147 22.4547 50.0766 22.3652C49.697 22.0484 49.4691 21.773 49.3932 21.5457C49.338 21.3736 49.0204 20.8158 48.4405 19.8725C48.3784 19.7692 48.2335 19.5006 48.0125 19.0737C47.7571 18.5986 47.5638 18.3507 47.4189 18.3231C47.2739 18.2956 46.9356 18.4264 46.3972 18.7156C45.9623 18.9566 45.6033 19.0117 45.3203 18.874C45.0372 18.7363 44.8784 18.4402 44.8439 17.9788C44.8301 17.7447 44.8646 17.5795 44.9406 17.4762C45.0165 17.3729 45.2374 17.2145 45.6033 16.9942C45.624 16.9804 45.6654 16.9597 45.7068 16.9322C46.0382 16.7325 46.2177 16.581 46.2315 16.4639C46.2522 16.3469 46.1279 16.0439 45.8587 15.5412C45.8242 15.4793 45.8035 15.4379 45.8035 15.4035C45.5204 14.8802 45.3686 14.5428 45.3341 14.3844C45.3064 14.226 45.3548 14.0401 45.479 13.8198C45.5757 13.6614 45.6516 13.5719 45.693 13.5512L45.7068 13.5305Z" fill="white"/>
<path d="M54.4809 12.2778C54.55 12.1676 54.7226 12.0505 54.9987 11.9266C55.2748 11.8026 55.5441 11.7131 55.8133 11.6649C56.0687 11.6236 56.3034 11.5548 56.5174 11.4515C56.7038 11.3619 56.9316 11.3137 57.2009 11.2931C57.4701 11.2793 57.6634 11.3 57.7807 11.3688C58.3261 11.6305 58.7886 11.844 59.1683 12.0023C59.2511 12.0574 59.403 12.0987 59.617 12.1332C60.0312 12.202 60.3212 12.3742 60.5006 12.6565C60.5559 12.7804 60.6525 12.8975 60.7768 13.0077C60.9425 13.1729 61.0253 13.3726 61.0115 13.6068C61.0115 13.7582 61.0253 13.8822 61.0667 13.9717C61.1081 14.0612 61.1288 14.1989 61.1288 14.3986C61.115 14.8944 61.1565 15.28 61.26 15.5692C61.3014 15.7276 61.2945 15.8998 61.2393 16.065C61.1841 16.2372 61.0253 16.5402 60.7699 16.974C60.4247 17.5455 60.0795 17.9518 59.7275 18.1928C59.3754 18.4407 58.8922 18.6197 58.264 18.7436C58.0638 18.7781 57.8083 18.8469 57.4977 18.964C57.2285 19.0742 56.9799 19.1086 56.7452 19.0604C56.545 19.0329 56.3656 19.0122 56.1999 19.0191C56.1032 19.0053 55.9514 18.964 55.7512 18.8951C55.551 18.8263 55.4474 18.7781 55.4267 18.7368C55.4129 18.7092 55.2541 18.6335 54.9366 18.5095C54.7088 18.42 54.5569 18.3374 54.474 18.2754C54.3912 18.2134 54.2393 18.0413 54.0115 17.7452C53.7837 17.456 53.6318 17.0704 53.549 16.5952C53.4869 16.306 53.4247 16.0788 53.3488 15.9135C53.2867 15.7483 53.2383 15.583 53.2176 15.4315C53.2107 15.2869 53.1969 15.1217 53.1762 14.9495C53.1348 14.6672 53.2176 14.4124 53.4178 14.1989C53.5007 14.1163 53.5628 14.0061 53.6042 13.8615C53.6526 13.7307 53.7216 13.6343 53.8044 13.5654C53.8873 13.5104 54.0046 13.3038 54.1565 12.9457C54.3015 12.6014 54.4119 12.3811 54.4809 12.2709V12.2778ZM55.8478 13.5035C55.5095 13.7582 55.261 14.0268 55.1022 14.316C55.047 14.4193 55.0125 14.495 55.0194 14.5501C55.0194 14.6052 55.047 14.7154 55.0953 14.8875C55.1299 15.0253 55.1368 15.163 55.1299 15.3076C55.0953 15.521 55.0815 15.6725 55.0884 15.762C55.0953 15.8516 55.1506 15.9962 55.2541 16.2096C55.4888 16.7123 55.8892 17.0635 56.476 17.2632C57.0559 17.4629 57.5253 17.4284 57.8843 17.1599C58.0845 17.0084 58.2571 16.8982 58.3951 16.8363C58.5125 16.7674 58.6022 16.6916 58.6575 16.6159C58.7127 16.5402 58.83 16.4575 59.0233 16.368C59.3754 16.2027 59.5342 15.9755 59.4997 15.6725C59.4789 15.5279 59.4859 15.3902 59.5204 15.2525C59.5549 15.1148 59.5135 14.8807 59.3823 14.5432C59.0026 13.531 58.4158 13.0834 57.6151 13.1936C57.4287 13.2211 57.263 13.2211 57.118 13.1936C56.9661 13.1592 56.8281 13.1385 56.7038 13.1316C56.476 13.1316 56.193 13.2556 55.8547 13.5104L55.8478 13.5035Z" fill="white"/>
<path d="M69.2955 3.57382C69.3438 3.56005 69.475 3.58759 69.689 3.64268C69.9927 3.70465 70.2274 3.86992 70.4069 4.13847C70.5864 4.40702 70.6485 4.69623 70.6002 5.00609C70.5657 5.31596 70.6761 5.54319 70.9385 5.6878C71.2008 5.8324 71.546 5.87372 71.9809 5.80486C72.2708 5.75666 72.4848 5.736 72.6298 5.74288C72.7885 5.74288 72.9404 5.72911 73.0854 5.6878C73.4306 5.59828 73.7067 5.66714 73.9 5.89437C74.0933 6.12161 74.1485 6.43836 74.0726 6.84463C74.0242 7.04432 73.9552 7.17515 73.8586 7.2509C73.7619 7.32664 73.5755 7.38862 73.2856 7.42993C72.8921 7.50568 72.5055 7.60897 72.1258 7.7398C71.7462 7.87063 71.546 7.98081 71.5252 8.05655C71.4976 8.10475 71.5252 8.29756 71.6081 8.63497C71.6909 8.96549 71.7807 9.21338 71.8635 9.37865C71.9256 9.51636 71.9463 9.6954 71.9118 9.90198C71.8566 10.2325 71.9325 10.5768 72.1396 10.9555C72.2501 11.1552 72.3674 11.472 72.5055 11.9058C72.6436 12.3396 72.7126 12.6426 72.7264 12.8078C72.7264 12.9662 72.6781 13.1452 72.5815 13.3587C72.4848 13.5653 72.3813 13.7237 72.2639 13.8269C72.1465 13.9302 71.9463 13.9509 71.6702 13.882C71.3872 13.8201 71.2284 13.7168 71.1939 13.5653C71.1801 13.4964 71.1179 13.4 71.0075 13.2692C70.7314 12.856 70.5864 12.5324 70.5795 12.2914C70.5795 12.1055 70.4276 11.4857 70.1377 10.4184C70.1101 10.3014 70.041 10.0053 69.9513 9.53014C69.8408 8.99992 69.7235 8.70383 69.5923 8.64185C69.4612 8.57988 69.0953 8.60742 68.5016 8.73137C68.0184 8.84154 67.6594 8.79334 67.4247 8.57988C67.19 8.3733 67.1209 8.03589 67.2176 7.58831C67.2728 7.36107 67.3487 7.20958 67.4523 7.13384C67.5558 7.05809 67.8113 6.96858 68.2255 6.8584C68.2531 6.8584 68.2945 6.84463 68.3428 6.83086C68.7156 6.73446 68.9296 6.63117 68.9779 6.52788C69.0262 6.42459 68.9986 6.09407 68.8813 5.53631C68.8675 5.46745 68.8606 5.41925 68.8675 5.3917C68.7432 4.81329 68.6949 4.44145 68.7087 4.28307C68.7225 4.12469 68.826 3.95255 69.0055 3.7804C69.1436 3.65645 69.2402 3.59448 69.2886 3.58071L69.2955 3.57382Z" fill="white"/>
<path d="M75.8329 0C75.895 0.0137718 76.0469 0.0688591 76.2885 0.172148C76.3023 0.18592 76.3368 0.199691 76.3783 0.220349C76.6337 0.33741 76.7856 0.461356 76.8408 0.592188C76.896 0.723021 76.9719 1.12929 77.0755 1.811C77.0962 1.93494 77.11 2.02446 77.1169 2.07955C77.1238 2.13463 77.1376 2.21726 77.1514 2.32744C77.2412 2.99537 77.3102 3.38787 77.3585 3.49804C77.4138 3.60822 77.5449 3.64953 77.7658 3.6151C77.7934 3.6151 77.8141 3.60822 77.828 3.60822C77.9522 3.58756 78.0489 3.55313 78.1248 3.49804C78.2007 3.44296 78.325 3.3259 78.4907 3.14686C78.6218 3.01603 78.7254 2.94028 78.8013 2.91963C78.8773 2.89897 79.1189 2.89897 79.5193 2.90585C79.7885 2.91963 80.037 2.9816 80.2786 3.08489C80.5133 3.17441 80.6652 3.21572 80.7273 3.20195C80.7895 3.19506 80.9759 3.29835 81.2796 3.5187C81.5834 3.73905 81.7905 3.91808 81.894 4.04892C82.0114 4.20041 82.1563 4.32435 82.3289 4.42076C82.5912 4.5929 82.7431 4.79948 82.7776 5.04049C82.7983 5.17821 82.8605 5.30904 82.964 5.43298C83.0538 5.55693 83.1297 5.75662 83.1987 6.02517C83.2816 6.3075 83.3506 6.52784 83.4058 6.68622C83.5094 6.8928 83.5439 7.18889 83.5163 7.56762C83.5025 7.67779 83.5508 7.8224 83.6406 7.98766C83.7372 8.15292 83.7786 8.35261 83.7717 8.57296C83.751 8.8002 83.7717 8.993 83.82 9.15138C83.8753 9.32353 83.8545 9.5301 83.7648 9.76422C83.7027 9.92949 83.6751 10.0328 83.6682 10.0947C83.6613 10.1567 83.6889 10.2394 83.751 10.3564C83.9029 10.6938 83.9236 10.983 83.8131 11.224C83.7027 11.465 83.4749 11.6234 83.1228 11.7061C82.7155 11.7956 82.4256 11.6647 82.2461 11.3136C82.0666 10.9624 81.9561 10.3289 81.9147 9.39927C81.894 8.90348 81.8112 8.29752 81.6593 7.58139C81.5557 7.07872 81.466 6.75508 81.3832 6.5967C81.2037 6.23175 81.1001 6.03895 81.0863 6.01829C80.8171 5.46053 80.4305 5.15755 79.9266 5.11623C79.4157 5.07492 78.9601 5.30904 78.5459 5.8186C78.3595 6.04583 78.2145 6.18355 78.1248 6.23864C77.8141 6.47964 77.6623 6.95477 77.6692 7.66402C77.683 7.92569 77.6692 8.13915 77.6416 8.29752C77.5863 8.57296 77.6071 8.77265 77.7175 8.91037C77.7727 8.98612 77.8211 9.24089 77.8763 9.68159C77.9453 10.1292 78.0143 10.439 78.0834 10.6112C78.1524 10.7971 78.1662 11.0037 78.1179 11.2309C78.0834 11.4719 78.0765 11.6647 78.0972 11.7956C78.1179 11.9471 78.0627 12.1123 77.9246 12.3051C77.7865 12.4979 77.6416 12.6012 77.4897 12.6219C77.0686 12.6839 76.751 12.5461 76.5508 12.2087C76.3437 11.8713 76.1919 11.2516 76.1021 10.3426C76.04 9.85374 75.9364 9.09629 75.7846 8.07029C75.6327 7.05117 75.5361 6.45899 75.4808 6.30061C75.4256 6.12846 75.4256 5.92188 75.467 5.67399C75.5084 5.39167 75.4808 4.6411 75.398 3.42918C75.3082 2.21726 75.2254 1.4667 75.1357 1.17061C75.1011 1.05354 75.1357 0.867625 75.253 0.619732C75.3635 0.371839 75.4877 0.199691 75.6258 0.0964028C75.7017 0.0275436 75.7708 0 75.8329 0.0137718V0Z" fill="white"/>
<path d="M88.5212 3.69161C88.5695 3.69161 88.6938 3.70538 88.8871 3.73981C89.1494 3.76735 89.536 3.86375 90.0537 4.02902C90.5646 4.19428 90.889 4.31822 91.0133 4.40774C91.0271 4.40774 91.1582 4.49726 91.3999 4.68318C91.5586 4.78647 91.6484 4.83467 91.676 4.83467C91.7036 4.83467 91.8141 4.9655 92.0074 5.22028C92.2007 5.47506 92.3111 5.66786 92.3456 5.77115C92.3939 5.88133 92.4216 6.14299 92.4423 6.54926C92.4561 6.90733 92.4423 7.14833 92.4147 7.27228C92.387 7.39623 92.2904 7.52017 92.1385 7.63723C91.9936 7.75429 91.8831 7.8507 91.821 7.91956C91.7174 8.02284 91.4827 8.10548 91.1306 8.18122C90.7717 8.25008 90.5162 8.26385 90.3644 8.21565C90.2194 8.15368 90.0744 8.14679 89.9088 8.19499C89.7293 8.24319 89.4186 8.29139 88.9699 8.3396C88.5212 8.3878 88.252 8.40157 88.1553 8.37403C88.0449 8.36714 87.9344 8.33271 87.817 8.28451C87.6514 8.23631 87.4788 8.23631 87.2993 8.27762C87.1198 8.31894 87.037 8.3878 87.037 8.4842C87.0439 8.69078 87.1888 8.89047 87.465 9.08327C87.7411 9.27608 88.0656 9.42068 88.4383 9.50332C88.8111 9.58595 89.1839 9.63415 89.5567 9.64103C89.9295 9.64103 90.2194 9.5584 90.4334 9.38625C90.537 9.29674 90.6405 9.22099 90.7302 9.14525C90.8476 9.05573 90.9788 8.98687 91.1168 8.93867C91.4275 8.84227 91.7105 8.88358 91.9521 9.05573C92.1937 9.22788 92.318 9.462 92.3249 9.74432C92.3249 10.0266 92.2007 10.2539 91.9314 10.4329C91.821 10.4811 91.7174 10.5362 91.607 10.6119C91.0547 10.97 90.4127 11.1904 89.6671 11.2868C88.9285 11.3832 88.3417 11.3143 87.9137 11.0871C87.7687 11.0113 87.6583 10.9769 87.5754 10.9769C87.3683 10.9838 87.0922 10.9012 86.7539 10.7221C86.4157 10.5431 86.1533 10.3503 85.9808 10.1368C85.8772 10.006 85.7737 9.87516 85.6701 9.75809C85.5666 9.62726 85.4354 9.4138 85.2697 9.12459C85.104 8.83538 85.0212 8.65635 85.0143 8.58749C85.0143 8.51863 84.9729 8.42911 84.8969 8.32582C84.821 8.21565 84.7796 8.05039 84.7727 7.81627C84.7589 7.56837 84.8486 7.14145 85.0281 6.54237C85.0626 6.4322 85.0833 6.31514 85.0971 6.18431C85.1178 6.04659 85.249 5.78492 85.4837 5.39243C85.7184 4.99993 85.8772 4.80712 85.9462 4.80024C85.9739 4.80024 86.0567 4.73138 86.1879 4.60055C86.4157 4.40085 86.5952 4.29068 86.7332 4.28379C86.8023 4.28379 86.9472 4.20805 87.1612 4.05656C87.3614 3.92573 87.5616 3.84998 87.7549 3.8431C87.9482 3.83621 88.1139 3.80867 88.252 3.76047C88.39 3.69849 88.4798 3.66406 88.5281 3.66406L88.5212 3.69161ZM87.5271 5.66098C87.2993 5.78492 87.1681 5.86755 87.1474 5.92953C87.1198 5.98461 87.037 6.06725 86.892 6.17053C86.6642 6.32202 86.5952 6.4804 86.6849 6.65255C86.7332 6.74895 86.8023 6.80404 86.9127 6.81781C87.0163 6.83158 87.2303 6.81781 87.5409 6.77649C88.6247 6.64566 89.536 6.63878 90.2746 6.75584C90.5093 6.78338 90.6267 6.68009 90.6129 6.4322C90.5991 6.06036 90.247 5.76427 89.5567 5.5508C88.8387 5.3098 88.1622 5.34423 87.5271 5.66098Z" fill="white"/>
<path d="M103.819 1.28711C103.867 1.28711 103.978 1.36285 104.157 1.50057C104.413 1.67272 104.571 1.91373 104.64 2.23048C104.709 2.54723 104.654 2.83644 104.495 3.10499C104.35 3.38043 104.371 3.62832 104.551 3.86244C104.737 4.09656 105.048 4.26182 105.476 4.35823C105.759 4.4202 105.966 4.48217 106.097 4.54415C106.242 4.60612 106.387 4.64743 106.539 4.66121C106.898 4.70941 107.119 4.87467 107.215 5.15699C107.312 5.43931 107.243 5.75607 107.022 6.10036C106.905 6.26562 106.787 6.36203 106.67 6.39646C106.553 6.43089 106.352 6.41711 106.069 6.34826C105.676 6.27251 105.276 6.22431 104.875 6.20365C104.475 6.18988 104.247 6.20365 104.199 6.27251C104.15 6.30694 104.109 6.49975 104.061 6.83716C104.019 7.18145 104.005 7.44311 104.019 7.62215C104.026 7.77364 103.978 7.94579 103.874 8.12482C103.702 8.40714 103.639 8.75832 103.695 9.18525C103.722 9.41249 103.715 9.7499 103.674 10.2044C103.639 10.6588 103.591 10.9618 103.543 11.1271C103.481 11.2717 103.37 11.4232 103.205 11.5815C103.039 11.7399 102.88 11.8432 102.735 11.8983C102.59 11.9534 102.397 11.8983 102.162 11.733C101.927 11.5678 101.817 11.4163 101.838 11.2648C101.845 11.1959 101.824 11.0858 101.776 10.9205C101.672 10.4385 101.658 10.0804 101.748 9.85318C101.81 9.68104 101.907 9.04753 102.038 7.95267C102.052 7.82873 102.107 7.53263 102.197 7.0575C102.293 6.52729 102.293 6.21054 102.197 6.10036C102.1 5.99019 101.748 5.8869 101.154 5.77672C100.664 5.70098 100.347 5.52195 100.209 5.23962C100.07 4.9573 100.133 4.62678 100.388 4.24117C100.526 4.04836 100.65 3.93819 100.775 3.90376C100.899 3.86933 101.168 3.8831 101.596 3.93819C101.624 3.93819 101.665 3.94507 101.72 3.95196C102.1 4.00016 102.342 3.98639 102.424 3.91064C102.507 3.8349 102.604 3.51126 102.708 2.96039C102.714 2.89153 102.728 2.84333 102.749 2.82267C102.852 2.23737 102.942 1.87241 103.018 1.73469C103.094 1.59009 103.246 1.47303 103.481 1.37663C103.653 1.31465 103.771 1.28711 103.812 1.294L103.819 1.28711Z" fill="white"/>
<path d="M111.489 5.71465C111.613 5.67333 111.82 5.6871 112.117 5.75596C112.414 5.82482 112.683 5.92811 112.918 6.05206C113.145 6.176 113.373 6.26552 113.601 6.32061C113.801 6.36881 114.015 6.46521 114.229 6.6167C114.45 6.76819 114.588 6.90591 114.643 7.02986C114.913 7.57384 115.147 8.02831 115.341 8.38638C115.375 8.48278 115.465 8.60673 115.61 8.77199C115.893 9.08186 116.017 9.39861 115.976 9.72913C115.941 9.85997 115.941 10.0115 115.976 10.1767C116.003 10.4108 115.941 10.6174 115.789 10.7896C115.693 10.9066 115.631 11.0168 115.61 11.1063C115.589 11.2027 115.513 11.3267 115.396 11.4782C115.078 11.8569 114.871 12.1874 114.775 12.4766C114.712 12.6281 114.602 12.7589 114.45 12.8553C114.298 12.9517 113.988 13.0963 113.518 13.2823C112.897 13.5164 112.365 13.6197 111.944 13.599C111.516 13.5784 111.019 13.42 110.446 13.1308C110.274 13.0344 110.025 12.9311 109.707 12.8278C109.431 12.7452 109.21 12.6212 109.052 12.4422C108.914 12.2976 108.782 12.1736 108.651 12.0703C108.582 11.9946 108.493 11.8707 108.375 11.6985C108.258 11.5195 108.209 11.4162 108.216 11.3749C108.216 11.3473 108.14 11.1889 107.968 10.8929C107.85 10.6794 107.775 10.5279 107.747 10.4246C107.719 10.3282 107.712 10.0941 107.712 9.72913C107.712 9.36418 107.83 8.9648 108.058 8.53787C108.189 8.26932 108.279 8.05586 108.32 7.87682C108.375 7.70467 108.437 7.55318 108.513 7.41547C108.596 7.29152 108.686 7.16069 108.782 7.0092C108.927 6.7613 109.148 6.6167 109.438 6.5685C109.556 6.55473 109.673 6.50653 109.79 6.41701C109.908 6.34815 110.018 6.30683 110.135 6.30683C110.232 6.31372 110.453 6.2242 110.798 6.03828C111.123 5.85925 111.35 5.74908 111.475 5.70776L111.489 5.71465ZM111.799 7.51876C111.378 7.51187 111.012 7.56696 110.715 7.69779C110.605 7.7391 110.536 7.78731 110.501 7.82862C110.474 7.86994 110.419 7.97323 110.35 8.14537C110.294 8.27621 110.211 8.38638 110.115 8.49655C109.949 8.64116 109.846 8.75133 109.804 8.82708C109.756 8.90282 109.707 9.05431 109.652 9.28155C109.521 9.81865 109.625 10.342 109.956 10.8584C110.287 11.3749 110.681 11.6365 111.13 11.6434C111.385 11.6434 111.585 11.6641 111.73 11.6985C111.868 11.7192 111.986 11.7123 112.075 11.6847C112.165 11.6572 112.317 11.6641 112.517 11.7123C112.89 11.8018 113.159 11.7123 113.325 11.4575C113.394 11.3336 113.491 11.2303 113.601 11.1407C113.711 11.0512 113.822 10.8378 113.932 10.5004C114.264 9.47435 114.077 8.75822 113.38 8.35195C113.214 8.25555 113.083 8.15226 112.987 8.04897C112.89 7.92502 112.793 7.82862 112.697 7.74599C112.517 7.60139 112.213 7.53253 111.792 7.51876H111.799Z" fill="white"/>
<path d="M121.284 8.49798C121.402 8.58061 121.554 8.6357 121.754 8.66324C121.947 8.69079 122.106 8.74587 122.23 8.83539C122.354 8.92491 122.527 9.02131 122.762 9.13149C122.989 9.24166 123.148 9.34495 123.238 9.43447C123.328 9.52398 123.424 9.60661 123.542 9.69613C123.797 9.88894 124.011 10.2814 124.177 10.8667C124.349 11.452 124.384 11.9272 124.287 12.2852C124.232 12.5262 124.225 12.7122 124.273 12.8292C124.363 13.0633 124.336 13.3663 124.184 13.7175C124.032 14.0687 123.811 14.3648 123.507 14.5989C123.321 14.7504 123.19 14.9019 123.107 15.0465C122.858 15.4528 122.341 15.7144 121.554 15.8315C121.353 15.8521 121.202 15.8797 121.077 15.9279C120.953 15.9899 120.78 15.9967 120.559 15.9623C120.352 15.921 120.014 15.8935 119.531 15.8797C119.179 15.8797 118.951 15.859 118.841 15.8453C118.73 15.8315 118.523 15.7488 118.219 15.6111C118.164 15.5905 118.102 15.5629 118.033 15.5216C117.791 15.4183 117.632 15.4183 117.55 15.5216C117.474 15.618 117.308 16.0036 117.053 16.6716C116.977 16.8919 116.915 17.0641 116.866 17.1949C116.473 18.2966 116.245 18.8751 116.183 18.9233C116.148 18.937 116.059 19.0885 115.914 19.3777C115.748 19.6738 115.589 19.846 115.423 19.8942C115.258 19.9424 115.037 19.8942 114.754 19.7358C114.574 19.6256 114.457 19.5361 114.416 19.4535C114.374 19.3708 114.374 19.2538 114.429 19.0954C114.478 18.9646 114.519 18.7855 114.561 18.5514C114.581 18.3242 114.643 18.1314 114.747 17.9592C114.844 17.8008 114.906 17.6356 114.926 17.4566C114.94 17.2982 115.016 17.0641 115.154 16.7473C115.306 16.4374 115.403 16.1689 115.437 15.9485C115.479 15.7144 115.561 15.4114 115.7 15.0327C115.838 14.654 115.948 14.3923 116.052 14.2339C116.176 14.0549 116.238 13.869 116.252 13.6693C116.279 13.4765 116.328 13.325 116.411 13.2217C116.466 13.1391 116.611 12.7741 116.846 12.1269C117.073 11.4796 117.177 11.1284 117.156 11.0733C117.156 11.032 117.198 10.9425 117.274 10.8048C117.474 10.4536 117.563 10.0335 117.55 9.54464C117.543 9.15903 117.688 8.82162 118.005 8.51864C118.316 8.22255 118.613 8.11926 118.903 8.22254C119.006 8.25697 119.193 8.28452 119.455 8.29829C119.717 8.31206 119.904 8.30518 120 8.28452C120.125 8.25697 120.27 8.2432 120.435 8.2432C120.746 8.2432 121.029 8.32583 121.291 8.50487L121.284 8.49798ZM120.642 10.1575C120.546 10.185 120.359 10.1575 120.083 10.068C119.883 10.0129 119.759 9.98534 119.703 9.98534C119.648 9.98534 119.593 10.0198 119.524 10.0886C119.407 10.1781 119.269 10.426 119.124 10.8323C118.979 11.2386 118.903 11.5553 118.896 11.7688C118.882 11.9272 118.868 12.0236 118.854 12.0649C118.841 12.1062 118.785 12.1682 118.702 12.2508C118.599 12.3334 118.502 12.5056 118.406 12.7741C118.309 13.0427 118.268 13.263 118.274 13.4421C118.281 13.6624 118.413 13.8414 118.654 13.9792C118.896 14.1169 119.22 14.1995 119.621 14.2202C120.159 14.2339 120.518 14.2202 120.704 14.1651C120.891 14.1169 121.298 13.9241 121.933 13.5936C122.071 13.5247 122.196 13.4765 122.299 13.4352C122.368 13.4145 122.43 13.2837 122.506 13.0496C122.658 12.4161 122.686 11.9478 122.582 11.638C122.479 11.3281 122.182 10.9976 121.699 10.6326C121.25 10.2952 120.891 10.1368 120.642 10.1506V10.1575Z" fill="white"/>
<path d="M159.329 46.8172C158.742 46.8172 158.134 46.6795 157.541 46.4178C155.214 45.3711 154.565 43.4362 154.545 41.9213L148.525 40.2411C147.959 41.3085 146.93 42.7201 145.356 43.0506C144.424 43.2503 142.968 43.1194 141.366 41.3842C139.765 39.6489 139.668 38.0927 139.868 37.0874C140.144 35.7171 141.076 34.698 141.918 34.0369C141.2 32.8594 140.724 31.2206 141.428 29.4165C142.498 26.6759 145.336 26.4969 146.978 27.0477C147.02 27.0615 147.068 27.0822 147.11 27.0959C148.635 27.7845 149.65 28.7692 150.12 30.0224C150.347 30.6422 150.409 31.2344 150.389 31.7439L156.457 32.9972C156.974 31.7783 157.941 31.1793 158.624 30.9865C159.094 30.8074 160.758 30.2703 162.407 30.9727C163.187 31.3032 164.251 32.0538 164.872 33.7271C165.328 34.939 165.293 36.1509 164.775 37.2182C164.361 38.0721 163.705 38.7193 163.056 39.1807C163.381 39.6489 163.56 40.1172 163.691 40.5441C164.126 41.9833 163.76 43.1608 163.712 43.2916C163.595 43.5877 162.725 45.7361 160.785 46.5349C160.323 46.7277 159.832 46.8241 159.335 46.8241L159.329 46.8172ZM147.752 37.2182C147.876 37.2182 148 37.232 148.124 37.2664L156.415 39.5801C156.767 39.6765 157.064 39.9106 157.251 40.2274C157.43 40.5441 157.478 40.9228 157.375 41.274C157.299 41.5701 156.995 43.147 158.68 43.8976C159.211 44.1386 159.536 44.0628 159.729 43.9802C160.405 43.7047 160.93 42.7752 161.089 42.3964C161.116 42.2725 161.192 41.8387 161.041 41.3291C160.93 40.9642 160.806 40.551 159.971 40.0277C159.515 39.7454 159.266 39.222 159.329 38.6918C159.391 38.1616 159.757 37.714 160.267 37.5487C160.688 37.4041 161.876 36.8464 162.283 35.9994C162.401 35.7515 162.525 35.3521 162.276 34.6704C162.048 34.0576 161.738 33.672 161.33 33.4929C160.695 33.2106 159.86 33.4379 159.591 33.548C159.473 33.5962 159.48 33.61 159.356 33.6238C159.301 33.6444 158.921 33.8441 158.859 34.6911C158.831 35.0905 158.631 35.4554 158.314 35.6964C157.996 35.9374 157.589 36.0338 157.195 35.9512L148.477 34.1471C148.062 34.0645 147.71 33.789 147.524 33.4172C147.337 33.0454 147.331 32.6115 147.503 32.2328C147.71 31.7439 147.979 30.5251 146.053 29.6299C145.625 29.506 144.445 29.2856 144.003 30.4012C143.382 31.9918 144.859 33.3001 144.873 33.3139C145.225 33.6238 145.398 34.0851 145.336 34.5465C145.266 35.0078 144.977 35.4072 144.549 35.6C144.1 35.8135 142.767 36.6398 142.574 37.6176C142.471 38.1616 142.747 38.7951 143.396 39.5043C143.948 40.1034 144.459 40.4064 144.783 40.3444C145.411 40.2136 146.15 38.981 146.44 38.134C146.64 37.5694 147.172 37.2044 147.745 37.2044L147.752 37.2182Z" fill="#EB9D00"/>
<path d="M10.8295 80.7256C10.153 80.7256 9.35217 80.5672 8.45474 80.0921C7.30879 79.4861 6.52871 78.5634 6.20426 77.4204C5.94193 76.5045 6.00406 75.5887 6.17664 74.8106C5.61747 74.6729 5.17566 74.4456 4.79598 74.2115C3.51196 73.4196 3.00112 72.2972 2.94589 72.1733C2.82853 71.8703 2.05536 69.6875 2.9735 67.8145C3.45674 66.8298 4.31965 66.1137 5.4725 65.7556C7.90938 64.9913 9.68353 66.0104 10.7052 67.1328L16.3245 64.3991C16.0415 63.2285 15.862 61.4864 16.8216 60.1987C17.3876 59.4275 18.5681 58.5667 20.9152 58.8009C23.2693 59.0419 24.3807 60.1367 24.8915 61.0181C25.6026 62.2232 25.5819 63.6072 25.3886 64.6608C26.7071 65.0602 28.1568 65.976 28.8333 67.787C29.8619 70.5413 27.86 72.5589 26.2653 73.2406C26.2239 73.2613 26.1825 73.275 26.1341 73.2888C24.5326 73.7915 23.1243 73.7226 21.9369 73.096C21.357 72.7861 20.9152 72.3799 20.5908 71.9874L15.22 75.0723C15.648 76.3255 15.3166 77.4135 14.9369 78.0126C14.7022 78.4601 13.8186 79.9613 12.1204 80.5259C11.7752 80.643 11.3334 80.7325 10.8157 80.7325L10.8295 80.7256ZM8.14409 72.1044C8.5928 72.1044 9.02081 72.3248 9.27623 72.6966C9.57998 73.1373 9.60759 73.7157 9.33836 74.1771C9.11746 74.5627 8.59971 75.7677 8.86203 76.6698C8.93797 76.9315 9.11055 77.3171 9.75256 77.6545C10.3255 77.9575 10.8157 78.0401 11.2437 77.9024C11.9064 77.6889 12.3758 76.9659 12.507 76.7111C12.5622 76.6009 12.5484 76.5941 12.6312 76.4976C12.6589 76.4426 12.8107 76.0432 12.2861 75.3752C12.0445 75.0585 11.9478 74.6591 12.0238 74.2666C12.0997 73.8741 12.3413 73.5367 12.6865 73.337L20.4044 68.9025C20.7703 68.6959 21.2121 68.6615 21.6056 68.8199C21.9921 68.9714 22.289 69.295 22.4132 69.6875C22.5858 70.1902 23.1933 71.2781 25.2298 70.6722C25.6302 70.4794 26.6657 69.8596 26.2446 68.7372C25.6578 67.1672 23.7249 67.1397 23.642 67.1397C23.1795 67.1397 22.7377 66.9056 22.4892 66.5131C22.2338 66.1275 22.1854 65.6386 22.3718 65.2116C22.5651 64.7572 23.0138 63.2492 22.503 62.3953C22.2199 61.9202 21.5917 61.631 20.6322 61.5346C19.8176 61.4519 19.2377 61.5621 19.0375 61.8238C18.6578 62.3333 18.9271 63.7518 19.2722 64.5712C19.5553 65.2461 19.2584 66.0242 18.6026 66.3409L10.864 70.1075C10.5326 70.2659 10.153 70.2934 9.80779 70.1695C9.46262 70.0524 9.17959 69.7977 9.01391 69.474C8.87584 69.2055 8.05434 67.8214 6.294 68.3723C5.73483 68.5444 5.54844 68.8199 5.45179 69.0058C5.12734 69.6599 5.35515 70.6997 5.48631 71.0922C5.54844 71.2024 5.77625 71.5811 6.23187 71.8565C6.55633 72.0562 6.9291 72.2835 7.89557 72.1182C7.97151 72.1044 8.05435 72.0976 8.13028 72.0976L8.14409 72.1044Z" fill="#EB9D00"/>
<path d="M126.061 183C125.613 183 125.219 182.924 124.888 182.828C123.549 182.414 122.624 181.388 122.051 180.486C120.808 181.085 119.124 181.388 117.398 180.514C114.775 179.178 114.878 176.348 115.589 174.764C115.61 174.723 115.631 174.682 115.651 174.64C116.487 173.194 117.57 172.285 118.875 171.948C119.517 171.783 120.111 171.783 120.622 171.858L122.486 165.964C121.319 165.324 120.822 164.304 120.698 163.609C120.566 163.12 120.201 161.419 121.063 159.856C121.471 159.119 122.327 158.142 124.059 157.687C125.316 157.363 126.517 157.515 127.532 158.135C128.346 158.63 128.919 159.353 129.32 160.035C129.824 159.76 130.3 159.629 130.742 159.546C132.226 159.257 133.358 159.746 133.489 159.801C133.779 159.946 135.83 161.027 136.43 163.031C136.748 164.084 136.589 165.193 135.988 166.233C134.711 168.436 132.716 168.884 131.198 168.753L128.919 174.558C129.927 175.226 131.232 176.396 131.405 177.98C131.508 178.93 131.232 180.362 129.341 181.774C128.084 182.711 126.973 183 126.075 183H126.061ZM122.589 177.112C122.7 177.112 122.817 177.126 122.927 177.154C123.376 177.271 123.742 177.594 123.894 178.035C124.059 178.503 124.757 179.908 125.702 180.197C126.234 180.356 126.897 180.149 127.663 179.571C128.319 179.082 128.671 178.613 128.636 178.283C128.567 177.649 127.408 176.789 126.6 176.417C125.937 176.114 125.627 175.343 125.889 174.661L129.03 166.666C129.161 166.329 129.43 166.053 129.762 165.909C130.1 165.764 130.48 165.757 130.818 165.888C131.101 165.992 132.647 166.46 133.565 164.862C133.862 164.353 133.814 164.022 133.752 163.822C133.538 163.099 132.633 162.493 132.316 162.314C132.198 162.273 131.77 162.149 131.246 162.252C130.873 162.328 130.445 162.411 129.844 163.182C129.513 163.609 128.975 163.802 128.45 163.685C127.925 163.568 127.518 163.161 127.401 162.638C127.304 162.211 126.862 160.965 126.061 160.483C125.827 160.338 125.44 160.173 124.736 160.359C124.101 160.524 123.687 160.793 123.466 161.185C123.128 161.784 123.266 162.638 123.348 162.914C123.383 163.031 123.397 163.031 123.397 163.155C123.417 163.21 123.569 163.609 124.412 163.754C124.805 163.822 125.15 164.057 125.357 164.394C125.564 164.731 125.62 165.145 125.495 165.523L122.817 174C122.693 174.399 122.389 174.723 121.988 174.874C121.602 175.026 121.167 174.985 120.808 174.778C120.339 174.523 119.151 174.131 118.067 175.955C117.902 176.369 117.563 177.519 118.633 178.063C120.131 178.827 121.574 177.539 121.636 177.484C121.892 177.25 122.23 177.126 122.575 177.126L122.589 177.112Z" fill="#EB9D00"/>
</g>
<defs>
<clipPath id="clip0_114_399">
<rect width="183" height="183" fill="white"/>
</clipPath>
</defs>
</svg>
