<svg width="68" height="100" viewBox="0 0 68 100" fill="none" xmlns="http://www.w3.org/2000/svg">
<g style="mix-blend-mode:difference">
<path d="M48.6725 100C47.4584 100 46.4141 99.9928 46.0275 99.9641C44.9832 99.8924 44.6002 98.8663 44.4665 98.2995C44.4665 98.3138 44.4593 98.3246 44.4557 98.3354C44.116 99.261 43.2163 99.8924 42.2226 99.8995L35.3247 99.9641C35.2596 99.9641 34.3237 99.8852 34.2081 98.547C34.1106 97.4169 34.649 96.2366 34.6706 96.1864C34.6742 96.1756 34.6815 96.1649 34.6887 96.1541C34.7212 96.1003 34.7537 96.0501 34.7863 95.9998C34.7068 96.0716 34.62 96.1398 34.5297 96.2008C34.4213 96.2761 34.3454 96.4626 34.3129 96.7317C34.2117 97.6465 33.3843 98.3246 32.4376 98.2815L31.4258 98.2313C30.7429 98.199 30.0816 98.0376 29.4601 97.7578L23.5631 95.0814C22.7248 94.7011 21.8359 94.4787 20.9217 94.4213C16.4989 94.1451 5.90448 93.4527 3.05352 92.9253C1.40943 92.6203 0.41936 92.1073 0.104996 91.4006C-0.100967 90.9342 0.0471817 90.5503 0.119449 90.4104C0.220624 90.0767 0.618097 89.1978 4.54585 88.161C5.94423 87.7915 7.40042 87.6228 8.87107 87.6515L17.3481 87.8237C17.8828 87.8202 18.5441 87.8668 19.2957 87.9708C20.6218 88.1538 21.7383 88.9646 22.2767 90.1377C22.302 90.1951 22.3273 90.249 22.349 90.3028C22.3924 90.4068 22.5622 90.5395 22.9091 90.6472C21.5793 88.8534 18.461 83.8882 18.573 76.8637C18.6886 69.4302 22.7537 60.777 23.9967 58.3015C24.2496 57.7993 24.3761 57.236 24.3653 56.6692C24.3291 54.9041 24.2858 51.643 24.3869 49.6447C24.3978 49.3971 24.4375 48.6473 26.0383 44.8337C26.6453 43.3915 27.2307 42.0892 27.4583 41.5941C27.48 41.5511 27.48 41.5009 27.4692 41.4506C25.9841 35.9939 27.8377 28.0725 28.228 26.5406C28.2424 26.4904 28.2388 26.4366 28.2207 26.3864C27.9678 25.6796 27.1114 23.1611 26.8115 20.4382C26.508 17.6937 27.7763 14.3608 28.1702 13.4029C28.1991 13.3348 28.1918 13.263 28.1521 13.202C26.3743 10.3104 26.8404 0.921717 26.8585 0.523495C26.8657 0.387167 26.9488 0.265191 27.0753 0.211377C30.1033 -1.08733 36.1377 6.02685 37.3192 7.46547C37.3337 7.48341 37.3518 7.49058 37.3771 7.487C38.5622 7.32914 42.6345 7.35425 43.8522 7.36502C43.9209 7.36143 43.9859 7.3399 44.0401 7.29327L51.2958 0.989882C51.444 0.860729 51.603 0.745927 51.7692 0.645474C52.8821 -0.021816 53.6626 -0.172494 54.089 0.197027C54.5551 0.602423 54.8803 1.52802 55.2236 2.50743C55.3031 2.72986 55.3789 2.9487 55.4584 3.16037C55.6933 3.79537 55.6102 5.83671 55.2055 9.23056C55.1188 9.94808 54.9526 10.6584 54.7069 11.3401L54.154 12.872C54.0745 13.0764 54.1106 13.2953 54.2443 13.4531C54.4973 13.7545 54.8369 14.2675 55.0321 14.9815C55.2525 15.7958 55.1802 18.6193 55.079 20.84C55.0321 21.8553 55.1838 22.8562 55.5343 23.8141C56.2281 25.737 57.1098 28.1802 57.3555 28.9013C57.7529 30.0637 58.0348 40.3206 58.0673 41.4865C58.0348 42.6023 59.4729 44.5611 60.7412 46.2867C62.0095 48.0123 63.2055 49.6375 63.2525 50.721C63.3248 52.3461 65.1784 61.4048 65.7457 64.1421C65.8505 64.6515 66.0709 65.1682 66.3998 65.6776C68.6654 69.1755 68.0655 73.825 67.3718 79.21L67.2164 80.4226C66.5768 85.5133 61.1206 93.363 58.808 96.5021C58.201 97.3237 57.2507 97.8008 56.2606 97.7685C56.1378 97.7685 56.0402 97.7542 55.9535 97.7398C55.7728 97.7075 55.4801 97.4994 55.1513 97.2124C55.285 97.4528 55.3717 97.7183 55.4006 97.9981C55.4584 98.565 55.2705 99.121 54.8803 99.5228C54.5876 99.8242 54.3022 99.9318 54.2696 99.9426C54.2335 99.9569 54.1938 99.9641 54.154 99.9641C53.9661 99.9641 51.0031 100 48.6761 100H48.6725ZM45.1205 97.8797C45.1205 97.8797 45.2651 99.1928 46.0781 99.2502C47.1187 99.3219 53.3121 99.2574 54.0673 99.2502C54.1251 99.2215 54.2371 99.1533 54.3564 99.0313C54.6021 98.7766 54.7177 98.4394 54.6816 98.0771C54.6418 97.6932 54.4359 97.3488 54.1179 97.1299C52.7123 96.1685 51.8993 95.3469 51.7041 94.6832C51.3789 93.5818 50.9959 89.7395 51.2741 88.9861C51.3211 88.8606 51.6969 87.6013 52.1739 86.0012C56.8207 70.4275 57.6626 68.1745 57.9986 67.7656C58.1143 67.6005 58.313 67.4534 58.5587 67.4857C58.9526 67.536 59.0899 67.9952 59.1332 68.1423C59.2236 68.4508 58.8153 69.8607 56.3943 77.5561C54.7972 82.6325 52.9869 88.387 52.8929 89.3664C52.8423 89.9081 52.8062 90.5252 52.7918 91.2032C52.7592 92.5701 53.2073 93.919 54.0564 95.0025C54.9164 96.1039 55.9101 96.9613 56.1161 97.0438C56.145 97.0438 56.21 97.051 56.2823 97.0546C57.0339 97.0761 57.7602 96.7102 58.2263 96.0788C60.0077 93.6643 65.865 85.3985 66.5009 80.3365L66.6563 79.1203C67.332 73.8752 67.9138 69.3441 65.7927 66.0651C65.4169 65.4839 65.1604 64.8847 65.0375 64.2856C64.3076 60.7626 62.6021 52.3856 62.5298 50.7532C62.4901 49.8886 61.3049 48.2706 60.1558 46.71C58.7538 44.8014 57.3013 42.8247 57.341 41.4829C57.2218 36.9697 56.9435 29.9309 56.6689 29.1273C56.4232 28.4098 55.5452 25.9702 54.8514 24.0509C54.472 23.0033 54.3058 21.9091 54.3564 20.8005C54.4937 17.7726 54.4864 15.7169 54.3347 15.1608C54.1757 14.5689 53.8938 14.1491 53.6879 13.9016C53.3916 13.5428 53.3085 13.0513 53.4783 12.6136L54.0275 11.0889C54.2552 10.4575 54.4106 9.80098 54.4901 9.13369C54.8586 6.03761 54.967 3.89224 54.7827 3.39715C54.7032 3.18548 54.6237 2.95947 54.5442 2.73345C54.2588 1.92265 53.9372 1.00423 53.6156 0.727987C53.5397 0.659823 53.0628 0.702877 52.145 1.25178C52.0185 1.32712 51.892 1.42039 51.7764 1.52085L44.5207 7.82423C44.3328 7.98567 44.0907 8.07895 43.8486 8.07177C41.359 8.05024 38.378 8.07177 37.4746 8.19016C37.2036 8.22604 36.9362 8.122 36.7628 7.91033C34.3454 4.96134 29.7745 0.261602 27.5739 0.792564C27.5125 2.29935 27.2596 10.3571 28.77 12.8181C28.929 13.0729 28.9543 13.3922 28.8386 13.6684C28.4592 14.5868 27.2451 17.7762 27.5306 20.3521C27.8233 22.9997 28.6543 25.45 28.9037 26.1388C28.9687 26.3218 28.9796 26.5191 28.9326 26.7093C28.5532 28.2125 26.732 35.976 28.1702 41.2605C28.228 41.4686 28.2099 41.691 28.1196 41.8883C27.8955 42.3798 27.3102 43.6749 26.7103 45.11C25.3589 48.328 25.1313 49.3541 25.1132 49.6806C25.0157 51.6573 25.059 54.8969 25.0916 56.6548C25.106 57.3329 24.9506 58.0145 24.6471 58.6208C23.4222 61.0604 19.4149 69.5916 19.2993 76.8744C19.1837 84.1967 22.6778 89.1978 23.751 90.5575C23.8955 90.7404 23.91 90.988 23.7907 91.1889C23.6715 91.3898 23.4438 91.4938 23.2126 91.4544C22.3707 91.3109 21.854 91.0131 21.6805 90.5682C21.6624 90.5288 21.6444 90.4821 21.6227 90.4391C21.1855 89.4884 20.2785 88.8354 19.1981 88.6848C18.4827 88.5879 17.8612 88.5377 17.3481 88.5448L8.85661 88.3726C7.45101 88.3439 6.06347 88.509 4.73013 88.857C2.00564 89.5745 0.914394 90.2525 0.802379 90.6472C0.791539 90.6795 0.780698 90.7117 0.762631 90.7369C0.755405 90.7476 0.672296 90.9126 0.773471 91.1243C0.89994 91.3898 1.38052 91.8849 3.18721 92.2221C6.08153 92.7567 17.5287 93.4957 20.9687 93.7074C21.9732 93.7684 22.9488 94.0123 23.8666 94.4285L29.7637 97.1048C30.302 97.3488 30.873 97.4887 31.4619 97.5138L32.4737 97.564C33.0446 97.5963 33.536 97.1909 33.5975 96.6528C33.6517 96.1577 33.8287 95.8061 34.1214 95.6088C34.6092 95.2751 34.8874 94.7227 34.8658 94.1307L34.761 91.4867C34.7176 90.3494 34.508 89.2229 34.1431 88.1359C32.3942 82.941 28.2352 68.8741 26.9633 62.395C26.8007 61.5662 26.6959 60.7052 26.6525 59.8298C26.4827 56.5113 28.0473 52.8843 28.6399 51.9371C28.723 51.8044 28.8784 51.7398 29.0301 51.7757C29.1819 51.8116 29.2939 51.9407 29.3048 52.095C29.3264 52.3497 31.4692 77.6529 36.1449 87.7197C36.546 88.5807 36.5351 89.5207 36.5279 90.4319C36.5279 90.5539 36.5279 90.6759 36.5279 90.7978L37.0085 93.7217C37.0085 93.7397 37.0121 93.7612 37.0121 93.7791C37.0121 94.6043 36.4954 95.1532 35.9967 95.6805C35.7546 95.9389 35.5017 96.2043 35.3247 96.4949C35.2632 96.6313 34.8549 97.6071 34.9308 98.4789C34.9886 99.1246 35.2777 99.2251 35.3463 99.243L42.2154 99.1784C42.9019 99.1713 43.5198 98.7443 43.7655 98.1093C43.798 97.9407 43.9643 96.9505 43.7655 96.1039C43.5307 95.1065 41.1061 83.5366 41.1278 81.4307C40.976 80.4226 39.8884 72.7989 41.1025 71.102C41.1892 70.98 41.3446 70.9226 41.4891 70.9621C41.6336 70.998 41.742 71.1235 41.7565 71.2706C42.2985 76.2861 43.1838 83.3823 43.8631 86.8192C44.098 82.88 44.6689 74.6896 45.5036 72.2249C45.5578 72.0635 45.7204 71.9595 45.8902 71.9846C46.06 72.0061 46.1937 72.1424 46.2046 72.3146C46.2407 72.7989 47.0971 84.2433 45.8866 87.9565C45.6083 89.0256 44.8676 92.0105 44.8676 92.7244C44.8676 93.6177 45.1169 97.8367 45.1205 97.8797ZM58.3672 68.5764C57.4747 70.7433 54.1648 81.8325 52.8604 86.2021C52.2787 88.1466 52.0004 89.0866 51.9498 89.2265C51.7764 89.7001 52.0438 93.284 52.3943 94.4751C52.528 94.9236 53.2073 95.6016 54.2732 96.3622C53.9769 96.0465 53.6951 95.72 53.4783 95.4438C52.528 94.2276 52.0257 92.7172 52.0655 91.1853C52.0835 90.4893 52.1197 89.8579 52.1703 89.2982C52.2714 88.2471 54.0131 82.7043 55.7005 77.3408C56.8279 73.7604 58.0854 69.7531 58.3672 68.5728V68.5764ZM28.6977 53.4224C28.0545 54.9148 27.2524 57.4333 27.3716 59.794C27.415 60.6334 27.5161 61.4622 27.6715 62.2586C28.8928 68.4687 33.0446 82.611 34.8296 87.9098C35.2163 89.0579 35.4367 90.2525 35.4836 91.458L35.5884 94.102C35.6065 94.5684 35.4945 95.0168 35.2705 95.4043C35.3355 95.3326 35.4005 95.2644 35.4656 95.1926C35.8992 94.7334 36.2714 94.3352 36.2858 93.8078L35.8052 90.884C35.8052 90.866 35.8016 90.8445 35.8016 90.8265C35.8016 90.6938 35.8016 90.5611 35.8016 90.4247C35.8088 89.596 35.8197 88.735 35.4873 88.0211C31.3644 79.1526 29.2 58.7069 28.6977 53.4188V53.4224ZM41.2723 73.5021C41.1603 75.6762 41.4891 79.0198 41.8396 81.3589C41.8396 81.3804 41.8432 81.3984 41.8432 81.4199C41.8035 83.0487 43.5596 91.7055 44.228 94.859C44.1811 93.9406 44.1449 93.0867 44.1449 92.7244C44.1449 91.788 45.088 88.1682 45.1928 87.7556C46.013 85.2371 45.8288 78.7579 45.6445 75.0591C44.9074 80.0136 44.4665 88.8857 44.4629 88.9933C44.4557 89.1476 44.3509 89.2767 44.2027 89.3198C44.0546 89.3628 43.8956 89.3054 43.8053 89.1798C43.0175 88.0533 41.7998 78.0942 41.2723 73.4985V73.5021Z" fill="white"/>
</g>
</svg>
