<?xml version="1.0" encoding="UTF-8"?>
<svg id="Layer_1" data-name="Layer 1" xmlns="http://www.w3.org/2000/svg" viewBox="0 0 252.76 252.75">
  <defs>
    <style>
      .cls-1 {
        font-family: 'Ownglyph_PDH-Rg', 'Ownglyph PDH';
      }

      .cls-1, .cls-2 {
        font-size: 30px;
      }

      .cls-2 {
        font-family: AdobeMyungjoStd-Medium-KSCpc-EUC-H, 'Adobe Myungjo Std';
        font-weight: 500;
      }
    </style>
  </defs>
  <text class="cls-1" transform="translate(58.25 52.71) rotate(-38.03)"><tspan x="0" y="0">동</tspan></text>
  <text class="cls-1" transform="translate(70.85 42.82) rotate(-29.1)"><tspan x="0" y="0">물</tspan></text>
  <text class="cls-1" transform="translate(84.09 35.29) rotate(-19.8)"><tspan x="0" y="0">보</tspan></text>
  <text class="cls-1" transform="translate(100.2 29.44) rotate(-10.01)"><tspan x="0" y="0">호</tspan></text>
  <text class="cls-1" transform="translate(116.69 26.2) rotate(.93)"><tspan x="0" y="0">센</tspan></text>
  <text class="cls-1" transform="translate(138.44 26.56) rotate(12.72)"><tspan x="0" y="0">터</tspan></text>
  <text class="cls-1" transform="translate(157.83 31.31) rotate(20.88)"><tspan x="0" y="0"> </tspan></text>
  <text class="cls-1" transform="translate(165.87 34.36) rotate(25.84)"><tspan x="0" y="0"> </tspan></text>
  <text class="cls-1" transform="translate(173.6 38.08) rotate(30.76)"><tspan x="0" y="0"> </tspan></text>
  <text class="cls-1" transform="translate(180.99 42.46) rotate(35.68)"><tspan x="0" y="0"> </tspan></text>
  <text class="cls-1" transform="translate(187.99 47.47) rotate(40.58)"><tspan x="0" y="0"> </tspan></text>
  <text class="cls-1" transform="translate(194.53 53.04) rotate(45.47)"><tspan x="0" y="0"> </tspan></text>
  <text class="cls-1" transform="translate(200.64 58.87) rotate(52.46)"><tspan x="0" y="0">동</tspan></text>
  <text class="cls-1" transform="translate(210.41 71.53) rotate(61.38)"><tspan x="0" y="0">물</tspan></text>
  <text class="cls-1" transform="translate(217.84 84.87) rotate(70.71)"><tspan x="0" y="0">보</tspan></text>
  <text class="cls-1" transform="translate(223.55 101.02) rotate(80.48)"><tspan x="0" y="0">호</tspan></text>
  <text class="cls-1" transform="translate(226.64 117.55) rotate(91.41)"><tspan x="0" y="0">센</tspan></text>
  <text class="cls-1" transform="translate(226.11 139.27) rotate(103.21)"><tspan x="0" y="0">터</tspan></text>
  <text class="cls-1" transform="translate(221.19 158.6) rotate(111.37)"><tspan x="0" y="0"> </tspan></text>
  <text class="cls-1" transform="translate(218.08 166.61) rotate(116.32)"><tspan x="0" y="0"> </tspan></text>
  <text class="cls-1" transform="translate(214.29 174.32) rotate(121.24)"><tspan x="0" y="0"> </tspan></text>
  <text class="cls-1" transform="translate(209.84 181.68) rotate(126.16)"><tspan x="0" y="0"> </tspan></text>
  <text class="cls-1" transform="translate(204.78 188.64) rotate(131.06)"><tspan x="0" y="0"> </tspan></text>
  <text class="cls-1" transform="translate(199.15 195.13) rotate(135.95)"><tspan x="0" y="0"> </tspan></text>
  <text class="cls-1" transform="translate(193.25 201.2) rotate(142.95)"><tspan x="0" y="0">동</tspan></text>
  <text class="cls-1" transform="translate(180.51 210.86) rotate(151.88)"><tspan x="0" y="0">물</tspan></text>
  <text class="cls-1" transform="translate(167.12 218.17) rotate(161.19)"><tspan x="0" y="0">보</tspan></text>
  <text class="cls-1" transform="translate(150.92 223.75) rotate(170.97)"><tspan x="0" y="0">호</tspan></text>
  <text class="cls-1" transform="translate(134.37 226.69) rotate(-178.12)"><tspan x="0" y="0">센</tspan></text>
  <text class="cls-1" transform="translate(112.65 225.98) rotate(-166.3)"><tspan x="0" y="0">터</tspan></text>
  <text class="cls-2" transform="translate(93.36 220.92) rotate(-157.86)"><tspan x="0" y="0"> </tspan></text>
  <text class="cls-2" transform="translate(84.52 217.35) rotate(-152.38)"><tspan x="0" y="0"> </tspan></text>
  <text class="cls-2" transform="translate(76.05 212.94) rotate(-146.91)"><tspan x="0" y="0"> </tspan></text>
  <text class="cls-1" transform="translate(68.04 207.72) rotate(-141.73)"><tspan x="0" y="0"> </tspan></text>
  <text class="cls-1" transform="translate(61.28 202.41) rotate(-136.84)"><tspan x="0" y="0"> </tspan></text>
  <text class="cls-1" transform="translate(54.94 196.83) rotate(-129.85)"><tspan x="0" y="0">동</tspan></text>
  <text class="cls-1" transform="translate(44.67 184.57) rotate(-120.94)"><tspan x="0" y="0">물</tspan></text>
  <text class="cls-1" transform="translate(36.7 171.54) rotate(-111.63)"><tspan x="0" y="0">보</tspan></text>
  <text class="cls-1" transform="translate(30.34 155.66) rotate(-101.86)"><tspan x="0" y="0">호</tspan></text>
  <text class="cls-1" transform="translate(26.59 139.23) rotate(-90.93)"><tspan x="0" y="0">센</tspan></text>
  <text class="cls-1" transform="translate(26.25 117.52) rotate(-79.12)"><tspan x="0" y="0">터</tspan></text>
  <circle cx="32.99" cy="70.16" r="6.6"/>
  <circle cx="185.67" cy="37.99" r="6.6"/>
  <circle cx="219.8" cy="190.63" r="6.6"/>
  <circle cx="66.61" cy="219.78" r="6.6"/>
</svg>